<svg width="1440" height="1024" viewBox="0 0 1440 1024" fill="none" xmlns="http://www.w3.org/2000/svg">
<g clip-path="url(#clip0)">
<rect width="1440" height="1024" fill="white"/>
<rect width="1440" height="1024" fill="#FCFCFC"/>
<path d="M81 -67H14V0V879C14 967.366 85.6344 1039 174 1039H1266C1354.37 1039 1426 967.366 1426 879V0V-67H1359H81Z" fill="#FCFBEF" stroke="#FFD600" stroke-width="134"/>
<rect x="141.5" y="60.5" width="332" height="610" rx="58.5" fill="white" stroke="#E6E6E6" stroke-width="7"/>
<path d="M341.996 598.869H358.183L365.883 536.435H341.993L341.996 598.869Z" fill="#FBD7D7"/>
<path d="M374.513 594.243H338.528V613.898H389.4V609.13C389.4 605.182 387.831 601.395 385.04 598.603C382.248 595.812 378.461 594.243 374.513 594.243Z" fill="#2F2E41"/>
<path d="M277.302 598.869H293.488L301.188 536.435H277.298L277.302 598.869Z" fill="#FBD7D7"/>
<rect width="24" height="28" transform="matrix(-1 0 0 1 321.22 183)" fill="#FBD7D7"/>
<path d="M309.818 594.243H273.833V613.898H324.705V609.13C324.705 605.182 323.137 601.395 320.345 598.603C317.553 595.812 313.766 594.243 309.818 594.243Z" fill="#2F2E41"/>
<path d="M370.197 418.886C368.877 417.648 367.844 416.135 367.172 414.455C366.499 412.775 366.204 410.967 366.305 409.16C366.407 407.353 366.904 405.59 367.761 403.996C368.617 402.401 369.813 401.014 371.264 399.932L364.329 372.504L379.969 364.225L389.218 403.096C390.876 405.654 391.538 408.731 391.078 411.744C390.618 414.757 389.068 417.497 386.723 419.443C384.378 421.39 381.4 422.409 378.354 422.306C375.307 422.203 372.405 420.986 370.196 418.886H370.197Z" fill="#FBD7D7"/>
<path d="M271.545 370.979L272.865 463.4L274.183 584.867L303.229 582.226L317.755 414.549L336.239 582.226H366.227L369.247 413.226L358.683 376.26L271.545 370.979Z" fill="#2F2E41"/>
<path d="M361.583 376.824L362.008 376.632L345.454 263.405L353.87 229.182C354.307 227.401 354.077 225.522 353.221 223.9C352.366 222.278 350.945 221.026 349.228 220.382L334.086 214.704L328.737 199.993L286.531 204.541L285.493 216.041C280.919 217.508 243.256 230.051 245.855 244.341C248.42 258.448 263.564 302.83 264.333 305.079L266.983 368.729L267.309 368.892C267.702 369.092 296.793 383.392 328.398 383.392C339.525 383.389 350.973 381.614 361.583 376.824Z" fill="#FFD600"/>
<path d="M389.766 388.709L376.46 303.547C376.381 303.047 368.508 253.192 365.897 237.527C363.197 221.354 350.681 221.167 350.555 221.167H343.665L335.606 257.432L351.483 330.196L366.13 390.496L389.766 388.709Z" fill="#FFD600"/>
<path d="M303.454 380.304C303.368 378.496 302.887 376.729 302.045 375.127C301.202 373.525 300.019 372.128 298.578 371.032C297.137 369.937 295.473 369.172 293.704 368.789C291.935 368.406 290.104 368.416 288.339 368.818L271.967 345.745L255.519 352.274L279.097 384.532C279.968 387.453 281.88 389.953 284.471 391.558C287.062 393.163 290.152 393.761 293.155 393.24C296.158 392.718 298.865 391.113 300.763 388.728C302.662 386.344 303.619 383.345 303.454 380.302V380.304Z" fill="#FBD7D7"/>
<path d="M285.494 360.462L256.383 311.505L268.243 279.88L252.091 236.806L251.491 237.062C251.1 237.229 241.923 241.325 240.562 255.992L222 314.329L271.539 378.596L285.494 360.462Z" fill="#FFD600"/>
<path d="M309.286 192.717C292.502 192.717 278.897 179.112 278.897 162.328C278.897 145.545 292.502 131.939 309.286 131.939C326.069 131.939 339.675 145.545 339.675 162.328C339.675 179.112 326.069 192.717 309.286 192.717Z" fill="#FBD7D7"/>
<path d="M289.476 147.523C292.622 151.246 297.945 152.296 302.856 152.723C312.83 153.598 327.332 152.179 337.079 149.929C337.779 156.671 335.879 163.941 339.849 169.488C341.711 162.773 342.793 155.866 343.075 148.904C343.195 145.918 343.148 142.829 341.935 140.088C340.722 137.347 338.075 135.02 335.028 134.996C337.292 133.279 339.945 132.146 342.75 131.696L333.101 126.847L335.579 124.303L318.11 123.234L323.17 120.02C315.552 118.974 307.845 118.732 300.176 119.297C296.616 119.559 292.894 120.06 290.01 122.123C287.126 124.186 285.459 128.285 287.25 131.313C285.009 131.681 282.898 132.616 281.118 134.028C279.339 135.44 277.949 137.283 277.081 139.382C275.795 142.642 275.913 146.263 276.309 149.737C276.967 155.293 278.258 160.755 280.157 166.018" fill="#2F2E41"/>
<path d="M297.317 176.649C301.387 182.126 312.301 189.907 323.402 177.213" stroke="#950404" stroke-width="2"/>
<circle cx="320.388" cy="161.516" r="1.89253" fill="#BF5C00"/>
<rect width="9.87873" height="1.28566" transform="matrix(0.907361 0.420353 -0.550483 0.834846 318.257 153)" fill="#663202"/>
<line x1="317.549" y1="159.57" x2="323.227" y2="159.57" stroke="#BF5C00" stroke-width="2"/>
<circle r="1.89253" transform="matrix(-1 0 0 1 298.833 161.516)" fill="#BF5C00"/>
<rect width="9.87873" height="1.28566" transform="matrix(-0.907361 0.420353 0.550483 0.834846 300.963 153)" fill="#663202"/>
<line y1="-1" x2="5.67758" y2="-1" transform="matrix(-1 0 0 1 301.671 160.57)" stroke="#BF5C00" stroke-width="2"/>
<g filter="url(#filter0_d)">
<rect x="183" y="709" width="256" height="71" rx="35.5" fill="white"/>
<rect x="186" y="712" width="250" height="65" rx="32.5" stroke="#EB73FF" stroke-width="6"/>
</g>
<g filter="url(#filter1_d)">
<path d="M280.959 753.16C280.119 753.16 279.339 752.987 278.619 752.64C277.899 752.28 277.319 751.78 276.879 751.14L278.039 749.78C278.812 750.887 279.785 751.44 280.959 751.44C281.745 751.44 282.339 751.2 282.739 750.72C283.152 750.24 283.359 749.533 283.359 748.6V740.74H278.299V739H285.339V748.5C285.339 750.047 284.965 751.213 284.219 752C283.485 752.773 282.399 753.16 280.959 753.16ZM299.013 742.4V753H297.193V751.4C296.806 751.947 296.293 752.373 295.653 752.68C295.026 752.973 294.339 753.12 293.593 753.12C292.179 753.12 291.066 752.733 290.252 751.96C289.439 751.173 289.033 750.02 289.033 748.5V742.4H290.953V748.28C290.953 749.307 291.199 750.087 291.693 750.62C292.186 751.14 292.893 751.4 293.813 751.4C294.826 751.4 295.626 751.093 296.213 750.48C296.799 749.867 297.093 749 297.093 747.88V742.4H299.013ZM305.708 753.12C304.841 753.12 304.008 753.007 303.208 752.78C302.408 752.54 301.781 752.24 301.328 751.88L302.128 750.36C302.594 750.693 303.161 750.96 303.828 751.16C304.494 751.36 305.168 751.46 305.848 751.46C307.528 751.46 308.368 750.98 308.368 750.02C308.368 749.7 308.254 749.447 308.028 749.26C307.801 749.073 307.514 748.94 307.168 748.86C306.834 748.767 306.354 748.667 305.728 748.56C304.874 748.427 304.174 748.273 303.628 748.1C303.094 747.927 302.634 747.633 302.248 747.22C301.861 746.807 301.668 746.227 301.668 745.48C301.668 744.52 302.068 743.753 302.868 743.18C303.668 742.593 304.741 742.3 306.088 742.3C306.794 742.3 307.501 742.387 308.208 742.56C308.914 742.733 309.494 742.967 309.948 743.26L309.128 744.78C308.261 744.22 307.241 743.94 306.068 743.94C305.254 743.94 304.634 744.073 304.208 744.34C303.781 744.607 303.568 744.96 303.568 745.4C303.568 745.747 303.688 746.02 303.928 746.22C304.168 746.42 304.461 746.567 304.808 746.66C305.168 746.753 305.668 746.86 306.308 746.98C307.161 747.127 307.848 747.287 308.368 747.46C308.901 747.62 309.354 747.9 309.728 748.3C310.101 748.7 310.288 749.26 310.288 749.98C310.288 750.94 309.874 751.707 309.048 752.28C308.234 752.84 307.121 753.12 305.708 753.12ZM318.647 752.38C318.367 752.62 318.021 752.807 317.607 752.94C317.194 753.06 316.767 753.12 316.327 753.12C315.261 753.12 314.434 752.833 313.847 752.26C313.261 751.687 312.967 750.867 312.967 749.8V743.98H311.167V742.4H312.967V740.08H314.887V742.4H317.927V743.98H314.887V749.72C314.887 750.293 315.027 750.733 315.307 751.04C315.601 751.347 316.014 751.5 316.547 751.5C317.134 751.5 317.634 751.333 318.047 751L318.647 752.38ZM320.968 742.4H322.888V753H320.968V742.4ZM321.928 740.36C321.555 740.36 321.242 740.24 320.988 740C320.748 739.76 320.628 739.467 320.628 739.12C320.628 738.773 320.748 738.48 320.988 738.24C321.242 737.987 321.555 737.86 321.928 737.86C322.302 737.86 322.608 737.98 322.848 738.22C323.102 738.447 323.228 738.733 323.228 739.08C323.228 739.44 323.102 739.747 322.848 740C322.608 740.24 322.302 740.36 321.928 740.36ZM332.214 742.3C333.561 742.3 334.628 742.693 335.414 743.48C336.214 744.253 336.614 745.393 336.614 746.9V753H334.694V747.12C334.694 746.093 334.448 745.32 333.954 744.8C333.461 744.28 332.754 744.02 331.834 744.02C330.794 744.02 329.974 744.327 329.374 744.94C328.774 745.54 328.474 746.407 328.474 747.54V753H326.554V742.4H328.394V744C328.781 743.453 329.301 743.033 329.954 742.74C330.621 742.447 331.374 742.3 332.214 742.3Z" fill="black"/>
</g>
<g filter="url(#filter2_d)">
<rect x="1002" y="857" width="256" height="71" rx="35.5" fill="#EB73FF"/>
<rect x="1002.5" y="857.5" width="255" height="70" rx="35" stroke="white"/>
</g>
<g filter="url(#filter3_d)">
<path d="M1099.36 901.16C1097.96 901.16 1096.69 900.853 1095.56 900.24C1094.44 899.613 1093.56 898.76 1092.92 897.68C1092.28 896.587 1091.96 895.36 1091.96 894C1091.96 892.64 1092.28 891.42 1092.92 890.34C1093.56 889.247 1094.45 888.393 1095.58 887.78C1096.71 887.153 1097.98 886.84 1099.38 886.84C1100.47 886.84 1101.47 887.027 1102.38 887.4C1103.29 887.76 1104.06 888.3 1104.7 889.02L1103.4 890.28C1102.35 889.173 1101.03 888.62 1099.46 888.62C1098.42 888.62 1097.48 888.853 1096.64 889.32C1095.8 889.787 1095.14 890.433 1094.66 891.26C1094.19 892.073 1093.96 892.987 1093.96 894C1093.96 895.013 1094.19 895.933 1094.66 896.76C1095.14 897.573 1095.8 898.213 1096.64 898.68C1097.48 899.147 1098.42 899.38 1099.46 899.38C1101.02 899.38 1102.33 898.82 1103.4 897.7L1104.7 898.96C1104.06 899.68 1103.28 900.227 1102.36 900.6C1101.45 900.973 1100.45 901.16 1099.36 901.16ZM1109.11 892.18C1109.45 891.567 1109.94 891.1 1110.59 890.78C1111.25 890.46 1112.04 890.3 1112.97 890.3V892.16C1112.87 892.147 1112.72 892.14 1112.53 892.14C1111.49 892.14 1110.67 892.453 1110.07 893.08C1109.49 893.693 1109.19 894.573 1109.19 895.72V901H1107.27V890.4H1109.11V892.18ZM1124.82 895.76C1124.82 895.907 1124.81 896.1 1124.78 896.34H1116.18C1116.3 897.273 1116.71 898.027 1117.4 898.6C1118.11 899.16 1118.98 899.44 1120.02 899.44C1121.29 899.44 1122.31 899.013 1123.08 898.16L1124.14 899.4C1123.66 899.96 1123.06 900.387 1122.34 900.68C1121.64 900.973 1120.84 901.12 1119.96 901.12C1118.84 901.12 1117.85 900.893 1116.98 900.44C1116.12 899.973 1115.44 899.327 1114.96 898.5C1114.5 897.673 1114.26 896.74 1114.26 895.7C1114.26 894.673 1114.49 893.747 1114.94 892.92C1115.41 892.093 1116.04 891.453 1116.84 891C1117.66 890.533 1118.57 890.3 1119.58 890.3C1120.6 890.3 1121.5 890.533 1122.28 891C1123.08 891.453 1123.7 892.093 1124.14 892.92C1124.6 893.747 1124.82 894.693 1124.82 895.76ZM1119.58 891.92C1118.66 891.92 1117.89 892.2 1117.26 892.76C1116.65 893.32 1116.29 894.053 1116.18 894.96H1122.98C1122.88 894.067 1122.51 893.34 1121.88 892.78C1121.27 892.207 1120.5 891.92 1119.58 891.92ZM1131.06 890.3C1132.52 890.3 1133.64 890.66 1134.42 891.38C1135.2 892.1 1135.6 893.173 1135.6 894.6V901H1133.78V899.6C1133.46 900.093 1133 900.473 1132.4 900.74C1131.81 900.993 1131.11 901.12 1130.3 901.12C1129.11 901.12 1128.16 900.833 1127.44 900.26C1126.73 899.687 1126.38 898.933 1126.38 898C1126.38 897.067 1126.72 896.32 1127.4 895.76C1128.08 895.187 1129.16 894.9 1130.64 894.9H1133.68V894.52C1133.68 893.693 1133.44 893.06 1132.96 892.62C1132.48 892.18 1131.77 891.96 1130.84 891.96C1130.21 891.96 1129.6 892.067 1129 892.28C1128.4 892.48 1127.89 892.753 1127.48 893.1L1126.68 891.66C1127.22 891.22 1127.88 890.887 1128.64 890.66C1129.4 890.42 1130.2 890.3 1131.06 890.3ZM1130.62 899.64C1131.35 899.64 1131.98 899.48 1132.52 899.16C1133.05 898.827 1133.44 898.36 1133.68 897.76V896.28H1130.72C1129.09 896.28 1128.28 896.827 1128.28 897.92C1128.28 898.453 1128.48 898.873 1128.9 899.18C1129.31 899.487 1129.88 899.64 1130.62 899.64ZM1145.11 900.38C1144.83 900.62 1144.48 900.807 1144.07 900.94C1143.65 901.06 1143.23 901.12 1142.79 901.12C1141.72 901.12 1140.89 900.833 1140.31 900.26C1139.72 899.687 1139.43 898.867 1139.43 897.8V891.98H1137.63V890.4H1139.43V888.08H1141.35V890.4H1144.39V891.98H1141.35V897.72C1141.35 898.293 1141.49 898.733 1141.77 899.04C1142.06 899.347 1142.47 899.5 1143.01 899.5C1143.59 899.5 1144.09 899.333 1144.51 899L1145.11 900.38ZM1156.66 895.76C1156.66 895.907 1156.64 896.1 1156.62 896.34H1148.02C1148.14 897.273 1148.54 898.027 1149.24 898.6C1149.94 899.16 1150.82 899.44 1151.86 899.44C1153.12 899.44 1154.14 899.013 1154.92 898.16L1155.98 899.4C1155.5 899.96 1154.9 900.387 1154.18 900.68C1153.47 900.973 1152.68 901.12 1151.8 901.12C1150.68 901.12 1149.68 900.893 1148.82 900.44C1147.95 899.973 1147.28 899.327 1146.8 898.5C1146.33 897.673 1146.1 896.74 1146.1 895.7C1146.1 894.673 1146.32 893.747 1146.78 892.92C1147.24 892.093 1147.88 891.453 1148.68 891C1149.49 890.533 1150.4 890.3 1151.42 890.3C1152.43 890.3 1153.33 890.533 1154.12 891C1154.92 891.453 1155.54 892.093 1155.98 892.92C1156.43 893.747 1156.66 894.693 1156.66 895.76ZM1151.42 891.92C1150.5 891.92 1149.72 892.2 1149.1 892.76C1148.48 893.32 1148.12 894.053 1148.02 894.96H1154.82C1154.71 894.067 1154.34 893.34 1153.72 892.78C1153.1 892.207 1152.34 891.92 1151.42 891.92Z" fill="black"/>
</g>
<path d="M576.524 32.09C575.288 32.09 574.172 31.814 573.176 31.262C572.192 30.71 571.412 29.948 570.836 28.976C570.272 28.004 569.99 26.912 569.99 25.7C569.99 24.488 570.272 23.396 570.836 22.424C571.412 21.452 572.192 20.69 573.176 20.138C574.172 19.586 575.288 19.31 576.524 19.31C577.436 19.31 578.276 19.46 579.044 19.76C579.812 20.048 580.466 20.48 581.006 21.056L580.43 21.65C579.422 20.654 578.132 20.156 576.56 20.156C575.504 20.156 574.544 20.396 573.68 20.876C572.816 21.356 572.138 22.022 571.646 22.874C571.154 23.714 570.908 24.656 570.908 25.7C570.908 26.744 571.154 27.692 571.646 28.544C572.138 29.384 572.816 30.044 573.68 30.524C574.544 31.004 575.504 31.244 576.56 31.244C578.12 31.244 579.41 30.74 580.43 29.732L581.006 30.326C580.466 30.902 579.806 31.34 579.026 31.64C578.258 31.94 577.424 32.09 576.524 32.09ZM588.383 22.532C589.559 22.532 590.489 22.874 591.173 23.558C591.857 24.242 592.199 25.226 592.199 26.51V32H591.299V26.582C591.299 25.526 591.029 24.722 590.489 24.17C589.961 23.618 589.217 23.342 588.257 23.342C587.153 23.342 586.283 23.672 585.647 24.332C585.011 24.992 584.693 25.88 584.693 26.996V32H583.793V18.644H584.693V24.566C585.017 23.918 585.497 23.42 586.133 23.072C586.769 22.712 587.519 22.532 588.383 22.532ZM599.594 32.072C598.706 32.072 597.902 31.868 597.182 31.46C596.474 31.052 595.916 30.488 595.508 29.768C595.1 29.036 594.896 28.214 594.896 27.302C594.896 26.39 595.1 25.574 595.508 24.854C595.916 24.122 596.474 23.552 597.182 23.144C597.902 22.736 598.706 22.532 599.594 22.532C600.482 22.532 601.28 22.736 601.988 23.144C602.708 23.552 603.272 24.122 603.68 24.854C604.088 25.574 604.292 26.39 604.292 27.302C604.292 28.214 604.088 29.036 603.68 29.768C603.272 30.488 602.708 31.052 601.988 31.46C601.28 31.868 600.482 32.072 599.594 32.072ZM599.594 31.262C600.314 31.262 600.956 31.094 601.52 30.758C602.096 30.422 602.546 29.954 602.87 29.354C603.206 28.754 603.374 28.07 603.374 27.302C603.374 26.534 603.206 25.85 602.87 25.25C602.546 24.65 602.096 24.182 601.52 23.846C600.956 23.51 600.314 23.342 599.594 23.342C598.874 23.342 598.226 23.51 597.65 23.846C597.086 24.182 596.636 24.65 596.3 25.25C595.976 25.85 595.814 26.534 595.814 27.302C595.814 28.07 595.976 28.754 596.3 29.354C596.636 29.954 597.086 30.422 597.65 30.758C598.226 31.094 598.874 31.262 599.594 31.262ZM610.756 32.072C609.868 32.072 609.064 31.868 608.344 31.46C607.636 31.052 607.078 30.488 606.67 29.768C606.262 29.036 606.058 28.214 606.058 27.302C606.058 26.39 606.262 25.574 606.67 24.854C607.078 24.122 607.636 23.552 608.344 23.144C609.064 22.736 609.868 22.532 610.756 22.532C611.644 22.532 612.442 22.736 613.15 23.144C613.87 23.552 614.434 24.122 614.842 24.854C615.25 25.574 615.454 26.39 615.454 27.302C615.454 28.214 615.25 29.036 614.842 29.768C614.434 30.488 613.87 31.052 613.15 31.46C612.442 31.868 611.644 32.072 610.756 32.072ZM610.756 31.262C611.476 31.262 612.118 31.094 612.682 30.758C613.258 30.422 613.708 29.954 614.032 29.354C614.368 28.754 614.536 28.07 614.536 27.302C614.536 26.534 614.368 25.85 614.032 25.25C613.708 24.65 613.258 24.182 612.682 23.846C612.118 23.51 611.476 23.342 610.756 23.342C610.036 23.342 609.388 23.51 608.812 23.846C608.248 24.182 607.798 24.65 607.462 25.25C607.138 25.85 606.976 26.534 606.976 27.302C606.976 28.07 607.138 28.754 607.462 29.354C607.798 29.954 608.248 30.422 608.812 30.758C609.388 31.094 610.036 31.262 610.756 31.262ZM620.622 32.072C619.866 32.072 619.146 31.958 618.462 31.73C617.778 31.502 617.244 31.214 616.86 30.866L617.274 30.146C617.658 30.47 618.15 30.74 618.75 30.956C619.362 31.172 619.998 31.28 620.658 31.28C621.606 31.28 622.302 31.124 622.746 30.812C623.202 30.5 623.43 30.068 623.43 29.516C623.43 29.12 623.304 28.808 623.052 28.58C622.812 28.352 622.512 28.184 622.152 28.076C621.792 27.968 621.294 27.854 620.658 27.734C619.914 27.602 619.314 27.458 618.858 27.302C618.402 27.146 618.012 26.894 617.688 26.546C617.364 26.198 617.202 25.718 617.202 25.106C617.202 24.362 617.508 23.75 618.12 23.27C618.744 22.778 619.626 22.532 620.766 22.532C621.366 22.532 621.96 22.616 622.548 22.784C623.136 22.952 623.616 23.174 623.988 23.45L623.574 24.17C623.19 23.894 622.752 23.684 622.26 23.54C621.768 23.396 621.264 23.324 620.748 23.324C619.872 23.324 619.212 23.486 618.768 23.81C618.324 24.134 618.102 24.56 618.102 25.088C618.102 25.508 618.228 25.838 618.48 26.078C618.732 26.306 619.038 26.48 619.398 26.6C619.77 26.708 620.286 26.828 620.946 26.96C621.678 27.092 622.266 27.236 622.71 27.392C623.166 27.536 623.55 27.776 623.862 28.112C624.174 28.448 624.33 28.91 624.33 29.498C624.33 30.278 624.006 30.902 623.358 31.37C622.71 31.838 621.798 32.072 620.622 32.072ZM634.78 27.518H626.698C626.722 28.25 626.908 28.904 627.256 29.48C627.604 30.044 628.072 30.482 628.66 30.794C629.26 31.106 629.932 31.262 630.676 31.262C631.288 31.262 631.852 31.154 632.368 30.938C632.896 30.71 633.334 30.38 633.682 29.948L634.204 30.542C633.796 31.034 633.28 31.412 632.656 31.676C632.044 31.94 631.378 32.072 630.658 32.072C629.722 32.072 628.888 31.868 628.156 31.46C627.424 31.052 626.848 30.488 626.428 29.768C626.02 29.048 625.816 28.226 625.816 27.302C625.816 26.39 626.008 25.574 626.392 24.854C626.788 24.122 627.328 23.552 628.012 23.144C628.696 22.736 629.464 22.532 630.316 22.532C631.168 22.532 631.93 22.736 632.602 23.144C633.286 23.54 633.82 24.098 634.204 24.818C634.6 25.538 634.798 26.354 634.798 27.266L634.78 27.518ZM630.316 23.324C629.656 23.324 629.062 23.474 628.534 23.774C628.006 24.062 627.58 24.476 627.256 25.016C626.944 25.544 626.764 26.144 626.716 26.816H633.916C633.88 26.144 633.7 25.544 633.376 25.016C633.052 24.488 632.626 24.074 632.098 23.774C631.57 23.474 630.976 23.324 630.316 23.324ZM644.905 20.228H640.369V19.4H650.359V20.228H645.823V32H644.905V20.228ZM655.035 32.072C654.147 32.072 653.343 31.868 652.623 31.46C651.915 31.052 651.357 30.488 650.949 29.768C650.541 29.036 650.337 28.214 650.337 27.302C650.337 26.39 650.541 25.574 650.949 24.854C651.357 24.122 651.915 23.552 652.623 23.144C653.343 22.736 654.147 22.532 655.035 22.532C655.923 22.532 656.721 22.736 657.429 23.144C658.149 23.552 658.713 24.122 659.121 24.854C659.529 25.574 659.733 26.39 659.733 27.302C659.733 28.214 659.529 29.036 659.121 29.768C658.713 30.488 658.149 31.052 657.429 31.46C656.721 31.868 655.923 32.072 655.035 32.072ZM655.035 31.262C655.755 31.262 656.397 31.094 656.961 30.758C657.537 30.422 657.987 29.954 658.311 29.354C658.647 28.754 658.815 28.07 658.815 27.302C658.815 26.534 658.647 25.85 658.311 25.25C657.987 24.65 657.537 24.182 656.961 23.846C656.397 23.51 655.755 23.342 655.035 23.342C654.315 23.342 653.667 23.51 653.091 23.846C652.527 24.182 652.077 24.65 651.741 25.25C651.417 25.85 651.255 26.534 651.255 27.302C651.255 28.07 651.417 28.754 651.741 29.354C652.077 29.954 652.527 30.422 653.091 30.758C653.667 31.094 654.315 31.262 655.035 31.262ZM667.241 22.532C668.117 22.532 668.909 22.736 669.617 23.144C670.325 23.552 670.877 24.116 671.273 24.836C671.681 25.556 671.885 26.378 671.885 27.302C671.885 28.226 671.681 29.054 671.273 29.786C670.877 30.506 670.325 31.07 669.617 31.478C668.909 31.874 668.117 32.072 667.241 32.072C666.413 32.072 665.663 31.88 664.991 31.496C664.319 31.1 663.797 30.554 663.425 29.858V35.492H662.525V22.604H663.389V24.818C663.761 24.098 664.283 23.54 664.955 23.144C665.639 22.736 666.401 22.532 667.241 22.532ZM667.187 31.262C667.907 31.262 668.555 31.094 669.131 30.758C669.707 30.422 670.157 29.954 670.481 29.354C670.817 28.754 670.985 28.07 670.985 27.302C670.985 26.534 670.817 25.85 670.481 25.25C670.157 24.65 669.707 24.182 669.131 23.846C668.555 23.51 667.907 23.342 667.187 23.342C666.467 23.342 665.819 23.51 665.243 23.846C664.679 24.182 664.229 24.65 663.893 25.25C663.569 25.85 663.407 26.534 663.407 27.302C663.407 28.07 663.569 28.754 663.893 29.354C664.229 29.954 664.679 30.422 665.243 30.758C665.819 31.094 666.467 31.262 667.187 31.262Z" fill="black"/>
<g filter="url(#filter4_d)">
<rect x="569" y="57" width="586" height="122" rx="12" fill="#FFFBFB"/>
<rect x="569.5" y="57.5" width="585" height="121" rx="11.5" stroke="#ABA7A7"/>
</g>
<path d="M655.192 72.7253C655.192 72.7253 650.566 85.649 655.926 91.4772L651.458 106.83C651.458 106.83 667.332 154.451 662.797 161.103C662.797 161.103 645.864 169.569 612 158.08L625.757 104.713L623.792 82.1873L626.513 71.6047L632.56 71C632.56 71 628.932 84.6062 635.584 86.7227C642.236 88.8392 648.725 71.3396 648.725 71.3396L655.192 72.7253Z" fill="black"/>
<path d="M1110.49 90.9468C1108.38 88.4087 1104.74 87.0365 1101.25 86.2949C1101.36 85.9775 1090.63 83.7627 1090.45 84.2191L1086.41 81L1074 87.4471L1067.02 82.6976L1063.78 83.8478C1063.91 83.2763 1053.72 85.0414 1053.72 85.0414C1051.77 85.1114 1049.28 85.2332 1046.5 85.4474C1036.75 86.1973 1036 111.445 1036 111.445C1040.49 109.61 1045.27 108.609 1050.11 108.49L1052.75 138.692C1066.3 137.53 1080.52 138.882 1095.24 142.192L1102.15 118.452L1118.24 112.195C1118.24 112.195 1115.49 96.9462 1110.49 90.9468Z" fill="black"/>
<path d="M761.379 84.1958C759.636 82.1045 756.641 80.9739 753.764 80.3628C753.85 80.1013 745.015 78.2764 744.867 78.6525L741.537 76L731.307 81.3122L725.558 77.3988L722.888 78.3465C722.997 77.8756 714.598 79.3299 714.598 79.3299C712.994 79.3876 710.944 79.488 708.651 79.6645C700.618 80.2823 700 101.085 700 101.085C703.696 99.5734 707.637 98.7484 711.629 98.6507L713.8 159.565C724.967 158.607 736.679 159.722 748.815 162.448L754.507 106.859L767.764 101.703C767.764 101.703 765.498 89.1391 761.379 84.1958Z" fill="black"/>
<path d="M855.42 70.5119C855.42 70.5119 860.34 80.2259 845.51 80.5013C840.95 80.586 835.528 77.2704 833.29 73.306C831.971 70.9704 831.638 74.1961 829.506 73.9597C825.468 73.512 821.154 75.1836 817.294 77.232C816.795 77.496 816.404 77.9246 816.187 78.4446C815.97 78.9645 815.941 79.5435 816.104 80.0826C819.032 89.7748 827.392 136.397 828.682 138.936C831.978 145.418 867.643 134.562 867.643 134.562C868.132 116.924 861.716 92.2479 873 74.3015C870.518 72.4403 867.661 71.1378 864.626 70.4836C861.592 69.8294 858.451 69.839 855.42 70.5119Z" fill="black"/>
<path d="M819.791 76.096C819.055 75.2526 809.761 80.0721 811.139 86.3592L811.788 129.921C811.788 129.921 808.378 165.751 816.902 165.751C825.427 165.751 824.421 166.956 825.558 164.066C826.695 161.177 827 136.698 827 136.698L819.791 76.096Z" fill="black"/>
<path d="M865.817 133.507C865.817 133.507 862.269 157.23 863.409 160.088C864.548 162.945 863.54 161.754 872.084 161.754C880.628 161.754 877.211 126.322 877.211 126.322L877.861 83.2441C879.242 77.0269 869.927 72.2609 869.189 73.095L861 101.126L865.817 133.507Z" fill="black"/>
<path d="M973.658 99.2534L973.672 99.3498L980.451 145.898C976.199 147.79 971.609 148.499 967.126 148.5L973.658 99.2534ZM973.658 99.2534L973.681 99.1588M973.658 99.2534L973.681 99.1588M973.681 99.1588L977.155 84.9769C977.155 84.9769 977.155 84.9769 977.155 84.9769C977.307 84.3573 977.227 83.7036 976.93 83.1395C976.634 82.5755 976.142 82.1407 975.548 81.917L969.298 79.5641L969.082 79.483M973.681 99.1588L969.082 79.483M969.082 79.483L969.004 79.2665M969.082 79.483L969.004 79.2665M969.004 79.2665L966.93 73.5393L950.305 75.3377L949.913 79.695L949.884 80.0247M969.004 79.2665L949.884 80.0247M949.884 80.0247L949.568 80.1262M949.884 80.0247L949.568 80.1262M949.568 80.1262C948.632 80.4277 944.307 81.8685 940.358 83.963C938.381 85.0119 936.529 86.2085 935.244 87.487C933.949 88.7754 933.321 90.0519 933.545 91.2885L933.053 91.3777M949.568 80.1262L933.053 91.3777M933.053 91.3777L933.545 91.2886C934.067 94.1728 935.883 100.198 937.621 105.653C939.355 111.094 940.996 115.921 941.154 116.386L941.177 116.454M933.053 91.3777L941.177 116.454M941.177 116.454L941.18 116.527M941.177 116.454L941.18 116.527M941.18 116.527L942.262 142.607M941.18 116.527L942.262 142.607M942.262 142.607C942.271 142.612 942.281 142.616 942.292 142.621C942.389 142.668 942.531 142.735 942.713 142.819C943.078 142.987 943.606 143.223 944.276 143.504C945.618 144.067 947.528 144.81 949.839 145.551C954.464 147.034 960.673 148.5 967.126 148.5L942.262 142.607Z" fill="#090909" stroke="black"/>
<path d="M982.371 87.9431C981.822 84.6969 980.293 83.11 978.943 82.3182C977.607 81.5347 976.395 81.5013 976.349 81.5C976.348 81.5 976.348 81.5 976.348 81.5H973.822L970.512 96.207L977.229 126.602L983.347 151.47L992.421 150.792L986.856 115.621L986.856 115.62L986.853 115.603C986.737 114.879 983.465 94.425 982.371 87.9431ZM982.371 87.9431L982.864 87.8598M982.371 87.9431L982.864 87.8598M982.864 87.8598C983.958 94.3438 987.23 114.798 987.346 115.524L987.349 115.542L973.422 81H976.348C976.402 81 981.717 81.0784 982.864 87.8598Z" fill="#090909" stroke="black"/>
<path d="M931.629 92.9431C932.178 89.6969 933.707 88.11 935.057 87.3182C936.393 86.5347 937.605 86.5013 937.651 86.5C937.652 86.5 937.652 86.5 937.652 86.5H940.178L943.488 101.207L936.771 131.602L930.653 156.47L921.579 155.792L927.144 120.621L927.144 120.62L927.147 120.603C927.263 119.879 930.535 99.425 931.629 92.9431ZM931.629 92.9431L931.136 92.8598M931.629 92.9431L931.136 92.8598M931.136 92.8598C930.042 99.3438 926.77 119.798 926.654 120.524L926.651 120.542L940.578 86H937.652C937.598 86 932.283 86.0784 931.136 92.8598Z" fill="#090909" stroke="black"/>
<path d="M576.524 221.09C575.288 221.09 574.172 220.814 573.176 220.262C572.192 219.71 571.412 218.948 570.836 217.976C570.272 217.004 569.99 215.912 569.99 214.7C569.99 213.488 570.272 212.396 570.836 211.424C571.412 210.452 572.192 209.69 573.176 209.138C574.172 208.586 575.288 208.31 576.524 208.31C577.436 208.31 578.276 208.46 579.044 208.76C579.812 209.048 580.466 209.48 581.006 210.056L580.43 210.65C579.422 209.654 578.132 209.156 576.56 209.156C575.504 209.156 574.544 209.396 573.68 209.876C572.816 210.356 572.138 211.022 571.646 211.874C571.154 212.714 570.908 213.656 570.908 214.7C570.908 215.744 571.154 216.692 571.646 217.544C572.138 218.384 572.816 219.044 573.68 219.524C574.544 220.004 575.504 220.244 576.56 220.244C578.12 220.244 579.41 219.74 580.43 218.732L581.006 219.326C580.466 219.902 579.806 220.34 579.026 220.64C578.258 220.94 577.424 221.09 576.524 221.09ZM588.383 211.532C589.559 211.532 590.489 211.874 591.173 212.558C591.857 213.242 592.199 214.226 592.199 215.51V221H591.299V215.582C591.299 214.526 591.029 213.722 590.489 213.17C589.961 212.618 589.217 212.342 588.257 212.342C587.153 212.342 586.283 212.672 585.647 213.332C585.011 213.992 584.693 214.88 584.693 215.996V221H583.793V207.644H584.693V213.566C585.017 212.918 585.497 212.42 586.133 212.072C586.769 211.712 587.519 211.532 588.383 211.532ZM599.594 221.072C598.706 221.072 597.902 220.868 597.182 220.46C596.474 220.052 595.916 219.488 595.508 218.768C595.1 218.036 594.896 217.214 594.896 216.302C594.896 215.39 595.1 214.574 595.508 213.854C595.916 213.122 596.474 212.552 597.182 212.144C597.902 211.736 598.706 211.532 599.594 211.532C600.482 211.532 601.28 211.736 601.988 212.144C602.708 212.552 603.272 213.122 603.68 213.854C604.088 214.574 604.292 215.39 604.292 216.302C604.292 217.214 604.088 218.036 603.68 218.768C603.272 219.488 602.708 220.052 601.988 220.46C601.28 220.868 600.482 221.072 599.594 221.072ZM599.594 220.262C600.314 220.262 600.956 220.094 601.52 219.758C602.096 219.422 602.546 218.954 602.87 218.354C603.206 217.754 603.374 217.07 603.374 216.302C603.374 215.534 603.206 214.85 602.87 214.25C602.546 213.65 602.096 213.182 601.52 212.846C600.956 212.51 600.314 212.342 599.594 212.342C598.874 212.342 598.226 212.51 597.65 212.846C597.086 213.182 596.636 213.65 596.3 214.25C595.976 214.85 595.814 215.534 595.814 216.302C595.814 217.07 595.976 217.754 596.3 218.354C596.636 218.954 597.086 219.422 597.65 219.758C598.226 220.094 598.874 220.262 599.594 220.262ZM610.756 221.072C609.868 221.072 609.064 220.868 608.344 220.46C607.636 220.052 607.078 219.488 606.67 218.768C606.262 218.036 606.058 217.214 606.058 216.302C606.058 215.39 606.262 214.574 606.67 213.854C607.078 213.122 607.636 212.552 608.344 212.144C609.064 211.736 609.868 211.532 610.756 211.532C611.644 211.532 612.442 211.736 613.15 212.144C613.87 212.552 614.434 213.122 614.842 213.854C615.25 214.574 615.454 215.39 615.454 216.302C615.454 217.214 615.25 218.036 614.842 218.768C614.434 219.488 613.87 220.052 613.15 220.46C612.442 220.868 611.644 221.072 610.756 221.072ZM610.756 220.262C611.476 220.262 612.118 220.094 612.682 219.758C613.258 219.422 613.708 218.954 614.032 218.354C614.368 217.754 614.536 217.07 614.536 216.302C614.536 215.534 614.368 214.85 614.032 214.25C613.708 213.65 613.258 213.182 612.682 212.846C612.118 212.51 611.476 212.342 610.756 212.342C610.036 212.342 609.388 212.51 608.812 212.846C608.248 213.182 607.798 213.65 607.462 214.25C607.138 214.85 606.976 215.534 606.976 216.302C606.976 217.07 607.138 217.754 607.462 218.354C607.798 218.954 608.248 219.422 608.812 219.758C609.388 220.094 610.036 220.262 610.756 220.262ZM620.622 221.072C619.866 221.072 619.146 220.958 618.462 220.73C617.778 220.502 617.244 220.214 616.86 219.866L617.274 219.146C617.658 219.47 618.15 219.74 618.75 219.956C619.362 220.172 619.998 220.28 620.658 220.28C621.606 220.28 622.302 220.124 622.746 219.812C623.202 219.5 623.43 219.068 623.43 218.516C623.43 218.12 623.304 217.808 623.052 217.58C622.812 217.352 622.512 217.184 622.152 217.076C621.792 216.968 621.294 216.854 620.658 216.734C619.914 216.602 619.314 216.458 618.858 216.302C618.402 216.146 618.012 215.894 617.688 215.546C617.364 215.198 617.202 214.718 617.202 214.106C617.202 213.362 617.508 212.75 618.12 212.27C618.744 211.778 619.626 211.532 620.766 211.532C621.366 211.532 621.96 211.616 622.548 211.784C623.136 211.952 623.616 212.174 623.988 212.45L623.574 213.17C623.19 212.894 622.752 212.684 622.26 212.54C621.768 212.396 621.264 212.324 620.748 212.324C619.872 212.324 619.212 212.486 618.768 212.81C618.324 213.134 618.102 213.56 618.102 214.088C618.102 214.508 618.228 214.838 618.48 215.078C618.732 215.306 619.038 215.48 619.398 215.6C619.77 215.708 620.286 215.828 620.946 215.96C621.678 216.092 622.266 216.236 622.71 216.392C623.166 216.536 623.55 216.776 623.862 217.112C624.174 217.448 624.33 217.91 624.33 218.498C624.33 219.278 624.006 219.902 623.358 220.37C622.71 220.838 621.798 221.072 620.622 221.072ZM634.78 216.518H626.698C626.722 217.25 626.908 217.904 627.256 218.48C627.604 219.044 628.072 219.482 628.66 219.794C629.26 220.106 629.932 220.262 630.676 220.262C631.288 220.262 631.852 220.154 632.368 219.938C632.896 219.71 633.334 219.38 633.682 218.948L634.204 219.542C633.796 220.034 633.28 220.412 632.656 220.676C632.044 220.94 631.378 221.072 630.658 221.072C629.722 221.072 628.888 220.868 628.156 220.46C627.424 220.052 626.848 219.488 626.428 218.768C626.02 218.048 625.816 217.226 625.816 216.302C625.816 215.39 626.008 214.574 626.392 213.854C626.788 213.122 627.328 212.552 628.012 212.144C628.696 211.736 629.464 211.532 630.316 211.532C631.168 211.532 631.93 211.736 632.602 212.144C633.286 212.54 633.82 213.098 634.204 213.818C634.6 214.538 634.798 215.354 634.798 216.266L634.78 216.518ZM630.316 212.324C629.656 212.324 629.062 212.474 628.534 212.774C628.006 213.062 627.58 213.476 627.256 214.016C626.944 214.544 626.764 215.144 626.716 215.816H633.916C633.88 215.144 633.7 214.544 633.376 214.016C633.052 213.488 632.626 213.074 632.098 212.774C631.57 212.474 630.976 212.324 630.316 212.324ZM649.981 214.502C650.881 214.67 651.565 215.024 652.033 215.564C652.513 216.104 652.753 216.806 652.753 217.67C652.753 218.738 652.363 219.56 651.583 220.136C650.803 220.712 649.645 221 648.109 221H642.493V208.4H647.749C649.117 208.4 650.179 208.682 650.935 209.246C651.703 209.798 652.087 210.59 652.087 211.622C652.087 212.342 651.895 212.948 651.511 213.44C651.139 213.932 650.629 214.286 649.981 214.502ZM643.411 209.192V214.214H647.713C648.817 214.214 649.663 214.004 650.251 213.584C650.851 213.152 651.151 212.522 651.151 211.694C651.151 210.878 650.851 210.26 650.251 209.84C649.663 209.408 648.817 209.192 647.713 209.192H643.411ZM648.109 220.208C649.333 220.208 650.257 219.998 650.881 219.578C651.517 219.146 651.835 218.486 651.835 217.598C651.835 216.71 651.517 216.056 650.881 215.636C650.257 215.216 649.333 215.006 648.109 215.006H643.411V220.208H648.109ZM659.412 221.072C658.524 221.072 657.72 220.868 657 220.46C656.292 220.052 655.734 219.488 655.326 218.768C654.918 218.036 654.714 217.214 654.714 216.302C654.714 215.39 654.918 214.574 655.326 213.854C655.734 213.122 656.292 212.552 657 212.144C657.72 211.736 658.524 211.532 659.412 211.532C660.3 211.532 661.098 211.736 661.806 212.144C662.526 212.552 663.09 213.122 663.498 213.854C663.906 214.574 664.11 215.39 664.11 216.302C664.11 217.214 663.906 218.036 663.498 218.768C663.09 219.488 662.526 220.052 661.806 220.46C661.098 220.868 660.3 221.072 659.412 221.072ZM659.412 220.262C660.132 220.262 660.774 220.094 661.338 219.758C661.914 219.422 662.364 218.954 662.688 218.354C663.024 217.754 663.192 217.07 663.192 216.302C663.192 215.534 663.024 214.85 662.688 214.25C662.364 213.65 661.914 213.182 661.338 212.846C660.774 212.51 660.132 212.342 659.412 212.342C658.692 212.342 658.044 212.51 657.468 212.846C656.904 213.182 656.454 213.65 656.118 214.25C655.794 214.85 655.632 215.534 655.632 216.302C655.632 217.07 655.794 217.754 656.118 218.354C656.454 218.954 656.904 219.422 657.468 219.758C658.044 220.094 658.692 220.262 659.412 220.262ZM671.564 220.406C671.336 220.622 671.048 220.79 670.7 220.91C670.364 221.018 670.01 221.072 669.638 221.072C668.822 221.072 668.192 220.85 667.748 220.406C667.304 219.95 667.082 219.32 667.082 218.516V212.378H665.354V211.604H667.082V209.552H667.982V211.604H670.97V212.378H667.982V218.426C667.982 219.038 668.126 219.506 668.414 219.83C668.714 220.142 669.152 220.298 669.728 220.298C670.316 220.298 670.802 220.124 671.186 219.776L671.564 220.406ZM678.49 220.406C678.262 220.622 677.974 220.79 677.626 220.91C677.29 221.018 676.936 221.072 676.564 221.072C675.748 221.072 675.118 220.85 674.674 220.406C674.23 219.95 674.008 219.32 674.008 218.516V212.378H672.28V211.604H674.008V209.552H674.908V211.604H677.896V212.378H674.908V218.426C674.908 219.038 675.052 219.506 675.34 219.83C675.64 220.142 676.078 220.298 676.654 220.298C677.242 220.298 677.728 220.124 678.112 219.776L678.49 220.406ZM684.338 221.072C683.45 221.072 682.646 220.868 681.926 220.46C681.218 220.052 680.66 219.488 680.252 218.768C679.844 218.036 679.64 217.214 679.64 216.302C679.64 215.39 679.844 214.574 680.252 213.854C680.66 213.122 681.218 212.552 681.926 212.144C682.646 211.736 683.45 211.532 684.338 211.532C685.226 211.532 686.024 211.736 686.732 212.144C687.452 212.552 688.016 213.122 688.424 213.854C688.832 214.574 689.036 215.39 689.036 216.302C689.036 217.214 688.832 218.036 688.424 218.768C688.016 219.488 687.452 220.052 686.732 220.46C686.024 220.868 685.226 221.072 684.338 221.072ZM684.338 220.262C685.058 220.262 685.7 220.094 686.264 219.758C686.84 219.422 687.29 218.954 687.614 218.354C687.95 217.754 688.118 217.07 688.118 216.302C688.118 215.534 687.95 214.85 687.614 214.25C687.29 213.65 686.84 213.182 686.264 212.846C685.7 212.51 685.058 212.342 684.338 212.342C683.618 212.342 682.97 212.51 682.394 212.846C681.83 213.182 681.38 213.65 681.044 214.25C680.72 214.85 680.558 215.534 680.558 216.302C680.558 217.07 680.72 217.754 681.044 218.354C681.38 218.954 681.83 219.422 682.394 219.758C682.97 220.094 683.618 220.262 684.338 220.262ZM703.528 211.532C704.692 211.532 705.604 211.874 706.264 212.558C706.936 213.242 707.272 214.226 707.272 215.51V221H706.372V215.582C706.372 214.526 706.114 213.722 705.598 213.17C705.082 212.618 704.362 212.342 703.438 212.342C702.382 212.342 701.542 212.672 700.918 213.332C700.306 213.992 700 214.88 700 215.996V221H699.1V215.582C699.1 214.526 698.842 213.722 698.326 213.17C697.81 212.618 697.09 212.342 696.166 212.342C695.11 212.342 694.27 212.672 693.646 213.332C693.034 213.992 692.728 214.88 692.728 215.996V221H691.828V211.604H692.692V213.62C693.004 212.96 693.466 212.45 694.078 212.09C694.702 211.718 695.44 211.532 696.292 211.532C697.144 211.532 697.864 211.724 698.452 212.108C699.052 212.492 699.478 213.056 699.73 213.8C700.042 213.104 700.528 212.552 701.188 212.144C701.86 211.736 702.64 211.532 703.528 211.532Z" fill="black"/>
<g filter="url(#filter5_d)">
<rect x="569" y="246" width="226" height="122" rx="12" fill="#FFFBFB"/>
<rect x="569.5" y="246.5" width="225" height="121" rx="11.5" stroke="#ABA7A7"/>
</g>
<path d="M607.591 267C607.591 267 599.625 278.074 600.014 282.543C600.402 287.012 605.454 359.87 605.454 359.87L617.305 360.452L613.808 307.995L616.723 293.812L623.911 359.87L638.483 360.258L625.465 274.577L622.94 267L607.591 267Z" fill="black"/>
<path d="M766.045 352.96L760.209 355.348L732.351 318.735L723.596 361.716L717.759 360.654C714.015 323.6 710.962 285.804 714.708 267.929L736.331 267L746.147 298.307L750.923 319.531L766.045 352.96Z" fill="black"/>
<g filter="url(#filter6_d)">
<rect x="871" y="246" width="297" height="122" rx="12" fill="#FFFBFB"/>
<rect x="871.5" y="246.5" width="296" height="121" rx="11.5" stroke="#ABA7A7"/>
</g>
<path d="M1060.99 295H1025V314.655H1075.87V309.887C1075.87 305.939 1074.3 302.152 1071.51 299.36C1068.72 296.568 1064.93 295 1060.99 295Z" fill="#2F2E41"/>
<path d="M1123.99 299H1088V318.655H1138.87V313.887C1138.87 309.939 1137.3 306.152 1134.51 303.36C1131.72 300.568 1127.93 299 1123.99 299Z" fill="#2F2E41"/>
<path d="M878.524 221.09C877.288 221.09 876.172 220.814 875.176 220.262C874.192 219.71 873.412 218.948 872.836 217.976C872.272 217.004 871.99 215.912 871.99 214.7C871.99 213.488 872.272 212.396 872.836 211.424C873.412 210.452 874.192 209.69 875.176 209.138C876.172 208.586 877.288 208.31 878.524 208.31C879.436 208.31 880.276 208.46 881.044 208.76C881.812 209.048 882.466 209.48 883.006 210.056L882.43 210.65C881.422 209.654 880.132 209.156 878.56 209.156C877.504 209.156 876.544 209.396 875.68 209.876C874.816 210.356 874.138 211.022 873.646 211.874C873.154 212.714 872.908 213.656 872.908 214.7C872.908 215.744 873.154 216.692 873.646 217.544C874.138 218.384 874.816 219.044 875.68 219.524C876.544 220.004 877.504 220.244 878.56 220.244C880.12 220.244 881.41 219.74 882.43 218.732L883.006 219.326C882.466 219.902 881.806 220.34 881.026 220.64C880.258 220.94 879.424 221.09 878.524 221.09ZM890.383 211.532C891.559 211.532 892.489 211.874 893.173 212.558C893.857 213.242 894.199 214.226 894.199 215.51V221H893.299V215.582C893.299 214.526 893.029 213.722 892.489 213.17C891.961 212.618 891.217 212.342 890.257 212.342C889.153 212.342 888.283 212.672 887.647 213.332C887.011 213.992 886.693 214.88 886.693 215.996V221H885.793V207.644H886.693V213.566C887.017 212.918 887.497 212.42 888.133 212.072C888.769 211.712 889.519 211.532 890.383 211.532ZM901.594 221.072C900.706 221.072 899.902 220.868 899.182 220.46C898.474 220.052 897.916 219.488 897.508 218.768C897.1 218.036 896.896 217.214 896.896 216.302C896.896 215.39 897.1 214.574 897.508 213.854C897.916 213.122 898.474 212.552 899.182 212.144C899.902 211.736 900.706 211.532 901.594 211.532C902.482 211.532 903.28 211.736 903.988 212.144C904.708 212.552 905.272 213.122 905.68 213.854C906.088 214.574 906.292 215.39 906.292 216.302C906.292 217.214 906.088 218.036 905.68 218.768C905.272 219.488 904.708 220.052 903.988 220.46C903.28 220.868 902.482 221.072 901.594 221.072ZM901.594 220.262C902.314 220.262 902.956 220.094 903.52 219.758C904.096 219.422 904.546 218.954 904.87 218.354C905.206 217.754 905.374 217.07 905.374 216.302C905.374 215.534 905.206 214.85 904.87 214.25C904.546 213.65 904.096 213.182 903.52 212.846C902.956 212.51 902.314 212.342 901.594 212.342C900.874 212.342 900.226 212.51 899.65 212.846C899.086 213.182 898.636 213.65 898.3 214.25C897.976 214.85 897.814 215.534 897.814 216.302C897.814 217.07 897.976 217.754 898.3 218.354C898.636 218.954 899.086 219.422 899.65 219.758C900.226 220.094 900.874 220.262 901.594 220.262ZM912.756 221.072C911.868 221.072 911.064 220.868 910.344 220.46C909.636 220.052 909.078 219.488 908.67 218.768C908.262 218.036 908.058 217.214 908.058 216.302C908.058 215.39 908.262 214.574 908.67 213.854C909.078 213.122 909.636 212.552 910.344 212.144C911.064 211.736 911.868 211.532 912.756 211.532C913.644 211.532 914.442 211.736 915.15 212.144C915.87 212.552 916.434 213.122 916.842 213.854C917.25 214.574 917.454 215.39 917.454 216.302C917.454 217.214 917.25 218.036 916.842 218.768C916.434 219.488 915.87 220.052 915.15 220.46C914.442 220.868 913.644 221.072 912.756 221.072ZM912.756 220.262C913.476 220.262 914.118 220.094 914.682 219.758C915.258 219.422 915.708 218.954 916.032 218.354C916.368 217.754 916.536 217.07 916.536 216.302C916.536 215.534 916.368 214.85 916.032 214.25C915.708 213.65 915.258 213.182 914.682 212.846C914.118 212.51 913.476 212.342 912.756 212.342C912.036 212.342 911.388 212.51 910.812 212.846C910.248 213.182 909.798 213.65 909.462 214.25C909.138 214.85 908.976 215.534 908.976 216.302C908.976 217.07 909.138 217.754 909.462 218.354C909.798 218.954 910.248 219.422 910.812 219.758C911.388 220.094 912.036 220.262 912.756 220.262ZM922.622 221.072C921.866 221.072 921.146 220.958 920.462 220.73C919.778 220.502 919.244 220.214 918.86 219.866L919.274 219.146C919.658 219.47 920.15 219.74 920.75 219.956C921.362 220.172 921.998 220.28 922.658 220.28C923.606 220.28 924.302 220.124 924.746 219.812C925.202 219.5 925.43 219.068 925.43 218.516C925.43 218.12 925.304 217.808 925.052 217.58C924.812 217.352 924.512 217.184 924.152 217.076C923.792 216.968 923.294 216.854 922.658 216.734C921.914 216.602 921.314 216.458 920.858 216.302C920.402 216.146 920.012 215.894 919.688 215.546C919.364 215.198 919.202 214.718 919.202 214.106C919.202 213.362 919.508 212.75 920.12 212.27C920.744 211.778 921.626 211.532 922.766 211.532C923.366 211.532 923.96 211.616 924.548 211.784C925.136 211.952 925.616 212.174 925.988 212.45L925.574 213.17C925.19 212.894 924.752 212.684 924.26 212.54C923.768 212.396 923.264 212.324 922.748 212.324C921.872 212.324 921.212 212.486 920.768 212.81C920.324 213.134 920.102 213.56 920.102 214.088C920.102 214.508 920.228 214.838 920.48 215.078C920.732 215.306 921.038 215.48 921.398 215.6C921.77 215.708 922.286 215.828 922.946 215.96C923.678 216.092 924.266 216.236 924.71 216.392C925.166 216.536 925.55 216.776 925.862 217.112C926.174 217.448 926.33 217.91 926.33 218.498C926.33 219.278 926.006 219.902 925.358 220.37C924.71 220.838 923.798 221.072 922.622 221.072ZM936.78 216.518H928.698C928.722 217.25 928.908 217.904 929.256 218.48C929.604 219.044 930.072 219.482 930.66 219.794C931.26 220.106 931.932 220.262 932.676 220.262C933.288 220.262 933.852 220.154 934.368 219.938C934.896 219.71 935.334 219.38 935.682 218.948L936.204 219.542C935.796 220.034 935.28 220.412 934.656 220.676C934.044 220.94 933.378 221.072 932.658 221.072C931.722 221.072 930.888 220.868 930.156 220.46C929.424 220.052 928.848 219.488 928.428 218.768C928.02 218.048 927.816 217.226 927.816 216.302C927.816 215.39 928.008 214.574 928.392 213.854C928.788 213.122 929.328 212.552 930.012 212.144C930.696 211.736 931.464 211.532 932.316 211.532C933.168 211.532 933.93 211.736 934.602 212.144C935.286 212.54 935.82 213.098 936.204 213.818C936.6 214.538 936.798 215.354 936.798 216.266L936.78 216.518ZM932.316 212.324C931.656 212.324 931.062 212.474 930.534 212.774C930.006 213.062 929.58 213.476 929.256 214.016C928.944 214.544 928.764 215.144 928.716 215.816H935.916C935.88 215.144 935.7 214.544 935.376 214.016C935.052 213.488 934.626 213.074 934.098 212.774C933.57 212.474 932.976 212.324 932.316 212.324ZM947.805 221.09C946.881 221.09 945.999 220.934 945.159 220.622C944.331 220.298 943.683 219.884 943.215 219.38L943.629 218.696C944.073 219.164 944.667 219.548 945.411 219.848C946.167 220.136 946.959 220.28 947.787 220.28C948.987 220.28 949.893 220.052 950.505 219.596C951.117 219.14 951.423 218.546 951.423 217.814C951.423 217.25 951.261 216.8 950.937 216.464C950.613 216.128 950.211 215.87 949.731 215.69C949.251 215.51 948.603 215.324 947.787 215.132C946.863 214.904 946.119 214.682 945.555 214.466C945.003 214.25 944.529 213.92 944.133 213.476C943.749 213.02 943.557 212.414 943.557 211.658C943.557 211.046 943.719 210.488 944.043 209.984C944.367 209.468 944.859 209.06 945.519 208.76C946.191 208.46 947.025 208.31 948.021 208.31C948.717 208.31 949.401 208.412 950.073 208.616C950.745 208.82 951.327 209.096 951.819 209.444L951.477 210.182C950.973 209.834 950.415 209.57 949.803 209.39C949.203 209.21 948.609 209.12 948.021 209.12C946.857 209.12 945.975 209.354 945.375 209.822C944.775 210.29 944.475 210.896 944.475 211.64C944.475 212.204 944.637 212.654 944.961 212.99C945.285 213.326 945.687 213.584 946.167 213.764C946.647 213.944 947.301 214.136 948.129 214.34C949.053 214.568 949.791 214.79 950.343 215.006C950.895 215.222 951.363 215.552 951.747 215.996C952.143 216.428 952.341 217.016 952.341 217.76C952.341 218.372 952.173 218.93 951.837 219.434C951.513 219.938 951.009 220.34 950.325 220.64C949.641 220.94 948.801 221.09 947.805 221.09ZM959.764 211.532C960.94 211.532 961.87 211.874 962.554 212.558C963.238 213.242 963.58 214.226 963.58 215.51V221H962.68V215.582C962.68 214.526 962.41 213.722 961.87 213.17C961.342 212.618 960.598 212.342 959.638 212.342C958.534 212.342 957.664 212.672 957.028 213.332C956.392 213.992 956.074 214.88 956.074 215.996V221H955.174V207.644H956.074V213.566C956.398 212.918 956.878 212.42 957.514 212.072C958.15 211.712 958.9 211.532 959.764 211.532ZM970.975 221.072C970.087 221.072 969.283 220.868 968.563 220.46C967.855 220.052 967.297 219.488 966.889 218.768C966.481 218.036 966.277 217.214 966.277 216.302C966.277 215.39 966.481 214.574 966.889 213.854C967.297 213.122 967.855 212.552 968.563 212.144C969.283 211.736 970.087 211.532 970.975 211.532C971.863 211.532 972.661 211.736 973.369 212.144C974.089 212.552 974.653 213.122 975.061 213.854C975.469 214.574 975.673 215.39 975.673 216.302C975.673 217.214 975.469 218.036 975.061 218.768C974.653 219.488 974.089 220.052 973.369 220.46C972.661 220.868 971.863 221.072 970.975 221.072ZM970.975 220.262C971.695 220.262 972.337 220.094 972.901 219.758C973.477 219.422 973.927 218.954 974.251 218.354C974.587 217.754 974.755 217.07 974.755 216.302C974.755 215.534 974.587 214.85 974.251 214.25C973.927 213.65 973.477 213.182 972.901 212.846C972.337 212.51 971.695 212.342 970.975 212.342C970.255 212.342 969.607 212.51 969.031 212.846C968.467 213.182 968.017 213.65 967.681 214.25C967.357 214.85 967.195 215.534 967.195 216.302C967.195 217.07 967.357 217.754 967.681 218.354C968.017 218.954 968.467 219.422 969.031 219.758C969.607 220.094 970.255 220.262 970.975 220.262ZM986.403 216.518H978.321C978.345 217.25 978.531 217.904 978.879 218.48C979.227 219.044 979.695 219.482 980.283 219.794C980.883 220.106 981.555 220.262 982.299 220.262C982.911 220.262 983.475 220.154 983.991 219.938C984.519 219.71 984.957 219.38 985.305 218.948L985.827 219.542C985.419 220.034 984.903 220.412 984.279 220.676C983.667 220.94 983.001 221.072 982.281 221.072C981.345 221.072 980.511 220.868 979.779 220.46C979.047 220.052 978.471 219.488 978.051 218.768C977.643 218.048 977.439 217.226 977.439 216.302C977.439 215.39 977.631 214.574 978.015 213.854C978.411 213.122 978.951 212.552 979.635 212.144C980.319 211.736 981.087 211.532 981.939 211.532C982.791 211.532 983.553 211.736 984.225 212.144C984.909 212.54 985.443 213.098 985.827 213.818C986.223 214.538 986.421 215.354 986.421 216.266L986.403 216.518ZM981.939 212.324C981.279 212.324 980.685 212.474 980.157 212.774C979.629 213.062 979.203 213.476 978.879 214.016C978.567 214.544 978.387 215.144 978.339 215.816H985.539C985.503 215.144 985.323 214.544 984.999 214.016C984.675 213.488 984.249 213.074 983.721 212.774C983.193 212.474 982.599 212.324 981.939 212.324ZM991.581 221.072C990.825 221.072 990.105 220.958 989.421 220.73C988.737 220.502 988.203 220.214 987.819 219.866L988.233 219.146C988.617 219.47 989.109 219.74 989.709 219.956C990.321 220.172 990.957 220.28 991.617 220.28C992.565 220.28 993.261 220.124 993.705 219.812C994.161 219.5 994.389 219.068 994.389 218.516C994.389 218.12 994.263 217.808 994.011 217.58C993.771 217.352 993.471 217.184 993.111 217.076C992.751 216.968 992.253 216.854 991.617 216.734C990.873 216.602 990.273 216.458 989.817 216.302C989.361 216.146 988.971 215.894 988.647 215.546C988.323 215.198 988.161 214.718 988.161 214.106C988.161 213.362 988.467 212.75 989.079 212.27C989.703 211.778 990.585 211.532 991.725 211.532C992.325 211.532 992.919 211.616 993.507 211.784C994.095 211.952 994.575 212.174 994.947 212.45L994.533 213.17C994.149 212.894 993.711 212.684 993.219 212.54C992.727 212.396 992.223 212.324 991.707 212.324C990.831 212.324 990.171 212.486 989.727 212.81C989.283 213.134 989.061 213.56 989.061 214.088C989.061 214.508 989.187 214.838 989.439 215.078C989.691 215.306 989.997 215.48 990.357 215.6C990.729 215.708 991.245 215.828 991.905 215.96C992.637 216.092 993.225 216.236 993.669 216.392C994.125 216.536 994.509 216.776 994.821 217.112C995.133 217.448 995.289 217.91 995.289 218.498C995.289 219.278 994.965 219.902 994.317 220.37C993.669 220.838 992.757 221.072 991.581 221.072Z" fill="black"/>
<path d="M918.141 275.588L939.863 267L942.388 309.939C942.388 309.939 946.935 323.073 945.419 328.125C945.419 328.125 946.43 336.712 943.904 337.218C941.378 337.723 934.306 338.733 933.801 338.228C933.295 337.723 933.295 336.207 933.295 336.207C933.295 336.207 928.244 339.743 927.739 343.785C927.739 343.785 906.522 350.352 906.017 344.29C905.512 338.228 916.625 333.176 916.625 333.176L925.213 320.042L918.141 275.588Z" fill="black"/>
<path d="M964.11 275.588L985.832 267L988.358 309.939C988.358 309.939 992.905 323.073 991.389 328.125C991.389 328.125 992.399 336.712 989.874 337.218C987.348 337.723 980.276 338.733 979.77 338.228C979.265 337.723 979.265 336.207 979.265 336.207C979.265 336.207 974.214 339.743 973.708 343.785C973.708 343.785 952.492 350.352 951.986 344.29C951.481 338.228 962.595 333.176 962.595 333.176L971.183 320.042L964.11 275.588Z" fill="black"/>
<path d="M573.608 398.228H569.072V397.4H579.062V398.228H574.526V410H573.608V398.228ZM583.738 410.072C582.85 410.072 582.046 409.868 581.326 409.46C580.618 409.052 580.06 408.488 579.652 407.768C579.244 407.036 579.04 406.214 579.04 405.302C579.04 404.39 579.244 403.574 579.652 402.854C580.06 402.122 580.618 401.552 581.326 401.144C582.046 400.736 582.85 400.532 583.738 400.532C584.626 400.532 585.424 400.736 586.132 401.144C586.852 401.552 587.416 402.122 587.824 402.854C588.232 403.574 588.436 404.39 588.436 405.302C588.436 406.214 588.232 407.036 587.824 407.768C587.416 408.488 586.852 409.052 586.132 409.46C585.424 409.868 584.626 410.072 583.738 410.072ZM583.738 409.262C584.458 409.262 585.1 409.094 585.664 408.758C586.24 408.422 586.69 407.954 587.014 407.354C587.35 406.754 587.518 406.07 587.518 405.302C587.518 404.534 587.35 403.85 587.014 403.25C586.69 402.65 586.24 402.182 585.664 401.846C585.1 401.51 584.458 401.342 583.738 401.342C583.018 401.342 582.37 401.51 581.794 401.846C581.23 402.182 580.78 402.65 580.444 403.25C580.12 403.85 579.958 404.534 579.958 405.302C579.958 406.07 580.12 406.754 580.444 407.354C580.78 407.954 581.23 408.422 581.794 408.758C582.37 409.094 583.018 409.262 583.738 409.262ZM595.944 400.532C596.82 400.532 597.612 400.736 598.32 401.144C599.028 401.552 599.58 402.116 599.976 402.836C600.384 403.556 600.588 404.378 600.588 405.302C600.588 406.226 600.384 407.054 599.976 407.786C599.58 408.506 599.028 409.07 598.32 409.478C597.612 409.874 596.82 410.072 595.944 410.072C595.116 410.072 594.366 409.88 593.694 409.496C593.022 409.1 592.5 408.554 592.128 407.858V413.492H591.228V400.604H592.092V402.818C592.464 402.098 592.986 401.54 593.658 401.144C594.342 400.736 595.104 400.532 595.944 400.532ZM595.89 409.262C596.61 409.262 597.258 409.094 597.834 408.758C598.41 408.422 598.86 407.954 599.184 407.354C599.52 406.754 599.688 406.07 599.688 405.302C599.688 404.534 599.52 403.85 599.184 403.25C598.86 402.65 598.41 402.182 597.834 401.846C597.258 401.51 596.61 401.342 595.89 401.342C595.17 401.342 594.522 401.51 593.946 401.846C593.382 402.182 592.932 402.65 592.596 403.25C592.272 403.85 592.11 404.534 592.11 405.302C592.11 406.07 592.272 406.754 592.596 407.354C592.932 407.954 593.382 408.422 593.946 408.758C594.522 409.094 595.17 409.262 595.89 409.262ZM613.614 410.09C612.378 410.09 611.262 409.814 610.266 409.262C609.282 408.71 608.502 407.948 607.926 406.976C607.362 406.004 607.08 404.912 607.08 403.7C607.08 402.488 607.362 401.396 607.926 400.424C608.502 399.452 609.282 398.69 610.266 398.138C611.262 397.586 612.378 397.31 613.614 397.31C614.526 397.31 615.366 397.46 616.134 397.76C616.902 398.048 617.556 398.48 618.096 399.056L617.52 399.65C616.512 398.654 615.222 398.156 613.65 398.156C612.594 398.156 611.634 398.396 610.77 398.876C609.906 399.356 609.228 400.022 608.736 400.874C608.244 401.714 607.998 402.656 607.998 403.7C607.998 404.744 608.244 405.692 608.736 406.544C609.228 407.384 609.906 408.044 610.77 408.524C611.634 409.004 612.594 409.244 613.65 409.244C615.21 409.244 616.5 408.74 617.52 407.732L618.096 408.326C617.556 408.902 616.896 409.34 616.116 409.64C615.348 409.94 614.514 410.09 613.614 410.09ZM624.115 410.072C623.227 410.072 622.423 409.868 621.703 409.46C620.995 409.052 620.437 408.488 620.029 407.768C619.621 407.036 619.417 406.214 619.417 405.302C619.417 404.39 619.621 403.574 620.029 402.854C620.437 402.122 620.995 401.552 621.703 401.144C622.423 400.736 623.227 400.532 624.115 400.532C625.003 400.532 625.801 400.736 626.509 401.144C627.229 401.552 627.793 402.122 628.201 402.854C628.609 403.574 628.813 404.39 628.813 405.302C628.813 406.214 628.609 407.036 628.201 407.768C627.793 408.488 627.229 409.052 626.509 409.46C625.801 409.868 625.003 410.072 624.115 410.072ZM624.115 409.262C624.835 409.262 625.477 409.094 626.041 408.758C626.617 408.422 627.067 407.954 627.391 407.354C627.727 406.754 627.895 406.07 627.895 405.302C627.895 404.534 627.727 403.85 627.391 403.25C627.067 402.65 626.617 402.182 626.041 401.846C625.477 401.51 624.835 401.342 624.115 401.342C623.395 401.342 622.747 401.51 622.171 401.846C621.607 402.182 621.157 402.65 620.821 403.25C620.497 403.85 620.335 404.534 620.335 405.302C620.335 406.07 620.497 406.754 620.821 407.354C621.157 407.954 621.607 408.422 622.171 408.758C622.747 409.094 623.395 409.262 624.115 409.262ZM631.605 396.644H632.505V410H631.605V396.644ZM639.971 410.072C639.083 410.072 638.279 409.868 637.559 409.46C636.851 409.052 636.293 408.488 635.885 407.768C635.477 407.036 635.273 406.214 635.273 405.302C635.273 404.39 635.477 403.574 635.885 402.854C636.293 402.122 636.851 401.552 637.559 401.144C638.279 400.736 639.083 400.532 639.971 400.532C640.859 400.532 641.657 400.736 642.365 401.144C643.085 401.552 643.649 402.122 644.057 402.854C644.465 403.574 644.669 404.39 644.669 405.302C644.669 406.214 644.465 407.036 644.057 407.768C643.649 408.488 643.085 409.052 642.365 409.46C641.657 409.868 640.859 410.072 639.971 410.072ZM639.971 409.262C640.691 409.262 641.333 409.094 641.897 408.758C642.473 408.422 642.923 407.954 643.247 407.354C643.583 406.754 643.751 406.07 643.751 405.302C643.751 404.534 643.583 403.85 643.247 403.25C642.923 402.65 642.473 402.182 641.897 401.846C641.333 401.51 640.691 401.342 639.971 401.342C639.251 401.342 638.603 401.51 638.027 401.846C637.463 402.182 637.013 402.65 636.677 403.25C636.353 403.85 636.191 404.534 636.191 405.302C636.191 406.07 636.353 406.754 636.677 407.354C637.013 407.954 637.463 408.422 638.027 408.758C638.603 409.094 639.251 409.262 639.971 409.262ZM648.325 402.656C648.613 401.972 649.063 401.45 649.675 401.09C650.287 400.718 651.031 400.532 651.907 400.532V401.414L651.691 401.396C650.647 401.396 649.831 401.726 649.243 402.386C648.655 403.034 648.361 403.94 648.361 405.104V410H647.461V400.604H648.325V402.656Z" fill="black"/>
<g filter="url(#filter7_d)">
<rect x="569" y="443" width="741" height="72" rx="12" fill="#FFFBFB"/>
<rect x="569.5" y="443.5" width="740" height="71" rx="11.5" stroke="#ABA7A7"/>
</g>
<circle cx="710" cy="479" r="22" fill="black"/>
<circle cx="659" cy="479" r="22" fill="#999595"/>
<circle cx="608" cy="479" r="22" fill="#F1EEEE"/>
<circle cx="761" cy="479" r="22" fill="#FF1F00"/>
<circle cx="812" cy="479" r="22" fill="#FF7A00"/>
<circle cx="863" cy="479" r="22" fill="#FFD600"/>
<circle cx="914" cy="479" r="22" fill="#BCDA04"/>
<circle cx="965" cy="479" r="22" fill="#48D307"/>
<circle cx="1016" cy="479" r="22" fill="#35E5FD"/>
<circle cx="1067" cy="479" r="22" fill="#083098"/>
<circle cx="1118" cy="479" r="22" fill="#3E10C0"/>
<circle cx="1169" cy="479" r="22" fill="#A810C0"/>
<circle cx="1220" cy="479" r="22" fill="#F006CB"/>
<circle cx="1271" cy="479" r="22" fill="#BF0000"/>
<path d="M578.684 550.502C579.584 550.67 580.268 551.024 580.736 551.564C581.216 552.104 581.456 552.806 581.456 553.67C581.456 554.738 581.066 555.56 580.286 556.136C579.506 556.712 578.348 557 576.812 557H571.196V544.4H576.452C577.82 544.4 578.882 544.682 579.638 545.246C580.406 545.798 580.79 546.59 580.79 547.622C580.79 548.342 580.598 548.948 580.214 549.44C579.842 549.932 579.332 550.286 578.684 550.502ZM572.114 545.192V550.214H576.416C577.52 550.214 578.366 550.004 578.954 549.584C579.554 549.152 579.854 548.522 579.854 547.694C579.854 546.878 579.554 546.26 578.954 545.84C578.366 545.408 577.52 545.192 576.416 545.192H572.114ZM576.812 556.208C578.036 556.208 578.96 555.998 579.584 555.578C580.22 555.146 580.538 554.486 580.538 553.598C580.538 552.71 580.22 552.056 579.584 551.636C578.96 551.216 578.036 551.006 576.812 551.006H572.114V556.208H576.812ZM588.115 557.072C587.227 557.072 586.423 556.868 585.703 556.46C584.995 556.052 584.437 555.488 584.029 554.768C583.621 554.036 583.417 553.214 583.417 552.302C583.417 551.39 583.621 550.574 584.029 549.854C584.437 549.122 584.995 548.552 585.703 548.144C586.423 547.736 587.227 547.532 588.115 547.532C589.003 547.532 589.801 547.736 590.509 548.144C591.229 548.552 591.793 549.122 592.201 549.854C592.609 550.574 592.813 551.39 592.813 552.302C592.813 553.214 592.609 554.036 592.201 554.768C591.793 555.488 591.229 556.052 590.509 556.46C589.801 556.868 589.003 557.072 588.115 557.072ZM588.115 556.262C588.835 556.262 589.477 556.094 590.041 555.758C590.617 555.422 591.067 554.954 591.391 554.354C591.727 553.754 591.895 553.07 591.895 552.302C591.895 551.534 591.727 550.85 591.391 550.25C591.067 549.65 590.617 549.182 590.041 548.846C589.477 548.51 588.835 548.342 588.115 548.342C587.395 548.342 586.747 548.51 586.171 548.846C585.607 549.182 585.157 549.65 584.821 550.25C584.497 550.85 584.335 551.534 584.335 552.302C584.335 553.07 584.497 553.754 584.821 554.354C585.157 554.954 585.607 555.422 586.171 555.758C586.747 556.094 587.395 556.262 588.115 556.262ZM600.267 556.406C600.039 556.622 599.751 556.79 599.403 556.91C599.067 557.018 598.713 557.072 598.341 557.072C597.525 557.072 596.895 556.85 596.451 556.406C596.007 555.95 595.785 555.32 595.785 554.516V548.378H594.057V547.604H595.785V545.552H596.685V547.604H599.673V548.378H596.685V554.426C596.685 555.038 596.829 555.506 597.117 555.83C597.417 556.142 597.855 556.298 598.431 556.298C599.019 556.298 599.505 556.124 599.889 555.776L600.267 556.406ZM607.193 556.406C606.965 556.622 606.677 556.79 606.329 556.91C605.993 557.018 605.639 557.072 605.267 557.072C604.451 557.072 603.821 556.85 603.377 556.406C602.933 555.95 602.711 555.32 602.711 554.516V548.378H600.983V547.604H602.711V545.552H603.611V547.604H606.599V548.378H603.611V554.426C603.611 555.038 603.755 555.506 604.043 555.83C604.343 556.142 604.781 556.298 605.357 556.298C605.945 556.298 606.431 556.124 606.815 555.776L607.193 556.406ZM613.041 557.072C612.153 557.072 611.349 556.868 610.629 556.46C609.921 556.052 609.363 555.488 608.955 554.768C608.547 554.036 608.343 553.214 608.343 552.302C608.343 551.39 608.547 550.574 608.955 549.854C609.363 549.122 609.921 548.552 610.629 548.144C611.349 547.736 612.153 547.532 613.041 547.532C613.929 547.532 614.727 547.736 615.435 548.144C616.155 548.552 616.719 549.122 617.127 549.854C617.535 550.574 617.739 551.39 617.739 552.302C617.739 553.214 617.535 554.036 617.127 554.768C616.719 555.488 616.155 556.052 615.435 556.46C614.727 556.868 613.929 557.072 613.041 557.072ZM613.041 556.262C613.761 556.262 614.403 556.094 614.967 555.758C615.543 555.422 615.993 554.954 616.317 554.354C616.653 553.754 616.821 553.07 616.821 552.302C616.821 551.534 616.653 550.85 616.317 550.25C615.993 549.65 615.543 549.182 614.967 548.846C614.403 548.51 613.761 548.342 613.041 548.342C612.321 548.342 611.673 548.51 611.097 548.846C610.533 549.182 610.083 549.65 609.747 550.25C609.423 550.85 609.261 551.534 609.261 552.302C609.261 553.07 609.423 553.754 609.747 554.354C610.083 554.954 610.533 555.422 611.097 555.758C611.673 556.094 612.321 556.262 613.041 556.262ZM632.231 547.532C633.395 547.532 634.307 547.874 634.967 548.558C635.639 549.242 635.975 550.226 635.975 551.51V557H635.075V551.582C635.075 550.526 634.817 549.722 634.301 549.17C633.785 548.618 633.065 548.342 632.141 548.342C631.085 548.342 630.245 548.672 629.621 549.332C629.009 549.992 628.703 550.88 628.703 551.996V557H627.803V551.582C627.803 550.526 627.545 549.722 627.029 549.17C626.513 548.618 625.793 548.342 624.869 548.342C623.813 548.342 622.973 548.672 622.349 549.332C621.737 549.992 621.431 550.88 621.431 551.996V557H620.531V547.604H621.395V549.62C621.707 548.96 622.169 548.45 622.781 548.09C623.405 547.718 624.143 547.532 624.995 547.532C625.847 547.532 626.567 547.724 627.155 548.108C627.755 548.492 628.181 549.056 628.433 549.8C628.745 549.104 629.231 548.552 629.891 548.144C630.563 547.736 631.343 547.532 632.231 547.532ZM649.93 557.09C648.694 557.09 647.578 556.814 646.582 556.262C645.598 555.71 644.818 554.948 644.242 553.976C643.678 553.004 643.396 551.912 643.396 550.7C643.396 549.488 643.678 548.396 644.242 547.424C644.818 546.452 645.598 545.69 646.582 545.138C647.578 544.586 648.694 544.31 649.93 544.31C650.842 544.31 651.682 544.46 652.45 544.76C653.218 545.048 653.872 545.48 654.412 546.056L653.836 546.65C652.828 545.654 651.538 545.156 649.966 545.156C648.91 545.156 647.95 545.396 647.086 545.876C646.222 546.356 645.544 547.022 645.052 547.874C644.56 548.714 644.314 549.656 644.314 550.7C644.314 551.744 644.56 552.692 645.052 553.544C645.544 554.384 646.222 555.044 647.086 555.524C647.95 556.004 648.91 556.244 649.966 556.244C651.526 556.244 652.816 555.74 653.836 554.732L654.412 555.326C653.872 555.902 653.212 556.34 652.432 556.64C651.664 556.94 650.83 557.09 649.93 557.09ZM660.432 557.072C659.544 557.072 658.74 556.868 658.02 556.46C657.312 556.052 656.754 555.488 656.346 554.768C655.938 554.036 655.734 553.214 655.734 552.302C655.734 551.39 655.938 550.574 656.346 549.854C656.754 549.122 657.312 548.552 658.02 548.144C658.74 547.736 659.544 547.532 660.432 547.532C661.32 547.532 662.118 547.736 662.826 548.144C663.546 548.552 664.11 549.122 664.518 549.854C664.926 550.574 665.13 551.39 665.13 552.302C665.13 553.214 664.926 554.036 664.518 554.768C664.11 555.488 663.546 556.052 662.826 556.46C662.118 556.868 661.32 557.072 660.432 557.072ZM660.432 556.262C661.152 556.262 661.794 556.094 662.358 555.758C662.934 555.422 663.384 554.954 663.708 554.354C664.044 553.754 664.212 553.07 664.212 552.302C664.212 551.534 664.044 550.85 663.708 550.25C663.384 549.65 662.934 549.182 662.358 548.846C661.794 548.51 661.152 548.342 660.432 548.342C659.712 548.342 659.064 548.51 658.488 548.846C657.924 549.182 657.474 549.65 657.138 550.25C656.814 550.85 656.652 551.534 656.652 552.302C656.652 553.07 656.814 553.754 657.138 554.354C657.474 554.954 657.924 555.422 658.488 555.758C659.064 556.094 659.712 556.262 660.432 556.262ZM667.922 543.644H668.822V557H667.922V543.644ZM676.287 557.072C675.399 557.072 674.595 556.868 673.875 556.46C673.167 556.052 672.609 555.488 672.201 554.768C671.793 554.036 671.589 553.214 671.589 552.302C671.589 551.39 671.793 550.574 672.201 549.854C672.609 549.122 673.167 548.552 673.875 548.144C674.595 547.736 675.399 547.532 676.287 547.532C677.175 547.532 677.973 547.736 678.681 548.144C679.401 548.552 679.965 549.122 680.373 549.854C680.781 550.574 680.985 551.39 680.985 552.302C680.985 553.214 680.781 554.036 680.373 554.768C679.965 555.488 679.401 556.052 678.681 556.46C677.973 556.868 677.175 557.072 676.287 557.072ZM676.287 556.262C677.007 556.262 677.649 556.094 678.213 555.758C678.789 555.422 679.239 554.954 679.563 554.354C679.899 553.754 680.067 553.07 680.067 552.302C680.067 551.534 679.899 550.85 679.563 550.25C679.239 549.65 678.789 549.182 678.213 548.846C677.649 548.51 677.007 548.342 676.287 548.342C675.567 548.342 674.919 548.51 674.343 548.846C673.779 549.182 673.329 549.65 672.993 550.25C672.669 550.85 672.507 551.534 672.507 552.302C672.507 553.07 672.669 553.754 672.993 554.354C673.329 554.954 673.779 555.422 674.343 555.758C674.919 556.094 675.567 556.262 676.287 556.262ZM684.641 549.656C684.929 548.972 685.379 548.45 685.991 548.09C686.603 547.718 687.347 547.532 688.223 547.532V548.414L688.007 548.396C686.963 548.396 686.147 548.726 685.559 549.386C684.971 550.034 684.677 550.94 684.677 552.104V557H683.777V547.604H684.641V549.656Z" fill="black"/>
<g filter="url(#filter8_d)">
<rect x="569" y="590" width="741" height="72" rx="12" fill="#FFFBFB"/>
<rect x="569.5" y="590.5" width="740" height="71" rx="11.5" stroke="#ABA7A7"/>
</g>
<circle cx="710" cy="626" r="22" fill="black"/>
<circle cx="659" cy="626" r="22" fill="#999595"/>
<circle cx="608" cy="626" r="22" fill="#F1EEEE"/>
<circle cx="761" cy="626" r="22" fill="#FF1F00"/>
<circle cx="812" cy="626" r="22" fill="#FF7A00"/>
<circle cx="863" cy="626" r="22" fill="#FFD600"/>
<circle cx="914" cy="626" r="22" fill="#BCDA04"/>
<circle cx="965" cy="626" r="22" fill="#48D307"/>
<circle cx="1016" cy="626" r="22" fill="#35E5FD"/>
<circle cx="1067" cy="626" r="22" fill="#083098"/>
<circle cx="1118" cy="626" r="22" fill="#3E10C0"/>
<circle cx="1169" cy="626" r="22" fill="#A810C0"/>
<circle cx="1220" cy="626" r="22" fill="#F006CB"/>
<circle cx="1271" cy="626" r="22" fill="#BF0000"/>
<path d="M574.508 704.09C573.584 704.09 572.702 703.934 571.862 703.622C571.034 703.298 570.386 702.884 569.918 702.38L570.332 701.696C570.776 702.164 571.37 702.548 572.114 702.848C572.87 703.136 573.662 703.28 574.49 703.28C575.69 703.28 576.596 703.052 577.208 702.596C577.82 702.14 578.126 701.546 578.126 700.814C578.126 700.25 577.964 699.8 577.64 699.464C577.316 699.128 576.914 698.87 576.434 698.69C575.954 698.51 575.306 698.324 574.49 698.132C573.566 697.904 572.822 697.682 572.258 697.466C571.706 697.25 571.232 696.92 570.836 696.476C570.452 696.02 570.26 695.414 570.26 694.658C570.26 694.046 570.422 693.488 570.746 692.984C571.07 692.468 571.562 692.06 572.222 691.76C572.894 691.46 573.728 691.31 574.724 691.31C575.42 691.31 576.104 691.412 576.776 691.616C577.448 691.82 578.03 692.096 578.522 692.444L578.18 693.182C577.676 692.834 577.118 692.57 576.506 692.39C575.906 692.21 575.312 692.12 574.724 692.12C573.56 692.12 572.678 692.354 572.078 692.822C571.478 693.29 571.178 693.896 571.178 694.64C571.178 695.204 571.34 695.654 571.664 695.99C571.988 696.326 572.39 696.584 572.87 696.764C573.35 696.944 574.004 697.136 574.832 697.34C575.756 697.568 576.494 697.79 577.046 698.006C577.598 698.222 578.066 698.552 578.45 698.996C578.846 699.428 579.044 700.016 579.044 700.76C579.044 701.372 578.876 701.93 578.54 702.434C578.216 702.938 577.712 703.34 577.028 703.64C576.344 703.94 575.504 704.09 574.508 704.09ZM586.467 694.532C587.643 694.532 588.573 694.874 589.257 695.558C589.941 696.242 590.283 697.226 590.283 698.51V704H589.383V698.582C589.383 697.526 589.113 696.722 588.573 696.17C588.045 695.618 587.301 695.342 586.341 695.342C585.237 695.342 584.367 695.672 583.731 696.332C583.095 696.992 582.777 697.88 582.777 698.996V704H581.877V690.644H582.777V696.566C583.101 695.918 583.581 695.42 584.217 695.072C584.853 694.712 585.603 694.532 586.467 694.532ZM597.678 704.072C596.79 704.072 595.986 703.868 595.266 703.46C594.558 703.052 594 702.488 593.592 701.768C593.184 701.036 592.98 700.214 592.98 699.302C592.98 698.39 593.184 697.574 593.592 696.854C594 696.122 594.558 695.552 595.266 695.144C595.986 694.736 596.79 694.532 597.678 694.532C598.566 694.532 599.364 694.736 600.072 695.144C600.792 695.552 601.356 696.122 601.764 696.854C602.172 697.574 602.376 698.39 602.376 699.302C602.376 700.214 602.172 701.036 601.764 701.768C601.356 702.488 600.792 703.052 600.072 703.46C599.364 703.868 598.566 704.072 597.678 704.072ZM597.678 703.262C598.398 703.262 599.04 703.094 599.604 702.758C600.18 702.422 600.63 701.954 600.954 701.354C601.29 700.754 601.458 700.07 601.458 699.302C601.458 698.534 601.29 697.85 600.954 697.25C600.63 696.65 600.18 696.182 599.604 695.846C599.04 695.51 598.398 695.342 597.678 695.342C596.958 695.342 596.31 695.51 595.734 695.846C595.17 696.182 594.72 696.65 594.384 697.25C594.06 697.85 593.898 698.534 593.898 699.302C593.898 700.07 594.06 700.754 594.384 701.354C594.72 701.954 595.17 702.422 595.734 702.758C596.31 703.094 596.958 703.262 597.678 703.262ZM613.106 699.518H605.024C605.048 700.25 605.234 700.904 605.582 701.48C605.93 702.044 606.398 702.482 606.986 702.794C607.586 703.106 608.258 703.262 609.002 703.262C609.614 703.262 610.178 703.154 610.694 702.938C611.222 702.71 611.66 702.38 612.008 701.948L612.53 702.542C612.122 703.034 611.606 703.412 610.982 703.676C610.37 703.94 609.704 704.072 608.984 704.072C608.048 704.072 607.214 703.868 606.482 703.46C605.75 703.052 605.174 702.488 604.754 701.768C604.346 701.048 604.142 700.226 604.142 699.302C604.142 698.39 604.334 697.574 604.718 696.854C605.114 696.122 605.654 695.552 606.338 695.144C607.022 694.736 607.79 694.532 608.642 694.532C609.494 694.532 610.256 694.736 610.928 695.144C611.612 695.54 612.146 696.098 612.53 696.818C612.926 697.538 613.124 698.354 613.124 699.266L613.106 699.518ZM608.642 695.324C607.982 695.324 607.388 695.474 606.86 695.774C606.332 696.062 605.906 696.476 605.582 697.016C605.27 697.544 605.09 698.144 605.042 698.816H612.242C612.206 698.144 612.026 697.544 611.702 697.016C611.378 696.488 610.952 696.074 610.424 695.774C609.896 695.474 609.302 695.324 608.642 695.324ZM626.147 704.09C624.911 704.09 623.795 703.814 622.799 703.262C621.815 702.71 621.035 701.948 620.459 700.976C619.895 700.004 619.613 698.912 619.613 697.7C619.613 696.488 619.895 695.396 620.459 694.424C621.035 693.452 621.815 692.69 622.799 692.138C623.795 691.586 624.911 691.31 626.147 691.31C627.059 691.31 627.899 691.46 628.667 691.76C629.435 692.048 630.089 692.48 630.629 693.056L630.053 693.65C629.045 692.654 627.755 692.156 626.183 692.156C625.127 692.156 624.167 692.396 623.303 692.876C622.439 693.356 621.761 694.022 621.269 694.874C620.777 695.714 620.531 696.656 620.531 697.7C620.531 698.744 620.777 699.692 621.269 700.544C621.761 701.384 622.439 702.044 623.303 702.524C624.167 703.004 625.127 703.244 626.183 703.244C627.743 703.244 629.033 702.74 630.053 701.732L630.629 702.326C630.089 702.902 629.429 703.34 628.649 703.64C627.881 703.94 627.047 704.09 626.147 704.09ZM636.648 704.072C635.76 704.072 634.956 703.868 634.236 703.46C633.528 703.052 632.97 702.488 632.562 701.768C632.154 701.036 631.95 700.214 631.95 699.302C631.95 698.39 632.154 697.574 632.562 696.854C632.97 696.122 633.528 695.552 634.236 695.144C634.956 694.736 635.76 694.532 636.648 694.532C637.536 694.532 638.334 694.736 639.042 695.144C639.762 695.552 640.326 696.122 640.734 696.854C641.142 697.574 641.346 698.39 641.346 699.302C641.346 700.214 641.142 701.036 640.734 701.768C640.326 702.488 639.762 703.052 639.042 703.46C638.334 703.868 637.536 704.072 636.648 704.072ZM636.648 703.262C637.368 703.262 638.01 703.094 638.574 702.758C639.15 702.422 639.6 701.954 639.924 701.354C640.26 700.754 640.428 700.07 640.428 699.302C640.428 698.534 640.26 697.85 639.924 697.25C639.6 696.65 639.15 696.182 638.574 695.846C638.01 695.51 637.368 695.342 636.648 695.342C635.928 695.342 635.28 695.51 634.704 695.846C634.14 696.182 633.69 696.65 633.354 697.25C633.03 697.85 632.868 698.534 632.868 699.302C632.868 700.07 633.03 700.754 633.354 701.354C633.69 701.954 634.14 702.422 634.704 702.758C635.28 703.094 635.928 703.262 636.648 703.262ZM644.138 690.644H645.038V704H644.138V690.644ZM652.504 704.072C651.616 704.072 650.812 703.868 650.092 703.46C649.384 703.052 648.826 702.488 648.418 701.768C648.01 701.036 647.806 700.214 647.806 699.302C647.806 698.39 648.01 697.574 648.418 696.854C648.826 696.122 649.384 695.552 650.092 695.144C650.812 694.736 651.616 694.532 652.504 694.532C653.392 694.532 654.19 694.736 654.898 695.144C655.618 695.552 656.182 696.122 656.59 696.854C656.998 697.574 657.202 698.39 657.202 699.302C657.202 700.214 656.998 701.036 656.59 701.768C656.182 702.488 655.618 703.052 654.898 703.46C654.19 703.868 653.392 704.072 652.504 704.072ZM652.504 703.262C653.224 703.262 653.866 703.094 654.43 702.758C655.006 702.422 655.456 701.954 655.78 701.354C656.116 700.754 656.284 700.07 656.284 699.302C656.284 698.534 656.116 697.85 655.78 697.25C655.456 696.65 655.006 696.182 654.43 695.846C653.866 695.51 653.224 695.342 652.504 695.342C651.784 695.342 651.136 695.51 650.56 695.846C649.996 696.182 649.546 696.65 649.21 697.25C648.886 697.85 648.724 698.534 648.724 699.302C648.724 700.07 648.886 700.754 649.21 701.354C649.546 701.954 649.996 702.422 650.56 702.758C651.136 703.094 651.784 703.262 652.504 703.262ZM660.858 696.656C661.146 695.972 661.596 695.45 662.208 695.09C662.82 694.718 663.564 694.532 664.44 694.532V695.414L664.224 695.396C663.18 695.396 662.364 695.726 661.776 696.386C661.188 697.034 660.894 697.94 660.894 699.104V704H659.994V694.604H660.858V696.656Z" fill="black"/>
<g filter="url(#filter9_d)">
<rect x="569" y="737" width="741" height="72" rx="12" fill="#FFFBFB"/>
<rect x="569.5" y="737.5" width="740" height="71" rx="11.5" stroke="#ABA7A7"/>
</g>
<circle cx="710" cy="773" r="22" fill="black"/>
<circle cx="659" cy="773" r="22" fill="#999595"/>
<circle cx="608" cy="773" r="22" fill="#F1EEEE"/>
<circle cx="761" cy="773" r="22" fill="#FF1F00"/>
<circle cx="812" cy="773" r="22" fill="#FF7A00"/>
<circle cx="863" cy="773" r="22" fill="#FFD600"/>
<circle cx="914" cy="773" r="22" fill="#BCDA04"/>
<circle cx="965" cy="773" r="22" fill="#48D307"/>
<circle cx="1016" cy="773" r="22" fill="#35E5FD"/>
<circle cx="1067" cy="773" r="22" fill="#083098"/>
<circle cx="1118" cy="773" r="22" fill="#3E10C0"/>
<circle cx="1169" cy="773" r="22" fill="#A810C0"/>
<circle cx="1220" cy="773" r="22" fill="#F006CB"/>
<circle cx="1271" cy="773" r="22" fill="#BF0000"/>
</g>
<defs>
<filter id="filter0_d" x="179" y="709" width="264" height="79" filterUnits="userSpaceOnUse" color-interpolation-filters="sRGB">
<feFlood flood-opacity="0" result="BackgroundImageFix"/>
<feColorMatrix in="SourceAlpha" type="matrix" values="0 0 0 0 0 0 0 0 0 0 0 0 0 0 0 0 0 0 127 0" result="hardAlpha"/>
<feOffset dy="4"/>
<feGaussianBlur stdDeviation="2"/>
<feColorMatrix type="matrix" values="0 0 0 0 0 0 0 0 0 0 0 0 0 0 0 0 0 0 0.25 0"/>
<feBlend mode="normal" in2="BackgroundImageFix" result="effect1_dropShadow"/>
<feBlend mode="normal" in="SourceGraphic" in2="effect1_dropShadow" result="shape"/>
</filter>
<filter id="filter1_d" x="272.878" y="737.86" width="67.7358" height="23.3" filterUnits="userSpaceOnUse" color-interpolation-filters="sRGB">
<feFlood flood-opacity="0" result="BackgroundImageFix"/>
<feColorMatrix in="SourceAlpha" type="matrix" values="0 0 0 0 0 0 0 0 0 0 0 0 0 0 0 0 0 0 127 0" result="hardAlpha"/>
<feOffset dy="4"/>
<feGaussianBlur stdDeviation="2"/>
<feColorMatrix type="matrix" values="0 0 0 0 0 0 0 0 0 0 0 0 0 0 0 0 0 0 0.25 0"/>
<feBlend mode="normal" in2="BackgroundImageFix" result="effect1_dropShadow"/>
<feBlend mode="normal" in="SourceGraphic" in2="effect1_dropShadow" result="shape"/>
</filter>
<filter id="filter2_d" x="998" y="857" width="264" height="79" filterUnits="userSpaceOnUse" color-interpolation-filters="sRGB">
<feFlood flood-opacity="0" result="BackgroundImageFix"/>
<feColorMatrix in="SourceAlpha" type="matrix" values="0 0 0 0 0 0 0 0 0 0 0 0 0 0 0 0 0 0 127 0" result="hardAlpha"/>
<feOffset dy="4"/>
<feGaussianBlur stdDeviation="2"/>
<feColorMatrix type="matrix" values="0 0 0 0 0 0 0 0 0 0 0 0 0 0 0 0 0 0 0.25 0"/>
<feBlend mode="normal" in2="BackgroundImageFix" result="effect1_dropShadow"/>
<feBlend mode="normal" in="SourceGraphic" in2="effect1_dropShadow" result="shape"/>
</filter>
<filter id="filter3_d" x="1087.96" y="886.84" width="72.6978" height="22.32" filterUnits="userSpaceOnUse" color-interpolation-filters="sRGB">
<feFlood flood-opacity="0" result="BackgroundImageFix"/>
<feColorMatrix in="SourceAlpha" type="matrix" values="0 0 0 0 0 0 0 0 0 0 0 0 0 0 0 0 0 0 127 0" result="hardAlpha"/>
<feOffset dy="4"/>
<feGaussianBlur stdDeviation="2"/>
<feColorMatrix type="matrix" values="0 0 0 0 0 0 0 0 0 0 0 0 0 0 0 0 0 0 0.25 0"/>
<feBlend mode="normal" in2="BackgroundImageFix" result="effect1_dropShadow"/>
<feBlend mode="normal" in="SourceGraphic" in2="effect1_dropShadow" result="shape"/>
</filter>
<filter id="filter4_d" x="549" y="41" width="626" height="162" filterUnits="userSpaceOnUse" color-interpolation-filters="sRGB">
<feFlood flood-opacity="0" result="BackgroundImageFix"/>
<feColorMatrix in="SourceAlpha" type="matrix" values="0 0 0 0 0 0 0 0 0 0 0 0 0 0 0 0 0 0 127 0" result="hardAlpha"/>
<feOffset dy="4"/>
<feGaussianBlur stdDeviation="10"/>
<feColorMatrix type="matrix" values="0 0 0 0 0 0 0 0 0 0 0 0 0 0 0 0 0 0 0.12 0"/>
<feBlend mode="normal" in2="BackgroundImageFix" result="effect1_dropShadow"/>
<feBlend mode="normal" in="SourceGraphic" in2="effect1_dropShadow" result="shape"/>
</filter>
<filter id="filter5_d" x="549" y="230" width="266" height="162" filterUnits="userSpaceOnUse" color-interpolation-filters="sRGB">
<feFlood flood-opacity="0" result="BackgroundImageFix"/>
<feColorMatrix in="SourceAlpha" type="matrix" values="0 0 0 0 0 0 0 0 0 0 0 0 0 0 0 0 0 0 127 0" result="hardAlpha"/>
<feOffset dy="4"/>
<feGaussianBlur stdDeviation="10"/>
<feColorMatrix type="matrix" values="0 0 0 0 0 0 0 0 0 0 0 0 0 0 0 0 0 0 0.12 0"/>
<feBlend mode="normal" in2="BackgroundImageFix" result="effect1_dropShadow"/>
<feBlend mode="normal" in="SourceGraphic" in2="effect1_dropShadow" result="shape"/>
</filter>
<filter id="filter6_d" x="851" y="230" width="337" height="162" filterUnits="userSpaceOnUse" color-interpolation-filters="sRGB">
<feFlood flood-opacity="0" result="BackgroundImageFix"/>
<feColorMatrix in="SourceAlpha" type="matrix" values="0 0 0 0 0 0 0 0 0 0 0 0 0 0 0 0 0 0 127 0" result="hardAlpha"/>
<feOffset dy="4"/>
<feGaussianBlur stdDeviation="10"/>
<feColorMatrix type="matrix" values="0 0 0 0 0 0 0 0 0 0 0 0 0 0 0 0 0 0 0.12 0"/>
<feBlend mode="normal" in2="BackgroundImageFix" result="effect1_dropShadow"/>
<feBlend mode="normal" in="SourceGraphic" in2="effect1_dropShadow" result="shape"/>
</filter>
<filter id="filter7_d" x="549" y="427" width="781" height="112" filterUnits="userSpaceOnUse" color-interpolation-filters="sRGB">
<feFlood flood-opacity="0" result="BackgroundImageFix"/>
<feColorMatrix in="SourceAlpha" type="matrix" values="0 0 0 0 0 0 0 0 0 0 0 0 0 0 0 0 0 0 127 0" result="hardAlpha"/>
<feOffset dy="4"/>
<feGaussianBlur stdDeviation="10"/>
<feColorMatrix type="matrix" values="0 0 0 0 0 0 0 0 0 0 0 0 0 0 0 0 0 0 0.12 0"/>
<feBlend mode="normal" in2="BackgroundImageFix" result="effect1_dropShadow"/>
<feBlend mode="normal" in="SourceGraphic" in2="effect1_dropShadow" result="shape"/>
</filter>
<filter id="filter8_d" x="549" y="574" width="781" height="112" filterUnits="userSpaceOnUse" color-interpolation-filters="sRGB">
<feFlood flood-opacity="0" result="BackgroundImageFix"/>
<feColorMatrix in="SourceAlpha" type="matrix" values="0 0 0 0 0 0 0 0 0 0 0 0 0 0 0 0 0 0 127 0" result="hardAlpha"/>
<feOffset dy="4"/>
<feGaussianBlur stdDeviation="10"/>
<feColorMatrix type="matrix" values="0 0 0 0 0 0 0 0 0 0 0 0 0 0 0 0 0 0 0.12 0"/>
<feBlend mode="normal" in2="BackgroundImageFix" result="effect1_dropShadow"/>
<feBlend mode="normal" in="SourceGraphic" in2="effect1_dropShadow" result="shape"/>
</filter>
<filter id="filter9_d" x="549" y="721" width="781" height="112" filterUnits="userSpaceOnUse" color-interpolation-filters="sRGB">
<feFlood flood-opacity="0" result="BackgroundImageFix"/>
<feColorMatrix in="SourceAlpha" type="matrix" values="0 0 0 0 0 0 0 0 0 0 0 0 0 0 0 0 0 0 127 0" result="hardAlpha"/>
<feOffset dy="4"/>
<feGaussianBlur stdDeviation="10"/>
<feColorMatrix type="matrix" values="0 0 0 0 0 0 0 0 0 0 0 0 0 0 0 0 0 0 0.12 0"/>
<feBlend mode="normal" in2="BackgroundImageFix" result="effect1_dropShadow"/>
<feBlend mode="normal" in="SourceGraphic" in2="effect1_dropShadow" result="shape"/>
</filter>
<clipPath id="clip0">
<rect width="1440" height="1024" fill="white"/>
</clipPath>
</defs>
</svg>
