<svg width="194" height="180" viewBox="0 0 194 180" fill="none" xmlns="http://www.w3.org/2000/svg">
<g clip-path="url(#clip0)">
<path d="M49.1335 179.406H49.1196C48.6379 179.405 48.1761 179.19 47.8355 178.806C47.4949 178.423 47.3033 177.903 47.3027 177.36V54.3233C47.3033 53.7808 47.4949 53.2608 47.8355 52.8773C48.1761 52.4937 48.6379 52.278 49.1196 52.2773H138.893C139.375 52.2779 139.837 52.4937 140.177 52.8773C140.518 53.2608 140.71 53.7808 140.71 54.3233L140.111 177.066C140.111 177.606 139.921 178.123 139.584 178.506C139.246 178.889 138.788 179.107 138.309 179.112L49.1335 179.406Z" fill="#B3B5F1"/>
<path d="M68.44 142.51H62.1103C61.9769 142.51 61.8491 142.478 61.7549 142.422C61.6606 142.366 61.6076 142.29 61.6074 142.211V140.208C61.6076 140.129 61.6606 140.053 61.7549 139.997C61.8491 139.941 61.9769 139.91 62.1103 139.91H68.44C68.5733 139.91 68.7011 139.941 68.7954 139.997C68.8897 140.053 68.9427 140.129 68.9428 140.208V142.211C68.9427 142.29 68.8897 142.366 68.7954 142.422C68.7011 142.478 68.5733 142.51 68.44 142.51V142.51Z" fill="#FF6363"/>
<path d="M79.6783 142.51H73.3485C73.2152 142.51 73.0874 142.478 72.9931 142.422C72.8989 142.366 72.8459 142.29 72.8457 142.211V140.208C72.8459 140.129 72.8989 140.053 72.9931 139.997C73.0874 139.941 73.2152 139.91 73.3485 139.91H79.6783C79.8116 139.91 79.9394 139.941 80.0337 139.997C80.128 140.053 80.181 140.129 80.1811 140.208V142.211C80.181 142.29 80.128 142.366 80.0337 142.422C79.9394 142.478 79.8116 142.51 79.6783 142.51V142.51Z" fill="#FF6363"/>
<path d="M90.649 142.51H84.3192C84.1859 142.51 84.0581 142.478 83.9638 142.422C83.8696 142.366 83.8166 142.29 83.8164 142.211V140.208C83.8166 140.129 83.8696 140.053 83.9638 139.997C84.0581 139.941 84.1859 139.91 84.3192 139.91H90.649C90.7823 139.91 90.9101 139.941 91.0044 139.997C91.0987 140.053 91.1517 140.129 91.1519 140.208V142.211C91.1517 142.29 91.0987 142.366 91.0044 142.422C90.9101 142.478 90.7823 142.51 90.649 142.51V142.51Z" fill="#FF6363"/>
<path d="M68.44 149.189H62.1103C61.9769 149.188 61.8491 149.157 61.7549 149.101C61.6606 149.045 61.6076 148.969 61.6074 148.89V146.887C61.6076 146.808 61.6606 146.732 61.7549 146.676C61.8491 146.62 61.9769 146.588 62.1103 146.588H68.44C68.5733 146.588 68.7011 146.62 68.7954 146.676C68.8897 146.732 68.9427 146.808 68.9428 146.887V148.89C68.9427 148.969 68.8897 149.045 68.7954 149.101C68.7011 149.157 68.5733 149.188 68.44 149.189V149.189Z" fill="#FF6363"/>
<path d="M79.6783 149.189H73.3485C73.2152 149.188 73.0874 149.157 72.9931 149.101C72.8989 149.045 72.8459 148.969 72.8457 148.89V146.887C72.8459 146.808 72.8989 146.732 72.9931 146.676C73.0874 146.62 73.2152 146.588 73.3485 146.588H79.6783C79.8116 146.588 79.9394 146.62 80.0337 146.676C80.128 146.732 80.181 146.808 80.1811 146.887V148.89C80.181 148.969 80.128 149.045 80.0337 149.101C79.9394 149.157 79.8116 149.188 79.6783 149.189V149.189Z" fill="#FF6363"/>
<path d="M90.649 149.189H84.3192C84.1859 149.188 84.0581 149.157 83.9638 149.101C83.8696 149.045 83.8166 148.969 83.8164 148.89V146.887C83.8166 146.808 83.8696 146.732 83.9638 146.676C84.0581 146.62 84.1859 146.588 84.3192 146.588H90.649C90.7823 146.588 90.9101 146.62 91.0044 146.676C91.0987 146.732 91.1517 146.808 91.1519 146.887V148.89C91.1517 148.969 91.0987 149.045 91.0044 149.101C90.9101 149.157 90.7823 149.188 90.649 149.189V149.189Z" fill="#FF6363"/>
<path d="M68.44 155.868H62.1103C61.9769 155.868 61.8491 155.837 61.7549 155.781C61.6606 155.725 61.6076 155.649 61.6074 155.57V153.567C61.6076 153.488 61.6606 153.412 61.7549 153.356C61.8491 153.3 61.9769 153.268 62.1103 153.268H68.44C68.5733 153.268 68.7011 153.3 68.7954 153.356C68.8897 153.412 68.9427 153.488 68.9428 153.567V155.57C68.9427 155.649 68.8897 155.725 68.7954 155.781C68.7011 155.837 68.5733 155.868 68.44 155.868V155.868Z" fill="#FF6363"/>
<path d="M79.6783 155.868H73.3485C73.2152 155.868 73.0874 155.837 72.9931 155.781C72.8989 155.725 72.8459 155.649 72.8457 155.57V153.567C72.8459 153.488 72.8989 153.412 72.9931 153.356C73.0874 153.3 73.2152 153.268 73.3485 153.268H79.6783C79.8116 153.268 79.9394 153.3 80.0337 153.356C80.128 153.412 80.181 153.488 80.1811 153.567V155.57C80.181 155.649 80.128 155.725 80.0337 155.781C79.9394 155.837 79.8116 155.868 79.6783 155.868V155.868Z" fill="#FF6363"/>
<path d="M90.649 155.865H84.3192C84.1859 155.865 84.0581 155.833 83.9638 155.777C83.8696 155.721 83.8166 155.645 83.8164 155.566V153.563C83.8166 153.484 83.8696 153.408 83.9638 153.352C84.0581 153.296 84.1859 153.265 84.3192 153.265H90.649C90.7823 153.265 90.9101 153.296 91.0044 153.352C91.0987 153.408 91.1517 153.484 91.1519 153.563V155.566C91.1517 155.645 91.0987 155.721 91.0044 155.777C90.9101 155.833 90.7823 155.865 90.649 155.865V155.865Z" fill="#FF6363"/>
<path d="M69.001 142.531H61.6683C61.4911 142.531 61.3213 142.489 61.196 142.415C61.0707 142.34 61.0002 142.239 61 142.134V139.814C61.0002 139.709 61.0707 139.608 61.196 139.533C61.3213 139.459 61.4911 139.417 61.6683 139.417H69.001C69.1782 139.417 69.3481 139.459 69.4734 139.533C69.5987 139.608 69.6692 139.709 69.6694 139.814V142.134C69.6692 142.239 69.5987 142.34 69.4734 142.415C69.3481 142.489 69.1782 142.531 69.001 142.531V142.531ZM61.6683 139.519C61.5367 139.519 61.4104 139.55 61.3173 139.605C61.2242 139.661 61.1718 139.736 61.1717 139.814V142.134C61.1718 142.212 61.2242 142.287 61.3173 142.343C61.4104 142.398 61.5367 142.429 61.6683 142.429H69.001C69.1327 142.429 69.259 142.398 69.3521 142.343C69.4452 142.287 69.4976 142.212 69.4977 142.134V139.814C69.4976 139.736 69.4452 139.661 69.3521 139.605C69.259 139.55 69.1327 139.519 69.001 139.519H61.6683Z" fill="#3F3D56"/>
<path d="M80.1602 142.531H72.8275C72.6503 142.531 72.4804 142.489 72.3552 142.414C72.2299 142.34 72.1594 142.239 72.1592 142.134V139.813C72.1594 139.708 72.2299 139.607 72.3552 139.533C72.4804 139.458 72.6503 139.417 72.8275 139.417H80.1602C80.3374 139.417 80.5073 139.458 80.6326 139.533C80.7579 139.607 80.8283 139.708 80.8285 139.813V142.134C80.8283 142.239 80.7579 142.34 80.6326 142.414C80.5073 142.489 80.3374 142.531 80.1602 142.531ZM72.8275 139.518C72.6958 139.519 72.5696 139.55 72.4765 139.605C72.3834 139.66 72.331 139.735 72.3309 139.813V142.134C72.331 142.212 72.3834 142.287 72.4765 142.342C72.5696 142.397 72.6958 142.429 72.8275 142.429H80.1602C80.2919 142.429 80.4181 142.397 80.5112 142.342C80.6044 142.287 80.6567 142.212 80.6569 142.134V139.813C80.6567 139.735 80.6044 139.66 80.5112 139.605C80.4181 139.55 80.2919 139.519 80.1602 139.518H72.8275Z" fill="#3F3D56"/>
<path d="M91.3184 142.531H83.9857C83.8085 142.531 83.6387 142.489 83.5134 142.414C83.3881 142.34 83.3176 142.239 83.3174 142.134V139.813C83.3176 139.708 83.3881 139.607 83.5134 139.533C83.6387 139.458 83.8085 139.417 83.9857 139.417H91.3184C91.4956 139.417 91.6655 139.458 91.7908 139.533C91.9161 139.607 91.9865 139.708 91.9867 139.813V142.134C91.9865 142.239 91.9161 142.34 91.7908 142.414C91.6655 142.489 91.4956 142.531 91.3184 142.531ZM83.9857 139.518C83.854 139.519 83.7278 139.55 83.6347 139.605C83.5416 139.66 83.4892 139.735 83.4891 139.813V142.134C83.4892 142.212 83.5416 142.287 83.6347 142.342C83.7278 142.397 83.854 142.429 83.9857 142.429H91.3184C91.4501 142.429 91.5763 142.397 91.6694 142.342C91.7626 142.287 91.8149 142.212 91.8151 142.134V139.813C91.8149 139.735 91.7626 139.66 91.6694 139.605C91.5763 139.55 91.4501 139.519 91.3184 139.518H83.9857Z" fill="#3F3D56"/>
<path d="M69.001 149.209H61.6683C61.4911 149.209 61.3213 149.167 61.196 149.093C61.0707 149.019 61.0002 148.918 61 148.812V146.492C61.0002 146.387 61.0707 146.286 61.196 146.212C61.3213 146.137 61.4911 146.095 61.6683 146.095H69.001C69.1782 146.095 69.3481 146.137 69.4734 146.212C69.5987 146.286 69.6692 146.387 69.6694 146.492V148.812C69.6692 148.918 69.5987 149.019 69.4734 149.093C69.3481 149.167 69.1782 149.209 69.001 149.209V149.209ZM61.6683 146.197C61.5367 146.197 61.4104 146.228 61.3173 146.284C61.2242 146.339 61.1718 146.414 61.1717 146.492V148.812C61.1718 148.891 61.2242 148.966 61.3173 149.021C61.4104 149.076 61.5367 149.107 61.6683 149.107H69.001C69.1327 149.107 69.259 149.076 69.3521 149.021C69.4452 148.966 69.4976 148.891 69.4977 148.812V146.492C69.4976 146.414 69.4452 146.339 69.3521 146.284C69.259 146.228 69.1327 146.197 69.001 146.197H61.6683Z" fill="#3F3D56"/>
<path d="M80.1592 149.209H72.8265C72.6494 149.209 72.4795 149.167 72.3542 149.093C72.2289 149.019 72.1584 148.918 72.1582 148.812V146.492C72.1584 146.387 72.2289 146.286 72.3542 146.212C72.4795 146.137 72.6494 146.095 72.8265 146.095H80.1592C80.3364 146.095 80.5063 146.137 80.6316 146.212C80.7569 146.286 80.8274 146.387 80.8276 146.492V148.812C80.8274 148.918 80.7569 149.019 80.6316 149.093C80.5063 149.167 80.3364 149.209 80.1592 149.209ZM72.8265 146.197C72.6949 146.197 72.5686 146.228 72.4755 146.284C72.3824 146.339 72.33 146.414 72.3299 146.492V148.812C72.33 148.891 72.3824 148.966 72.4755 149.021C72.5686 149.076 72.6949 149.107 72.8265 149.107H80.1592C80.2909 149.107 80.4171 149.076 80.5103 149.021C80.6034 148.966 80.6557 148.891 80.6559 148.812V146.492C80.6557 146.414 80.6034 146.339 80.5103 146.284C80.4171 146.228 80.2909 146.197 80.1592 146.197H72.8265Z" fill="#3F3D56"/>
<path d="M91.3184 149.209H83.9857C83.8085 149.209 83.6387 149.167 83.5134 149.093C83.3881 149.019 83.3176 148.918 83.3174 148.812V146.492C83.3176 146.387 83.3881 146.286 83.5134 146.212C83.6387 146.137 83.8085 146.095 83.9857 146.095H91.3184C91.4956 146.095 91.6655 146.137 91.7908 146.212C91.9161 146.286 91.9865 146.387 91.9867 146.492V148.812C91.9865 148.918 91.9161 149.019 91.7908 149.093C91.6655 149.167 91.4956 149.209 91.3184 149.209ZM83.9857 146.197C83.854 146.197 83.7278 146.228 83.6347 146.284C83.5416 146.339 83.4892 146.414 83.4891 146.492V148.812C83.4892 148.891 83.5416 148.966 83.6347 149.021C83.7278 149.076 83.854 149.107 83.9857 149.107H91.3184C91.4501 149.107 91.5763 149.076 91.6694 149.021C91.7626 148.966 91.8149 148.891 91.8151 148.812V146.492C91.8149 146.414 91.7626 146.339 91.6694 146.284C91.5763 146.228 91.4501 146.197 91.3184 146.197H83.9857Z" fill="#3F3D56"/>
<path d="M69.001 155.889H61.6683C61.4911 155.889 61.3213 155.847 61.196 155.773C61.0707 155.698 61.0002 155.597 61 155.492V153.172C61.0002 153.067 61.0707 152.966 61.196 152.891C61.3213 152.817 61.4911 152.775 61.6683 152.775H69.001C69.1782 152.775 69.3481 152.817 69.4734 152.891C69.5987 152.966 69.6692 153.067 69.6694 153.172V155.492C69.6692 155.597 69.5987 155.698 69.4734 155.773C69.3481 155.847 69.1782 155.889 69.001 155.889V155.889ZM61.6683 152.877C61.5367 152.877 61.4104 152.908 61.3173 152.963C61.2242 153.019 61.1718 153.094 61.1717 153.172V155.492C61.1718 155.57 61.2242 155.645 61.3173 155.701C61.4104 155.756 61.5367 155.787 61.6683 155.787H69.001C69.1327 155.787 69.259 155.756 69.3521 155.701C69.4452 155.645 69.4976 155.57 69.4977 155.492V153.172C69.4976 153.094 69.4452 153.019 69.3521 152.963C69.259 152.908 69.1327 152.877 69.001 152.877H61.6683Z" fill="#3F3D56"/>
<path d="M80.1592 155.889H72.8265C72.6494 155.889 72.4795 155.847 72.3542 155.773C72.2289 155.698 72.1584 155.597 72.1582 155.492V153.172C72.1584 153.067 72.2289 152.966 72.3542 152.891C72.4795 152.817 72.6494 152.775 72.8265 152.775H80.1592C80.3364 152.775 80.5063 152.817 80.6316 152.891C80.7569 152.966 80.8274 153.067 80.8276 153.172V155.492C80.8274 155.597 80.7569 155.698 80.6316 155.773C80.5063 155.847 80.3364 155.889 80.1592 155.889V155.889ZM72.8265 152.877C72.6949 152.877 72.5686 152.908 72.4755 152.963C72.3824 153.019 72.33 153.094 72.3299 153.172V155.492C72.33 155.57 72.3824 155.645 72.4755 155.701C72.5686 155.756 72.6949 155.787 72.8265 155.787H80.1592C80.2909 155.787 80.4171 155.756 80.5103 155.701C80.6034 155.645 80.6557 155.57 80.6559 155.492V153.172C80.6557 153.094 80.6034 153.019 80.5103 152.963C80.4171 152.908 80.2909 152.877 80.1592 152.877H72.8265Z" fill="#3F3D56"/>
<path d="M91.3184 155.889H83.9857C83.8085 155.889 83.6387 155.847 83.5134 155.773C83.3881 155.698 83.3176 155.597 83.3174 155.492V153.172C83.3176 153.067 83.3881 152.966 83.5134 152.891C83.6387 152.817 83.8085 152.775 83.9857 152.775H91.3184C91.4956 152.775 91.6655 152.817 91.7908 152.891C91.9161 152.966 91.9865 153.067 91.9867 153.172V155.492C91.9865 155.597 91.9161 155.698 91.7908 155.773C91.6655 155.847 91.4956 155.889 91.3184 155.889V155.889ZM83.9857 152.877C83.854 152.877 83.7278 152.908 83.6347 152.963C83.5416 153.019 83.4892 153.094 83.4891 153.172V155.492C83.4892 155.57 83.5416 155.645 83.6347 155.701C83.7278 155.756 83.854 155.787 83.9857 155.787H91.3184C91.4501 155.787 91.5763 155.756 91.6694 155.701C91.7626 155.645 91.8149 155.57 91.8151 155.492V153.172C91.8149 153.094 91.7626 153.019 91.6694 152.963C91.5763 152.908 91.4501 152.877 91.3184 152.877H83.9857Z" fill="#3F3D56"/>
<path d="M68.44 123.093H62.1103C61.9769 123.093 61.8491 123.062 61.7549 123.006C61.6606 122.95 61.6076 122.874 61.6074 122.795V120.792C61.6076 120.713 61.6606 120.637 61.7549 120.581C61.8491 120.525 61.9769 120.493 62.1103 120.493H68.44C68.5733 120.493 68.7011 120.525 68.7954 120.581C68.8897 120.637 68.9427 120.713 68.9428 120.792V122.795C68.9427 122.874 68.8897 122.95 68.7954 123.006C68.7011 123.062 68.5733 123.093 68.44 123.093V123.093Z" fill="#FF6363"/>
<path d="M79.6783 123.093H73.3485C73.2152 123.093 73.0874 123.062 72.9931 123.006C72.8989 122.95 72.8459 122.874 72.8457 122.795V120.792C72.8459 120.713 72.8989 120.637 72.9931 120.581C73.0874 120.525 73.2152 120.493 73.3485 120.493H79.6783C79.8116 120.493 79.9394 120.525 80.0337 120.581C80.128 120.637 80.181 120.713 80.1811 120.792V122.795C80.181 122.874 80.128 122.95 80.0337 123.006C79.9394 123.062 79.8116 123.093 79.6783 123.093V123.093Z" fill="#FF6363"/>
<path d="M90.649 123.093H84.3192C84.1859 123.093 84.0581 123.062 83.9638 123.006C83.8696 122.95 83.8166 122.874 83.8164 122.795V120.792C83.8166 120.713 83.8696 120.637 83.9638 120.581C84.0581 120.525 84.1859 120.493 84.3192 120.493H90.649C90.7823 120.493 90.9101 120.525 91.0044 120.581C91.0987 120.637 91.1517 120.713 91.1519 120.792V122.795C91.1517 122.874 91.0987 122.95 91.0044 123.006C90.9101 123.062 90.7823 123.093 90.649 123.093V123.093Z" fill="#FF6363"/>
<path d="M68.44 129.773H62.1103C61.9769 129.772 61.8491 129.741 61.7549 129.685C61.6606 129.629 61.6076 129.553 61.6074 129.474V127.471C61.6076 127.392 61.6606 127.316 61.7549 127.26C61.8491 127.204 61.9769 127.172 62.1103 127.172H68.44C68.5733 127.172 68.7011 127.204 68.7954 127.26C68.8897 127.316 68.9427 127.392 68.9428 127.471V129.474C68.9427 129.553 68.8897 129.629 68.7954 129.685C68.7011 129.741 68.5733 129.772 68.44 129.773V129.773Z" fill="#FF6363"/>
<path d="M79.6783 129.773H73.3485C73.2152 129.772 73.0874 129.741 72.9931 129.685C72.8989 129.629 72.8459 129.553 72.8457 129.474V127.471C72.8459 127.392 72.8989 127.316 72.9931 127.26C73.0874 127.204 73.2152 127.172 73.3485 127.172H79.6783C79.8116 127.172 79.9394 127.204 80.0337 127.26C80.128 127.316 80.181 127.392 80.1811 127.471V129.474C80.181 129.553 80.128 129.629 80.0337 129.685C79.9394 129.741 79.8116 129.772 79.6783 129.773V129.773Z" fill="#FF6363"/>
<path d="M90.649 129.773H84.3192C84.1859 129.772 84.0581 129.741 83.9638 129.685C83.8696 129.629 83.8166 129.553 83.8164 129.474V127.471C83.8166 127.392 83.8696 127.316 83.9638 127.26C84.0581 127.204 84.1859 127.172 84.3192 127.172H90.649C90.7823 127.172 90.9101 127.204 91.0044 127.26C91.0987 127.316 91.1517 127.392 91.1519 127.471V129.474C91.1517 129.553 91.0987 129.629 91.0044 129.685C90.9101 129.741 90.7823 129.772 90.649 129.773V129.773Z" fill="#FF6363"/>
<path d="M68.44 136.452H62.1103C61.9769 136.452 61.8491 136.42 61.7549 136.364C61.6606 136.308 61.6076 136.232 61.6074 136.153V134.15C61.6076 134.071 61.6606 133.995 61.7549 133.939C61.8491 133.883 61.9769 133.852 62.1103 133.852H68.44C68.5733 133.852 68.7011 133.883 68.7954 133.939C68.8897 133.995 68.9427 134.071 68.9428 134.15V136.153C68.9427 136.232 68.8897 136.308 68.7954 136.364C68.7011 136.42 68.5733 136.452 68.44 136.452V136.452Z" fill="#FF6363"/>
<path d="M79.6783 136.452H73.3485C73.2152 136.452 73.0874 136.42 72.9931 136.364C72.8989 136.308 72.8459 136.232 72.8457 136.153V134.15C72.8459 134.071 72.8989 133.995 72.9931 133.939C73.0874 133.883 73.2152 133.852 73.3485 133.852H79.6783C79.8116 133.852 79.9394 133.883 80.0337 133.939C80.128 133.995 80.181 134.071 80.1811 134.15V136.153C80.181 136.232 80.128 136.308 80.0337 136.364C79.9394 136.42 79.8116 136.452 79.6783 136.452V136.452Z" fill="#FF6363"/>
<path d="M90.649 136.448H84.3192C84.1859 136.448 84.0581 136.417 83.9638 136.361C83.8696 136.305 83.8166 136.229 83.8164 136.15V134.147C83.8166 134.068 83.8696 133.992 83.9638 133.936C84.0581 133.88 84.1859 133.848 84.3192 133.848H90.649C90.7823 133.848 90.9101 133.88 91.0044 133.936C91.0987 133.992 91.1517 134.068 91.1519 134.147V136.15C91.1517 136.229 91.0987 136.305 91.0044 136.361C90.9101 136.417 90.7823 136.448 90.649 136.448V136.448Z" fill="#FF6363"/>
<path d="M69.001 123.115H61.6683C61.4911 123.115 61.3213 123.073 61.196 122.998C61.0707 122.924 61.0002 122.823 61 122.718V120.397C61.0002 120.292 61.0707 120.191 61.196 120.117C61.3213 120.042 61.4911 120.001 61.6683 120H69.001C69.1782 120.001 69.3481 120.042 69.4734 120.117C69.5987 120.191 69.6692 120.292 69.6694 120.397V122.718C69.6692 122.823 69.5987 122.924 69.4734 122.998C69.3481 123.073 69.1782 123.115 69.001 123.115V123.115ZM61.6683 120.102C61.5367 120.103 61.4104 120.134 61.3173 120.189C61.2242 120.244 61.1718 120.319 61.1717 120.397V122.718C61.1718 122.796 61.2242 122.871 61.3173 122.926C61.4104 122.981 61.5367 123.013 61.6683 123.013H69.001C69.1327 123.013 69.259 122.981 69.3521 122.926C69.4452 122.871 69.4976 122.796 69.4977 122.718V120.397C69.4976 120.319 69.4452 120.244 69.3521 120.189C69.259 120.134 69.1327 120.103 69.001 120.102H61.6683Z" fill="#3F3D56"/>
<path d="M80.1602 123.114H72.8275C72.6503 123.114 72.4804 123.072 72.3552 122.998C72.2299 122.923 72.1594 122.822 72.1592 122.717V120.397C72.1594 120.292 72.2299 120.191 72.3552 120.116C72.4804 120.042 72.6503 120 72.8275 120H80.1602C80.3374 120 80.5073 120.042 80.6326 120.116C80.7579 120.191 80.8283 120.292 80.8285 120.397V122.717C80.8283 122.822 80.7579 122.923 80.6326 122.998C80.5073 123.072 80.3374 123.114 80.1602 123.114ZM72.8275 120.102C72.6958 120.102 72.5696 120.133 72.4765 120.188C72.3834 120.244 72.331 120.319 72.3309 120.397V122.717C72.331 122.795 72.3834 122.87 72.4765 122.926C72.5696 122.981 72.6958 123.012 72.8275 123.012H80.1602C80.2919 123.012 80.4181 122.981 80.5112 122.926C80.6044 122.87 80.6567 122.795 80.6569 122.717V120.397C80.6567 120.319 80.6044 120.244 80.5112 120.188C80.4181 120.133 80.2919 120.102 80.1602 120.102H72.8275Z" fill="#3F3D56"/>
<path d="M91.3184 123.114H83.9857C83.8085 123.114 83.6387 123.072 83.5134 122.998C83.3881 122.923 83.3176 122.822 83.3174 122.717V120.397C83.3176 120.292 83.3881 120.191 83.5134 120.116C83.6387 120.042 83.8085 120 83.9857 120H91.3184C91.4956 120 91.6655 120.042 91.7908 120.116C91.9161 120.191 91.9865 120.292 91.9867 120.397V122.717C91.9865 122.822 91.9161 122.923 91.7908 122.998C91.6655 123.072 91.4956 123.114 91.3184 123.114ZM83.9857 120.102C83.854 120.102 83.7278 120.133 83.6347 120.188C83.5416 120.244 83.4892 120.319 83.4891 120.397V122.717C83.4892 122.795 83.5416 122.87 83.6347 122.926C83.7278 122.981 83.854 123.012 83.9857 123.012H91.3184C91.4501 123.012 91.5763 122.981 91.6694 122.926C91.7626 122.87 91.8149 122.795 91.8151 122.717V120.397C91.8149 120.319 91.7626 120.244 91.6694 120.188C91.5763 120.133 91.4501 120.102 91.3184 120.102H83.9857Z" fill="#3F3D56"/>
<path d="M69.001 129.793H61.6683C61.4911 129.793 61.3213 129.751 61.196 129.676C61.0707 129.602 61.0002 129.501 61 129.396V127.076C61.0002 126.97 61.0707 126.87 61.196 126.795C61.3213 126.721 61.4911 126.679 61.6683 126.679H69.001C69.1782 126.679 69.3481 126.721 69.4734 126.795C69.5987 126.87 69.6692 126.97 69.6694 127.076V129.396C69.6692 129.501 69.5987 129.602 69.4734 129.676C69.3481 129.751 69.1782 129.793 69.001 129.793V129.793ZM61.6683 126.781C61.5367 126.781 61.4104 126.812 61.3173 126.867C61.2242 126.922 61.1718 126.997 61.1717 127.076V129.396C61.1718 129.474 61.2242 129.549 61.3173 129.604C61.4104 129.66 61.5367 129.691 61.6683 129.691H69.001C69.1327 129.691 69.259 129.66 69.3521 129.604C69.4452 129.549 69.4976 129.474 69.4977 129.396V127.076C69.4976 126.997 69.4452 126.922 69.3521 126.867C69.259 126.812 69.1327 126.781 69.001 126.781H61.6683Z" fill="#3F3D56"/>
<path d="M80.1592 129.793H72.8265C72.6494 129.793 72.4795 129.751 72.3542 129.676C72.2289 129.602 72.1584 129.501 72.1582 129.396V127.076C72.1584 126.97 72.2289 126.87 72.3542 126.795C72.4795 126.721 72.6494 126.679 72.8265 126.679H80.1592C80.3364 126.679 80.5063 126.721 80.6316 126.795C80.7569 126.87 80.8274 126.97 80.8276 127.076V129.396C80.8274 129.501 80.7569 129.602 80.6316 129.676C80.5063 129.751 80.3364 129.793 80.1592 129.793ZM72.8265 126.781C72.6949 126.781 72.5686 126.812 72.4755 126.867C72.3824 126.922 72.33 126.997 72.3299 127.076V129.396C72.33 129.474 72.3824 129.549 72.4755 129.604C72.5686 129.66 72.6949 129.691 72.8265 129.691H80.1592C80.2909 129.691 80.4171 129.66 80.5103 129.604C80.6034 129.549 80.6557 129.474 80.6559 129.396V127.076C80.6557 126.997 80.6034 126.922 80.5103 126.867C80.4171 126.812 80.2909 126.781 80.1592 126.781H72.8265Z" fill="#3F3D56"/>
<path d="M91.3184 129.793H83.9857C83.8085 129.793 83.6387 129.751 83.5134 129.676C83.3881 129.602 83.3176 129.501 83.3174 129.396V127.076C83.3176 126.97 83.3881 126.87 83.5134 126.795C83.6387 126.721 83.8085 126.679 83.9857 126.679H91.3184C91.4956 126.679 91.6655 126.721 91.7908 126.795C91.9161 126.87 91.9865 126.97 91.9867 127.076V129.396C91.9865 129.501 91.9161 129.602 91.7908 129.676C91.6655 129.751 91.4956 129.793 91.3184 129.793ZM83.9857 126.781C83.854 126.781 83.7278 126.812 83.6347 126.867C83.5416 126.922 83.4892 126.997 83.4891 127.076V129.396C83.4892 129.474 83.5416 129.549 83.6347 129.604C83.7278 129.66 83.854 129.691 83.9857 129.691H91.3184C91.4501 129.691 91.5763 129.66 91.6694 129.604C91.7626 129.549 91.8149 129.474 91.8151 129.396V127.076C91.8149 126.997 91.7626 126.922 91.6694 126.867C91.5763 126.812 91.4501 126.781 91.3184 126.781H83.9857Z" fill="#3F3D56"/>
<path d="M69.001 136.472H61.6683C61.4911 136.472 61.3213 136.43 61.196 136.356C61.0707 136.281 61.0002 136.18 61 136.075V133.755C61.0002 133.65 61.0707 133.549 61.196 133.474C61.3213 133.4 61.4911 133.358 61.6683 133.358H69.001C69.1782 133.358 69.3481 133.4 69.4734 133.474C69.5987 133.549 69.6692 133.65 69.6694 133.755V136.075C69.6692 136.18 69.5987 136.281 69.4734 136.356C69.3481 136.43 69.1782 136.472 69.001 136.472V136.472ZM61.6683 133.46C61.5367 133.46 61.4104 133.491 61.3173 133.546C61.2242 133.602 61.1718 133.677 61.1717 133.755V136.075C61.1718 136.153 61.2242 136.228 61.3173 136.284C61.4104 136.339 61.5367 136.37 61.6683 136.37H69.001C69.1327 136.37 69.259 136.339 69.3521 136.284C69.4452 136.228 69.4976 136.153 69.4977 136.075V133.755C69.4976 133.677 69.4452 133.602 69.3521 133.546C69.259 133.491 69.1327 133.46 69.001 133.46H61.6683Z" fill="#3F3D56"/>
<path d="M80.1592 136.472H72.8265C72.6494 136.472 72.4795 136.43 72.3542 136.356C72.2289 136.281 72.1584 136.18 72.1582 136.075V133.755C72.1584 133.65 72.2289 133.549 72.3542 133.474C72.4795 133.4 72.6494 133.358 72.8265 133.358H80.1592C80.3364 133.358 80.5063 133.4 80.6316 133.474C80.7569 133.549 80.8274 133.65 80.8276 133.755V136.075C80.8274 136.18 80.7569 136.281 80.6316 136.356C80.5063 136.43 80.3364 136.472 80.1592 136.472V136.472ZM72.8265 133.46C72.6949 133.46 72.5686 133.491 72.4755 133.546C72.3824 133.602 72.33 133.677 72.3299 133.755V136.075C72.33 136.153 72.3824 136.228 72.4755 136.284C72.5686 136.339 72.6949 136.37 72.8265 136.37H80.1592C80.2909 136.37 80.4171 136.339 80.5103 136.284C80.6034 136.228 80.6557 136.153 80.6559 136.075V133.755C80.6557 133.677 80.6034 133.602 80.5103 133.546C80.4171 133.491 80.2909 133.46 80.1592 133.46H72.8265Z" fill="#3F3D56"/>
<path d="M91.3184 136.472H83.9857C83.8085 136.472 83.6387 136.43 83.5134 136.356C83.3881 136.281 83.3176 136.18 83.3174 136.075V133.755C83.3176 133.65 83.3881 133.549 83.5134 133.474C83.6387 133.4 83.8085 133.358 83.9857 133.358H91.3184C91.4956 133.358 91.6655 133.4 91.7908 133.474C91.9161 133.549 91.9865 133.65 91.9867 133.755V136.075C91.9865 136.18 91.9161 136.281 91.7908 136.356C91.6655 136.43 91.4956 136.472 91.3184 136.472V136.472ZM83.9857 133.46C83.854 133.46 83.7278 133.491 83.6347 133.546C83.5416 133.602 83.4892 133.677 83.4891 133.755V136.075C83.4892 136.153 83.5416 136.228 83.6347 136.284C83.7278 136.339 83.854 136.37 83.9857 136.37H91.3184C91.4501 136.37 91.5763 136.339 91.6694 136.284C91.7626 136.228 91.8149 136.153 91.8151 136.075V133.755C91.8149 133.677 91.7626 133.602 91.6694 133.546C91.5763 133.491 91.4501 133.46 91.3184 133.46H83.9857Z" fill="#3F3D56"/>
<path d="M102.453 142.51H96.123C95.9896 142.51 95.8618 142.478 95.7676 142.422C95.6733 142.366 95.6203 142.29 95.6201 142.211V140.208C95.6203 140.129 95.6733 140.053 95.7676 139.997C95.8618 139.941 95.9896 139.91 96.123 139.91H102.453C102.586 139.91 102.714 139.941 102.808 139.997C102.902 140.053 102.955 140.129 102.956 140.208V142.211C102.955 142.29 102.902 142.366 102.808 142.422C102.714 142.478 102.586 142.51 102.453 142.51V142.51Z" fill="#FF6363"/>
<path d="M113.69 142.51H107.36C107.227 142.51 107.099 142.478 107.005 142.422C106.911 142.366 106.858 142.29 106.857 142.211V140.208C106.858 140.129 106.911 140.053 107.005 139.997C107.099 139.941 107.227 139.91 107.36 139.91H113.69C113.823 139.91 113.951 139.941 114.045 139.997C114.14 140.053 114.193 140.129 114.193 140.208V142.211C114.193 142.29 114.14 142.366 114.045 142.422C113.951 142.478 113.823 142.51 113.69 142.51V142.51Z" fill="#FF6363"/>
<path d="M124.661 142.51H118.331C118.198 142.51 118.07 142.478 117.976 142.422C117.881 142.366 117.828 142.29 117.828 142.211V140.208C117.828 140.129 117.881 140.053 117.976 139.997C118.07 139.941 118.198 139.91 118.331 139.91H124.661C124.794 139.91 124.922 139.941 125.016 139.997C125.11 140.053 125.163 140.129 125.164 140.208V142.211C125.163 142.29 125.11 142.366 125.016 142.422C124.922 142.478 124.794 142.51 124.661 142.51V142.51Z" fill="#FF6363"/>
<path d="M102.453 149.189H96.123C95.9896 149.188 95.8618 149.157 95.7676 149.101C95.6733 149.045 95.6203 148.969 95.6201 148.89V146.887C95.6203 146.808 95.6733 146.732 95.7676 146.676C95.8618 146.62 95.9896 146.588 96.123 146.588H102.453C102.586 146.588 102.714 146.62 102.808 146.676C102.902 146.732 102.955 146.808 102.956 146.887V148.89C102.955 148.969 102.902 149.045 102.808 149.101C102.714 149.157 102.586 149.188 102.453 149.189V149.189Z" fill="#FF6363"/>
<path d="M113.69 149.189H107.36C107.227 149.188 107.099 149.157 107.005 149.101C106.911 149.045 106.858 148.969 106.857 148.89V146.887C106.858 146.808 106.911 146.732 107.005 146.676C107.099 146.62 107.227 146.588 107.36 146.588H113.69C113.823 146.588 113.951 146.62 114.045 146.676C114.14 146.732 114.193 146.808 114.193 146.887V148.89C114.193 148.969 114.14 149.045 114.045 149.101C113.951 149.157 113.823 149.188 113.69 149.189V149.189Z" fill="#FF6363"/>
<path d="M124.661 149.189H118.331C118.198 149.188 118.07 149.157 117.976 149.101C117.881 149.045 117.828 148.969 117.828 148.89V146.887C117.828 146.808 117.881 146.732 117.976 146.676C118.07 146.62 118.198 146.588 118.331 146.588H124.661C124.794 146.588 124.922 146.62 125.016 146.676C125.11 146.732 125.163 146.808 125.164 146.887V148.89C125.163 148.969 125.11 149.045 125.016 149.101C124.922 149.157 124.794 149.188 124.661 149.189V149.189Z" fill="#FF6363"/>
<path d="M102.453 155.868H96.123C95.9896 155.868 95.8618 155.837 95.7676 155.781C95.6733 155.725 95.6203 155.649 95.6201 155.57V153.567C95.6203 153.488 95.6733 153.412 95.7676 153.356C95.8618 153.3 95.9896 153.268 96.123 153.268H102.453C102.586 153.268 102.714 153.3 102.808 153.356C102.902 153.412 102.955 153.488 102.956 153.567V155.57C102.955 155.649 102.902 155.725 102.808 155.781C102.714 155.837 102.586 155.868 102.453 155.868V155.868Z" fill="#FF6363"/>
<path d="M113.69 155.868H107.36C107.227 155.868 107.099 155.837 107.005 155.781C106.911 155.725 106.858 155.649 106.857 155.57V153.567C106.858 153.488 106.911 153.412 107.005 153.356C107.099 153.3 107.227 153.268 107.36 153.268H113.69C113.823 153.268 113.951 153.3 114.045 153.356C114.14 153.412 114.193 153.488 114.193 153.567V155.57C114.193 155.649 114.14 155.725 114.045 155.781C113.951 155.837 113.823 155.868 113.69 155.868V155.868Z" fill="#FF6363"/>
<path d="M124.661 155.865H118.331C118.198 155.865 118.07 155.833 117.976 155.777C117.881 155.721 117.828 155.645 117.828 155.566V153.563C117.828 153.484 117.881 153.408 117.976 153.352C118.07 153.296 118.198 153.265 118.331 153.265H124.661C124.794 153.265 124.922 153.296 125.016 153.352C125.11 153.408 125.163 153.484 125.164 153.563V155.566C125.163 155.645 125.11 155.721 125.016 155.777C124.922 155.833 124.794 155.865 124.661 155.865V155.865Z" fill="#FF6363"/>
<path d="M103.014 142.531H95.681C95.5038 142.531 95.334 142.489 95.2087 142.415C95.0834 142.34 95.0129 142.239 95.0127 142.134V139.814C95.0129 139.709 95.0834 139.608 95.2087 139.533C95.334 139.459 95.5038 139.417 95.681 139.417H103.014C103.191 139.417 103.361 139.459 103.486 139.533C103.611 139.608 103.682 139.709 103.682 139.814V142.134C103.682 142.239 103.611 142.34 103.486 142.415C103.361 142.489 103.191 142.531 103.014 142.531V142.531ZM95.681 139.519C95.5493 139.519 95.4231 139.55 95.33 139.605C95.2369 139.661 95.1845 139.736 95.1844 139.814V142.134C95.1845 142.212 95.2369 142.287 95.33 142.343C95.4231 142.398 95.5493 142.429 95.681 142.429H103.014C103.145 142.429 103.272 142.398 103.365 142.343C103.458 142.287 103.51 142.212 103.51 142.134V139.814C103.51 139.736 103.458 139.661 103.365 139.605C103.272 139.55 103.145 139.519 103.014 139.519H95.681Z" fill="#3F3D56"/>
<path d="M114.172 142.531H106.839C106.662 142.531 106.492 142.489 106.367 142.414C106.242 142.34 106.171 142.239 106.171 142.134V139.813C106.171 139.708 106.242 139.607 106.367 139.533C106.492 139.458 106.662 139.417 106.839 139.417H114.172C114.349 139.417 114.519 139.458 114.644 139.533C114.77 139.607 114.84 139.708 114.84 139.813V142.134C114.84 142.239 114.77 142.34 114.644 142.414C114.519 142.489 114.349 142.531 114.172 142.531ZM106.839 139.518C106.708 139.519 106.581 139.55 106.488 139.605C106.395 139.66 106.343 139.735 106.343 139.813V142.134C106.343 142.212 106.395 142.287 106.488 142.342C106.581 142.397 106.708 142.429 106.839 142.429H114.172C114.304 142.429 114.43 142.397 114.523 142.342C114.616 142.287 114.668 142.212 114.669 142.134V139.813C114.668 139.735 114.616 139.66 114.523 139.605C114.43 139.55 114.304 139.519 114.172 139.518H106.839Z" fill="#3F3D56"/>
<path d="M125.331 142.531H117.998C117.821 142.531 117.651 142.489 117.526 142.414C117.401 142.34 117.33 142.239 117.33 142.134V139.813C117.33 139.708 117.401 139.607 117.526 139.533C117.651 139.458 117.821 139.417 117.998 139.417H125.331C125.508 139.417 125.678 139.458 125.803 139.533C125.929 139.607 125.999 139.708 125.999 139.813V142.134C125.999 142.239 125.929 142.34 125.803 142.414C125.678 142.489 125.508 142.531 125.331 142.531ZM117.998 139.518C117.867 139.519 117.74 139.55 117.647 139.605C117.554 139.66 117.502 139.735 117.502 139.813V142.134C117.502 142.212 117.554 142.287 117.647 142.342C117.74 142.397 117.867 142.429 117.998 142.429H125.331C125.463 142.429 125.589 142.397 125.682 142.342C125.775 142.287 125.828 142.212 125.828 142.134V139.813C125.828 139.735 125.775 139.66 125.682 139.605C125.589 139.55 125.463 139.519 125.331 139.518H117.998Z" fill="#3F3D56"/>
<path d="M103.014 149.209H95.681C95.5038 149.209 95.334 149.167 95.2087 149.093C95.0834 149.019 95.0129 148.918 95.0127 148.812V146.492C95.0129 146.387 95.0834 146.286 95.2087 146.212C95.334 146.137 95.5038 146.095 95.681 146.095H103.014C103.191 146.095 103.361 146.137 103.486 146.212C103.611 146.286 103.682 146.387 103.682 146.492V148.812C103.682 148.918 103.611 149.019 103.486 149.093C103.361 149.167 103.191 149.209 103.014 149.209V149.209ZM95.681 146.197C95.5493 146.197 95.4231 146.228 95.33 146.284C95.2369 146.339 95.1845 146.414 95.1844 146.492V148.812C95.1845 148.891 95.2369 148.966 95.33 149.021C95.4231 149.076 95.5493 149.107 95.681 149.107H103.014C103.145 149.107 103.272 149.076 103.365 149.021C103.458 148.966 103.51 148.891 103.51 148.812V146.492C103.51 146.414 103.458 146.339 103.365 146.284C103.272 146.228 103.145 146.197 103.014 146.197H95.681Z" fill="#3F3D56"/>
<path d="M114.172 149.209H106.839C106.662 149.209 106.492 149.167 106.367 149.093C106.242 149.019 106.171 148.918 106.171 148.812V146.492C106.171 146.387 106.242 146.286 106.367 146.212C106.492 146.137 106.662 146.095 106.839 146.095H114.172C114.349 146.095 114.519 146.137 114.644 146.212C114.77 146.286 114.84 146.387 114.84 146.492V148.812C114.84 148.918 114.77 149.019 114.644 149.093C114.519 149.167 114.349 149.209 114.172 149.209ZM106.839 146.197C106.708 146.197 106.581 146.228 106.488 146.284C106.395 146.339 106.343 146.414 106.343 146.492V148.812C106.343 148.891 106.395 148.966 106.488 149.021C106.581 149.076 106.708 149.107 106.839 149.107H114.172C114.304 149.107 114.43 149.076 114.523 149.021C114.616 148.966 114.668 148.891 114.669 148.812V146.492C114.668 146.414 114.616 146.339 114.523 146.284C114.43 146.228 114.304 146.197 114.172 146.197H106.839Z" fill="#3F3D56"/>
<path d="M125.332 149.209H117.999C117.822 149.209 117.652 149.167 117.527 149.093C117.402 149.019 117.331 148.918 117.331 148.812V146.492C117.331 146.387 117.402 146.286 117.527 146.212C117.652 146.137 117.822 146.095 117.999 146.095H125.332C125.509 146.095 125.679 146.137 125.804 146.212C125.93 146.286 126 146.387 126 146.492V148.812C126 148.918 125.93 149.019 125.804 149.093C125.679 149.167 125.509 149.209 125.332 149.209ZM117.999 146.197C117.868 146.197 117.741 146.228 117.648 146.284C117.555 146.339 117.503 146.414 117.503 146.492V148.812C117.503 148.891 117.555 148.966 117.648 149.021C117.741 149.076 117.868 149.107 117.999 149.107H125.332C125.464 149.107 125.59 149.076 125.683 149.021C125.776 148.966 125.829 148.891 125.829 148.812V146.492C125.829 146.414 125.776 146.339 125.683 146.284C125.59 146.228 125.464 146.197 125.332 146.197H117.999Z" fill="#3F3D56"/>
<path d="M103.014 155.889H95.681C95.5038 155.889 95.334 155.847 95.2087 155.773C95.0834 155.698 95.0129 155.597 95.0127 155.492V153.172C95.0129 153.067 95.0834 152.966 95.2087 152.891C95.334 152.817 95.5038 152.775 95.681 152.775H103.014C103.191 152.775 103.361 152.817 103.486 152.891C103.611 152.966 103.682 153.067 103.682 153.172V155.492C103.682 155.597 103.611 155.698 103.486 155.773C103.361 155.847 103.191 155.889 103.014 155.889V155.889ZM95.681 152.877C95.5493 152.877 95.4231 152.908 95.33 152.963C95.2369 153.019 95.1845 153.094 95.1844 153.172V155.492C95.1845 155.57 95.2369 155.645 95.33 155.701C95.4231 155.756 95.5493 155.787 95.681 155.787H103.014C103.145 155.787 103.272 155.756 103.365 155.701C103.458 155.645 103.51 155.57 103.51 155.492V153.172C103.51 153.094 103.458 153.019 103.365 152.963C103.272 152.908 103.145 152.877 103.014 152.877H95.681Z" fill="#3F3D56"/>
<path d="M114.172 155.889H106.839C106.662 155.889 106.492 155.847 106.367 155.773C106.242 155.698 106.171 155.597 106.171 155.492V153.172C106.171 153.067 106.242 152.966 106.367 152.891C106.492 152.817 106.662 152.775 106.839 152.775H114.172C114.349 152.775 114.519 152.817 114.644 152.891C114.77 152.966 114.84 153.067 114.84 153.172V155.492C114.84 155.597 114.77 155.698 114.644 155.773C114.519 155.847 114.349 155.889 114.172 155.889V155.889ZM106.839 152.877C106.708 152.877 106.581 152.908 106.488 152.963C106.395 153.019 106.343 153.094 106.343 153.172V155.492C106.343 155.57 106.395 155.645 106.488 155.701C106.581 155.756 106.708 155.787 106.839 155.787H114.172C114.304 155.787 114.43 155.756 114.523 155.701C114.616 155.645 114.668 155.57 114.669 155.492V153.172C114.668 153.094 114.616 153.019 114.523 152.963C114.43 152.908 114.304 152.877 114.172 152.877H106.839Z" fill="#3F3D56"/>
<path d="M125.332 155.889H117.999C117.822 155.889 117.652 155.847 117.527 155.773C117.402 155.698 117.331 155.597 117.331 155.492V153.172C117.331 153.067 117.402 152.966 117.527 152.891C117.652 152.817 117.822 152.775 117.999 152.775H125.332C125.509 152.775 125.679 152.817 125.804 152.891C125.93 152.966 126 153.067 126 153.172V155.492C126 155.597 125.93 155.698 125.804 155.773C125.679 155.847 125.509 155.889 125.332 155.889V155.889ZM117.999 152.877C117.868 152.877 117.741 152.908 117.648 152.963C117.555 153.019 117.503 153.094 117.503 153.172V155.492C117.503 155.57 117.555 155.645 117.648 155.701C117.741 155.756 117.868 155.787 117.999 155.787H125.332C125.464 155.787 125.59 155.756 125.683 155.701C125.776 155.645 125.829 155.57 125.829 155.492V153.172C125.829 153.094 125.776 153.019 125.683 152.963C125.59 152.908 125.464 152.877 125.332 152.877H117.999Z" fill="#3F3D56"/>
<path d="M102.453 123.093H96.123C95.9896 123.093 95.8618 123.062 95.7676 123.006C95.6733 122.95 95.6203 122.874 95.6201 122.795V120.792C95.6203 120.713 95.6733 120.637 95.7676 120.581C95.8618 120.525 95.9896 120.493 96.123 120.493H102.453C102.586 120.493 102.714 120.525 102.808 120.581C102.902 120.637 102.955 120.713 102.956 120.792V122.795C102.955 122.874 102.902 122.95 102.808 123.006C102.714 123.062 102.586 123.093 102.453 123.093V123.093Z" fill="#FF6363"/>
<path d="M113.691 123.093H107.361C107.228 123.093 107.1 123.062 107.006 123.006C106.912 122.95 106.859 122.874 106.858 122.795V120.792C106.859 120.713 106.912 120.637 107.006 120.581C107.1 120.525 107.228 120.493 107.361 120.493H113.691C113.824 120.493 113.952 120.525 114.046 120.581C114.141 120.637 114.194 120.713 114.194 120.792V122.795C114.194 122.874 114.141 122.95 114.046 123.006C113.952 123.062 113.824 123.093 113.691 123.093V123.093Z" fill="#FF6363"/>
<path d="M124.662 123.093H118.332C118.199 123.093 118.071 123.062 117.977 123.006C117.882 122.95 117.829 122.874 117.829 122.795V120.792C117.829 120.713 117.882 120.637 117.977 120.581C118.071 120.525 118.199 120.493 118.332 120.493H124.662C124.795 120.493 124.923 120.525 125.017 120.581C125.111 120.637 125.164 120.713 125.165 120.792V122.795C125.164 122.874 125.111 122.95 125.017 123.006C124.923 123.062 124.795 123.093 124.662 123.093V123.093Z" fill="#FF6363"/>
<path d="M102.453 129.773H96.123C95.9896 129.772 95.8618 129.741 95.7676 129.685C95.6733 129.629 95.6203 129.553 95.6201 129.474V127.471C95.6203 127.392 95.6733 127.316 95.7676 127.26C95.8618 127.204 95.9896 127.172 96.123 127.172H102.453C102.586 127.172 102.714 127.204 102.808 127.26C102.902 127.316 102.955 127.392 102.956 127.471V129.474C102.955 129.553 102.902 129.629 102.808 129.685C102.714 129.741 102.586 129.772 102.453 129.773V129.773Z" fill="#FF6363"/>
<path d="M113.691 129.773H107.361C107.228 129.772 107.1 129.741 107.006 129.685C106.912 129.629 106.859 129.553 106.858 129.474V127.471C106.859 127.392 106.912 127.316 107.006 127.26C107.1 127.204 107.228 127.172 107.361 127.172H113.691C113.824 127.172 113.952 127.204 114.046 127.26C114.141 127.316 114.194 127.392 114.194 127.471V129.474C114.194 129.553 114.141 129.629 114.046 129.685C113.952 129.741 113.824 129.772 113.691 129.773V129.773Z" fill="#FF6363"/>
<path d="M124.662 129.773H118.332C118.199 129.772 118.071 129.741 117.977 129.685C117.882 129.629 117.829 129.553 117.829 129.474V127.471C117.829 127.392 117.882 127.316 117.977 127.26C118.071 127.204 118.199 127.172 118.332 127.172H124.662C124.795 127.172 124.923 127.204 125.017 127.26C125.111 127.316 125.164 127.392 125.165 127.471V129.474C125.164 129.553 125.111 129.629 125.017 129.685C124.923 129.741 124.795 129.772 124.662 129.773V129.773Z" fill="#FF6363"/>
<path d="M102.453 136.452H96.123C95.9896 136.452 95.8618 136.42 95.7676 136.364C95.6733 136.308 95.6203 136.232 95.6201 136.153V134.15C95.6203 134.071 95.6733 133.995 95.7676 133.939C95.8618 133.883 95.9896 133.852 96.123 133.852H102.453C102.586 133.852 102.714 133.883 102.808 133.939C102.902 133.995 102.955 134.071 102.956 134.15V136.153C102.955 136.232 102.902 136.308 102.808 136.364C102.714 136.42 102.586 136.452 102.453 136.452V136.452Z" fill="#FF6363"/>
<path d="M113.691 136.452H107.361C107.228 136.452 107.1 136.42 107.006 136.364C106.912 136.308 106.859 136.232 106.858 136.153V134.15C106.859 134.071 106.912 133.995 107.006 133.939C107.1 133.883 107.228 133.852 107.361 133.852H113.691C113.824 133.852 113.952 133.883 114.046 133.939C114.141 133.995 114.194 134.071 114.194 134.15V136.153C114.194 136.232 114.141 136.308 114.046 136.364C113.952 136.42 113.824 136.452 113.691 136.452V136.452Z" fill="#FF6363"/>
<path d="M124.662 136.448H118.332C118.199 136.448 118.071 136.417 117.977 136.361C117.882 136.305 117.829 136.229 117.829 136.15V134.147C117.829 134.068 117.882 133.992 117.977 133.936C118.071 133.88 118.199 133.848 118.332 133.848H124.662C124.795 133.848 124.923 133.88 125.017 133.936C125.111 133.992 125.164 134.068 125.165 134.147V136.15C125.164 136.229 125.111 136.305 125.017 136.361C124.923 136.417 124.795 136.448 124.662 136.448V136.448Z" fill="#FF6363"/>
<path d="M103.014 123.115H95.681C95.5038 123.115 95.334 123.073 95.2087 122.998C95.0834 122.924 95.0129 122.823 95.0127 122.718V120.397C95.0129 120.292 95.0834 120.191 95.2087 120.117C95.334 120.042 95.5038 120.001 95.681 120H103.014C103.191 120.001 103.361 120.042 103.486 120.117C103.611 120.191 103.682 120.292 103.682 120.397V122.718C103.682 122.823 103.611 122.924 103.486 122.998C103.361 123.073 103.191 123.115 103.014 123.115V123.115ZM95.681 120.102C95.5493 120.103 95.4231 120.134 95.33 120.189C95.2369 120.244 95.1845 120.319 95.1844 120.397V122.718C95.1845 122.796 95.2369 122.871 95.33 122.926C95.4231 122.981 95.5493 123.013 95.681 123.013H103.014C103.145 123.013 103.272 122.981 103.365 122.926C103.458 122.871 103.51 122.796 103.51 122.718V120.397C103.51 120.319 103.458 120.244 103.365 120.189C103.272 120.134 103.145 120.103 103.014 120.102H95.681Z" fill="#3F3D56"/>
<path d="M114.172 123.114H106.839C106.662 123.114 106.492 123.072 106.367 122.998C106.242 122.923 106.171 122.822 106.171 122.717V120.397C106.171 120.292 106.242 120.191 106.367 120.116C106.492 120.042 106.662 120 106.839 120H114.172C114.349 120 114.519 120.042 114.644 120.116C114.77 120.191 114.84 120.292 114.84 120.397V122.717C114.84 122.822 114.77 122.923 114.644 122.998C114.519 123.072 114.349 123.114 114.172 123.114ZM106.839 120.102C106.708 120.102 106.581 120.133 106.488 120.188C106.395 120.244 106.343 120.319 106.343 120.397V122.717C106.343 122.795 106.395 122.87 106.488 122.926C106.581 122.981 106.708 123.012 106.839 123.012H114.172C114.304 123.012 114.43 122.981 114.523 122.926C114.616 122.87 114.668 122.795 114.669 122.717V120.397C114.668 120.319 114.616 120.244 114.523 120.188C114.43 120.133 114.304 120.102 114.172 120.102H106.839Z" fill="#3F3D56"/>
<path d="M125.331 123.114H117.998C117.821 123.114 117.651 123.072 117.526 122.998C117.401 122.923 117.33 122.822 117.33 122.717V120.397C117.33 120.292 117.401 120.191 117.526 120.116C117.651 120.042 117.821 120 117.998 120H125.331C125.508 120 125.678 120.042 125.803 120.116C125.929 120.191 125.999 120.292 125.999 120.397V122.717C125.999 122.822 125.929 122.923 125.803 122.998C125.678 123.072 125.508 123.114 125.331 123.114ZM117.998 120.102C117.867 120.102 117.74 120.133 117.647 120.188C117.554 120.244 117.502 120.319 117.502 120.397V122.717C117.502 122.795 117.554 122.87 117.647 122.926C117.74 122.981 117.867 123.012 117.998 123.012H125.331C125.463 123.012 125.589 122.981 125.682 122.926C125.775 122.87 125.828 122.795 125.828 122.717V120.397C125.828 120.319 125.775 120.244 125.682 120.188C125.589 120.133 125.463 120.102 125.331 120.102H117.998Z" fill="#3F3D56"/>
<path d="M103.014 129.793H95.681C95.5038 129.793 95.334 129.751 95.2087 129.676C95.0834 129.602 95.0129 129.501 95.0127 129.396V127.076C95.0129 126.97 95.0834 126.87 95.2087 126.795C95.334 126.721 95.5038 126.679 95.681 126.679H103.014C103.191 126.679 103.361 126.721 103.486 126.795C103.611 126.87 103.682 126.97 103.682 127.076V129.396C103.682 129.501 103.611 129.602 103.486 129.676C103.361 129.751 103.191 129.793 103.014 129.793V129.793ZM95.681 126.781C95.5493 126.781 95.4231 126.812 95.33 126.867C95.2369 126.922 95.1845 126.997 95.1844 127.076V129.396C95.1845 129.474 95.2369 129.549 95.33 129.604C95.4231 129.66 95.5493 129.691 95.681 129.691H103.014C103.145 129.691 103.272 129.66 103.365 129.604C103.458 129.549 103.51 129.474 103.51 129.396V127.076C103.51 126.997 103.458 126.922 103.365 126.867C103.272 126.812 103.145 126.781 103.014 126.781H95.681Z" fill="#3F3D56"/>
<path d="M114.172 129.793H106.839C106.662 129.793 106.492 129.751 106.367 129.676C106.242 129.602 106.171 129.501 106.171 129.396V127.076C106.171 126.97 106.242 126.87 106.367 126.795C106.492 126.721 106.662 126.679 106.839 126.679H114.172C114.349 126.679 114.519 126.721 114.644 126.795C114.77 126.87 114.84 126.97 114.84 127.076V129.396C114.84 129.501 114.77 129.602 114.644 129.676C114.519 129.751 114.349 129.793 114.172 129.793ZM106.839 126.781C106.708 126.781 106.581 126.812 106.488 126.867C106.395 126.922 106.343 126.997 106.343 127.076V129.396C106.343 129.474 106.395 129.549 106.488 129.604C106.581 129.66 106.708 129.691 106.839 129.691H114.172C114.304 129.691 114.43 129.66 114.523 129.604C114.616 129.549 114.668 129.474 114.669 129.396V127.076C114.668 126.997 114.616 126.922 114.523 126.867C114.43 126.812 114.304 126.781 114.172 126.781H106.839Z" fill="#3F3D56"/>
<path d="M125.331 129.793H117.998C117.821 129.793 117.651 129.751 117.526 129.676C117.401 129.602 117.33 129.501 117.33 129.396V127.076C117.33 126.97 117.401 126.87 117.526 126.795C117.651 126.721 117.821 126.679 117.998 126.679H125.331C125.508 126.679 125.678 126.721 125.803 126.795C125.929 126.87 125.999 126.97 125.999 127.076V129.396C125.999 129.501 125.929 129.602 125.803 129.676C125.678 129.751 125.508 129.793 125.331 129.793ZM117.998 126.781C117.867 126.781 117.74 126.812 117.647 126.867C117.554 126.922 117.502 126.997 117.502 127.076V129.396C117.502 129.474 117.554 129.549 117.647 129.604C117.74 129.66 117.867 129.691 117.998 129.691H125.331C125.463 129.691 125.589 129.66 125.682 129.604C125.775 129.549 125.828 129.474 125.828 129.396V127.076C125.828 126.997 125.775 126.922 125.682 126.867C125.589 126.812 125.463 126.781 125.331 126.781H117.998Z" fill="#3F3D56"/>
<path d="M103.014 136.472H95.681C95.5038 136.472 95.334 136.43 95.2087 136.356C95.0834 136.281 95.0129 136.18 95.0127 136.075V133.755C95.0129 133.65 95.0834 133.549 95.2087 133.474C95.334 133.4 95.5038 133.358 95.681 133.358H103.014C103.191 133.358 103.361 133.4 103.486 133.474C103.611 133.549 103.682 133.65 103.682 133.755V136.075C103.682 136.18 103.611 136.281 103.486 136.356C103.361 136.43 103.191 136.472 103.014 136.472V136.472ZM95.681 133.46C95.5493 133.46 95.4231 133.491 95.33 133.546C95.2369 133.602 95.1845 133.677 95.1844 133.755V136.075C95.1845 136.153 95.2369 136.228 95.33 136.284C95.4231 136.339 95.5493 136.37 95.681 136.37H103.014C103.145 136.37 103.272 136.339 103.365 136.284C103.458 136.228 103.51 136.153 103.51 136.075V133.755C103.51 133.677 103.458 133.602 103.365 133.546C103.272 133.491 103.145 133.46 103.014 133.46H95.681Z" fill="#3F3D56"/>
<path d="M114.172 136.472H106.839C106.662 136.472 106.492 136.43 106.367 136.356C106.242 136.281 106.171 136.18 106.171 136.075V133.755C106.171 133.65 106.242 133.549 106.367 133.474C106.492 133.4 106.662 133.358 106.839 133.358H114.172C114.349 133.358 114.519 133.4 114.644 133.474C114.77 133.549 114.84 133.65 114.84 133.755V136.075C114.84 136.18 114.77 136.281 114.644 136.356C114.519 136.43 114.349 136.472 114.172 136.472V136.472ZM106.839 133.46C106.708 133.46 106.581 133.491 106.488 133.546C106.395 133.602 106.343 133.677 106.343 133.755V136.075C106.343 136.153 106.395 136.228 106.488 136.284C106.581 136.339 106.708 136.37 106.839 136.37H114.172C114.304 136.37 114.43 136.339 114.523 136.284C114.616 136.228 114.668 136.153 114.669 136.075V133.755C114.668 133.677 114.616 133.602 114.523 133.546C114.43 133.491 114.304 133.46 114.172 133.46H106.839Z" fill="#3F3D56"/>
<path d="M125.331 136.472H117.998C117.821 136.472 117.651 136.43 117.526 136.356C117.401 136.281 117.33 136.18 117.33 136.075V133.755C117.33 133.65 117.401 133.549 117.526 133.474C117.651 133.4 117.821 133.358 117.998 133.358H125.331C125.508 133.358 125.678 133.4 125.803 133.474C125.929 133.549 125.999 133.65 125.999 133.755V136.075C125.999 136.18 125.929 136.281 125.803 136.356C125.678 136.43 125.508 136.472 125.331 136.472V136.472ZM117.998 133.46C117.867 133.46 117.74 133.491 117.647 133.546C117.554 133.602 117.502 133.677 117.502 133.755V136.075C117.502 136.153 117.554 136.228 117.647 136.284C117.74 136.339 117.867 136.37 117.998 136.37H125.331C125.463 136.37 125.589 136.339 125.682 136.284C125.775 136.228 125.828 136.153 125.828 136.075V133.755C125.828 133.677 125.775 133.602 125.682 133.546C125.589 133.491 125.463 133.46 125.331 133.46H117.998Z" fill="#3F3D56"/>
<path d="M99.3 180.06H89.2158V163.666C89.2164 163.224 89.4088 162.801 89.7509 162.488C90.093 162.176 90.5568 162.001 91.0406 162H99.3V180.06ZM89.6 179.71H98.9158V162.351H91.0406C90.6586 162.351 90.2925 162.49 90.0224 162.736C89.7523 162.983 89.6004 163.317 89.6 163.666V179.71Z" fill="#FF6363"/>
<path d="M90.4649 172.257C90.7832 172.257 91.0412 172.022 91.0412 171.731C91.0412 171.441 90.7832 171.205 90.4649 171.205C90.1467 171.205 89.8887 171.441 89.8887 171.731C89.8887 172.022 90.1467 172.257 90.4649 172.257Z" fill="#FF6363"/>
<g filter="url(#filter0_d)">
<path d="M68.284 69.07C67.5653 69.07 66.8793 68.9487 66.226 68.706C65.582 68.454 65.078 68.132 64.714 67.74L65.036 67.208C65.3813 67.572 65.8433 67.8707 66.422 68.104C67.01 68.328 67.626 68.44 68.27 68.44C69.2033 68.44 69.908 68.2627 70.384 67.908C70.86 67.5533 71.098 67.0913 71.098 66.522C71.098 66.0833 70.972 65.7333 70.72 65.472C70.468 65.2107 70.1553 65.01 69.782 64.87C69.4087 64.73 68.9047 64.5853 68.27 64.436C67.5513 64.2587 66.9727 64.086 66.534 63.918C66.1047 63.75 65.736 63.4933 65.428 63.148C65.1293 62.7933 64.98 62.322 64.98 61.734C64.98 61.258 65.106 60.824 65.358 60.432C65.61 60.0307 65.9927 59.7133 66.506 59.48C67.0287 59.2467 67.6773 59.13 68.452 59.13C68.9933 59.13 69.5253 59.2093 70.048 59.368C70.5707 59.5267 71.0233 59.7413 71.406 60.012L71.14 60.586C70.748 60.3153 70.314 60.11 69.838 59.97C69.3713 59.83 68.9093 59.76 68.452 59.76C67.5467 59.76 66.8607 59.942 66.394 60.306C65.9273 60.67 65.694 61.1413 65.694 61.72C65.694 62.1587 65.82 62.5087 66.072 62.77C66.324 63.0313 66.6367 63.232 67.01 63.372C67.3833 63.512 67.892 63.6613 68.536 63.82C69.2547 63.9973 69.8287 64.17 70.258 64.338C70.6873 64.506 71.0513 64.7627 71.35 65.108C71.658 65.444 71.812 65.9013 71.812 66.48C71.812 66.956 71.6813 67.39 71.42 67.782C71.168 68.174 70.776 68.4867 70.244 68.72C69.712 68.9533 69.0587 69.07 68.284 69.07ZM81.0013 68.356V69H74.2393V59.2H80.7913V59.844H74.9533V63.708H80.1753V64.338H74.9533V68.356H81.0013ZM85.4805 59.844H81.9525V59.2H89.7225V59.844H86.1945V69H85.4805V59.844ZM93.5059 59.844H89.9779V59.2H97.7479V59.844H94.2199V69H93.5059V59.844ZM99.5185 59.2H100.233V69H99.5185V59.2ZM111.627 59.2V69H111.039L104.361 60.488V69H103.647V59.2H104.249L110.913 67.712V59.2H111.627ZM122.05 64.142H122.736V67.81C122.306 68.2207 121.784 68.5333 121.168 68.748C120.561 68.9627 119.917 69.07 119.236 69.07C118.265 69.07 117.388 68.8553 116.604 68.426C115.829 67.9967 115.218 67.404 114.77 66.648C114.331 65.892 114.112 65.0427 114.112 64.1C114.112 63.1573 114.331 62.308 114.77 61.552C115.218 60.796 115.829 60.2033 116.604 59.774C117.388 59.3447 118.27 59.13 119.25 59.13C119.968 59.13 120.626 59.2467 121.224 59.48C121.83 59.704 122.348 60.0353 122.778 60.474L122.33 60.95C121.919 60.5393 121.457 60.2453 120.944 60.068C120.44 59.8813 119.88 59.788 119.264 59.788C118.424 59.788 117.663 59.9747 116.982 60.348C116.31 60.7213 115.782 61.2393 115.4 61.902C115.017 62.5553 114.826 63.288 114.826 64.1C114.826 64.9027 115.017 65.6353 115.4 66.298C115.792 66.9513 116.324 67.4693 116.996 67.852C117.668 68.2253 118.424 68.412 119.264 68.412C120.384 68.412 121.312 68.1133 122.05 67.516V64.142Z" fill="black"/>
</g>
<path d="M56.4771 40.6455L56.6192 40.9866C56.6823 41.1337 56.7152 41.2972 56.7153 41.4631V50.6901H63.4381V41.4631C63.4381 41.2972 63.4711 41.1337 63.5341 40.9866L63.6763 40.6455H56.4771ZM63.0539 41.4631V50.2229H57.0994V41.4631C57.0995 41.345 57.0879 41.2274 57.0648 41.1127H63.0885C63.0654 41.2274 63.0538 41.345 63.0539 41.4631V41.4631ZM64.9286 40.6455L65.0707 40.9866C65.1337 41.1337 65.1667 41.2972 65.1668 41.4631V50.6901H71.8895V41.4631C71.8896 41.2972 71.9226 41.1337 71.9856 40.9866L72.1278 40.6455H64.9286ZM71.5054 41.4631V50.2229H65.5509V41.4631C65.551 41.345 65.5394 41.2274 65.5163 41.1127H71.54C71.5169 41.2274 71.5053 41.345 71.5054 41.4631V41.4631ZM73.38 40.6455L73.5222 40.9866C73.5852 41.1337 73.6182 41.2972 73.6183 41.4631V50.6901H80.341V41.4631C80.3411 41.2972 80.3741 41.1337 80.4371 40.9866L80.5793 40.6455H73.38ZM79.9569 41.4631V50.2229H74.0024V41.4631C74.0025 41.345 73.9909 41.2274 73.9678 41.1127H79.9915C79.9684 41.2274 79.9568 41.345 79.9569 41.4631ZM81.8315 40.6455L81.9737 40.9866C82.0367 41.1337 82.0697 41.2972 82.0697 41.4631V50.6901H88.7925V41.4631C88.7926 41.2972 88.8255 41.1337 88.8886 40.9866L89.0307 40.6455H81.8315ZM88.4084 41.4631V50.2229H82.4539V41.4631C82.454 41.345 82.4424 41.2274 82.4193 41.1127H88.443C88.4199 41.2274 88.4082 41.345 88.4084 41.4631ZM90.283 40.6455L90.4252 40.9866C90.4882 41.1337 90.5211 41.2972 90.5212 41.4631V50.6901H97.244V41.4631C97.2441 41.2972 97.277 41.1337 97.34 40.9866L97.4822 40.6455H90.283ZM96.8598 41.4631V50.2229H90.9054V41.4631C90.9055 41.345 90.8939 41.2274 90.8708 41.1127H96.8944C96.8713 41.2274 96.8597 41.345 96.8598 41.4631V41.4631ZM98.7345 40.6455L98.8767 40.9866C98.9397 41.1337 98.9726 41.2972 98.9727 41.4631V50.6901H105.695V41.4631C105.696 41.2972 105.729 41.1337 105.792 40.9866L105.934 40.6455H98.7345ZM105.311 41.4631V50.2229H99.3569V41.4631C99.357 41.345 99.3453 41.2274 99.3223 41.1127H105.346C105.323 41.2274 105.311 41.345 105.311 41.4631V41.4631ZM107.186 40.6455L107.328 40.9866C107.391 41.1337 107.424 41.2972 107.424 41.4631V50.6901H114.147V41.4631C114.147 41.2972 114.18 41.1337 114.243 40.9866L114.385 40.6455H107.186ZM113.763 41.4631V50.2229H107.808V41.4631C107.808 41.345 107.797 41.2274 107.774 41.1127H113.797C113.774 41.2274 113.763 41.345 113.763 41.4631ZM115.637 40.6455L115.78 40.9866C115.843 41.1337 115.876 41.2972 115.876 41.4631V50.6901H122.598V41.4631C122.599 41.2972 122.631 41.1337 122.694 40.9866L122.837 40.6455H115.637ZM122.214 41.4631V50.2229H116.26V41.4631C116.26 41.345 116.248 41.2274 116.225 41.1127H122.249C122.226 41.2274 122.214 41.345 122.214 41.4631ZM124.089 40.6455L124.231 40.9866C124.294 41.1337 124.327 41.2972 124.327 41.4631V50.6901H131.05V41.4631C131.05 41.2972 131.083 41.1337 131.146 40.9866L131.288 40.6455H124.089ZM130.666 41.4631V50.2229H124.711V41.4631C124.711 41.345 124.7 41.2274 124.677 41.1127H130.7C130.677 41.2274 130.666 41.345 130.666 41.4631ZM124.089 40.6455L124.231 40.9866C124.294 41.1337 124.327 41.2972 124.327 41.4631V50.6901H131.05V41.4631C131.05 41.2972 131.083 41.1337 131.146 40.9866L131.288 40.6455H124.089ZM130.666 41.4631V50.2229H124.711V41.4631C124.711 41.345 124.7 41.2274 124.677 41.1127H130.7C130.677 41.2274 130.666 41.345 130.666 41.4631ZM115.637 40.6455L115.78 40.9866C115.843 41.1337 115.876 41.2972 115.876 41.4631V50.6901H122.598V41.4631C122.599 41.2972 122.631 41.1337 122.694 40.9866L122.837 40.6455H115.637ZM122.214 41.4631V50.2229H116.26V41.4631C116.26 41.345 116.248 41.2274 116.225 41.1127H122.249C122.226 41.2274 122.214 41.345 122.214 41.4631ZM107.186 40.6455L107.328 40.9866C107.391 41.1337 107.424 41.2972 107.424 41.4631V50.6901H114.147V41.4631C114.147 41.2972 114.18 41.1337 114.243 40.9866L114.385 40.6455H107.186ZM113.763 41.4631V50.2229H107.808V41.4631C107.808 41.345 107.797 41.2274 107.774 41.1127H113.797C113.774 41.2274 113.763 41.345 113.763 41.4631ZM98.7345 40.6455L98.8767 40.9866C98.9397 41.1337 98.9726 41.2972 98.9727 41.4631V50.6901H105.695V41.4631C105.696 41.2972 105.729 41.1337 105.792 40.9866L105.934 40.6455H98.7345ZM105.311 41.4631V50.2229H99.3569V41.4631C99.357 41.345 99.3453 41.2274 99.3223 41.1127H105.346C105.323 41.2274 105.311 41.345 105.311 41.4631V41.4631ZM90.283 40.6455L90.4252 40.9866C90.4882 41.1337 90.5211 41.2972 90.5212 41.4631V50.6901H97.244V41.4631C97.2441 41.2972 97.277 41.1337 97.34 40.9866L97.4822 40.6455H90.283ZM96.8598 41.4631V50.2229H90.9054V41.4631C90.9055 41.345 90.8939 41.2274 90.8708 41.1127H96.8944C96.8713 41.2274 96.8597 41.345 96.8598 41.4631V41.4631ZM81.8315 40.6455L81.9737 40.9866C82.0367 41.1337 82.0697 41.2972 82.0697 41.4631V50.6901H88.7925V41.4631C88.7926 41.2972 88.8255 41.1337 88.8886 40.9866L89.0307 40.6455H81.8315ZM88.4084 41.4631V50.2229H82.4539V41.4631C82.454 41.345 82.4424 41.2274 82.4193 41.1127H88.443C88.4199 41.2274 88.4082 41.345 88.4084 41.4631ZM73.38 40.6455L73.5222 40.9866C73.5852 41.1337 73.6182 41.2972 73.6183 41.4631V50.6901H80.341V41.4631C80.3411 41.2972 80.3741 41.1337 80.4371 40.9866L80.5793 40.6455H73.38ZM79.9569 41.4631V50.2229H74.0024V41.4631C74.0025 41.345 73.9909 41.2274 73.9678 41.1127H79.9915C79.9684 41.2274 79.9568 41.345 79.9569 41.4631ZM64.9286 40.6455L65.0707 40.9866C65.1337 41.1337 65.1667 41.2972 65.1668 41.4631V50.6901H71.8895V41.4631C71.8896 41.2972 71.9226 41.1337 71.9856 40.9866L72.1278 40.6455H64.9286ZM71.5054 41.4631V50.2229H65.5509V41.4631C65.551 41.345 65.5394 41.2274 65.5163 41.1127H71.54C71.5169 41.2274 71.5053 41.345 71.5054 41.4631V41.4631ZM56.4771 40.6455L56.6192 40.9866C56.6823 41.1337 56.7152 41.2972 56.7153 41.4631V50.6901H63.4381V41.4631C63.4381 41.2972 63.4711 41.1337 63.5341 40.9866L63.6763 40.6455H56.4771ZM63.0539 41.4631V50.2229H57.0994V41.4631C57.0995 41.345 57.0879 41.2274 57.0648 41.1127H63.0885C63.0654 41.2274 63.0538 41.345 63.0539 41.4631V41.4631ZM124.089 40.6455L124.231 40.9866C124.294 41.1337 124.327 41.2972 124.327 41.4631V50.6901H131.05V41.4631C131.05 41.2972 131.083 41.1337 131.146 40.9866L131.288 40.6455H124.089ZM130.666 41.4631V50.2229H124.711V41.4631C124.711 41.345 124.7 41.2274 124.677 41.1127H130.7C130.677 41.2274 130.666 41.345 130.666 41.4631ZM115.637 40.6455L115.78 40.9866C115.843 41.1337 115.876 41.2972 115.876 41.4631V50.6901H122.598V41.4631C122.599 41.2972 122.631 41.1337 122.694 40.9866L122.837 40.6455H115.637ZM122.214 41.4631V50.2229H116.26V41.4631C116.26 41.345 116.248 41.2274 116.225 41.1127H122.249C122.226 41.2274 122.214 41.345 122.214 41.4631ZM107.186 40.6455L107.328 40.9866C107.391 41.1337 107.424 41.2972 107.424 41.4631V50.6901H114.147V41.4631C114.147 41.2972 114.18 41.1337 114.243 40.9866L114.385 40.6455H107.186ZM113.763 41.4631V50.2229H107.808V41.4631C107.808 41.345 107.797 41.2274 107.774 41.1127H113.797C113.774 41.2274 113.763 41.345 113.763 41.4631ZM98.7345 40.6455L98.8767 40.9866C98.9397 41.1337 98.9726 41.2972 98.9727 41.4631V50.6901H105.695V41.4631C105.696 41.2972 105.729 41.1337 105.792 40.9866L105.934 40.6455H98.7345ZM105.311 41.4631V50.2229H99.3569V41.4631C99.357 41.345 99.3453 41.2274 99.3223 41.1127H105.346C105.323 41.2274 105.311 41.345 105.311 41.4631V41.4631ZM90.283 40.6455L90.4252 40.9866C90.4882 41.1337 90.5211 41.2972 90.5212 41.4631V50.6901H97.244V41.4631C97.2441 41.2972 97.277 41.1337 97.34 40.9866L97.4822 40.6455H90.283ZM96.8598 41.4631V50.2229H90.9054V41.4631C90.9055 41.345 90.8939 41.2274 90.8708 41.1127H96.8944C96.8713 41.2274 96.8597 41.345 96.8598 41.4631V41.4631ZM81.8315 40.6455L81.9737 40.9866C82.0367 41.1337 82.0697 41.2972 82.0697 41.4631V50.6901H88.7925V41.4631C88.7926 41.2972 88.8255 41.1337 88.8886 40.9866L89.0307 40.6455H81.8315ZM88.4084 41.4631V50.2229H82.4539V41.4631C82.454 41.345 82.4424 41.2274 82.4193 41.1127H88.443C88.4199 41.2274 88.4082 41.345 88.4084 41.4631ZM73.38 40.6455L73.5222 40.9866C73.5852 41.1337 73.6182 41.2972 73.6183 41.4631V50.6901H80.341V41.4631C80.3411 41.2972 80.3741 41.1337 80.4371 40.9866L80.5793 40.6455H73.38ZM79.9569 41.4631V50.2229H74.0024V41.4631C74.0025 41.345 73.9909 41.2274 73.9678 41.1127H79.9915C79.9684 41.2274 79.9568 41.345 79.9569 41.4631ZM64.9286 40.6455L65.0707 40.9866C65.1337 41.1337 65.1667 41.2972 65.1668 41.4631V50.6901H71.8895V41.4631C71.8896 41.2972 71.9226 41.1337 71.9856 40.9866L72.1278 40.6455H64.9286ZM71.5054 41.4631V50.2229H65.5509V41.4631C65.551 41.345 65.5394 41.2274 65.5163 41.1127H71.54C71.5169 41.2274 71.5053 41.345 71.5054 41.4631V41.4631ZM56.4771 40.6455L56.6192 40.9866C56.6823 41.1337 56.7152 41.2972 56.7153 41.4631V50.6901H63.4381V41.4631C63.4381 41.2972 63.4711 41.1337 63.5341 40.9866L63.6763 40.6455H56.4771ZM63.0539 41.4631V50.2229H57.0994V41.4631C57.0995 41.345 57.0879 41.2274 57.0648 41.1127H63.0885C63.0654 41.2274 63.0538 41.345 63.0539 41.4631V41.4631ZM124.089 40.6455L124.231 40.9866C124.294 41.1337 124.327 41.2972 124.327 41.4631V50.6901H131.05V41.4631C131.05 41.2972 131.083 41.1337 131.146 40.9866L131.288 40.6455H124.089ZM130.666 41.4631V50.2229H124.711V41.4631C124.711 41.345 124.7 41.2274 124.677 41.1127H130.7C130.677 41.2274 130.666 41.345 130.666 41.4631ZM115.637 40.6455L115.78 40.9866C115.843 41.1337 115.876 41.2972 115.876 41.4631V50.6901H122.598V41.4631C122.599 41.2972 122.631 41.1337 122.694 40.9866L122.837 40.6455H115.637ZM122.214 41.4631V50.2229H116.26V41.4631C116.26 41.345 116.248 41.2274 116.225 41.1127H122.249C122.226 41.2274 122.214 41.345 122.214 41.4631ZM107.186 40.6455L107.328 40.9866C107.391 41.1337 107.424 41.2972 107.424 41.4631V50.6901H114.147V41.4631C114.147 41.2972 114.18 41.1337 114.243 40.9866L114.385 40.6455H107.186ZM113.763 41.4631V50.2229H107.808V41.4631C107.808 41.345 107.797 41.2274 107.774 41.1127H113.797C113.774 41.2274 113.763 41.345 113.763 41.4631ZM98.7345 40.6455L98.8767 40.9866C98.9397 41.1337 98.9726 41.2972 98.9727 41.4631V50.6901H105.695V41.4631C105.696 41.2972 105.729 41.1337 105.792 40.9866L105.934 40.6455H98.7345ZM105.311 41.4631V50.2229H99.3569V41.4631C99.357 41.345 99.3453 41.2274 99.3223 41.1127H105.346C105.323 41.2274 105.311 41.345 105.311 41.4631V41.4631ZM90.283 40.6455L90.4252 40.9866C90.4882 41.1337 90.5211 41.2972 90.5212 41.4631V50.6901H97.244V41.4631C97.2441 41.2972 97.277 41.1337 97.34 40.9866L97.4822 40.6455H90.283ZM96.8598 41.4631V50.2229H90.9054V41.4631C90.9055 41.345 90.8939 41.2274 90.8708 41.1127H96.8944C96.8713 41.2274 96.8597 41.345 96.8598 41.4631V41.4631ZM81.8315 40.6455L81.9737 40.9866C82.0367 41.1337 82.0697 41.2972 82.0697 41.4631V50.6901H88.7925V41.4631C88.7926 41.2972 88.8255 41.1337 88.8886 40.9866L89.0307 40.6455H81.8315ZM88.4084 41.4631V50.2229H82.4539V41.4631C82.454 41.345 82.4424 41.2274 82.4193 41.1127H88.443C88.4199 41.2274 88.4082 41.345 88.4084 41.4631ZM73.38 40.6455L73.5222 40.9866C73.5852 41.1337 73.6182 41.2972 73.6183 41.4631V50.6901H80.341V41.4631C80.3411 41.2972 80.3741 41.1337 80.4371 40.9866L80.5793 40.6455H73.38ZM79.9569 41.4631V50.2229H74.0024V41.4631C74.0025 41.345 73.9909 41.2274 73.9678 41.1127H79.9915C79.9684 41.2274 79.9568 41.345 79.9569 41.4631ZM64.9286 40.6455L65.0707 40.9866C65.1337 41.1337 65.1667 41.2972 65.1668 41.4631V50.6901H71.8895V41.4631C71.8896 41.2972 71.9226 41.1337 71.9856 40.9866L72.1278 40.6455H64.9286ZM71.5054 41.4631V50.2229H65.5509V41.4631C65.551 41.345 65.5394 41.2274 65.5163 41.1127H71.54C71.5169 41.2274 71.5053 41.345 71.5054 41.4631V41.4631ZM56.4771 40.6455L56.6192 40.9866C56.6823 41.1337 56.7152 41.2972 56.7153 41.4631V50.6901H63.4381V41.4631C63.4381 41.2972 63.4711 41.1337 63.5341 40.9866L63.6763 40.6455H56.4771ZM63.0539 41.4631V50.2229H57.0994V41.4631C57.0995 41.345 57.0879 41.2274 57.0648 41.1127H63.0885C63.0654 41.2274 63.0538 41.345 63.0539 41.4631V41.4631ZM124.089 40.6455L124.231 40.9866C124.294 41.1337 124.327 41.2972 124.327 41.4631V50.6901H131.05V41.4631C131.05 41.2972 131.083 41.1337 131.146 40.9866L131.288 40.6455H124.089ZM130.666 41.4631V50.2229H124.711V41.4631C124.711 41.345 124.7 41.2274 124.677 41.1127H130.7C130.677 41.2274 130.666 41.345 130.666 41.4631ZM115.637 40.6455L115.78 40.9866C115.843 41.1337 115.876 41.2972 115.876 41.4631V50.6901H122.598V41.4631C122.599 41.2972 122.631 41.1337 122.694 40.9866L122.837 40.6455H115.637ZM122.214 41.4631V50.2229H116.26V41.4631C116.26 41.345 116.248 41.2274 116.225 41.1127H122.249C122.226 41.2274 122.214 41.345 122.214 41.4631ZM107.186 40.6455L107.328 40.9866C107.391 41.1337 107.424 41.2972 107.424 41.4631V50.6901H114.147V41.4631C114.147 41.2972 114.18 41.1337 114.243 40.9866L114.385 40.6455H107.186ZM113.763 41.4631V50.2229H107.808V41.4631C107.808 41.345 107.797 41.2274 107.774 41.1127H113.797C113.774 41.2274 113.763 41.345 113.763 41.4631ZM98.7345 40.6455L98.8767 40.9866C98.9397 41.1337 98.9726 41.2972 98.9727 41.4631V50.6901H105.695V41.4631C105.696 41.2972 105.729 41.1337 105.792 40.9866L105.934 40.6455H98.7345ZM105.311 41.4631V50.2229H99.3569V41.4631C99.357 41.345 99.3453 41.2274 99.3223 41.1127H105.346C105.323 41.2274 105.311 41.345 105.311 41.4631V41.4631ZM90.283 40.6455L90.4252 40.9866C90.4882 41.1337 90.5211 41.2972 90.5212 41.4631V50.6901H97.244V41.4631C97.2441 41.2972 97.277 41.1337 97.34 40.9866L97.4822 40.6455H90.283ZM96.8598 41.4631V50.2229H90.9054V41.4631C90.9055 41.345 90.8939 41.2274 90.8708 41.1127H96.8944C96.8713 41.2274 96.8597 41.345 96.8598 41.4631V41.4631ZM81.8315 40.6455L81.9737 40.9866C82.0367 41.1337 82.0697 41.2972 82.0697 41.4631V50.6901H88.7925V41.4631C88.7926 41.2972 88.8255 41.1337 88.8886 40.9866L89.0307 40.6455H81.8315ZM88.4084 41.4631V50.2229H82.4539V41.4631C82.454 41.345 82.4424 41.2274 82.4193 41.1127H88.443C88.4199 41.2274 88.4082 41.345 88.4084 41.4631ZM73.38 40.6455L73.5222 40.9866C73.5852 41.1337 73.6182 41.2972 73.6183 41.4631V50.6901H80.341V41.4631C80.3411 41.2972 80.3741 41.1337 80.4371 40.9866L80.5793 40.6455H73.38ZM79.9569 41.4631V50.2229H74.0024V41.4631C74.0025 41.345 73.9909 41.2274 73.9678 41.1127H79.9915C79.9684 41.2274 79.9568 41.345 79.9569 41.4631ZM64.9286 40.6455L65.0707 40.9866C65.1337 41.1337 65.1667 41.2972 65.1668 41.4631V50.6901H71.8895V41.4631C71.8896 41.2972 71.9226 41.1337 71.9856 40.9866L72.1278 40.6455H64.9286ZM71.5054 41.4631V50.2229H65.5509V41.4631C65.551 41.345 65.5394 41.2274 65.5163 41.1127H71.54C71.5169 41.2274 71.5053 41.345 71.5054 41.4631V41.4631ZM56.4771 40.6455L56.6192 40.9866C56.6823 41.1337 56.7152 41.2972 56.7153 41.4631V50.6901H63.4381V41.4631C63.4381 41.2972 63.4711 41.1337 63.5341 40.9866L63.6763 40.6455H56.4771ZM63.0539 41.4631V50.2229H57.0994V41.4631C57.0995 41.345 57.0879 41.2274 57.0648 41.1127H63.0885C63.0654 41.2274 63.0538 41.345 63.0539 41.4631V41.4631ZM124.089 40.6455L124.231 40.9866C124.294 41.1337 124.327 41.2972 124.327 41.4631V50.6901H131.05V41.4631C131.05 41.2972 131.083 41.1337 131.146 40.9866L131.288 40.6455H124.089ZM130.666 41.4631V50.2229H124.711V41.4631C124.711 41.345 124.7 41.2274 124.677 41.1127H130.7C130.677 41.2274 130.666 41.345 130.666 41.4631ZM115.78 40.9866C115.843 41.1337 115.876 41.2972 115.876 41.4631V50.6901H122.598V41.4631C122.599 41.2972 122.631 41.1337 122.694 40.9866L122.837 40.6455H115.637L115.78 40.9866ZM122.249 41.1127C122.226 41.2274 122.214 41.345 122.214 41.4631V50.2229H116.26V41.4631C116.26 41.345 116.248 41.2274 116.225 41.1127H122.249ZM107.328 40.9866C107.391 41.1337 107.424 41.2972 107.424 41.4631V50.6901H114.147V41.4631C114.147 41.2972 114.18 41.1337 114.243 40.9866L114.385 40.6455H107.186L107.328 40.9866ZM113.797 41.1127C113.774 41.2274 113.763 41.345 113.763 41.4631V50.2229H107.808V41.4631C107.808 41.345 107.797 41.2274 107.774 41.1127H113.797ZM98.8767 40.9866C98.9397 41.1337 98.9726 41.2972 98.9727 41.4631V50.6901H105.695V41.4631C105.696 41.2972 105.729 41.1337 105.792 40.9866L105.934 40.6455H98.7345L98.8767 40.9866ZM105.346 41.1127C105.323 41.2274 105.311 41.345 105.311 41.4631V50.2229H99.3569V41.4631C99.357 41.345 99.3453 41.2274 99.3223 41.1127H105.346ZM90.4252 40.9866C90.4882 41.1337 90.5211 41.2972 90.5212 41.4631V50.6901H97.244V41.4631C97.2441 41.2972 97.277 41.1337 97.34 40.9866L97.4822 40.6455H90.283L90.4252 40.9866ZM96.8944 41.1127C96.8713 41.2274 96.8597 41.345 96.8598 41.4631V50.2229H90.9054V41.4631C90.9055 41.345 90.8939 41.2274 90.8708 41.1127H96.8944ZM81.9737 40.9866C82.0367 41.1337 82.0697 41.2972 82.0697 41.4631V50.6901H88.7925V41.4631C88.7926 41.2972 88.8255 41.1337 88.8886 40.9866L89.0307 40.6455H81.8315L81.9737 40.9866ZM88.443 41.1127C88.4199 41.2274 88.4082 41.345 88.4084 41.4631V50.2229H82.4539V41.4631C82.454 41.345 82.4424 41.2274 82.4193 41.1127H88.443ZM73.5222 40.9866C73.5852 41.1337 73.6182 41.2972 73.6183 41.4631V50.6901H80.341V41.4631C80.3411 41.2972 80.3741 41.1337 80.4371 40.9866L80.5793 40.6455H73.38L73.5222 40.9866ZM79.9915 41.1127C79.9684 41.2274 79.9568 41.345 79.9569 41.4631V50.2229H74.0024V41.4631C74.0025 41.345 73.9909 41.2274 73.9678 41.1127H79.9915ZM65.0707 40.9866C65.1337 41.1337 65.1667 41.2972 65.1668 41.4631V50.6901H71.8895V41.4631C71.8896 41.2972 71.9226 41.1337 71.9856 40.9866L72.1278 40.6455H64.9286L65.0707 40.9866ZM71.54 41.1127C71.5169 41.2274 71.5053 41.345 71.5054 41.4631V50.2229H65.5509V41.4631C65.551 41.345 65.5394 41.2274 65.5163 41.1127H71.54ZM56.6192 40.9866C56.6823 41.1337 56.7152 41.2972 56.7153 41.4631V50.6901H63.4381V41.4631C63.4381 41.2972 63.4711 41.1337 63.5341 40.9866L63.6763 40.6455H56.4771L56.6192 40.9866ZM63.0885 41.1127C63.0654 41.2274 63.0538 41.345 63.0539 41.4631V50.2229H57.0994V41.4631C57.0995 41.345 57.0879 41.2274 57.0648 41.1127H63.0885ZM124.231 40.9866C124.294 41.1337 124.327 41.2972 124.327 41.4631V50.6901H131.05V41.4631C131.05 41.2972 131.083 41.1337 131.146 40.9866L131.288 40.6455H124.089L124.231 40.9866ZM130.7 41.1127C130.677 41.2274 130.666 41.345 130.666 41.4631V50.2229H124.711V41.4631C124.711 41.345 124.7 41.2274 124.677 41.1127H130.7ZM115.78 40.9866C115.843 41.1337 115.876 41.2972 115.876 41.4631V50.6901H122.598V41.4631C122.599 41.2972 122.631 41.1337 122.694 40.9866L122.837 40.6455H115.637L115.78 40.9866ZM122.249 41.1127C122.226 41.2274 122.214 41.345 122.214 41.4631V50.2229H116.26V41.4631C116.26 41.345 116.248 41.2274 116.225 41.1127H122.249ZM107.328 40.9866C107.391 41.1337 107.424 41.2972 107.424 41.4631V50.6901H114.147V41.4631C114.147 41.2972 114.18 41.1337 114.243 40.9866L114.385 40.6455H107.186L107.328 40.9866ZM113.797 41.1127C113.774 41.2274 113.763 41.345 113.763 41.4631V50.2229H107.808V41.4631C107.808 41.345 107.797 41.2274 107.774 41.1127H113.797ZM98.8767 40.9866C98.9397 41.1337 98.9726 41.2972 98.9727 41.4631V50.6901H105.695V41.4631C105.696 41.2972 105.729 41.1337 105.792 40.9866L105.934 40.6455H98.7345L98.8767 40.9866ZM105.346 41.1127C105.323 41.2274 105.311 41.345 105.311 41.4631V50.2229H99.3569V41.4631C99.357 41.345 99.3453 41.2274 99.3223 41.1127H105.346ZM90.4252 40.9866C90.4882 41.1337 90.5211 41.2972 90.5212 41.4631V50.6901H97.244V41.4631C97.2441 41.2972 97.277 41.1337 97.34 40.9866L97.4822 40.6455H90.283L90.4252 40.9866ZM96.8944 41.1127C96.8713 41.2274 96.8597 41.345 96.8598 41.4631V50.2229H90.9054V41.4631C90.9055 41.345 90.8939 41.2274 90.8708 41.1127H96.8944ZM81.9737 40.9866C82.0367 41.1337 82.0697 41.2972 82.0697 41.4631V50.6901H88.7925V41.4631C88.7926 41.2972 88.8255 41.1337 88.8886 40.9866L89.0307 40.6455H81.8315L81.9737 40.9866ZM88.443 41.1127C88.4199 41.2274 88.4082 41.345 88.4084 41.4631V50.2229H82.4539V41.4631C82.454 41.345 82.4424 41.2274 82.4193 41.1127H88.443ZM73.5222 40.9866C73.5852 41.1337 73.6182 41.2972 73.6183 41.4631V50.6901H80.341V41.4631C80.3411 41.2972 80.3741 41.1337 80.4371 40.9866L80.5793 40.6455H73.38L73.5222 40.9866ZM79.9915 41.1127C79.9684 41.2274 79.9568 41.345 79.9569 41.4631V50.2229H74.0024V41.4631C74.0025 41.345 73.9909 41.2274 73.9678 41.1127H79.9915ZM65.0707 40.9866C65.1337 41.1337 65.1667 41.2972 65.1668 41.4631V50.6901H71.8895V41.4631C71.8896 41.2972 71.9226 41.1337 71.9856 40.9866L72.1278 40.6455H64.9286L65.0707 40.9866ZM71.54 41.1127C71.5169 41.2274 71.5053 41.345 71.5054 41.4631V50.2229H65.5509V41.4631C65.551 41.345 65.5394 41.2274 65.5163 41.1127H71.54ZM56.6192 40.9866C56.6823 41.1337 56.7152 41.2972 56.7153 41.4631V50.6901H63.4381V41.4631C63.4381 41.2972 63.4711 41.1337 63.5341 40.9866L63.6763 40.6455H56.4771L56.6192 40.9866ZM63.0885 41.1127C63.0654 41.2274 63.0538 41.345 63.0539 41.4631V50.2229H57.0994V41.4631C57.0995 41.345 57.0879 41.2274 57.0648 41.1127H63.0885ZM138.733 52.0917H136.444C136.317 51.5543 136.051 51.0814 135.684 50.7444C135.318 50.4073 134.871 50.2243 134.411 50.2229H133.163V41.4631C133.163 41.2751 133.134 41.0887 133.076 40.9142C133.294 40.7583 133.463 40.5197 133.558 40.2351C133.653 39.9505 133.669 39.6358 133.602 39.3395C133.536 39.0432 133.391 38.7818 133.19 38.5957C132.989 38.4096 132.743 38.309 132.491 38.3096H55.2747C55.0221 38.309 54.7764 38.4096 54.5755 38.5957C54.3746 38.7818 54.2296 39.0432 54.163 39.3395C54.0963 39.6358 54.1117 39.9505 54.2068 40.2351C54.3018 40.5197 54.4713 40.7583 54.6889 40.9142C54.6313 41.0887 54.6019 41.2751 54.6024 41.4631V50.2229H53.3539C52.8943 50.2243 52.4476 50.4073 52.081 50.7444C51.7145 51.0814 51.448 51.5543 51.3217 52.0917H48.84C48.3818 52.0925 47.9425 52.3143 47.6184 52.7084C47.2944 53.1025 47.112 53.6367 47.1113 54.1941V177.532C47.1123 178.09 47.2948 178.624 47.6188 179.018C47.9427 179.412 48.3819 179.634 48.84 179.635H138.733C139.191 179.634 139.631 179.412 139.955 179.018C140.279 178.624 140.461 178.09 140.462 177.532V54.1941C140.461 53.6367 140.279 53.1025 139.955 52.7084C139.631 52.3143 139.191 52.0925 138.733 52.0917V52.0917ZM140.078 177.532C140.077 177.866 139.993 178.192 139.836 178.466C139.679 178.74 139.457 178.949 139.2 179.065C139.051 179.134 138.893 179.169 138.733 179.168H48.84C48.6806 179.169 48.5223 179.134 48.3733 179.065C48.1159 178.949 47.8939 178.74 47.737 178.466C47.5801 178.192 47.4958 177.866 47.4955 177.532V54.1941C47.4959 53.7605 47.6377 53.3449 47.8897 53.0383C48.1418 52.7318 48.4836 52.5594 48.84 52.5589H51.629L51.6598 52.372C51.7406 51.8978 51.953 51.4718 52.2615 51.1655C52.57 50.8593 52.9557 50.6914 53.3539 50.6901H54.9866V41.4631C54.9866 41.273 55.0291 41.0865 55.1095 40.9235L55.2285 40.6829L55.0115 40.5848C54.8419 40.51 54.6994 40.3649 54.6092 40.1749C54.5189 39.9849 54.4867 39.7623 54.5181 39.5462C54.5495 39.3302 54.6427 39.1345 54.7811 38.9938C54.9195 38.853 55.0943 38.7762 55.2747 38.7768H132.491C132.671 38.7762 132.846 38.853 132.984 38.9938C133.123 39.1345 133.216 39.3302 133.247 39.5462C133.279 39.7623 133.246 39.9849 133.156 40.1749C133.066 40.3649 132.923 40.51 132.754 40.5848L132.537 40.6829L132.656 40.9235C132.736 41.0865 132.779 41.273 132.779 41.4631V50.6901H134.411C134.81 50.6914 135.195 50.8593 135.504 51.1655C135.812 51.4718 136.025 51.8978 136.105 52.372L136.136 52.5589H138.733C139.09 52.5594 139.431 52.7318 139.683 53.0383C139.935 53.3449 140.077 53.7605 140.078 54.1941L140.078 177.532ZM56.4771 40.6455L56.6192 40.9866C56.6823 41.1337 56.7152 41.2972 56.7153 41.4631V50.6901H63.4381V41.4631C63.4381 41.2972 63.4711 41.1337 63.5341 40.9866L63.6763 40.6455H56.4771ZM63.0539 41.4631V50.2229H57.0994V41.4631C57.0995 41.345 57.0879 41.2274 57.0648 41.1127H63.0885C63.0654 41.2274 63.0538 41.345 63.0539 41.4631V41.4631ZM64.9286 40.6455L65.0707 40.9866C65.1337 41.1337 65.1667 41.2972 65.1668 41.4631V50.6901H71.8895V41.4631C71.8896 41.2972 71.9226 41.1337 71.9856 40.9866L72.1278 40.6455H64.9286ZM71.5054 41.4631V50.2229H65.5509V41.4631C65.551 41.345 65.5394 41.2274 65.5163 41.1127H71.54C71.5169 41.2274 71.5053 41.345 71.5054 41.4631V41.4631ZM73.38 40.6455L73.5222 40.9866C73.5852 41.1337 73.6182 41.2972 73.6183 41.4631V50.6901H80.341V41.4631C80.3411 41.2972 80.3741 41.1337 80.4371 40.9866L80.5793 40.6455H73.38ZM79.9569 41.4631V50.2229H74.0024V41.4631C74.0025 41.345 73.9909 41.2274 73.9678 41.1127H79.9915C79.9684 41.2274 79.9568 41.345 79.9569 41.4631V41.4631ZM81.8315 40.6455L81.9737 40.9866C82.0367 41.1337 82.0697 41.2972 82.0697 41.4631V50.6901H88.7925V41.4631C88.7926 41.2972 88.8255 41.1337 88.8886 40.9866L89.0307 40.6455H81.8315ZM88.4084 41.4631V50.2229H82.4539V41.4631C82.454 41.345 82.4424 41.2274 82.4193 41.1127H88.443C88.4199 41.2274 88.4082 41.345 88.4084 41.4631V41.4631ZM90.283 40.6455L90.4252 40.9866C90.4882 41.1337 90.5211 41.2972 90.5212 41.4631V50.6901H97.244V41.4631C97.2441 41.2972 97.277 41.1337 97.34 40.9866L97.4822 40.6455H90.283ZM96.8598 41.4631V50.2229H90.9054V41.4631C90.9055 41.345 90.8939 41.2274 90.8708 41.1127H96.8944C96.8713 41.2274 96.8597 41.345 96.8598 41.4631V41.4631ZM98.7345 40.6455L98.8767 40.9866C98.9397 41.1337 98.9726 41.2972 98.9727 41.4631V50.6901H105.695V41.4631C105.696 41.2972 105.729 41.1337 105.792 40.9866L105.934 40.6455H98.7345ZM105.311 41.4631V50.2229H99.3569V41.4631C99.357 41.345 99.3453 41.2274 99.3223 41.1127H105.346C105.323 41.2274 105.311 41.345 105.311 41.4631V41.4631ZM107.186 40.6455L107.328 40.9866C107.391 41.1337 107.424 41.2972 107.424 41.4631V50.6901H114.147V41.4631C114.147 41.2972 114.18 41.1337 114.243 40.9866L114.385 40.6455H107.186ZM113.763 41.4631V50.2229H107.808V41.4631C107.808 41.345 107.797 41.2274 107.774 41.1127H113.797C113.774 41.2274 113.763 41.345 113.763 41.4631V41.4631ZM115.637 40.6455L115.78 40.9866C115.843 41.1337 115.876 41.2972 115.876 41.4631V50.6901H122.598V41.4631C122.599 41.2972 122.631 41.1337 122.694 40.9866L122.837 40.6455H115.637ZM122.214 41.4631V50.2229H116.26V41.4631C116.26 41.345 116.248 41.2274 116.225 41.1127H122.249C122.226 41.2274 122.214 41.345 122.214 41.4631V41.4631ZM124.089 40.6455L124.231 40.9866C124.294 41.1337 124.327 41.2972 124.327 41.4631V50.6901H131.05V41.4631C131.05 41.2972 131.083 41.1337 131.146 40.9866L131.288 40.6455H124.089ZM130.666 41.4631V50.2229H124.711V41.4631C124.711 41.345 124.7 41.2274 124.677 41.1127H130.7C130.677 41.2274 130.666 41.345 130.666 41.4631V41.4631ZM56.4771 40.6455L56.6192 40.9866C56.6823 41.1337 56.7152 41.2972 56.7153 41.4631V50.6901H63.4381V41.4631C63.4381 41.2972 63.4711 41.1337 63.5341 40.9866L63.6763 40.6455H56.4771ZM63.0539 41.4631V50.2229H57.0994V41.4631C57.0995 41.345 57.0879 41.2274 57.0648 41.1127H63.0885C63.0654 41.2274 63.0538 41.345 63.0539 41.4631V41.4631ZM64.9286 40.6455L65.0707 40.9866C65.1337 41.1337 65.1667 41.2972 65.1668 41.4631V50.6901H71.8895V41.4631C71.8896 41.2972 71.9226 41.1337 71.9856 40.9866L72.1278 40.6455H64.9286ZM71.5054 41.4631V50.2229H65.5509V41.4631C65.551 41.345 65.5394 41.2274 65.5163 41.1127H71.54C71.5169 41.2274 71.5053 41.345 71.5054 41.4631V41.4631ZM73.38 40.6455L73.5222 40.9866C73.5852 41.1337 73.6182 41.2972 73.6183 41.4631V50.6901H80.341V41.4631C80.3411 41.2972 80.3741 41.1337 80.4371 40.9866L80.5793 40.6455H73.38ZM79.9569 41.4631V50.2229H74.0024V41.4631C74.0025 41.345 73.9909 41.2274 73.9678 41.1127H79.9915C79.9684 41.2274 79.9568 41.345 79.9569 41.4631V41.4631ZM81.8315 40.6455L81.9737 40.9866C82.0367 41.1337 82.0697 41.2972 82.0697 41.4631V50.6901H88.7925V41.4631C88.7926 41.2972 88.8255 41.1337 88.8886 40.9866L89.0307 40.6455H81.8315ZM88.4084 41.4631V50.2229H82.4539V41.4631C82.454 41.345 82.4424 41.2274 82.4193 41.1127H88.443C88.4199 41.2274 88.4082 41.345 88.4084 41.4631V41.4631ZM90.283 40.6455L90.4252 40.9866C90.4882 41.1337 90.5211 41.2972 90.5212 41.4631V50.6901H97.244V41.4631C97.2441 41.2972 97.277 41.1337 97.34 40.9866L97.4822 40.6455H90.283ZM96.8598 41.4631V50.2229H90.9054V41.4631C90.9055 41.345 90.8939 41.2274 90.8708 41.1127H96.8944C96.8713 41.2274 96.8597 41.345 96.8598 41.4631V41.4631ZM98.7345 40.6455L98.8767 40.9866C98.9397 41.1337 98.9726 41.2972 98.9727 41.4631V50.6901H105.695V41.4631C105.696 41.2972 105.729 41.1337 105.792 40.9866L105.934 40.6455H98.7345ZM105.311 41.4631V50.2229H99.3569V41.4631C99.357 41.345 99.3453 41.2274 99.3223 41.1127H105.346C105.323 41.2274 105.311 41.345 105.311 41.4631V41.4631ZM107.186 40.6455L107.328 40.9866C107.391 41.1337 107.424 41.2972 107.424 41.4631V50.6901H114.147V41.4631C114.147 41.2972 114.18 41.1337 114.243 40.9866L114.385 40.6455H107.186ZM113.763 41.4631V50.2229H107.808V41.4631C107.808 41.345 107.797 41.2274 107.774 41.1127H113.797C113.774 41.2274 113.763 41.345 113.763 41.4631V41.4631ZM115.637 40.6455L115.78 40.9866C115.843 41.1337 115.876 41.2972 115.876 41.4631V50.6901H122.598V41.4631C122.599 41.2972 122.631 41.1337 122.694 40.9866L122.837 40.6455H115.637ZM122.214 41.4631V50.2229H116.26V41.4631C116.26 41.345 116.248 41.2274 116.225 41.1127H122.249C122.226 41.2274 122.214 41.345 122.214 41.4631V41.4631ZM124.089 40.6455L124.231 40.9866C124.294 41.1337 124.327 41.2972 124.327 41.4631V50.6901H131.05V41.4631C131.05 41.2972 131.083 41.1337 131.146 40.9866L131.288 40.6455H124.089ZM130.666 41.4631V50.2229H124.711V41.4631C124.711 41.345 124.7 41.2274 124.677 41.1127H130.7C130.677 41.2274 130.666 41.345 130.666 41.4631V41.4631ZM56.4771 40.6455L56.6192 40.9866C56.6823 41.1337 56.7152 41.2972 56.7153 41.4631V50.6901H63.4381V41.4631C63.4381 41.2972 63.4711 41.1337 63.5341 40.9866L63.6763 40.6455H56.4771ZM63.0539 41.4631V50.2229H57.0994V41.4631C57.0995 41.345 57.0879 41.2274 57.0648 41.1127H63.0885C63.0654 41.2274 63.0538 41.345 63.0539 41.4631V41.4631ZM64.9286 40.6455L65.0707 40.9866C65.1337 41.1337 65.1667 41.2972 65.1668 41.4631V50.6901H71.8895V41.4631C71.8896 41.2972 71.9226 41.1337 71.9856 40.9866L72.1278 40.6455H64.9286ZM71.5054 41.4631V50.2229H65.5509V41.4631C65.551 41.345 65.5394 41.2274 65.5163 41.1127H71.54C71.5169 41.2274 71.5053 41.345 71.5054 41.4631V41.4631ZM73.38 40.6455L73.5222 40.9866C73.5852 41.1337 73.6182 41.2972 73.6183 41.4631V50.6901H80.341V41.4631C80.3411 41.2972 80.3741 41.1337 80.4371 40.9866L80.5793 40.6455H73.38ZM79.9569 41.4631V50.2229H74.0024V41.4631C74.0025 41.345 73.9909 41.2274 73.9678 41.1127H79.9915C79.9684 41.2274 79.9568 41.345 79.9569 41.4631V41.4631ZM81.8315 40.6455L81.9737 40.9866C82.0367 41.1337 82.0697 41.2972 82.0697 41.4631V50.6901H88.7925V41.4631C88.7926 41.2972 88.8255 41.1337 88.8886 40.9866L89.0307 40.6455H81.8315ZM88.4084 41.4631V50.2229H82.4539V41.4631C82.454 41.345 82.4424 41.2274 82.4193 41.1127H88.443C88.4199 41.2274 88.4082 41.345 88.4084 41.4631V41.4631ZM90.283 40.6455L90.4252 40.9866C90.4882 41.1337 90.5211 41.2972 90.5212 41.4631V50.6901H97.244V41.4631C97.2441 41.2972 97.277 41.1337 97.34 40.9866L97.4822 40.6455H90.283ZM96.8598 41.4631V50.2229H90.9054V41.4631C90.9055 41.345 90.8939 41.2274 90.8708 41.1127H96.8944C96.8713 41.2274 96.8597 41.345 96.8598 41.4631V41.4631ZM98.7345 40.6455L98.8767 40.9866C98.9397 41.1337 98.9726 41.2972 98.9727 41.4631V50.6901H105.695V41.4631C105.696 41.2972 105.729 41.1337 105.792 40.9866L105.934 40.6455H98.7345ZM105.311 41.4631V50.2229H99.3569V41.4631C99.357 41.345 99.3453 41.2274 99.3223 41.1127H105.346C105.323 41.2274 105.311 41.345 105.311 41.4631V41.4631ZM107.186 40.6455L107.328 40.9866C107.391 41.1337 107.424 41.2972 107.424 41.4631V50.6901H114.147V41.4631C114.147 41.2972 114.18 41.1337 114.243 40.9866L114.385 40.6455H107.186ZM113.763 41.4631V50.2229H107.808V41.4631C107.808 41.345 107.797 41.2274 107.774 41.1127H113.797C113.774 41.2274 113.763 41.345 113.763 41.4631V41.4631ZM115.637 40.6455L115.78 40.9866C115.843 41.1337 115.876 41.2972 115.876 41.4631V50.6901H122.598V41.4631C122.599 41.2972 122.631 41.1337 122.694 40.9866L122.837 40.6455H115.637ZM122.214 41.4631V50.2229H116.26V41.4631C116.26 41.345 116.248 41.2274 116.225 41.1127H122.249C122.226 41.2274 122.214 41.345 122.214 41.4631V41.4631ZM124.089 40.6455L124.231 40.9866C124.294 41.1337 124.327 41.2972 124.327 41.4631V50.6901H131.05V41.4631C131.05 41.2972 131.083 41.1337 131.146 40.9866L131.288 40.6455H124.089ZM130.666 41.4631V50.2229H124.711V41.4631C124.711 41.345 124.7 41.2274 124.677 41.1127H130.7C130.677 41.2274 130.666 41.345 130.666 41.4631V41.4631ZM56.4771 40.6455L56.6192 40.9866C56.6823 41.1337 56.7152 41.2972 56.7153 41.4631V50.6901H63.4381V41.4631C63.4381 41.2972 63.4711 41.1337 63.5341 40.9866L63.6763 40.6455H56.4771ZM63.0539 41.4631V50.2229H57.0994V41.4631C57.0995 41.345 57.0879 41.2274 57.0648 41.1127H63.0885C63.0654 41.2274 63.0538 41.345 63.0539 41.4631V41.4631ZM64.9286 40.6455L65.0707 40.9866C65.1337 41.1337 65.1667 41.2972 65.1668 41.4631V50.6901H71.8895V41.4631C71.8896 41.2972 71.9226 41.1337 71.9856 40.9866L72.1278 40.6455H64.9286ZM71.5054 41.4631V50.2229H65.5509V41.4631C65.551 41.345 65.5394 41.2274 65.5163 41.1127H71.54C71.5169 41.2274 71.5053 41.345 71.5054 41.4631V41.4631ZM73.38 40.6455L73.5222 40.9866C73.5852 41.1337 73.6182 41.2972 73.6183 41.4631V50.6901H80.341V41.4631C80.3411 41.2972 80.3741 41.1337 80.4371 40.9866L80.5793 40.6455H73.38ZM79.9569 41.4631V50.2229H74.0024V41.4631C74.0025 41.345 73.9909 41.2274 73.9678 41.1127H79.9915C79.9684 41.2274 79.9568 41.345 79.9569 41.4631V41.4631ZM81.8315 40.6455L81.9737 40.9866C82.0367 41.1337 82.0697 41.2972 82.0697 41.4631V50.6901H88.7925V41.4631C88.7926 41.2972 88.8255 41.1337 88.8886 40.9866L89.0307 40.6455H81.8315ZM88.4084 41.4631V50.2229H82.4539V41.4631C82.454 41.345 82.4424 41.2274 82.4193 41.1127H88.443C88.4199 41.2274 88.4082 41.345 88.4084 41.4631V41.4631ZM90.283 40.6455L90.4252 40.9866C90.4882 41.1337 90.5211 41.2972 90.5212 41.4631V50.6901H97.244V41.4631C97.2441 41.2972 97.277 41.1337 97.34 40.9866L97.4822 40.6455H90.283ZM96.8598 41.4631V50.2229H90.9054V41.4631C90.9055 41.345 90.8939 41.2274 90.8708 41.1127H96.8944C96.8713 41.2274 96.8597 41.345 96.8598 41.4631V41.4631ZM98.7345 40.6455L98.8767 40.9866C98.9397 41.1337 98.9726 41.2972 98.9727 41.4631V50.6901H105.695V41.4631C105.696 41.2972 105.729 41.1337 105.792 40.9866L105.934 40.6455H98.7345ZM105.311 41.4631V50.2229H99.3569V41.4631C99.357 41.345 99.3453 41.2274 99.3223 41.1127H105.346C105.323 41.2274 105.311 41.345 105.311 41.4631V41.4631ZM107.186 40.6455L107.328 40.9866C107.391 41.1337 107.424 41.2972 107.424 41.4631V50.6901H114.147V41.4631C114.147 41.2972 114.18 41.1337 114.243 40.9866L114.385 40.6455H107.186ZM113.763 41.4631V50.2229H107.808V41.4631C107.808 41.345 107.797 41.2274 107.774 41.1127H113.797C113.774 41.2274 113.763 41.345 113.763 41.4631V41.4631ZM115.637 40.6455L115.78 40.9866C115.843 41.1337 115.876 41.2972 115.876 41.4631V50.6901H122.598V41.4631C122.599 41.2972 122.631 41.1337 122.694 40.9866L122.837 40.6455H115.637ZM122.214 41.4631V50.2229H116.26V41.4631C116.26 41.345 116.248 41.2274 116.225 41.1127H122.249C122.226 41.2274 122.214 41.345 122.214 41.4631V41.4631ZM124.089 40.6455L124.231 40.9866C124.294 41.1337 124.327 41.2972 124.327 41.4631V50.6901H131.05V41.4631C131.05 41.2972 131.083 41.1337 131.146 40.9866L131.288 40.6455H124.089ZM130.666 41.4631V50.2229H124.711V41.4631C124.711 41.345 124.7 41.2274 124.677 41.1127H130.7C130.677 41.2274 130.666 41.345 130.666 41.4631V41.4631Z" fill="#B3B5F1"/>
<g filter="url(#filter1_dd)">
<path d="M95.5071 78.2825C97.7172 76.1384 101.419 77.1909 102.171 80.1769L108.38 104.839C109.132 107.825 106.369 110.505 103.407 109.663L78.9447 102.709C75.9829 101.867 75.0432 98.1348 77.2533 95.9907L95.5071 78.2825Z" fill="#FF6363"/>
<path d="M80.1744 85.7153C79.4227 82.7293 82.1853 80.0492 85.1472 80.8912L109.61 87.8453C112.572 88.6873 113.511 92.4198 111.301 94.5639L93.0475 112.272C90.8374 114.416 87.1351 113.364 86.3833 110.378L80.1744 85.7153Z" fill="#FF6363"/>
<circle cx="94.2652" cy="95.2547" r="5.16123" transform="rotate(15.8691 94.2652 95.2547)" fill="#B3B5F1"/>
</g>
<path d="M52 52.5C52 51.6716 52.6716 51 53.5 51H55V179H52V52.5Z" fill="#FF6363"/>
<path d="M136 52.5C136 51.6716 135.328 51 134.5 51H133V179H136V52.5Z" fill="#FF6363"/>
</g>
<defs>
<filter id="filter0_d" x="60.7139" y="59.1299" width="66.0638" height="17.94" filterUnits="userSpaceOnUse" color-interpolation-filters="sRGB">
<feFlood flood-opacity="0" result="BackgroundImageFix"/>
<feColorMatrix in="SourceAlpha" type="matrix" values="0 0 0 0 0 0 0 0 0 0 0 0 0 0 0 0 0 0 127 0" result="hardAlpha"/>
<feOffset dy="4"/>
<feGaussianBlur stdDeviation="2"/>
<feColorMatrix type="matrix" values="0 0 0 0 0 0 0 0 0 0 0 0 0 0 0 0 0 0 0.55 0"/>
<feBlend mode="normal" in2="BackgroundImageFix" result="effect1_dropShadow"/>
<feBlend mode="normal" in="SourceGraphic" in2="effect1_dropShadow" result="shape"/>
</filter>
<filter id="filter1_dd" x="64.2656" y="63.2241" width="56.2054" height="59.8372" filterUnits="userSpaceOnUse" color-interpolation-filters="sRGB">
<feFlood flood-opacity="0" result="BackgroundImageFix"/>
<feColorMatrix in="SourceAlpha" type="matrix" values="0 0 0 0 0 0 0 0 0 0 0 0 0 0 0 0 0 0 127 0" result="hardAlpha"/>
<feOffset dx="-1" dy="-3"/>
<feGaussianBlur stdDeviation="2"/>
<feComposite in2="hardAlpha" operator="out"/>
<feColorMatrix type="matrix" values="0 0 0 0 0.180392 0 0 0 0 0.0117647 0 0 0 0 0.0117647 0 0 0 0.25 0"/>
<feBlend mode="normal" in2="BackgroundImageFix" result="effect1_dropShadow"/>
<feColorMatrix in="SourceAlpha" type="matrix" values="0 0 0 0 0 0 0 0 0 0 0 0 0 0 0 0 0 0 127 0" result="hardAlpha"/>
<feOffset dx="1" dy="4"/>
<feGaussianBlur stdDeviation="2"/>
<feComposite in2="hardAlpha" operator="out"/>
<feColorMatrix type="matrix" values="0 0 0 0 0.179167 0 0 0 0 0.0111979 0 0 0 0 0.0111979 0 0 0 0.25 0"/>
<feBlend mode="normal" in2="effect1_dropShadow" result="effect2_dropShadow"/>
<feBlend mode="normal" in="SourceGraphic" in2="effect2_dropShadow" result="shape"/>
</filter>
<clipPath id="clip0">
<rect width="194" height="180" fill="white"/>
</clipPath>
</defs>
</svg>
