<svg width="326" height="924" viewBox="0 0 326 924" fill="none" xmlns="http://www.w3.org/2000/svg">
<path d="M82.9549 0H111.239V73.9848H82.9549V0Z" fill="#FFE500"/>
<path d="M84.9753 67.6436H325.393V923.753H84.9753V67.6436Z" fill="#FFE500"/>
<path d="M0 67H85V924H0V67Z" fill="#FFD465"/>
<path d="M245.59 141.628H281.956V179.677H245.59V141.628Z" fill="#B7B4B4"/>
<path d="M187.001 141.628H223.367V179.677H187.001V141.628Z" fill="#B7B4B4"/>
<path d="M128.412 141.628H164.777V179.677H128.412V141.628Z" fill="#B7B4B4"/>
<path d="M244.58 228.296H280.945V266.345H244.58V228.296Z" fill="#B7B4B4"/>
<path d="M185.991 228.296H222.356V266.345H185.991V228.296Z" fill="#B7B4B4"/>
<path d="M127.402 228.296H163.768V266.345H127.402V228.296Z" fill="#B7B4B4"/>
<path d="M243.57 314.964H279.936V353.013H243.57V314.964Z" fill="#B7B4B4"/>
<path d="M184.98 314.964H221.346V353.013H184.98V314.964Z" fill="#B7B4B4"/>
<path d="M126.392 314.964H162.757V353.013H126.392V314.964Z" fill="#B7B4B4"/>
<path d="M242.56 401.632H278.925V439.681H242.56V401.632Z" fill="#B7B4B4"/>
<path d="M183.97 401.632H220.336V439.681H183.97V401.632Z" fill="#B7B4B4"/>
<path d="M125.381 401.632H161.747V439.681H125.381V401.632Z" fill="#B7B4B4"/>
<path d="M241.549 488.3H277.915V526.349H241.549V488.3Z" fill="#B7B4B4"/>
<path d="M182.96 488.3H219.326V526.349H182.96V488.3Z" fill="#B7B4B4"/>
<path d="M124.371 488.3H160.736V526.349H124.371V488.3Z" fill="#B7B4B4"/>
<path d="M240.54 574.968H276.905V613.017H240.54V574.968Z" fill="#B7B4B4"/>
<path d="M181.95 574.968H218.316V613.017H181.95V574.968Z" fill="#B7B4B4"/>
<path d="M123.361 574.968H159.727V613.017H123.361V574.968Z" fill="#B7B4B4"/>
<path d="M239.529 661.636H275.895V699.685H239.529V661.636Z" fill="#B7B4B4"/>
<path d="M180.94 661.636H217.306V699.685H180.94V661.636Z" fill="#B7B4B4"/>
<path d="M122.351 661.636H158.716V699.685H122.351V661.636Z" fill="#B7B4B4"/>
<path d="M238.519 748.303H274.884V786.353H238.519V748.303Z" fill="#B7B4B4"/>
<path d="M179.93 748.303H216.296V786.353H179.93V748.303Z" fill="#B7B4B4"/>
<path d="M179.93 849.769H216.296V921.64H179.93V849.769Z" fill="#B7B4B4"/>
<path d="M121.34 748.303H157.706V786.353H121.34V748.303Z" fill="#B7B4B4"/>
<path d="M68.8129 0H84.9756V71.8709H68.8129V0Z" fill="#FFD465"/>
</svg>
