<svg width="330" height="279" viewBox="0 0 330 279" fill="none" xmlns="http://www.w3.org/2000/svg">
<path d="M291.18 197.522H38.1572V272.68H291.18V197.522Z" fill="#2758D7"/>
<path d="M179.42 213.055H149.917V272.68H179.42V213.055Z" fill="#FFB6F8"/>
<path d="M276.428 108.837H52.9082V177.982H276.428V108.837Z" fill="#2758D7"/>
<path d="M299.089 113.096H30.2472C29.7984 113.096 29.3598 112.961 28.9879 112.709C28.6159 112.458 28.3276 112.1 28.1599 111.683C27.9923 111.266 27.953 110.808 28.0471 110.368C28.1411 109.929 28.3643 109.527 28.6879 109.215L102.163 38.4489V7.62454C102.163 7.02675 102.4 6.45366 102.822 6.03096C103.244 5.60826 103.816 5.37049 104.413 5.36982H118.914C119.511 5.37047 120.083 5.60824 120.504 6.03094C120.926 6.45364 121.164 7.02675 121.164 7.62454V20.1479L126.714 14.8027C135.795 6.05576 147.844 1.07712 160.439 0.867265C173.034 0.657406 185.241 5.23188 194.608 13.6714L300.593 109.164C300.932 109.469 301.17 109.87 301.277 110.313C301.383 110.757 301.353 111.222 301.19 111.648C301.027 112.074 300.739 112.44 300.364 112.699C299.989 112.957 299.544 113.096 299.089 113.096V113.096Z" fill="#FFB6F8"/>
<path d="M111.913 126.374C113.785 126.374 115.638 126.743 117.367 127.461C119.096 128.178 120.667 129.23 121.991 130.556C123.314 131.882 124.364 133.456 125.08 135.189C125.796 136.921 126.165 138.778 126.165 140.653V159.944H97.6621V140.653C97.6621 136.866 99.1636 133.234 101.836 130.556C104.509 127.878 108.134 126.374 111.913 126.374Z" fill="white"/>
<path d="M164.668 126.624C166.54 126.624 168.393 126.993 170.122 127.711C171.851 128.429 173.422 129.481 174.745 130.807C176.069 132.133 177.119 133.707 177.835 135.439C178.551 137.172 178.92 139.029 178.92 140.904V160.194H150.417V140.904C150.417 139.029 150.786 137.172 151.502 135.439C152.218 133.707 153.268 132.133 154.591 130.807C155.914 129.481 157.485 128.429 159.215 127.711C160.944 126.993 162.797 126.624 164.668 126.624Z" fill="white"/>
<path d="M217.423 126.875C219.295 126.875 221.148 127.244 222.877 127.961C224.606 128.679 226.177 129.731 227.5 131.057C228.824 132.383 229.873 133.957 230.59 135.69C231.306 137.422 231.674 139.279 231.674 141.154V160.445H203.172V141.154C203.172 139.279 203.541 137.422 204.257 135.69C204.973 133.957 206.023 132.383 207.346 131.057C208.669 129.731 210.24 128.679 211.969 127.962C213.698 127.244 215.552 126.875 217.423 126.875Z" fill="white"/>
<path d="M238.424 212.304C242.204 212.304 245.829 213.808 248.501 216.486C251.174 219.164 252.675 222.796 252.675 226.584V245.874H224.173V226.584C224.173 222.796 225.674 219.164 228.347 216.486C231.02 213.808 234.644 212.304 238.424 212.304Z" fill="white"/>
<path d="M97.4124 212.304C101.192 212.304 104.817 213.808 107.49 216.486C110.162 219.164 111.664 222.796 111.664 226.584V245.874H83.1611V226.584C83.1611 224.708 83.5298 222.851 84.246 221.119C84.9621 219.386 86.0119 217.812 87.3352 216.486C88.6586 215.16 90.2296 214.108 91.9587 213.391C93.6877 212.673 95.5409 212.304 97.4124 212.304Z" fill="white"/>
<path d="M328.145 198.696L280.68 177.652C280.426 177.539 280.15 177.48 279.871 177.48H53.6649C53.4066 177.48 53.1508 177.531 52.9116 177.628L1.24692 198.672C0.817192 198.847 0.461547 199.166 0.240859 199.575C0.0201716 199.984 -0.0518378 200.457 0.0371603 200.913C0.126158 201.369 0.370628 201.78 0.728723 202.076C1.08682 202.371 1.53627 202.533 2.00015 202.533H15.4047V271.678H13.9045V278.693H315.431V271.678H312.931V202.533H327.335C327.794 202.533 328.239 202.375 328.595 202.086C328.951 201.796 329.197 201.393 329.292 200.943C329.387 200.494 329.325 200.025 329.116 199.616C328.907 199.207 328.564 198.882 328.145 198.696ZM308.931 271.678H19.405V202.533H308.931V271.678Z" fill="#FFB6F8"/>
<path d="M129.665 157.188H93.1621V163.201H129.665V157.188Z" fill="#FFB6F8"/>
<path d="M183.169 157.188H146.666V163.201H183.169V157.188Z" fill="#FFB6F8"/>
<path d="M236.674 157.188H200.171V163.201H236.674V157.188Z" fill="#FFB6F8"/>
<path d="M256.676 243.87H220.173V249.883H256.676V243.87Z" fill="#FFB6F8"/>
<rect x="75" y="74" width="181" height="38" fill="#FFF2FE" stroke="#6C63FF" stroke-width="2"/>
<g filter="url(#filter0_d)">
<path d="M110.032 104.12C108.384 104.12 106.896 103.752 105.568 103.016C104.256 102.28 103.216 101.264 102.448 99.968C101.696 98.672 101.32 97.216 101.32 95.6C101.32 93.984 101.696 92.528 102.448 91.232C103.216 89.936 104.256 88.92 105.568 88.184C106.896 87.448 108.384 87.08 110.032 87.08C111.248 87.08 112.368 87.28 113.392 87.68C114.416 88.064 115.288 88.64 116.008 89.408L115.24 90.2C113.896 88.872 112.176 88.208 110.08 88.208C108.672 88.208 107.392 88.528 106.24 89.168C105.088 89.808 104.184 90.696 103.528 91.832C102.872 92.952 102.544 94.208 102.544 95.6C102.544 96.992 102.872 98.256 103.528 99.392C104.184 100.512 105.088 101.392 106.24 102.032C107.392 102.672 108.672 102.992 110.08 102.992C112.16 102.992 113.88 102.32 115.24 100.976L116.008 101.768C115.288 102.536 114.408 103.12 113.368 103.52C112.344 103.92 111.232 104.12 110.032 104.12ZM120.108 87.2H121.332V104H120.108V87.2ZM130.402 88.304H124.354V87.2H137.674V88.304H131.626V104H130.402V88.304ZM145.823 98.216V104H144.599V98.216L137.831 87.2H139.175L145.247 97.088L151.319 87.2H152.591L145.823 98.216ZM177.691 104L177.667 89.624L170.635 101.768H170.035L163.003 89.672V104H161.803V87.2H162.835L170.347 100.184L177.859 87.2H178.867L178.891 104H177.691ZM195.14 99.272H185.396L183.26 104H181.94L189.668 87.2H190.892L198.62 104H197.3L195.14 99.272ZM194.684 98.24L190.268 88.544L185.876 98.24H194.684ZM213.334 104L209.326 98.384C208.734 98.464 208.19 98.504 207.694 98.504H202.894V104H201.67V87.2H207.694C209.806 87.2 211.462 87.704 212.662 88.712C213.862 89.704 214.462 91.088 214.462 92.864C214.462 94.192 214.118 95.312 213.43 96.224C212.758 97.12 211.79 97.752 210.526 98.12L214.726 104H213.334ZM207.694 97.424C209.486 97.424 210.854 97.032 211.798 96.248C212.742 95.448 213.214 94.32 213.214 92.864C213.214 91.408 212.742 90.288 211.798 89.504C210.854 88.704 209.486 88.304 207.694 88.304H202.894V97.424H207.694ZM221.925 88.304H215.877V87.2H229.197V88.304H223.149V104H221.925V88.304Z" fill="black"/>
</g>
<defs>
<filter id="filter0_d" x="97.3203" y="87.0801" width="135.877" height="25.04" filterUnits="userSpaceOnUse" color-interpolation-filters="sRGB">
<feFlood flood-opacity="0" result="BackgroundImageFix"/>
<feColorMatrix in="SourceAlpha" type="matrix" values="0 0 0 0 0 0 0 0 0 0 0 0 0 0 0 0 0 0 127 0" result="hardAlpha"/>
<feOffset dy="4"/>
<feGaussianBlur stdDeviation="2"/>
<feColorMatrix type="matrix" values="0 0 0 0 0 0 0 0 0 0 0 0 0 0 0 0 0 0 0.55 0"/>
<feBlend mode="normal" in2="BackgroundImageFix" result="effect1_dropShadow"/>
<feBlend mode="normal" in="SourceGraphic" in2="effect1_dropShadow" result="shape"/>
</filter>
</defs>
</svg>
