<svg width="190" height="250" viewBox="0 0 190 250" fill="none" xmlns="http://www.w3.org/2000/svg">
<path d="M181.305 47L189.406 40.5169L144.039 0H29.0006V35.655L103.533 85.8961L181.305 47Z" fill="#BA1550"/>
<path d="M13.2748 22.7655V0.810739H24.5941V6.18745L28.8187 0L56.4365 40.5842L67.2435 50.3246L84 215.836L58.7292 250H0V42.2077L13.2748 22.7655Z" fill="#F58181"/>
<path d="M57 41H189V250H57V41Z" fill="#FAC0DC"/>
<path d="M26.2032 58.1031V50H35.9248V58.1031H27.0131H26.2032Z" fill="#BA1550"/>
<path d="M27.0131 64.5864H35.9248V72.6895H26.2032V64.5864H27.0131Z" fill="#BA1550"/>
<path d="M10.0001 50H19.7217V58.1034H10.0001V50Z" fill="#BA1550"/>
<path d="M10.0001 64.5859H19.7217V72.6893H10.0001V64.5859Z" fill="#BA1550"/>
<path d="M26.2032 103.482V95.3789H35.9248V103.482H27.0131H26.2032Z" fill="#BA1550"/>
<path d="M27.0131 109.965H35.9248V118.068H26.2032V109.965H27.0131Z" fill="#BA1550"/>
<path d="M10.0001 95.3789H19.7217V103.482H10.0001V95.3789Z" fill="#BA1550"/>
<path d="M10.0001 109.965H19.7217V118.069H10.0001V109.965Z" fill="#BA1550"/>
<path d="M26.2032 148.861V140.758H35.9248V148.861H27.0131H26.2032Z" fill="#BA1550"/>
<path d="M27.0131 155.344H35.9248V163.448H26.2032V155.344H27.0131Z" fill="#BA1550"/>
<path d="M10.0001 140.758H19.7217V148.862H10.0001V140.758Z" fill="#BA1550"/>
<path d="M10.0001 155.344H19.7217V163.448H10.0001V155.344Z" fill="#BA1550"/>
<path d="M26.2032 194.241V186.137H35.9248V194.241H27.0131H26.2032Z" fill="#BA1550"/>
<path d="M27.0131 200.724H35.9248V208.827H26.2032V200.724H27.0131Z" fill="#BA1550"/>
<path d="M10.0001 186.137H19.7217V194.241H10.0001V186.137Z" fill="#BA1550"/>
<path d="M10.0001 200.724H19.7217V208.827H10.0001V200.724Z" fill="#BA1550"/>
<path d="M113.266 197.689H135.949V248.741H113.266V197.689Z" fill="#F58181"/>
<path d="M160.253 212.275V204.172H169.975V212.275H161.063H160.253Z" fill="#BA1550"/>
<path d="M161.063 218.758H169.975V226.861H160.253V218.758H161.063Z" fill="#BA1550"/>
<path d="M144.05 204.172H153.771V212.275H144.05V204.172Z" fill="#BA1550"/>
<path d="M144.05 218.758H153.771V226.862H144.05V218.758Z" fill="#BA1550"/>
<path d="M93.8226 212.275V204.172H103.544V212.275H94.6326H93.8226Z" fill="#BA1550"/>
<path d="M94.6326 218.758H103.544V226.861H93.8226V218.758H94.6326Z" fill="#BA1550"/>
<path d="M77.6202 204.172H87.3418V212.275H77.6202V204.172Z" fill="#BA1550"/>
<path d="M77.6202 218.758H87.3418V226.862H77.6202V218.758Z" fill="#BA1550"/>
<path d="M75.9996 128H169.975V147.448H75.9996V128Z" fill="#BA1550"/>
<path d="M75.9996 166.896H169.975V186.345H75.9996V166.896Z" fill="#BA1550"/>
<rect x="64" y="47" width="118" height="73" rx="14" fill="#F9DCDC"/>
<rect x="67.5" y="49.5" width="111" height="68" rx="13.5" fill="white" stroke="black" stroke-dasharray="10 10"/>
</svg>
