<svg width="1440" height="1024" viewBox="0 0 1440 1024" fill="none" xmlns="http://www.w3.org/2000/svg">
<rect width="1440" height="1024" fill="white"/>
<rect width="1440" height="1024" fill="#FCFBEF"/>
<rect y="484" width="1440" height="236" fill="#FFE500" fill-opacity="0.43"/>
<rect x="107.291" y="341.729" width="437.709" height="538.271" fill="#F8F3F3"/>
<rect x="138.279" y="371.187" width="375.732" height="508.813" fill="url(#paint0_linear)"/>
<path d="M106 337.713H545L513.685 385.916L138.294 384.182L106 337.713Z" fill="#A5570F"/>
<path d="M106 337.713L138.279 382.847V880H106V337.713Z" fill="url(#paint1_linear)"/>
<path d="M545 337.713L512.721 382.847V880H545V337.713Z" fill="url(#paint2_linear)"/>
<rect x="230" y="258" width="192" height="64" fill="#472403" stroke="white" stroke-width="4"/>
<path d="M372 268L393.651 305.5H350.349L372 268Z" fill="#2BE899"/>
<rect x="324" y="383" width="3" height="497" fill="#844307"/>
<circle cx="630.5" cy="548.5" r="33.5" fill="#D28239" stroke="#A4560E" stroke-width="6"/>
<circle cx="630.5" cy="548.5" r="33.5" fill="#D28239" stroke="#A4560E" stroke-width="6"/>
<g filter="url(#filter0_d)">
<path d="M631 524L652.651 561.5H609.349L631 524Z" fill="#2BE899"/>
</g>
<g filter="url(#filter1_d)">
<path d="M631 524L652.651 561.5H609.349L631 524Z" fill="#2BE899"/>
</g>
<circle r="33.5" transform="matrix(1 0 0 -1 630.5 647.5)" fill="#D28239" stroke="#A4560E" stroke-width="6"/>
<g filter="url(#filter2_d)">
<path d="M631 672L652.651 634.5H609.349L631 672Z" fill="#2BE899"/>
</g>
<path d="M1044.91 785.244C1040.53 800.404 1027.75 811.016 1014.41 820.031C1012.55 821.29 1010.69 822.52 1008.83 823.721C1008.82 823.726 1008.8 823.738 1008.79 823.744C1008.7 823.801 1008.61 823.859 1008.53 823.917C1008.14 824.164 1007.76 824.412 1007.38 824.656L1007.59 824.75C1007.59 824.75 1007.79 824.859 1007.57 824.768C1007.5 824.74 1007.43 824.715 1007.36 824.687C999.617 821.568 991.734 818.22 985.798 812.378C979.64 806.311 976.042 796.796 979.376 788.826C979.814 787.782 980.368 786.79 981.027 785.869C981.297 785.482 981.588 785.113 981.892 784.75C983.731 782.509 986.135 780.798 988.856 779.792C991.577 778.786 994.518 778.521 997.376 779.026C1000.23 779.531 1002.9 780.786 1005.11 782.663C1007.33 784.54 1009 786.971 1009.95 789.706C1010.93 780.601 1003.41 772.975 996.175 767.348C988.934 761.724 980.707 755.599 979.307 746.545C978.526 741.507 980.281 736.625 983.477 732.706C983.576 732.587 983.675 732.468 983.777 732.352C987.668 727.788 993.141 724.857 999.102 724.145C1010.2 722.993 1020.99 728.859 1029.05 736.565C1042.04 748.964 1049.88 768.007 1044.91 785.244Z" fill="#0C6F16"/>
<path d="M981.711 823.421H1029.68C1030.21 823.421 1030.73 823.533 1031.21 823.749C1031.69 823.965 1032.12 824.28 1032.46 824.674C1032.81 825.068 1033.07 825.531 1033.23 826.033C1033.38 826.535 1033.43 827.064 1033.36 827.585L1027.25 876.399C1027.14 877.295 1026.7 878.118 1026.02 878.715C1025.35 879.313 1024.47 879.643 1023.57 879.644H987.823C986.919 879.643 986.046 879.313 985.369 878.715C984.691 878.118 984.254 877.295 984.141 876.399L978.029 827.585C977.963 827.064 978.01 826.535 978.165 826.033C978.32 825.531 978.581 825.068 978.929 824.674C979.277 824.28 979.705 823.965 980.185 823.749C980.665 823.533 981.185 823.421 981.711 823.421Z" fill="#C66D04"/>
<path d="M1100.73 473.684C1100.73 474.898 1100.51 475.865 1100.27 476.473H923.455C923.216 475.865 923.001 474.9 923 473.686V382.786C923 381.573 923.215 380.607 923.455 380H1100.27C1100.51 380.608 1100.73 381.574 1100.73 382.788V473.684Z" fill="#D6F7BD" stroke="black" stroke-width="8"/>
<path d="M979.914 427.651C988.563 427.651 995.575 420.639 995.575 411.99C995.575 403.341 988.563 396.329 979.914 396.329C971.265 396.329 964.253 403.341 964.253 411.99C964.253 420.639 971.265 427.651 979.914 427.651Z" fill="#3F3D56"/>
<path d="M1029.03 460.25H952.198C952.102 460.251 952.006 460.243 951.911 460.227L988.249 397.289C988.47 396.897 988.792 396.571 989.181 396.344C989.57 396.117 990.013 395.997 990.463 395.997C990.913 395.997 991.356 396.117 991.745 396.344C992.134 396.571 992.456 396.897 992.677 397.289L1017.06 439.526L1018.23 441.546L1029.03 460.25Z" fill="#6C63FF"/>
<path d="M1071.8 460.251H1005.35L1018.23 441.549L1019.15 440.201L1035.93 415.827C1036.23 415.454 1036.6 415.148 1037.02 414.928C1037.45 414.708 1037.91 414.58 1038.39 414.552C1038.86 414.524 1039.34 414.596 1039.79 414.763C1040.23 414.931 1040.64 415.191 1040.98 415.526C1041.06 415.621 1041.14 415.722 1041.22 415.827L1071.8 460.251Z" fill="#6C63FF"/>
<path d="M1236.17 318.783C1235.86 318.783 1235.56 318.906 1235.34 319.125C1235.12 319.343 1235 319.64 1235 319.949V410.903C1235 411.213 1235.12 411.509 1235.34 411.728C1235.56 411.946 1235.86 412.069 1236.17 412.069H1312.01C1312.32 412.069 1312.61 411.946 1312.83 411.728C1313.05 411.509 1313.17 411.213 1313.17 410.903V319.949C1313.17 319.64 1313.05 319.343 1312.83 319.125C1312.61 318.906 1312.32 318.783 1312.01 318.783H1236.17Z" fill="#3F3D56"/>
<path d="M1244.04 403.032H1304.13V327.82H1244.04V403.032Z" fill="#4D31FB"/>
<path d="M1284.7 325.196H1263.48C1262.96 325.198 1262.46 325.065 1262.01 324.809C1261.57 324.554 1261.2 324.186 1260.94 323.742C1260.69 323.298 1260.55 322.794 1260.55 322.282C1260.56 321.769 1260.69 321.266 1260.95 320.823L1271.56 302.458C1271.57 302.443 1271.58 302.427 1271.59 302.412C1271.82 302.022 1272.14 301.691 1272.52 301.448C1272.91 301.205 1273.34 301.057 1273.8 301.014L1273.81 301.013C1273.9 301.004 1273.99 301 1274.09 301C1274.6 300.997 1275.1 301.13 1275.55 301.387C1275.99 301.643 1276.36 302.012 1276.61 302.458L1287.22 320.823C1287.48 321.267 1287.61 321.769 1287.61 322.281C1287.61 322.793 1287.48 323.295 1287.22 323.739C1286.97 324.182 1286.6 324.55 1286.15 324.806C1285.71 325.061 1285.21 325.196 1284.7 325.196ZM1262.89 322.278C1262.89 322.382 1262.92 322.483 1262.97 322.573C1263.02 322.662 1263.09 322.736 1263.18 322.787C1263.27 322.839 1263.37 322.865 1263.48 322.864H1284.7C1284.8 322.865 1284.9 322.839 1284.99 322.787C1285.08 322.736 1285.15 322.662 1285.2 322.573C1285.25 322.483 1285.28 322.382 1285.28 322.278C1285.28 322.177 1285.25 322.077 1285.2 321.99L1274.59 303.624C1274.54 303.535 1274.47 303.461 1274.38 303.41C1274.29 303.359 1274.19 303.332 1274.09 303.332C1273.98 303.332 1273.88 303.359 1273.79 303.41C1273.71 303.461 1273.63 303.535 1273.58 303.624L1262.97 321.99C1262.92 322.077 1262.89 322.177 1262.89 322.278Z" fill="#FF0000"/>
<path d="M1274.09 306.539C1275.05 306.539 1275.84 305.756 1275.84 304.79C1275.84 303.824 1275.05 303.041 1274.09 303.041C1273.12 303.041 1272.34 303.824 1272.34 304.79C1272.34 305.756 1273.12 306.539 1274.09 306.539Z" fill="#3F3D56"/>
<path d="M1244.73 374.394C1245.57 372.47 1246.79 370.737 1248.32 369.301C1249.85 367.865 1251.66 366.755 1253.63 366.04C1255.69 365.248 1257.89 364.909 1260.08 365.046C1262.28 365.182 1264.42 365.791 1266.36 366.832C1270.91 369.246 1274.55 373.043 1279.17 375.354C1283.67 377.58 1288.62 378.744 1293.63 378.758C1299.31 378.802 1304.91 377.352 1309.85 374.552C1310.04 374.431 1310.18 374.24 1310.23 374.019C1310.29 373.799 1310.25 373.566 1310.14 373.37C1310.02 373.174 1309.84 373.031 1309.62 372.969C1309.4 372.908 1309.16 372.934 1308.96 373.042C1304.49 375.55 1299.46 376.912 1294.32 377.006C1289.19 377.1 1284.11 375.924 1279.54 373.581C1274.91 371.15 1271.23 367.226 1266.51 364.948C1264.5 363.975 1262.32 363.41 1260.09 363.285C1257.87 363.16 1255.64 363.478 1253.54 364.221C1251.2 365.004 1249.06 366.275 1247.25 367.948C1245.44 369.622 1244 371.66 1243.04 373.929C1242.62 374.971 1244.31 375.424 1244.73 374.394V374.394Z" fill="#39EB4B"/>
<path d="M1243.35 390.744C1253.06 388.577 1263.13 388.612 1272.83 390.846C1281.45 392.843 1290.34 396.434 1299.22 393.756C1303.19 392.559 1306.82 390.165 1308.86 386.481C1309.41 385.495 1307.9 384.612 1307.35 385.598C1303.51 392.535 1294.52 393.705 1287.42 392.567C1282.67 391.806 1278.1 390.282 1273.43 389.19C1263.39 386.837 1252.94 386.792 1242.88 389.057C1241.78 389.302 1242.25 390.989 1243.35 390.744Z" fill="#DA43CB"/>
<path d="M1242.72 351.646C1252.03 350.063 1261.57 350.402 1270.74 352.643C1279.32 354.742 1287.7 359.538 1296.76 358.709C1300.96 358.326 1305.11 356.783 1307.96 353.575C1308.71 352.736 1307.48 351.494 1306.73 352.338C1304.27 355.106 1300.72 356.54 1297.09 356.928C1292.9 357.375 1288.78 356.507 1284.79 355.275C1280.38 353.91 1276.09 352.182 1271.6 351.054C1262 348.645 1252 348.272 1242.25 349.959C1241.14 350.149 1241.61 351.834 1242.72 351.646Z" fill="#FFD465"/>
<path d="M1278.17 361.345C1282.68 361.345 1286.34 357.69 1286.34 353.182C1286.34 348.674 1282.68 345.02 1278.17 345.02C1273.66 345.02 1270 348.674 1270 353.182C1270 357.69 1273.66 361.345 1278.17 361.345Z" fill="#E80000"/>
<path d="M1163.4 832.289C1163.4 832.289 1097.89 802.146 1120.9 781.242C1143.92 760.339 1163.4 832.289 1163.4 832.289Z" fill="#24B644"/>
<path d="M1162.26 839.323C1162.26 839.323 1132.15 740.435 1176.49 745.164C1220.84 749.894 1162.26 839.323 1162.26 839.323Z" fill="#0C6F16"/>
<path d="M1140.31 830.552L1141.57 847.094L1141.59 847.38C1141.59 849.963 1141.72 852.545 1141.98 855.115C1143.7 871.987 1151.07 879.677 1159.69 879.677C1168.3 879.677 1175.35 871.987 1177.07 855.115C1177.33 852.545 1177.46 849.963 1177.46 847.38L1177.47 847.149L1177.48 847.094L1178.75 830.552H1140.31Z" fill="#A4560E"/>
<path d="M1177.48 847.094L1177.47 847.149L1177.46 847.38C1177.46 849.963 1177.33 852.545 1177.07 855.115H1141.98C1141.72 852.545 1141.59 849.963 1141.59 847.38L1141.57 847.094H1177.48Z" fill="#F5A327"/>
<path d="M860.683 832.289C860.683 832.289 926.201 802.146 903.185 781.242C880.168 760.339 860.683 832.289 860.683 832.289Z" fill="#24B644"/>
<path d="M861.823 839.323C861.823 839.323 891.937 740.435 847.593 745.164C803.249 749.894 861.823 839.323 861.823 839.323Z" fill="#0C6F16"/>
<path d="M883.78 830.552L882.516 847.094L882.496 847.38C882.497 849.963 882.367 852.545 882.105 855.115C880.39 871.987 873.017 879.677 864.4 879.677C855.783 879.677 848.731 871.987 847.016 855.115C846.754 852.545 846.623 849.963 846.625 847.38L846.615 847.149L846.61 847.094L845.341 830.552H883.78Z" fill="#A4560E"/>
<path d="M881.996 847.594H847.125C847.131 849.939 847.245 852.281 847.469 854.615H881.652C881.876 852.281 881.991 849.939 881.996 847.594Z" fill="#EFD703" stroke="black"/>
<rect y="880" width="1440" height="144" fill="#FFE500"/>
<defs>
<filter id="filter0_d" x="605.35" y="524" width="51.3013" height="45.5" filterUnits="userSpaceOnUse" color-interpolation-filters="sRGB">
<feFlood flood-opacity="0" result="BackgroundImageFix"/>
<feColorMatrix in="SourceAlpha" type="matrix" values="0 0 0 0 0 0 0 0 0 0 0 0 0 0 0 0 0 0 127 0" result="hardAlpha"/>
<feOffset dy="4"/>
<feGaussianBlur stdDeviation="2"/>
<feColorMatrix type="matrix" values="0 0 0 0 0 0 0 0 0 0 0 0 0 0 0 0 0 0 0.25 0"/>
<feBlend mode="normal" in2="BackgroundImageFix" result="effect1_dropShadow"/>
<feBlend mode="normal" in="SourceGraphic" in2="effect1_dropShadow" result="shape"/>
</filter>
<filter id="filter1_d" x="589.35" y="508" width="83.3013" height="77.5" filterUnits="userSpaceOnUse" color-interpolation-filters="sRGB">
<feFlood flood-opacity="0" result="BackgroundImageFix"/>
<feColorMatrix in="SourceAlpha" type="matrix" values="0 0 0 0 0 0 0 0 0 0 0 0 0 0 0 0 0 0 127 0" result="hardAlpha"/>
<feOffset dy="4"/>
<feGaussianBlur stdDeviation="10"/>
<feColorMatrix type="matrix" values="0 0 0 0 0.641667 0 0 0 0 0.335806 0 0 0 0 0.0534722 0 0 0 1 0"/>
<feBlend mode="normal" in2="BackgroundImageFix" result="effect1_dropShadow"/>
<feBlend mode="normal" in="SourceGraphic" in2="effect1_dropShadow" result="shape"/>
</filter>
<filter id="filter2_d" x="589.35" y="618.5" width="83.3013" height="77.5" filterUnits="userSpaceOnUse" color-interpolation-filters="sRGB">
<feFlood flood-opacity="0" result="BackgroundImageFix"/>
<feColorMatrix in="SourceAlpha" type="matrix" values="0 0 0 0 0 0 0 0 0 0 0 0 0 0 0 0 0 0 127 0" result="hardAlpha"/>
<feOffset dy="4"/>
<feGaussianBlur stdDeviation="10"/>
<feColorMatrix type="matrix" values="0 0 0 0 0.641667 0 0 0 0 0.335806 0 0 0 0 0.0534722 0 0 0 1 0"/>
<feBlend mode="normal" in2="BackgroundImageFix" result="effect1_dropShadow"/>
<feBlend mode="normal" in="SourceGraphic" in2="effect1_dropShadow" result="shape"/>
</filter>
<linearGradient id="paint0_linear" x1="326.145" y1="371.187" x2="326.145" y2="951.456" gradientUnits="userSpaceOnUse">
<stop stop-color="#F4A45A"/>
<stop offset="1" stop-color="#A4560E"/>
</linearGradient>
<linearGradient id="paint1_linear" x1="59.1365" y1="609.196" x2="179.309" y2="609.196" gradientUnits="userSpaceOnUse">
<stop stop-color="#F1A056"/>
<stop offset="0.748128" stop-color="#A4560E"/>
</linearGradient>
<linearGradient id="paint2_linear" x1="591.863" y1="609.196" x2="471.691" y2="609.196" gradientUnits="userSpaceOnUse">
<stop stop-color="#F1A056"/>
<stop offset="0.748128" stop-color="#A4560E"/>
</linearGradient>
</defs>
</svg>
