<svg width="1440" height="1024" viewBox="0 0 1440 1024" fill="none" xmlns="http://www.w3.org/2000/svg">
<g clip-path="url(#clip0)">
<rect width="1440" height="1024" fill="white"/>
<rect width="1440" height="1024" fill="#A4560E"/>
<rect x="99" y="880" width="880" height="1241" transform="rotate(-90 99 880)" fill="#FCFBEF"/>
<rect x="665" y="79" width="192" height="64" fill="#6C63FF" stroke="#F80000" stroke-width="4"/>
<path d="M808 132L829.651 94.5H786.349L808 132Z" fill="#2BE899"/>
<circle r="33.5" transform="matrix(1 0 0 -1 1029.5 764.5)" fill="#635BEF" stroke="#0E77A4" stroke-width="6"/>
<g filter="url(#filter0_d)">
<path d="M1030 789L1051.65 751.5H1008.35L1030 789Z" fill="#2BE899"/>
</g>
<circle cx="1127.5" cy="762.5" r="33.5" fill="#635BEF" stroke="#0E77A4" stroke-width="6"/>
<g filter="url(#filter1_d)">
<path d="M1128 738L1149.65 775.5H1106.35L1128 738Z" fill="#2BE899"/>
</g>
<rect x="-3" y="874" width="1440" height="150" fill="#DB8B41"/>
<path d="M1342 837L1342 98.8125L1440 -4.28372e-06L1440 738.187L1342 837Z" fill="#E4944A"/>
<path d="M1342 378V256L1440 179L1440 299.5L1342 378Z" fill="#F9F9F9" fill-opacity="0.27"/>
<path d="M1342 617V495L1440 418L1440 538.5L1342 617Z" fill="#F9F9F9" fill-opacity="0.27"/>
<path d="M98 837L98 98.8125L-1.56054e-06 -4.28372e-06L-3.38277e-05 738.187L98 837Z" fill="#E4944A"/>
<path d="M98 378L98 256L1.06917e-06 179L3.43134e-06 299.5L98 378Z" fill="#F9F9F9" fill-opacity="0.27"/>
<path d="M98 617L98 495L1.06917e-06 418L3.43134e-06 538.5L98 617Z" fill="#F9F9F9" fill-opacity="0.27"/>
<circle r="2" transform="matrix(1 0 0 -1 293 109.222)" fill="#3F3D56"/>
<circle r="2" transform="matrix(1 0 0 -1 301 109.222)" fill="#3F3D56"/>
<circle r="2" transform="matrix(1 0 0 -1 309 109.222)" fill="#3F3D56"/>
<circle r="2" transform="matrix(1 0 0 -1 317 109.222)" fill="#3F3D56"/>
<circle r="2" transform="matrix(1 0 0 -1 325 109.222)" fill="#3F3D56"/>
<circle r="2" transform="matrix(1 0 0 -1 293 102.778)" fill="#3F3D56"/>
<circle r="2" transform="matrix(1 0 0 -1 301 102.778)" fill="#3F3D56"/>
<circle r="2" transform="matrix(1 0 0 -1 309 102.778)" fill="#3F3D56"/>
<circle r="2" transform="matrix(1 0 0 -1 317 102.778)" fill="#3F3D56"/>
<circle r="2" transform="matrix(1 0 0 -1 325 102.778)" fill="#3F3D56"/>
<circle r="2" transform="matrix(1 0 0 -1 293 96.3333)" fill="#3F3D56"/>
<circle r="2" transform="matrix(1 0 0 -1 301 96.3333)" fill="#3F3D56"/>
<circle r="2" transform="matrix(1 0 0 -1 309 96.3333)" fill="#3F3D56"/>
<circle r="2" transform="matrix(1 0 0 -1 317 96.3333)" fill="#3F3D56"/>
<circle r="2" transform="matrix(1 0 0 -1 325 96.3333)" fill="#3F3D56"/>
<circle r="2" transform="matrix(1 0 0 -1 293 89.8889)" fill="#3F3D56"/>
<circle r="2" transform="matrix(1 0 0 -1 301 89.8889)" fill="#3F3D56"/>
<circle r="2" transform="matrix(1 0 0 -1 309 89.8889)" fill="#3F3D56"/>
<circle r="2" transform="matrix(1 0 0 -1 317 89.8889)" fill="#3F3D56"/>
<circle r="2" transform="matrix(1 0 0 -1 325 89.8889)" fill="#3F3D56"/>
<circle r="2" transform="matrix(1 0 0 -1 293 83.4443)" fill="#3F3D56"/>
<circle r="2" transform="matrix(1 0 0 -1 301 83.4443)" fill="#3F3D56"/>
<circle r="2" transform="matrix(1 0 0 -1 309 83.4443)" fill="#3F3D56"/>
<circle r="2" transform="matrix(1 0 0 -1 317 83.4443)" fill="#3F3D56"/>
<circle r="2" transform="matrix(1 0 0 -1 325 83.4443)" fill="#3F3D56"/>
<circle r="2" transform="matrix(1 0 0 -1 293 77)" fill="#3F3D56"/>
<circle r="2" transform="matrix(1 0 0 -1 301 77)" fill="#3F3D56"/>
<circle r="2" transform="matrix(1 0 0 -1 309 77)" fill="#3F3D56"/>
<circle r="2" transform="matrix(1 0 0 -1 317 77)" fill="#3F3D56"/>
<circle r="2" transform="matrix(1 0 0 -1 325 77)" fill="#3F3D56"/>
<circle r="2" transform="matrix(1 0 0 -1 293 149.222)" fill="#3F3D56"/>
<circle r="2" transform="matrix(1 0 0 -1 301 149.222)" fill="#3F3D56"/>
<circle r="2" transform="matrix(1 0 0 -1 309 149.222)" fill="#3F3D56"/>
<circle r="2" transform="matrix(1 0 0 -1 317 149.222)" fill="#3F3D56"/>
<circle r="2" transform="matrix(1 0 0 -1 325 149.222)" fill="#3F3D56"/>
<circle r="2" transform="matrix(1 0 0 -1 293 142.778)" fill="#3F3D56"/>
<circle r="2" transform="matrix(1 0 0 -1 301 142.778)" fill="#3F3D56"/>
<circle r="2" transform="matrix(1 0 0 -1 309 142.778)" fill="#3F3D56"/>
<circle r="2" transform="matrix(1 0 0 -1 317 142.778)" fill="#3F3D56"/>
<circle r="2" transform="matrix(1 0 0 -1 325 142.778)" fill="#3F3D56"/>
<circle r="2" transform="matrix(1 0 0 -1 293 136.333)" fill="#3F3D56"/>
<circle r="2" transform="matrix(1 0 0 -1 301 136.333)" fill="#3F3D56"/>
<circle r="2" transform="matrix(1 0 0 -1 309 136.333)" fill="#3F3D56"/>
<circle r="2" transform="matrix(1 0 0 -1 317 136.333)" fill="#3F3D56"/>
<circle r="2" transform="matrix(1 0 0 -1 325 136.333)" fill="#3F3D56"/>
<circle r="2" transform="matrix(1 0 0 -1 293 129.889)" fill="#3F3D56"/>
<circle r="2" transform="matrix(1 0 0 -1 301 129.889)" fill="#3F3D56"/>
<circle r="2" transform="matrix(1 0 0 -1 309 129.889)" fill="#3F3D56"/>
<circle r="2" transform="matrix(1 0 0 -1 317 129.889)" fill="#3F3D56"/>
<circle r="2" transform="matrix(1 0 0 -1 325 129.889)" fill="#3F3D56"/>
<circle r="2" transform="matrix(1 0 0 -1 293 123.444)" fill="#3F3D56"/>
<circle r="2" transform="matrix(1 0 0 -1 301 123.444)" fill="#3F3D56"/>
<circle r="2" transform="matrix(1 0 0 -1 309 123.444)" fill="#3F3D56"/>
<circle r="2" transform="matrix(1 0 0 -1 317 123.444)" fill="#3F3D56"/>
<circle r="2" transform="matrix(1 0 0 -1 325 123.444)" fill="#3F3D56"/>
<circle r="2" transform="matrix(1 0 0 -1 293 117)" fill="#3F3D56"/>
<circle r="2" transform="matrix(1 0 0 -1 301 117)" fill="#3F3D56"/>
<circle r="2" transform="matrix(1 0 0 -1 309 117)" fill="#3F3D56"/>
<circle r="2" transform="matrix(1 0 0 -1 317 117)" fill="#3F3D56"/>
<circle r="2" transform="matrix(1 0 0 -1 325 117)" fill="#3F3D56"/>
<circle r="2" transform="matrix(1 0 0 -1 334 109.222)" fill="#3F3D56"/>
<circle r="2" transform="matrix(1 0 0 -1 342 109.222)" fill="#3F3D56"/>
<circle r="2" transform="matrix(1 0 0 -1 350 109.222)" fill="#3F3D56"/>
<circle r="2" transform="matrix(1 0 0 -1 358 109.222)" fill="#3F3D56"/>
<circle r="2" transform="matrix(1 0 0 -1 366 109.222)" fill="#3F3D56"/>
<circle r="2" transform="matrix(1 0 0 -1 334 102.778)" fill="#3F3D56"/>
<circle r="2" transform="matrix(1 0 0 -1 342 102.778)" fill="#3F3D56"/>
<circle r="2" transform="matrix(1 0 0 -1 350 102.778)" fill="#3F3D56"/>
<circle r="2" transform="matrix(1 0 0 -1 358 102.778)" fill="#3F3D56"/>
<circle r="2" transform="matrix(1 0 0 -1 366 102.778)" fill="#3F3D56"/>
<circle r="2" transform="matrix(1 0 0 -1 334 96.3333)" fill="#3F3D56"/>
<circle r="2" transform="matrix(1 0 0 -1 342 96.3333)" fill="#3F3D56"/>
<circle r="2" transform="matrix(1 0 0 -1 350 96.3333)" fill="#3F3D56"/>
<circle r="2" transform="matrix(1 0 0 -1 358 96.3333)" fill="#3F3D56"/>
<circle r="2" transform="matrix(1 0 0 -1 366 96.3333)" fill="#3F3D56"/>
<circle r="2" transform="matrix(1 0 0 -1 334 89.8889)" fill="#3F3D56"/>
<circle r="2" transform="matrix(1 0 0 -1 342 89.8889)" fill="#3F3D56"/>
<circle r="2" transform="matrix(1 0 0 -1 350 89.8889)" fill="#3F3D56"/>
<circle r="2" transform="matrix(1 0 0 -1 358 89.8889)" fill="#3F3D56"/>
<circle r="2" transform="matrix(1 0 0 -1 366 89.8889)" fill="#3F3D56"/>
<circle r="2" transform="matrix(1 0 0 -1 334 83.4443)" fill="#3F3D56"/>
<circle r="2" transform="matrix(1 0 0 -1 342 83.4443)" fill="#3F3D56"/>
<circle r="2" transform="matrix(1 0 0 -1 350 83.4443)" fill="#3F3D56"/>
<circle r="2" transform="matrix(1 0 0 -1 358 83.4443)" fill="#3F3D56"/>
<circle r="2" transform="matrix(1 0 0 -1 366 83.4443)" fill="#3F3D56"/>
<circle r="2" transform="matrix(1 0 0 -1 334 77)" fill="#3F3D56"/>
<circle r="2" transform="matrix(1 0 0 -1 342 77)" fill="#3F3D56"/>
<circle r="2" transform="matrix(1 0 0 -1 350 77)" fill="#3F3D56"/>
<circle r="2" transform="matrix(1 0 0 -1 358 77)" fill="#3F3D56"/>
<circle r="2" transform="matrix(1 0 0 -1 366 77)" fill="#3F3D56"/>
<circle r="2" transform="matrix(1 0 0 -1 334 149.222)" fill="#3F3D56"/>
<circle r="2" transform="matrix(1 0 0 -1 342 149.222)" fill="#3F3D56"/>
<circle r="2" transform="matrix(1 0 0 -1 350 149.222)" fill="#3F3D56"/>
<circle r="2" transform="matrix(1 0 0 -1 358 149.222)" fill="#3F3D56"/>
<circle r="2" transform="matrix(1 0 0 -1 366 149.222)" fill="#3F3D56"/>
<circle r="2" transform="matrix(1 0 0 -1 334 142.778)" fill="#3F3D56"/>
<circle r="2" transform="matrix(1 0 0 -1 342 142.778)" fill="#3F3D56"/>
<circle r="2" transform="matrix(1 0 0 -1 350 142.778)" fill="#3F3D56"/>
<circle r="2" transform="matrix(1 0 0 -1 358 142.778)" fill="#3F3D56"/>
<circle r="2" transform="matrix(1 0 0 -1 366 142.778)" fill="#3F3D56"/>
<circle r="2" transform="matrix(1 0 0 -1 334 136.333)" fill="#3F3D56"/>
<circle r="2" transform="matrix(1 0 0 -1 342 136.333)" fill="#3F3D56"/>
<circle r="2" transform="matrix(1 0 0 -1 350 136.333)" fill="#3F3D56"/>
<circle r="2" transform="matrix(1 0 0 -1 358 136.333)" fill="#3F3D56"/>
<circle r="2" transform="matrix(1 0 0 -1 366 136.333)" fill="#3F3D56"/>
<circle r="2" transform="matrix(1 0 0 -1 334 129.889)" fill="#3F3D56"/>
<circle r="2" transform="matrix(1 0 0 -1 342 129.889)" fill="#3F3D56"/>
<circle r="2" transform="matrix(1 0 0 -1 350 129.889)" fill="#3F3D56"/>
<circle r="2" transform="matrix(1 0 0 -1 358 129.889)" fill="#3F3D56"/>
<circle r="2" transform="matrix(1 0 0 -1 366 129.889)" fill="#3F3D56"/>
<circle r="2" transform="matrix(1 0 0 -1 334 123.444)" fill="#3F3D56"/>
<circle r="2" transform="matrix(1 0 0 -1 342 123.444)" fill="#3F3D56"/>
<circle r="2" transform="matrix(1 0 0 -1 350 123.444)" fill="#3F3D56"/>
<circle r="2" transform="matrix(1 0 0 -1 358 123.444)" fill="#3F3D56"/>
<circle r="2" transform="matrix(1 0 0 -1 366 123.444)" fill="#3F3D56"/>
<circle r="2" transform="matrix(1 0 0 -1 334 117)" fill="#3F3D56"/>
<circle r="2" transform="matrix(1 0 0 -1 342 117)" fill="#3F3D56"/>
<circle r="2" transform="matrix(1 0 0 -1 350 117)" fill="#3F3D56"/>
<circle r="2" transform="matrix(1 0 0 -1 358 117)" fill="#3F3D56"/>
<circle r="2" transform="matrix(1 0 0 -1 366 117)" fill="#3F3D56"/>
<circle r="2" transform="matrix(1 0 0 -1 377 132.222)" fill="#3F3D56"/>
<circle r="2" transform="matrix(1 0 0 -1 385 132.222)" fill="#3F3D56"/>
<circle r="2" transform="matrix(1 0 0 -1 393 132.222)" fill="#3F3D56"/>
<circle r="2" transform="matrix(1 0 0 -1 401 132.222)" fill="#3F3D56"/>
<circle r="2" transform="matrix(1 0 0 -1 409 132.222)" fill="#3F3D56"/>
<circle r="2" transform="matrix(1 0 0 -1 377 125.778)" fill="#3F3D56"/>
<circle r="2" transform="matrix(1 0 0 -1 385 125.778)" fill="#3F3D56"/>
<circle r="2" transform="matrix(1 0 0 -1 393 125.778)" fill="#3F3D56"/>
<circle r="2" transform="matrix(1 0 0 -1 401 125.778)" fill="#3F3D56"/>
<circle r="2" transform="matrix(1 0 0 -1 409 125.778)" fill="#3F3D56"/>
<circle r="2" transform="matrix(1 0 0 -1 377 119.333)" fill="#3F3D56"/>
<circle r="2" transform="matrix(1 0 0 -1 385 119.333)" fill="#3F3D56"/>
<circle r="2" transform="matrix(1 0 0 -1 393 119.333)" fill="#3F3D56"/>
<circle r="2" transform="matrix(1 0 0 -1 401 119.333)" fill="#3F3D56"/>
<circle r="2" transform="matrix(1 0 0 -1 409 119.333)" fill="#3F3D56"/>
<circle r="2" transform="matrix(1 0 0 -1 377 112.889)" fill="#3F3D56"/>
<circle r="2" transform="matrix(1 0 0 -1 385 112.889)" fill="#3F3D56"/>
<circle r="2" transform="matrix(1 0 0 -1 393 112.889)" fill="#3F3D56"/>
<circle r="2" transform="matrix(1 0 0 -1 401 112.889)" fill="#3F3D56"/>
<circle r="2" transform="matrix(1 0 0 -1 409 112.889)" fill="#3F3D56"/>
<circle r="2" transform="matrix(1 0 0 -1 377 106.444)" fill="#3F3D56"/>
<circle r="2" transform="matrix(1 0 0 -1 385 106.444)" fill="#3F3D56"/>
<circle r="2" transform="matrix(1 0 0 -1 393 106.444)" fill="#3F3D56"/>
<circle r="2" transform="matrix(1 0 0 -1 401 106.444)" fill="#3F3D56"/>
<circle r="2" transform="matrix(1 0 0 -1 409 106.444)" fill="#3F3D56"/>
<circle r="2" transform="matrix(1 0 0 -1 377 100)" fill="#3F3D56"/>
<circle r="2" transform="matrix(1 0 0 -1 385 100)" fill="#3F3D56"/>
<circle r="2" transform="matrix(1 0 0 -1 393 100)" fill="#3F3D56"/>
<circle r="2" transform="matrix(1 0 0 -1 401 100)" fill="#3F3D56"/>
<circle r="2" transform="matrix(1 0 0 -1 409 100)" fill="#3F3D56"/>
<circle r="2" transform="matrix(1 0 0 -1 377 172.222)" fill="#3F3D56"/>
<circle r="2" transform="matrix(1 0 0 -1 385 172.222)" fill="#3F3D56"/>
<circle r="2" transform="matrix(1 0 0 -1 393 172.222)" fill="#3F3D56"/>
<circle r="2" transform="matrix(1 0 0 -1 401 172.222)" fill="#3F3D56"/>
<circle r="2" transform="matrix(1 0 0 -1 409 172.222)" fill="#3F3D56"/>
<circle r="2" transform="matrix(1 0 0 -1 377 165.778)" fill="#3F3D56"/>
<circle r="2" transform="matrix(1 0 0 -1 385 165.778)" fill="#3F3D56"/>
<circle r="2" transform="matrix(1 0 0 -1 393 165.778)" fill="#3F3D56"/>
<circle r="2" transform="matrix(1 0 0 -1 401 165.778)" fill="#3F3D56"/>
<circle r="2" transform="matrix(1 0 0 -1 409 165.778)" fill="#3F3D56"/>
<circle r="2" transform="matrix(1 0 0 -1 377 159.333)" fill="#3F3D56"/>
<circle r="2" transform="matrix(1 0 0 -1 385 159.333)" fill="#3F3D56"/>
<circle r="2" transform="matrix(1 0 0 -1 393 159.333)" fill="#3F3D56"/>
<circle r="2" transform="matrix(1 0 0 -1 401 159.333)" fill="#3F3D56"/>
<circle r="2" transform="matrix(1 0 0 -1 409 159.333)" fill="#3F3D56"/>
<circle r="2" transform="matrix(1 0 0 -1 377 152.889)" fill="#3F3D56"/>
<circle r="2" transform="matrix(1 0 0 -1 385 152.889)" fill="#3F3D56"/>
<circle r="2" transform="matrix(1 0 0 -1 393 152.889)" fill="#3F3D56"/>
<circle r="2" transform="matrix(1 0 0 -1 401 152.889)" fill="#3F3D56"/>
<circle r="2" transform="matrix(1 0 0 -1 409 152.889)" fill="#3F3D56"/>
<circle r="2" transform="matrix(1 0 0 -1 377 146.444)" fill="#3F3D56"/>
<circle r="2" transform="matrix(1 0 0 -1 385 146.444)" fill="#3F3D56"/>
<circle r="2" transform="matrix(1 0 0 -1 393 146.444)" fill="#3F3D56"/>
<circle r="2" transform="matrix(1 0 0 -1 401 146.444)" fill="#3F3D56"/>
<circle r="2" transform="matrix(1 0 0 -1 409 146.444)" fill="#3F3D56"/>
<circle r="2" transform="matrix(1 0 0 -1 377 140)" fill="#3F3D56"/>
<circle r="2" transform="matrix(1 0 0 -1 385 140)" fill="#3F3D56"/>
<circle r="2" transform="matrix(1 0 0 -1 393 140)" fill="#3F3D56"/>
<circle r="2" transform="matrix(1 0 0 -1 401 140)" fill="#3F3D56"/>
<circle r="2" transform="matrix(1 0 0 -1 409 140)" fill="#3F3D56"/>
<circle r="2" transform="matrix(1 0 0 -1 418 132.222)" fill="#3F3D56"/>
<circle r="2" transform="matrix(1 0 0 -1 426 132.222)" fill="#3F3D56"/>
<circle r="2" transform="matrix(1 0 0 -1 434 132.222)" fill="#3F3D56"/>
<circle r="2" transform="matrix(1 0 0 -1 442 132.222)" fill="#3F3D56"/>
<circle r="2" transform="matrix(1 0 0 -1 450 132.222)" fill="#3F3D56"/>
<circle r="2" transform="matrix(1 0 0 -1 418 125.778)" fill="#3F3D56"/>
<circle r="2" transform="matrix(1 0 0 -1 426 125.778)" fill="#3F3D56"/>
<circle r="2" transform="matrix(1 0 0 -1 434 125.778)" fill="#3F3D56"/>
<circle r="2" transform="matrix(1 0 0 -1 442 125.778)" fill="#3F3D56"/>
<circle r="2" transform="matrix(1 0 0 -1 450 125.778)" fill="#3F3D56"/>
<circle r="2" transform="matrix(1 0 0 -1 418 119.333)" fill="#3F3D56"/>
<circle r="2" transform="matrix(1 0 0 -1 426 119.333)" fill="#3F3D56"/>
<circle r="2" transform="matrix(1 0 0 -1 434 119.333)" fill="#3F3D56"/>
<circle r="2" transform="matrix(1 0 0 -1 442 119.333)" fill="#3F3D56"/>
<circle r="2" transform="matrix(1 0 0 -1 450 119.333)" fill="#3F3D56"/>
<circle r="2" transform="matrix(1 0 0 -1 418 112.889)" fill="#3F3D56"/>
<circle r="2" transform="matrix(1 0 0 -1 426 112.889)" fill="#3F3D56"/>
<circle r="2" transform="matrix(1 0 0 -1 434 112.889)" fill="#3F3D56"/>
<circle r="2" transform="matrix(1 0 0 -1 442 112.889)" fill="#3F3D56"/>
<circle r="2" transform="matrix(1 0 0 -1 450 112.889)" fill="#3F3D56"/>
<circle r="2" transform="matrix(1 0 0 -1 418 106.444)" fill="#3F3D56"/>
<circle r="2" transform="matrix(1 0 0 -1 426 106.444)" fill="#3F3D56"/>
<circle r="2" transform="matrix(1 0 0 -1 434 106.444)" fill="#3F3D56"/>
<circle r="2" transform="matrix(1 0 0 -1 442 106.444)" fill="#3F3D56"/>
<circle r="2" transform="matrix(1 0 0 -1 450 106.444)" fill="#3F3D56"/>
<circle r="2" transform="matrix(1 0 0 -1 418 100)" fill="#3F3D56"/>
<circle r="2" transform="matrix(1 0 0 -1 426 100)" fill="#3F3D56"/>
<circle r="2" transform="matrix(1 0 0 -1 434 100)" fill="#3F3D56"/>
<circle r="2" transform="matrix(1 0 0 -1 442 100)" fill="#3F3D56"/>
<circle r="2" transform="matrix(1 0 0 -1 450 100)" fill="#3F3D56"/>
<circle r="2" transform="matrix(1 0 0 -1 418 172.222)" fill="#3F3D56"/>
<circle r="2" transform="matrix(1 0 0 -1 426 172.222)" fill="#3F3D56"/>
<circle r="2" transform="matrix(1 0 0 -1 434 172.222)" fill="#3F3D56"/>
<circle r="2" transform="matrix(1 0 0 -1 442 172.222)" fill="#3F3D56"/>
<circle r="2" transform="matrix(1 0 0 -1 450 172.222)" fill="#3F3D56"/>
<circle r="2" transform="matrix(1 0 0 -1 418 165.778)" fill="#3F3D56"/>
<circle r="2" transform="matrix(1 0 0 -1 426 165.778)" fill="#3F3D56"/>
<circle r="2" transform="matrix(1 0 0 -1 434 165.778)" fill="#3F3D56"/>
<circle r="2" transform="matrix(1 0 0 -1 442 165.778)" fill="#3F3D56"/>
<circle r="2" transform="matrix(1 0 0 -1 450 165.778)" fill="#3F3D56"/>
<circle r="2" transform="matrix(1 0 0 -1 418 159.333)" fill="#3F3D56"/>
<circle r="2" transform="matrix(1 0 0 -1 426 159.333)" fill="#3F3D56"/>
<circle r="2" transform="matrix(1 0 0 -1 434 159.333)" fill="#3F3D56"/>
<circle r="2" transform="matrix(1 0 0 -1 442 159.333)" fill="#3F3D56"/>
<circle r="2" transform="matrix(1 0 0 -1 450 159.333)" fill="#3F3D56"/>
<circle r="2" transform="matrix(1 0 0 -1 418 152.889)" fill="#3F3D56"/>
<circle r="2" transform="matrix(1 0 0 -1 426 152.889)" fill="#3F3D56"/>
<circle r="2" transform="matrix(1 0 0 -1 434 152.889)" fill="#3F3D56"/>
<circle r="2" transform="matrix(1 0 0 -1 442 152.889)" fill="#3F3D56"/>
<circle r="2" transform="matrix(1 0 0 -1 450 152.889)" fill="#3F3D56"/>
<circle r="2" transform="matrix(1 0 0 -1 418 146.444)" fill="#3F3D56"/>
<circle r="2" transform="matrix(1 0 0 -1 426 146.444)" fill="#3F3D56"/>
<circle r="2" transform="matrix(1 0 0 -1 434 146.444)" fill="#3F3D56"/>
<circle r="2" transform="matrix(1 0 0 -1 442 146.444)" fill="#3F3D56"/>
<circle r="2" transform="matrix(1 0 0 -1 450 146.444)" fill="#3F3D56"/>
<circle r="2" transform="matrix(1 0 0 -1 418 140)" fill="#3F3D56"/>
<circle r="2" transform="matrix(1 0 0 -1 426 140)" fill="#3F3D56"/>
<circle r="2" transform="matrix(1 0 0 -1 434 140)" fill="#3F3D56"/>
<circle r="2" transform="matrix(1 0 0 -1 442 140)" fill="#3F3D56"/>
<circle r="2" transform="matrix(1 0 0 -1 450 140)" fill="#3F3D56"/>
<circle r="2" transform="matrix(1 0 0 -1 461 109.222)" fill="#3F3D56"/>
<circle r="2" transform="matrix(1 0 0 -1 469 109.222)" fill="#3F3D56"/>
<circle r="2" transform="matrix(1 0 0 -1 477 109.222)" fill="#3F3D56"/>
<circle r="2" transform="matrix(1 0 0 -1 485 109.222)" fill="#3F3D56"/>
<circle r="2" transform="matrix(1 0 0 -1 493 109.222)" fill="#3F3D56"/>
<circle r="2" transform="matrix(1 0 0 -1 461 102.778)" fill="#3F3D56"/>
<circle r="2" transform="matrix(1 0 0 -1 469 102.778)" fill="#3F3D56"/>
<circle r="2" transform="matrix(1 0 0 -1 477 102.778)" fill="#3F3D56"/>
<circle r="2" transform="matrix(1 0 0 -1 485 102.778)" fill="#3F3D56"/>
<circle r="2" transform="matrix(1 0 0 -1 493 102.778)" fill="#3F3D56"/>
<circle r="2" transform="matrix(1 0 0 -1 461 96.3333)" fill="#3F3D56"/>
<circle r="2" transform="matrix(1 0 0 -1 469 96.3333)" fill="#3F3D56"/>
<circle r="2" transform="matrix(1 0 0 -1 477 96.3333)" fill="#3F3D56"/>
<circle r="2" transform="matrix(1 0 0 -1 485 96.3333)" fill="#3F3D56"/>
<circle r="2" transform="matrix(1 0 0 -1 493 96.3333)" fill="#3F3D56"/>
<circle r="2" transform="matrix(1 0 0 -1 461 89.8889)" fill="#3F3D56"/>
<circle r="2" transform="matrix(1 0 0 -1 469 89.8889)" fill="#3F3D56"/>
<circle r="2" transform="matrix(1 0 0 -1 477 89.8889)" fill="#3F3D56"/>
<circle r="2" transform="matrix(1 0 0 -1 485 89.8889)" fill="#3F3D56"/>
<circle r="2" transform="matrix(1 0 0 -1 493 89.8889)" fill="#3F3D56"/>
<circle r="2" transform="matrix(1 0 0 -1 461 83.4443)" fill="#3F3D56"/>
<circle r="2" transform="matrix(1 0 0 -1 469 83.4443)" fill="#3F3D56"/>
<circle r="2" transform="matrix(1 0 0 -1 477 83.4443)" fill="#3F3D56"/>
<circle r="2" transform="matrix(1 0 0 -1 485 83.4443)" fill="#3F3D56"/>
<circle r="2" transform="matrix(1 0 0 -1 493 83.4443)" fill="#3F3D56"/>
<circle r="2" transform="matrix(1 0 0 -1 461 77)" fill="#3F3D56"/>
<circle r="2" transform="matrix(1 0 0 -1 469 77)" fill="#3F3D56"/>
<circle r="2" transform="matrix(1 0 0 -1 477 77)" fill="#3F3D56"/>
<circle r="2" transform="matrix(1 0 0 -1 485 77)" fill="#3F3D56"/>
<circle r="2" transform="matrix(1 0 0 -1 493 77)" fill="#3F3D56"/>
<circle r="2" transform="matrix(1 0 0 -1 461 149.222)" fill="#3F3D56"/>
<circle r="2" transform="matrix(1 0 0 -1 469 149.222)" fill="#3F3D56"/>
<circle r="2" transform="matrix(1 0 0 -1 477 149.222)" fill="#3F3D56"/>
<circle r="2" transform="matrix(1 0 0 -1 485 149.222)" fill="#3F3D56"/>
<circle r="2" transform="matrix(1 0 0 -1 493 149.222)" fill="#3F3D56"/>
<circle r="2" transform="matrix(1 0 0 -1 461 142.778)" fill="#3F3D56"/>
<circle r="2" transform="matrix(1 0 0 -1 469 142.778)" fill="#3F3D56"/>
<circle r="2" transform="matrix(1 0 0 -1 477 142.778)" fill="#3F3D56"/>
<circle r="2" transform="matrix(1 0 0 -1 485 142.778)" fill="#3F3D56"/>
<circle r="2" transform="matrix(1 0 0 -1 493 142.778)" fill="#3F3D56"/>
<circle r="2" transform="matrix(1 0 0 -1 461 136.333)" fill="#3F3D56"/>
<circle r="2" transform="matrix(1 0 0 -1 469 136.333)" fill="#3F3D56"/>
<circle r="2" transform="matrix(1 0 0 -1 477 136.333)" fill="#3F3D56"/>
<circle r="2" transform="matrix(1 0 0 -1 485 136.333)" fill="#3F3D56"/>
<circle r="2" transform="matrix(1 0 0 -1 493 136.333)" fill="#3F3D56"/>
<circle r="2" transform="matrix(1 0 0 -1 461 129.889)" fill="#3F3D56"/>
<circle r="2" transform="matrix(1 0 0 -1 469 129.889)" fill="#3F3D56"/>
<circle r="2" transform="matrix(1 0 0 -1 477 129.889)" fill="#3F3D56"/>
<circle r="2" transform="matrix(1 0 0 -1 485 129.889)" fill="#3F3D56"/>
<circle r="2" transform="matrix(1 0 0 -1 493 129.889)" fill="#3F3D56"/>
<circle r="2" transform="matrix(1 0 0 -1 461 123.444)" fill="#3F3D56"/>
<circle r="2" transform="matrix(1 0 0 -1 469 123.444)" fill="#3F3D56"/>
<circle r="2" transform="matrix(1 0 0 -1 477 123.444)" fill="#3F3D56"/>
<circle r="2" transform="matrix(1 0 0 -1 485 123.444)" fill="#3F3D56"/>
<circle r="2" transform="matrix(1 0 0 -1 493 123.444)" fill="#3F3D56"/>
<circle r="2" transform="matrix(1 0 0 -1 461 117)" fill="#3F3D56"/>
<circle r="2" transform="matrix(1 0 0 -1 469 117)" fill="#3F3D56"/>
<circle r="2" transform="matrix(1 0 0 -1 477 117)" fill="#3F3D56"/>
<circle r="2" transform="matrix(1 0 0 -1 485 117)" fill="#3F3D56"/>
<circle r="2" transform="matrix(1 0 0 -1 493 117)" fill="#3F3D56"/>
<circle r="2" transform="matrix(1 0 0 -1 502 109.222)" fill="#3F3D56"/>
<circle r="2" transform="matrix(1 0 0 -1 510 109.222)" fill="#3F3D56"/>
<circle r="2" transform="matrix(1 0 0 -1 518 109.222)" fill="#3F3D56"/>
<circle r="2" transform="matrix(1 0 0 -1 526 109.222)" fill="#3F3D56"/>
<circle r="2" transform="matrix(1 0 0 -1 534 109.222)" fill="#3F3D56"/>
<circle r="2" transform="matrix(1 0 0 -1 502 102.778)" fill="#3F3D56"/>
<circle r="2" transform="matrix(1 0 0 -1 510 102.778)" fill="#3F3D56"/>
<circle r="2" transform="matrix(1 0 0 -1 518 102.778)" fill="#3F3D56"/>
<circle r="2" transform="matrix(1 0 0 -1 526 102.778)" fill="#3F3D56"/>
<circle r="2" transform="matrix(1 0 0 -1 534 102.778)" fill="#3F3D56"/>
<circle r="2" transform="matrix(1 0 0 -1 502 96.3333)" fill="#3F3D56"/>
<circle r="2" transform="matrix(1 0 0 -1 510 96.3333)" fill="#3F3D56"/>
<circle r="2" transform="matrix(1 0 0 -1 518 96.3333)" fill="#3F3D56"/>
<circle r="2" transform="matrix(1 0 0 -1 526 96.3333)" fill="#3F3D56"/>
<circle r="2" transform="matrix(1 0 0 -1 534 96.3333)" fill="#3F3D56"/>
<circle r="2" transform="matrix(1 0 0 -1 502 89.8889)" fill="#3F3D56"/>
<circle r="2" transform="matrix(1 0 0 -1 510 89.8889)" fill="#3F3D56"/>
<circle r="2" transform="matrix(1 0 0 -1 518 89.8889)" fill="#3F3D56"/>
<circle r="2" transform="matrix(1 0 0 -1 526 89.8889)" fill="#3F3D56"/>
<circle r="2" transform="matrix(1 0 0 -1 534 89.8889)" fill="#3F3D56"/>
<circle r="2" transform="matrix(1 0 0 -1 502 83.4443)" fill="#3F3D56"/>
<circle r="2" transform="matrix(1 0 0 -1 510 83.4443)" fill="#3F3D56"/>
<circle r="2" transform="matrix(1 0 0 -1 518 83.4443)" fill="#3F3D56"/>
<circle r="2" transform="matrix(1 0 0 -1 526 83.4443)" fill="#3F3D56"/>
<circle r="2" transform="matrix(1 0 0 -1 534 83.4443)" fill="#3F3D56"/>
<circle r="2" transform="matrix(1 0 0 -1 502 77)" fill="#3F3D56"/>
<circle r="2" transform="matrix(1 0 0 -1 510 77)" fill="#3F3D56"/>
<circle r="2" transform="matrix(1 0 0 -1 518 77)" fill="#3F3D56"/>
<circle r="2" transform="matrix(1 0 0 -1 526 77)" fill="#3F3D56"/>
<circle r="2" transform="matrix(1 0 0 -1 534 77)" fill="#3F3D56"/>
<circle r="2" transform="matrix(1 0 0 -1 502 149.222)" fill="#3F3D56"/>
<circle r="2" transform="matrix(1 0 0 -1 510 149.222)" fill="#3F3D56"/>
<circle r="2" transform="matrix(1 0 0 -1 518 149.222)" fill="#3F3D56"/>
<circle r="2" transform="matrix(1 0 0 -1 526 149.222)" fill="#3F3D56"/>
<circle r="2" transform="matrix(1 0 0 -1 534 149.222)" fill="#3F3D56"/>
<circle r="2" transform="matrix(1 0 0 -1 502 142.778)" fill="#3F3D56"/>
<circle r="2" transform="matrix(1 0 0 -1 510 142.778)" fill="#3F3D56"/>
<circle r="2" transform="matrix(1 0 0 -1 518 142.778)" fill="#3F3D56"/>
<circle r="2" transform="matrix(1 0 0 -1 526 142.778)" fill="#3F3D56"/>
<circle r="2" transform="matrix(1 0 0 -1 534 142.778)" fill="#3F3D56"/>
<circle r="2" transform="matrix(1 0 0 -1 502 136.333)" fill="#3F3D56"/>
<circle r="2" transform="matrix(1 0 0 -1 510 136.333)" fill="#3F3D56"/>
<circle r="2" transform="matrix(1 0 0 -1 518 136.333)" fill="#3F3D56"/>
<circle r="2" transform="matrix(1 0 0 -1 526 136.333)" fill="#3F3D56"/>
<circle r="2" transform="matrix(1 0 0 -1 534 136.333)" fill="#3F3D56"/>
<circle r="2" transform="matrix(1 0 0 -1 502 129.889)" fill="#3F3D56"/>
<circle r="2" transform="matrix(1 0 0 -1 510 129.889)" fill="#3F3D56"/>
<circle r="2" transform="matrix(1 0 0 -1 518 129.889)" fill="#3F3D56"/>
<circle r="2" transform="matrix(1 0 0 -1 526 129.889)" fill="#3F3D56"/>
<circle r="2" transform="matrix(1 0 0 -1 534 129.889)" fill="#3F3D56"/>
<circle r="2" transform="matrix(1 0 0 -1 502 123.444)" fill="#3F3D56"/>
<circle r="2" transform="matrix(1 0 0 -1 510 123.444)" fill="#3F3D56"/>
<circle r="2" transform="matrix(1 0 0 -1 518 123.444)" fill="#3F3D56"/>
<circle r="2" transform="matrix(1 0 0 -1 526 123.444)" fill="#3F3D56"/>
<circle r="2" transform="matrix(1 0 0 -1 534 123.444)" fill="#3F3D56"/>
<circle r="2" transform="matrix(1 0 0 -1 502 117)" fill="#3F3D56"/>
<circle r="2" transform="matrix(1 0 0 -1 510 117)" fill="#3F3D56"/>
<circle r="2" transform="matrix(1 0 0 -1 518 117)" fill="#3F3D56"/>
<circle r="2" transform="matrix(1 0 0 -1 526 117)" fill="#3F3D56"/>
<circle r="2" transform="matrix(1 0 0 -1 534 117)" fill="#3F3D56"/>
</g>
<defs>
<filter id="filter0_d" x="1004.35" y="751.5" width="51.3013" height="45.5" filterUnits="userSpaceOnUse" color-interpolation-filters="sRGB">
<feFlood flood-opacity="0" result="BackgroundImageFix"/>
<feColorMatrix in="SourceAlpha" type="matrix" values="0 0 0 0 0 0 0 0 0 0 0 0 0 0 0 0 0 0 127 0"/>
<feOffset dy="4"/>
<feGaussianBlur stdDeviation="2"/>
<feColorMatrix type="matrix" values="0 0 0 0 0 0 0 0 0 0 0 0 0 0 0 0 0 0 0.25 0"/>
<feBlend mode="normal" in2="BackgroundImageFix" result="effect1_dropShadow"/>
<feBlend mode="normal" in="SourceGraphic" in2="effect1_dropShadow" result="shape"/>
</filter>
<filter id="filter1_d" x="1102.35" y="738" width="51.3013" height="45.5" filterUnits="userSpaceOnUse" color-interpolation-filters="sRGB">
<feFlood flood-opacity="0" result="BackgroundImageFix"/>
<feColorMatrix in="SourceAlpha" type="matrix" values="0 0 0 0 0 0 0 0 0 0 0 0 0 0 0 0 0 0 127 0"/>
<feOffset dy="4"/>
<feGaussianBlur stdDeviation="2"/>
<feColorMatrix type="matrix" values="0 0 0 0 0 0 0 0 0 0 0 0 0 0 0 0 0 0 0.25 0"/>
<feBlend mode="normal" in2="BackgroundImageFix" result="effect1_dropShadow"/>
<feBlend mode="normal" in="SourceGraphic" in2="effect1_dropShadow" result="shape"/>
</filter>
<clipPath id="clip0">
<rect width="1440" height="1024" fill="white"/>
</clipPath>
</defs>
</svg>
