<svg width="1440" height="1024" viewBox="0 0 1440 1024" fill="none" xmlns="http://www.w3.org/2000/svg">
<g clip-path="url(#clip0)">
<rect width="1440" height="1024" fill="white"/>
<rect width="1440" height="1024" fill="#DFDFDF"/>
<rect x="1" y="406" width="1440" height="26" fill="#C2C2C2"/>
<rect x="-2" y="462" width="1440" height="26" fill="#C2C2C2"/>
<rect x="-2" y="530" width="1440" height="26" fill="#C2C2C2"/>
<g clip-path="url(#clip1)">
<path d="M481.367 550.522V550.525V639.678H242.747V550.525C242.747 520.013 254.394 490.66 275.297 468.476C296.2 446.292 324.776 432.958 355.17 431.197L355.176 431.197C357.444 431.064 359.735 430.998 362.048 431H362.057C363.391 431 364.682 431.02 365.936 431.067L365.972 431.069L366.009 431.07C396.265 432.029 425.019 444.517 446.402 465.992L446.407 465.998L446.413 466.003C447.053 466.644 447.692 467.299 448.345 467.978C469.545 490.207 481.375 519.772 481.367 550.522Z" fill="#DAF2F8" stroke="white" stroke-width="24"/>
<path d="M366.389 419.076V651.678H354.477V419.217C356.984 419.071 359.511 418.998 362.057 419C363.509 419 364.954 419.022 366.389 419.076Z" fill="white"/>
<path d="M467.111 471.61H257.004C260.132 467.436 263.504 463.452 267.103 459.678H457.012C460.611 463.452 463.983 467.436 467.111 471.61Z" fill="white"/>
<path d="M473.38 505.78H380.305V663.61H473.38V505.78Z" fill="#FF5252"/>
<path d="M412.763 532.444H398.685V546.546H412.763V532.444Z" fill="#E6E6E6"/>
<path d="M435.446 532.444H421.367V546.546H435.446V532.444Z" fill="#E6E6E6"/>
<path d="M458.129 532.444H444.05V546.546H458.129V532.444Z" fill="#E6E6E6"/>
<path d="M413.154 564.565H399.075V578.667H413.154V564.565Z" fill="#E6E6E6"/>
<path d="M435.837 564.565H421.758V578.667H435.837V564.565Z" fill="#E6E6E6"/>
<path d="M458.519 564.565H444.44V578.667H458.519V564.565Z" fill="#E6E6E6"/>
<path d="M413.546 596.686H399.467V610.788H413.546V596.686Z" fill="#E6E6E6"/>
<path d="M436.228 596.686H422.149V610.788H436.228V596.686Z" fill="#E6E6E6"/>
<path d="M458.911 596.686H444.832V610.788H458.911V596.686Z" fill="#E6E6E6"/>
<path d="M413.936 628.807H399.857V642.909H413.936V628.807Z" fill="#E6E6E6"/>
<path d="M436.619 628.807H422.54V642.909H436.619V628.807Z" fill="#E6E6E6"/>
<path d="M459.302 628.807H445.223V642.909H459.302V628.807Z" fill="#E6E6E6"/>
<path d="M413.936 628.807H399.857V642.909H413.936V628.807Z" fill="#E6E6E6"/>
<path d="M436.619 628.807H422.54V642.909H436.619V628.807Z" fill="#E6E6E6"/>
<path d="M459.302 628.807H445.223V642.909H459.302V628.807Z" fill="#E6E6E6"/>
<path d="M261.965 619.586C272.681 619.586 281.369 610.884 281.369 600.15C281.369 589.415 272.681 580.714 261.965 580.714C251.248 580.714 242.561 589.415 242.561 600.15C242.561 610.884 251.248 619.586 261.965 619.586Z" fill="#0C6F16"/>
<path d="M262.017 600.15H262.071L263.031 655.254H261.005L262.017 600.15Z" fill="#A4560E"/>
<path d="M265.551 630.165L265.104 629.314L261.896 631.006L262.343 631.856L265.551 630.165Z" fill="#A4560E"/>
<path d="M319.012 601.014C335.309 601.014 348.52 587.781 348.52 571.458C348.52 555.135 335.309 541.902 319.012 541.902C302.716 541.902 289.505 555.135 289.505 571.458C289.505 587.781 302.716 601.014 319.012 601.014Z" fill="#0C6F16"/>
<path d="M319.094 571.458H319.175L320.634 655.254H317.554L319.094 571.458Z" fill="#A4560E"/>
<path d="M324.466 617.101L323.786 615.808L318.908 618.38L319.588 619.674L324.466 617.101Z" fill="#A4560E"/>
<path d="M258.152 543.236L263.136 539.242C259.264 538.814 257.673 540.93 257.022 542.604C253.997 541.346 250.703 542.995 250.703 542.995L260.677 546.621C260.174 545.275 259.298 544.101 258.152 543.236Z" fill="black"/>
<path d="M310.676 510.693L315.661 506.7C311.789 506.272 310.197 508.387 309.546 510.062C306.521 508.804 303.228 510.453 303.228 510.453L313.201 514.079C312.698 512.733 311.822 511.559 310.676 510.693Z" fill="black"/>
<path d="M290.641 541.609L295.626 537.615C291.753 537.187 290.162 539.303 289.511 540.977C286.486 539.719 283.192 541.368 283.192 541.368L293.166 544.995C292.663 543.648 291.787 542.474 290.641 541.609Z" fill="black"/>
<path d="M507.175 639.746H216.939V663.61H507.175V639.746Z" fill="white"/>
</g>
<path d="M115.254 802.713C115.254 802.713 2.94846 751.013 42.4015 715.161C81.8545 679.309 115.254 802.713 115.254 802.713Z" fill="#0C6F16"/>
<path d="M113.3 814.777C113.3 814.777 61.6799 645.171 137.692 653.282C213.705 661.393 113.3 814.777 113.3 814.777Z" fill="#0C6F16"/>
<path d="M75.6631 799.735L77.8297 828.106L77.864 828.596C77.862 833.027 78.0858 837.455 78.5347 841.862C81.475 870.801 94.1132 883.99 108.884 883.99C123.654 883.99 135.742 870.801 138.682 841.862C139.131 837.455 139.355 833.027 139.353 828.596L139.37 828.201L139.379 828.106L141.554 799.735H75.6631Z" fill="#9E616A"/>
<path d="M139.379 828.106L139.371 828.201L139.353 828.596C139.355 833.027 139.132 837.455 138.683 841.862H78.5351C78.0862 837.455 77.8624 833.027 77.8645 828.596L77.8301 828.106H139.379Z" fill="white"/>
<path d="M770.414 514.091H607.516C603.667 514.086 599.978 512.558 597.256 509.841C594.535 507.125 593.004 503.442 593 499.6V359.522C593.004 355.68 594.535 351.997 597.256 349.281C599.978 346.564 603.667 345.036 607.516 345.031H770.414C774.262 345.036 777.952 346.564 780.673 349.281C783.394 351.997 784.925 355.68 784.929 359.522V499.6C784.925 503.442 783.394 507.125 780.673 509.841C777.952 512.558 774.262 514.086 770.414 514.091ZM607.516 348.252C604.522 348.255 601.653 349.444 599.536 351.556C597.42 353.669 596.229 356.534 596.226 359.522V499.6C596.229 502.588 597.42 505.453 599.536 507.566C601.653 509.678 604.522 510.867 607.516 510.87H770.414C773.407 510.867 776.277 509.678 778.393 507.566C780.51 505.453 781.7 502.588 781.704 499.6V359.522C781.7 356.534 780.51 353.669 778.393 351.556C776.277 349.444 773.407 348.255 770.414 348.252H607.516Z" fill="#F2F2F2"/>
<path d="M746.598 492.355H631.334C627.7 492.351 624.215 490.908 621.645 488.342C619.075 485.777 617.629 482.298 617.625 478.67V380.454C617.629 376.826 619.075 373.347 621.645 370.782C624.215 368.216 627.7 366.773 631.334 366.769H746.598C750.233 366.773 753.718 368.216 756.288 370.782C758.858 373.347 760.304 376.826 760.308 380.454V478.67C760.304 482.298 758.858 485.777 756.288 488.342C753.718 490.908 750.233 492.351 746.598 492.355Z" fill="#E6E6E6"/>
<path d="M689.772 324.101C694.226 324.101 697.837 320.497 697.837 316.05C697.837 311.604 694.226 308 689.772 308C685.318 308 681.708 311.604 681.708 316.05C681.708 320.497 685.318 324.101 689.772 324.101Z" fill="#F2F2F2"/>
<path d="M706.727 347.469L689.776 319.191L672.922 347.464L670.149 345.819L689.768 312.909L709.495 345.814L706.727 347.469Z" fill="#F2F2F2"/>
<path d="M725.933 396.541L725.799 398.337C725.779 398.581 725.313 404.39 721.874 411.178C718.922 417.001 713.178 424.584 702.335 428.846C701.488 429.181 700.61 429.493 699.7 429.783L698.685 426.595C701.234 425.793 703.689 424.719 706.008 423.392C711.535 420.2 715.833 415.645 718.83 409.783C720.42 406.663 721.553 403.329 722.194 399.886H709.857V396.541H725.933Z" fill="#EFEFF0"/>
<path opacity="0.1" d="M701.006 428.848C711.848 424.586 717.594 417.005 720.543 411.182C723.983 404.394 724.451 398.589 724.469 398.341L724.603 396.545H725.98L725.846 398.341C725.829 398.585 725.36 404.394 721.921 411.182C718.969 417.005 713.226 424.586 702.384 428.848C701.538 429.183 700.659 429.495 699.747 429.787L699.613 429.368C700.088 429.198 700.553 429.025 701.006 428.848Z" fill="white"/>
<path d="M679.299 426.595L678.284 429.783C677.372 429.492 676.493 429.179 675.647 428.844C664.805 424.582 659.06 417.001 656.11 411.178C652.671 404.39 652.202 398.585 652.185 398.337L652.051 396.541H668.119V399.886H655.78C656.425 403.33 657.561 406.663 659.154 409.783C662.151 415.645 666.446 420.2 671.973 423.39C674.293 424.718 676.749 425.793 679.299 426.595Z" fill="#EFEFF0"/>
<path opacity="0.1" d="M676.974 428.848C666.132 424.586 660.386 417.005 657.437 411.182C653.997 404.394 653.529 398.589 653.511 398.341L653.377 396.545H652L652.134 398.341C652.152 398.585 652.62 404.394 656.059 411.182C659.011 417.005 664.754 424.586 675.596 428.848C676.442 429.183 677.321 429.495 678.233 429.787L678.367 429.368C677.893 429.198 677.429 429.025 676.974 428.848Z" fill="white"/>
<path d="M707.553 457.409V475.446H670.429V457.409L671.609 455.835C683.64 451.565 686.078 440.43 686.564 436.024C686.636 435.415 686.677 434.803 686.688 434.19H691.278C691.288 434.803 691.33 435.415 691.402 436.024C691.896 440.43 694.334 451.569 706.356 455.835L707.553 457.409Z" fill="#EFEFF0"/>
<path opacity="0.1" d="M707.553 457.409H670.429V459.672H707.553V457.409Z" fill="black"/>
<path opacity="0.1" d="M673.577 455.835C685.607 451.565 688.045 440.43 688.531 436.024C688.604 435.415 688.645 434.803 688.655 434.19H686.688C686.677 434.803 686.636 435.415 686.564 436.024C686.07 440.43 683.632 451.569 671.609 455.835L670.429 457.409V475.446H672.396V457.409L673.577 455.835Z" fill="white"/>
<path d="M665.184 391C665.268 415.804 675.894 435.863 688.992 435.863C702.091 435.863 712.715 415.804 712.801 391H665.184Z" fill="#EFEFF0"/>
<path opacity="0.1" d="M669.414 391H665.184C665.268 415.804 675.894 435.863 688.992 435.863C689.701 435.862 690.409 435.802 691.108 435.684C678.999 433.661 669.495 414.455 669.414 391Z" fill="white"/>
<path d="M701.616 464.313H676.365V470.807H701.616V464.313Z" fill="#3F3D56"/>
<path opacity="0.1" d="M677.546 465.199H701.616V464.313H676.365V470.807H677.546V465.199Z" fill="white"/>
<rect x="974" y="295" width="398" height="585" fill="white"/>
<rect x="1008" y="324" width="330" height="556" fill="#C4C4C4"/>
<rect x="1020" y="338" width="142" height="542" fill="#E1E1E1"/>
<rect x="1182" y="338" width="142" height="542" fill="#E1E1E1"/>
<rect x="1077" y="218" width="192" height="64" fill="#472403" stroke="white" stroke-width="4"/>
<path d="M1219 269L1240.65 231.5H1197.35L1219 269Z" fill="#2BE899"/>
</g>
<defs>
<clipPath id="clip0">
<rect width="1440" height="1024" fill="white"/>
</clipPath>
<clipPath id="clip1">
<rect width="462" height="352" fill="white" transform="translate(131 419)"/>
</clipPath>
</defs>
</svg>
