<svg width="1440" height="1024" viewBox="0 0 1440 1024" fill="none" xmlns="http://www.w3.org/2000/svg">
<g clip-path="url(#clip0)">
<rect width="1440" height="1024" fill="white"/>
<rect x="1" width="1440" height="443" fill="#DAF2F8"/>
<path d="M745.5 465.5C745.5 465.5 903.354 421.15 988.149 424.27C1043.27 426.305 1066.8 418.879 1076.49 413.439C1088.55 406.686 1103.81 402.046 1120.5 400.518C1147.69 398.03 1186.49 400.405 1226.1 422.71C1299.04 463.79 1361.96 448.189 1364.69 448.189C1367.43 448.189 1382.02 455.729 1382.02 455.729L745.5 465.5Z" fill="url(#paint0_linear)"/>
<rect y="443" width="1440" height="579" fill="#229D2E"/>
<rect y="987" width="1440" height="35" fill="#094D10"/>
<path d="M799.865 849.132C792.763 849.131 785.787 851.108 779.639 854.864C773.396 848.899 765.647 844.978 757.335 843.575C749.023 842.172 740.504 843.349 732.812 846.962C725.121 850.576 718.587 856.47 714.005 863.931C709.423 871.391 706.99 880.096 707 888.989H840.347C839.62 878.169 835.04 868.042 827.528 860.646C820.017 853.251 810.132 849.136 799.865 849.132V849.132Z" fill="#0C6F16"/>
<path d="M1433.56 379.154V361.154H1423.6V349.462H1416.86V361.154H1406.89V379.154H1401.37V338.692H1390.18V334.846H1375.32V331H1360.6V334.846H1346.65V338.692H1334.55V379H1328.11V361H1318.14V349.308H1311.4V361H1301.44V379H1295V442.846H1309.71V420.231H1319.83V442.846H1359.38V416.538H1376.54V442.846H1400.45V443H1415.17V420.385H1425.29V443H1440V379.154H1433.56ZM1300.29 386.846H1306.11V391.462H1300.29V386.846ZM1300.36 399.769H1306.19V404.385H1300.36V399.769ZM1306.27 417.308H1300.44V412.692H1306.27V417.308ZM1321.52 375.615H1308.03V372.846H1321.52V375.615ZM1321.52 371.615H1308.03V368.846H1321.52V371.615ZM1321.52 367.615H1308.03V364.846H1321.52V367.615ZM1323.43 386.846H1329.26V391.462H1323.43V386.846ZM1323.51 399.769H1329.33V404.385H1323.51V399.769ZM1329.41 417.308H1323.59V412.692H1329.41V417.308ZM1353.25 409.615H1342.52V404.846H1353.25V409.615ZM1353.25 395.923H1342.52V391.154H1353.25V395.923ZM1353.25 382.231H1342.52V377.462H1353.25V382.231ZM1353.25 368.538H1342.52V363.769H1353.25V368.538ZM1353.25 354.846H1342.52V350.077H1353.25V354.846ZM1373.32 409.615H1362.6V404.846H1373.32V409.615ZM1373.32 395.923H1362.6V391.154H1373.32V395.923ZM1373.32 382.231H1362.6V377.462H1373.32V382.231ZM1373.32 368.538H1362.6V363.769H1373.32V368.538ZM1373.32 354.846H1362.6V350.077H1373.32V354.846ZM1393.4 409.615H1382.67V404.846H1393.4V409.615ZM1393.4 395.923H1382.67V391.154H1393.4V395.923ZM1393.4 382.231H1382.67V377.462H1393.4V382.231ZM1393.4 368.538H1382.67V363.769H1393.4V368.538ZM1393.4 354.846H1382.67V350.077H1393.4V354.846ZM1405.74 387H1411.57V391.615H1405.74V387ZM1405.82 399.923H1411.64V404.538H1405.82V399.923ZM1411.72 417.462H1405.9V412.846H1411.72V417.462ZM1426.97 375.769H1413.48V373H1426.97V375.769ZM1426.97 371.769H1413.48V369H1426.97V371.769ZM1426.97 367.769H1413.48V365H1426.97V367.769ZM1428.89 387H1434.71V391.615H1428.89V387ZM1428.96 399.923H1434.79V404.538H1428.96V399.923ZM1434.87 417.462H1429.04V412.846H1434.87V417.462Z" fill="#D3D3D3" fill-opacity="0.15"/>
<path d="M684.175 220.714L695 212.12C686.591 211.199 683.136 215.752 681.721 219.355C675.152 216.647 668 220.196 668 220.196L689.658 228C688.566 225.103 686.664 222.576 684.175 220.714Z" fill="black"/>
<path d="M733.175 261.714L744 253.12C735.591 252.199 732.136 256.752 730.721 260.355C724.152 257.647 717 261.196 717 261.196L738.658 269C737.566 266.103 735.664 263.576 733.175 261.714Z" fill="black"/>
<path d="M591.175 212.714L602 204.12C593.591 203.199 590.136 207.752 588.721 211.355C582.152 208.647 575 212.196 575 212.196L596.658 220C595.566 217.103 593.664 214.576 591.175 212.714Z" fill="black"/>
<path d="M455.175 129.714L466 121.12C457.591 120.199 454.136 124.752 452.721 128.355C446.152 125.647 439 129.196 439 129.196L460.658 137C459.566 134.103 457.664 131.576 455.175 129.714Z" fill="black"/>
<path d="M755.175 211.714L766 203.12C757.591 202.199 754.136 206.752 752.721 210.355C746.152 207.647 739 211.196 739 211.196L760.658 219C759.566 216.103 757.664 213.576 755.175 211.714Z" fill="black"/>
<path d="M511.366 347.231V320.231H496.456V302.692H486.363V320.231H471.452V347.231H463.195V286.538H446.449V280.769H424.199V275H402.178V280.769H381.303V286.538H363.182V347H353.548V320H338.637V302.462H328.544V320H313.634V347H304V442.769H326.021V408.846H341.161V442.769H400.342V403.308H426.034V442.769H461.818V443H483.839V409.077H498.979V443H521V347.231H511.366ZM311.914 358.769H320.631V365.692H311.914V358.769ZM312.029 378.154H320.745V385.077H312.029V378.154ZM320.86 404.462H312.143V397.538H320.86V404.462ZM343.684 341.923H323.498V337.769H343.684V341.923ZM343.684 335.923H323.498V331.769H343.684V335.923ZM343.684 329.923H323.498V325.769H343.684V329.923ZM346.551 358.769H355.268V365.692H346.551V358.769ZM346.666 378.154H355.383V385.077H346.666V378.154ZM355.497 404.462H346.781V397.538H355.497V404.462ZM391.167 392.923H375.11V385.769H391.167V392.923ZM391.167 372.385H375.11V365.231H391.167V372.385ZM391.167 351.846H375.11V344.692H391.167V351.846ZM391.167 331.308H375.11V324.154H391.167V331.308ZM391.167 310.769H375.11V303.615H391.167V310.769ZM421.217 392.923H405.16V385.769H421.217V392.923ZM421.217 372.385H405.16V365.231H421.217V372.385ZM421.217 351.846H405.16V344.692H421.217V351.846ZM421.217 331.308H405.16V324.154H421.217V331.308ZM421.217 310.769H405.16V303.615H421.217V310.769ZM451.266 392.923H435.209V385.769H451.266V392.923ZM451.266 372.385H435.209V365.231H451.266V372.385ZM451.266 351.846H435.209V344.692H451.266V351.846ZM451.266 331.308H435.209V324.154H451.266V331.308ZM451.266 310.769H435.209V303.615H451.266V310.769ZM469.732 359H478.449V365.923H469.732V359ZM469.847 378.385H478.563V385.308H469.847V378.385ZM478.678 404.692H469.961V397.769H478.678V404.692ZM501.502 342.154H481.316V338H501.502V342.154ZM501.502 336.154H481.316V332H501.502V336.154ZM501.502 330.154H481.316V326H501.502V330.154ZM504.369 359H513.086V365.923H504.369V359ZM504.484 378.385H513.201V385.308H504.484V378.385ZM513.316 404.692H504.599V397.769H513.316V404.692Z" fill="#D3D3D3" fill-opacity="0.17"/>
<path d="M659.562 379.154V361.154H649.599V349.462H642.855V361.154H632.892V379.154H627.374V338.692H616.185V334.846H601.317V331H586.603V334.846H572.654V338.692H560.545V379H554.108V361H544.145V349.308H537.401V361H527.438V379H521V442.846H535.715V420.231H545.831V442.846H585.376V416.538H602.543V442.846H626.455V443H641.169V420.385H651.285V443H666V379.154H659.562ZM526.288 386.846H532.113V391.462H526.288V386.846ZM526.365 399.769H532.189V404.385H526.365V399.769ZM532.266 417.308H526.441V412.692H532.266V417.308ZM547.517 375.615H534.029V372.846H547.517V375.615ZM547.517 371.615H534.029V368.846H547.517V371.615ZM547.517 367.615H534.029V364.846H547.517V367.615ZM549.433 386.846H555.257V391.462H549.433V386.846ZM549.51 399.769H555.334V404.385H549.51V399.769ZM555.411 417.308H549.586V412.692H555.411V417.308ZM579.245 409.615H568.516V404.846H579.245V409.615ZM579.245 395.923H568.516V391.154H579.245V395.923ZM579.245 382.231H568.516V377.462H579.245V382.231ZM579.245 368.538H568.516V363.769H579.245V368.538ZM579.245 354.846H568.516V350.077H579.245V354.846ZM599.325 409.615H588.595V404.846H599.325V409.615ZM599.325 395.923H588.595V391.154H599.325V395.923ZM599.325 382.231H588.595V377.462H599.325V382.231ZM599.325 368.538H588.595V363.769H599.325V368.538ZM599.325 354.846H588.595V350.077H599.325V354.846ZM619.404 409.615H608.674V404.846H619.404V409.615ZM619.404 395.923H608.674V391.154H619.404V395.923ZM619.404 382.231H608.674V377.462H619.404V382.231ZM619.404 368.538H608.674V363.769H619.404V368.538ZM619.404 354.846H608.674V350.077H619.404V354.846ZM631.743 387H637.567V391.615H631.743V387ZM631.819 399.923H637.644V404.538H631.819V399.923ZM637.72 417.462H631.896V412.846H637.72V417.462ZM652.971 375.769H639.483V373H652.971V375.769ZM652.971 371.769H639.483V369H652.971V371.769ZM652.971 367.769H639.483V365H652.971V367.769ZM654.887 387H660.712V391.615H654.887V387ZM654.964 399.923H660.789V404.538H654.964V399.923ZM660.865 417.462H655.041V412.846H660.865V417.462Z" fill="#D3D3D3" fill-opacity="0.17"/>
<g clip-path="url(#clip1)">
<path d="M527.436 769.442H284V769.952H527.436V769.442Z" fill="#09330D"/>
<path d="M322.354 760.061C326.412 760.061 329.702 753.28 329.702 744.915C329.702 736.55 326.412 729.769 322.354 729.769C318.295 729.769 315.005 736.55 315.005 744.915C315.005 753.28 318.295 760.061 322.354 760.061Z" fill="#09330D"/>
<path d="M323.032 769.707C320.089 751.869 323.003 734.096 323.033 733.918L323.605 734.016C323.576 734.193 320.679 751.873 323.605 769.611L323.032 769.707Z" fill="#045F18"/>
<path d="M328.823 741.658L322.178 745.248L322.452 745.765L329.097 742.175L328.823 741.658Z" fill="#045F18"/>
<path d="M315.439 743.456L315.165 743.974L321.809 747.566L322.084 747.049L315.439 743.456Z" fill="#045F18"/>
<path d="M304.697 751.18C312.635 751.18 319.07 737.917 319.07 721.556C319.07 705.195 312.635 691.932 304.697 691.932C296.759 691.932 290.324 705.195 290.324 721.556C290.324 737.917 296.759 751.18 304.697 751.18Z" fill="#045F18"/>
<path d="M306.298 770C300.549 735.157 306.24 700.442 306.298 700.095L306.871 700.193C306.813 700.539 301.138 735.161 306.871 769.904L306.298 770Z" fill="#09330D"/>
<path d="M317.483 715.433L304.485 722.456L304.759 722.973L317.756 715.95L317.483 715.433Z" fill="#09330D"/>
<path d="M291.042 718.951L290.768 719.468L303.763 726.494L304.037 725.977L291.042 718.951Z" fill="#09330D"/>
<path d="M338.739 744.264C349.602 744.264 358.408 726.114 358.408 703.726C358.408 681.337 349.602 663.187 338.739 663.187C327.876 663.187 319.07 681.337 319.07 703.726C319.07 726.114 327.876 744.264 338.739 744.264Z" fill="#045F18"/>
<path d="M341.035 770C333.171 722.338 340.956 674.851 341.035 674.376L341.608 674.474C341.529 674.948 333.761 722.342 341.608 769.904L341.035 770Z" fill="#09330D"/>
<path d="M356.285 695.442L338.499 705.052L338.773 705.569L356.559 695.959L356.285 695.442Z" fill="#09330D"/>
<path d="M320.002 700.256L319.728 700.773L337.512 710.388L337.786 709.871L320.002 700.256Z" fill="#09330D"/>
<path d="M503.97 760.061C508.028 760.061 511.319 753.28 511.319 744.915C511.319 736.55 508.028 729.769 503.97 729.769C499.911 729.769 496.621 736.55 496.621 744.915C496.621 753.28 499.911 760.061 503.97 760.061Z" fill="#09330D"/>
<path d="M503.291 769.707C506.234 751.869 503.321 734.096 503.291 733.918L502.718 734.016C502.748 734.193 505.645 751.873 502.718 769.611L503.291 769.707Z" fill="#045F18"/>
<path d="M497.5 741.658L497.226 742.175L503.871 745.766L504.145 745.248L497.5 741.658Z" fill="#045F18"/>
<path d="M510.885 743.456L504.24 747.049L504.514 747.566L511.159 743.974L510.885 743.456Z" fill="#045F18"/>
<path d="M521.627 751.18C529.565 751.18 536 737.917 536 721.556C536 705.195 529.565 691.932 521.627 691.932C513.689 691.932 507.253 705.195 507.253 721.556C507.253 737.917 513.689 751.18 521.627 751.18Z" fill="#045F18"/>
<path d="M520.026 770C525.775 735.157 520.084 700.442 520.026 700.095L519.453 700.193C519.511 700.539 525.186 735.161 519.453 769.904L520.026 770Z" fill="#09330D"/>
<path d="M508.841 715.433L508.567 715.95L521.565 722.973L521.839 722.456L508.841 715.433Z" fill="#09330D"/>
<path d="M535.282 718.951L522.287 725.977L522.561 726.494L535.556 719.468L535.282 718.951Z" fill="#09330D"/>
<path d="M487.585 744.264C498.447 744.264 507.253 726.114 507.253 703.726C507.253 681.337 498.447 663.187 487.585 663.187C476.722 663.187 467.916 681.337 467.916 703.726C467.916 726.114 476.722 744.264 487.585 744.264Z" fill="#045F18"/>
<path d="M485.289 770C493.153 722.338 485.368 674.851 485.288 674.376L484.716 674.474C484.795 674.948 492.563 722.342 484.716 769.904L485.289 770Z" fill="#09330D"/>
<path d="M470.039 695.442L469.765 695.959L487.551 705.569L487.825 705.052L470.039 695.442Z" fill="#09330D"/>
<path d="M506.322 700.256L488.538 709.871L488.812 710.388L506.596 700.773L506.322 700.256Z" fill="#09330D"/>
<path d="M355.517 766.491C354.899 766.491 354.292 766.655 353.757 766.968C353.214 766.471 352.54 766.145 351.816 766.028C351.093 765.912 350.352 766.01 349.682 766.31C349.013 766.611 348.444 767.101 348.046 767.722C347.647 768.343 347.435 769.067 347.436 769.807H359.04C358.977 768.907 358.578 768.064 357.925 767.449C357.271 766.833 356.411 766.491 355.517 766.491V766.491Z" fill="#09330D"/>
<path d="M415.874 766.491C415.256 766.491 414.649 766.655 414.114 766.968C413.571 766.471 412.897 766.145 412.173 766.028C411.45 765.912 410.709 766.01 410.039 766.31C409.37 766.611 408.801 767.101 408.403 767.722C408.004 768.343 407.792 769.067 407.793 769.807H419.397C419.334 768.907 418.935 768.064 418.282 767.449C417.628 766.833 416.768 766.491 415.874 766.491V766.491Z" fill="#09330D"/>
<path d="M403.138 758.118H369.659V759.208H374.88V769.572H375.96V759.208H396.297V769.572H397.377V759.208H403.138V758.118Z" fill="#09330D"/>
<path d="M403.204 754.854H369.725V755.945H403.204V754.854Z" fill="#09330D"/>
<path d="M403.204 752.126H369.725V753.217H403.204V752.126Z" fill="#09330D"/>
<path d="M403.204 749.399H369.725V750.49H403.204V749.399Z" fill="#09330D"/>
<path d="M455.414 758.118H421.935V759.208H427.156V769.572H428.236V759.208H448.572V769.572H449.653V759.208H455.414V758.118Z" fill="#09330D"/>
<path d="M455.48 754.854H422.001V755.945H455.48V754.854Z" fill="#09330D"/>
<path d="M455.48 752.126H422.001V753.217H455.48V752.126Z" fill="#09330D"/>
<path d="M455.48 749.399H422.001V750.49H455.48V749.399Z" fill="#09330D"/>
<path d="M477.668 741.089C477.876 741.055 478.089 741.062 478.294 741.11C478.499 741.158 478.692 741.247 478.862 741.37C479.033 741.494 479.177 741.65 479.287 741.83C479.396 742.01 479.469 742.209 479.501 742.417L480.123 746.495L478.007 747.056L476.457 743.257C476.367 743.036 476.328 742.798 476.342 742.56C476.357 742.322 476.425 742.09 476.541 741.882C476.657 741.674 476.819 741.494 477.014 741.357C477.209 741.22 477.433 741.129 477.668 741.089Z" fill="#A0616A"/>
<path d="M477.707 746.488C476.533 751.151 477.038 755.416 481.41 758.764C486.654 757.32 490.141 753.834 492.269 748.769C492.401 748.454 492.468 748.116 492.466 747.774C492.464 747.432 492.393 747.095 492.256 746.782C492.12 746.468 491.921 746.186 491.673 745.952C491.424 745.717 491.131 745.535 490.81 745.417V745.417C490.328 745.24 489.804 745.214 489.306 745.342C488.809 745.47 488.363 745.747 488.026 746.134L482.881 752.069L480.468 746.085L477.707 746.488Z" fill="#FFF963"/>
<path d="M450.84 770.952C455.628 770.698 458.602 769.055 459.323 765.686L458.552 764.273L449.723 768.293C449.5 768.394 449.312 768.56 449.184 768.768C449.055 768.976 448.991 769.218 449.001 769.463C449.01 769.707 449.092 769.944 449.236 770.142C449.38 770.34 449.58 770.49 449.81 770.575L450.84 770.952Z" fill="#E6E6E6"/>
<path d="M454.54 770.986C457.027 770.91 459.42 770.934 461.687 771.087C462.084 771.114 462.477 770.984 462.779 770.724C463.08 770.464 463.268 770.095 463.299 769.698L463.435 767.998L465.363 764.915L463.692 763.245C460.885 766.04 457.805 768.388 454.148 769.783C454.03 769.864 453.942 769.98 453.896 770.115C453.85 770.249 453.849 770.396 453.894 770.531C453.938 770.666 454.024 770.784 454.141 770.866C454.257 770.948 454.397 770.99 454.54 770.986V770.986Z" fill="#E6E6E6"/>
<path d="M468.062 758.878C471.239 764.559 474.363 768.388 478.473 770.438C483.529 772.106 487.224 769.897 490.104 765.365L481.75 759.841L480.529 761.062L469.463 752.646C469.193 752.39 468.833 752.251 468.461 752.26C468.088 752.268 467.735 752.423 467.476 752.69L458.037 764.273L459.194 766.2L468.062 758.878Z" fill="#1108B1"/>
<path d="M465.234 765.557L469.604 758.877L468.576 756.951L462.792 762.988L465.234 765.557Z" fill="#1108B1"/>
<path d="M490.426 744.235C488.012 744.235 486.056 742.28 486.056 739.868C486.056 737.456 488.012 735.5 490.426 735.5C492.839 735.5 494.795 737.456 494.795 739.868C494.795 742.28 492.839 744.235 490.426 744.235Z" fill="#A0616A"/>
<path d="M489.27 747.959L494.154 746.289C493.431 745.142 493.114 743.785 493.254 742.436H489.27C489.496 744.396 489.53 746.255 489.27 747.959Z" fill="#A0616A"/>
<path d="M478.859 759.649C479.591 759.949 479.644 760.923 480.337 761.254C483.683 762.855 487.224 764.153 489.655 766.457C495.334 762.602 500.599 750.63 493.767 745.391C491.436 746.755 489.353 747.731 489.398 745.391L478.859 759.649Z" fill="#FFF963"/>
<path opacity="0.2" d="M481.815 754.511L484.193 753.676L488.884 757.337L490.987 749.771C491.132 749.246 491.369 749.512 491.708 749.876C492.062 749.549 492.502 749.33 492.976 749.244C493.45 749.159 493.939 749.211 494.385 749.394C494.831 749.577 495.215 749.883 495.492 750.277C495.77 750.671 495.928 751.136 495.95 751.618C496.2 757.106 494.544 761.749 490.426 765.3C485.04 764.148 482.754 760.511 481.815 755.795L482.069 755.625C481.976 755.261 481.891 754.889 481.815 754.511Z" fill="black"/>
<path d="M489.838 734.123C488.396 734.452 486.756 734.918 486.664 735.351C485.181 735.725 484.062 736.619 483.833 737.983C483.814 738.101 483.821 738.221 483.854 738.336C483.886 738.451 483.944 738.557 484.022 738.648C484.1 738.738 484.197 738.81 484.306 738.859C484.415 738.908 484.534 738.932 484.653 738.93C485.459 738.92 486.67 738.842 487.469 738.509C489.791 740.004 490.181 743.893 489.167 746.54L490.763 746.394L492.413 741.564L492.835 746.204L496.477 745.723L496.008 739.806C495.863 738.412 495.388 737.072 494.622 735.897C494.543 735.779 494.456 735.667 494.362 735.56C493.808 734.934 493.095 734.47 492.298 734.217C491.501 733.964 490.651 733.932 489.838 734.123V734.123Z" fill="#2F2E41"/>
<path d="M481.623 748.785L477.623 753.484L471.624 746.408L475.678 741.493L481.623 748.785Z" fill="#3F3D56"/>
<path d="M472.652 746.57L477.408 742.681C477.137 742.033 475.84 742.249 475.84 742.249L472.118 746.021C471.988 746.152 471.877 746.301 471.787 746.462V746.462L472.652 746.57Z" fill="#F2F2F2"/>
<path d="M472.435 746.299L477.839 742.086L483.838 751.161L478.191 754.968C477.65 755.185 477.11 754.806 477.11 754.806L471.597 746.38L472.435 746.299Z" fill="#3F3D56"/>
<path d="M477.165 743.402L477.216 743.473L473.757 745.957L473.706 745.886L477.165 743.402Z" fill="#FFF963"/>
<path d="M473.659 746.816L478.199 753.675L478.126 753.724L473.586 746.864L473.659 746.816Z" fill="#FFF963"/>
<path d="M482.353 751.179L482.405 751.25L478.731 753.951L478.679 753.881L482.353 751.179Z" fill="#FFF963"/>
<path d="M477.82 743.52L482.522 750.272L482.45 750.322L477.748 743.57L477.82 743.52Z" fill="#FFF963"/>
<path d="M476.368 742.196L476.405 742.235L472.128 746.158L472.092 746.118L476.368 742.196Z" fill="#B3B3B3"/>
<path d="M476.724 742.229L476.76 742.27L472.291 746.213L472.255 746.172L476.724 742.229Z" fill="#B3B3B3"/>
<path d="M477.004 742.308L477.039 742.349L472.399 746.214L472.365 746.173L477.004 742.308Z" fill="#B3B3B3"/>
<path d="M479.464 750.164C479.637 750.044 479.832 749.959 480.038 749.915C480.244 749.871 480.456 749.868 480.663 749.906C480.87 749.945 481.068 750.024 481.244 750.14C481.42 750.255 481.571 750.404 481.689 750.579L484 753.997L482.329 755.41L479.299 752.641C479.123 752.48 478.985 752.282 478.897 752.06C478.808 751.839 478.77 751.601 478.786 751.363C478.801 751.125 478.871 750.894 478.988 750.686C479.105 750.479 479.268 750.3 479.464 750.164V750.164Z" fill="#A0616A"/>
<path d="M481.815 755.024C482.754 759.74 485.04 763.377 490.426 764.53C494.544 760.978 496.2 756.335 495.95 750.847C495.934 750.506 495.85 750.171 495.701 749.863C495.553 749.556 495.343 749.281 495.086 749.057C494.828 748.832 494.528 748.662 494.203 748.557C493.877 748.451 493.534 748.413 493.194 748.444V748.444C492.683 748.49 492.197 748.691 491.803 749.02C491.409 749.349 491.124 749.79 490.987 750.284L488.884 757.85L484.136 753.478L481.815 755.024Z" fill="#FFF963"/>
</g>
<path d="M651.095 131H548.433C545.312 131 542.782 133.531 542.782 136.653V137.657C542.782 140.779 545.312 143.31 548.433 143.31H651.095C654.216 143.31 656.746 140.779 656.746 137.657V136.653C656.746 133.531 654.216 131 651.095 131Z" fill="white"/>
<path d="M676.622 141.488H573.96C570.839 141.488 568.309 144.019 568.309 147.14V148.145C568.309 151.267 570.839 153.797 573.96 153.797H676.622C679.743 153.797 682.273 151.267 682.273 148.145V147.14C682.273 144.019 679.743 141.488 676.622 141.488Z" fill="white"/>
<path d="M633.314 150.603H530.651C527.53 150.603 525 153.133 525 156.255V157.26C525 160.381 527.53 162.912 530.651 162.912H633.314C636.435 162.912 638.965 160.381 638.965 157.26V156.255C638.965 153.133 636.435 150.603 633.314 150.603Z" fill="white"/>
<path d="M1144.1 243H1041.43C1038.31 243 1035.78 245.531 1035.78 248.653V249.657C1035.78 252.779 1038.31 255.31 1041.43 255.31H1144.1C1147.22 255.31 1149.75 252.779 1149.75 249.657V248.653C1149.75 245.531 1147.22 243 1144.1 243Z" fill="white"/>
<path d="M1169.62 253.488H1066.96C1063.84 253.488 1061.31 256.019 1061.31 259.14V260.145C1061.31 263.267 1063.84 265.797 1066.96 265.797H1169.62C1172.74 265.797 1175.27 263.267 1175.27 260.145V259.14C1175.27 256.019 1172.74 253.488 1169.62 253.488Z" fill="white"/>
<path d="M1126.31 262.603H1023.65C1020.53 262.603 1018 265.133 1018 268.255V269.26C1018 272.381 1020.53 274.912 1023.65 274.912H1126.31C1129.43 274.912 1131.96 272.381 1131.96 269.26V268.255C1131.96 265.133 1129.43 262.603 1126.31 262.603Z" fill="white"/>
<path d="M1276.1 63H1173.43C1170.31 63 1167.78 65.5308 1167.78 68.6526V69.6571C1167.78 72.7789 1170.31 75.3097 1173.43 75.3097H1276.1C1279.22 75.3097 1281.75 72.7789 1281.75 69.6571V68.6526C1281.75 65.5308 1279.22 63 1276.1 63Z" fill="white"/>
<path d="M1301.62 73.4878H1198.96C1195.84 73.4878 1193.31 76.0185 1193.31 79.1404V80.1449C1193.31 83.2667 1195.84 85.7975 1198.96 85.7975H1301.62C1304.74 85.7975 1307.27 83.2667 1307.27 80.1449V79.1404C1307.27 76.0185 1304.74 73.4878 1301.62 73.4878Z" fill="white"/>
<path d="M1258.31 82.6025H1155.65C1152.53 82.6025 1150 85.1333 1150 88.2551V89.2596C1150 92.3815 1152.53 94.9122 1155.65 94.9122H1258.31C1261.43 94.9122 1263.96 92.3815 1263.96 89.2596V88.2551C1263.96 85.1333 1261.43 82.6025 1258.31 82.6025Z" fill="white"/>
<path d="M365.095 57H262.433C259.312 57 256.782 59.5308 256.782 62.6526V63.6571C256.782 66.7789 259.312 69.3097 262.433 69.3097H365.095C368.216 69.3097 370.746 66.7789 370.746 63.6571V62.6526C370.746 59.5308 368.216 57 365.095 57Z" fill="white"/>
<path d="M390.622 67.4878H287.96C284.839 67.4878 282.309 70.0185 282.309 73.1404V74.1449C282.309 77.2667 284.839 79.7975 287.96 79.7975H390.622C393.743 79.7975 396.273 77.2667 396.273 74.1449V73.1404C396.273 70.0185 393.743 67.4878 390.622 67.4878Z" fill="white"/>
<path d="M347.314 76.6025H244.651C241.53 76.6025 239 79.1333 239 82.2551V83.2596C239 86.3815 241.53 88.9122 244.651 88.9122H347.314C350.435 88.9122 352.965 86.3815 352.965 83.2596V82.2551C352.965 79.1333 350.435 76.6025 347.314 76.6025Z" fill="white"/>
<path d="M580.397 907.131C580.397 907.131 581.753 905.983 580.397 903.949C579.041 901.914 576.538 903.505 576.538 903.505C576.538 903.505 575.625 906.453 576.538 907.131C577.45 907.809 580.397 907.131 580.397 907.131Z" fill="#CA7070"/>
<path d="M566.367 983.197H572.626C572.603 983.494 572.645 983.792 572.748 984.071C572.852 984.35 573.014 984.604 573.225 984.814C574.06 985.779 575.833 986.953 574.973 987.423H566.367V983.197Z" fill="#D6F7BD"/>
<path d="M544.043 981.919L549.989 982.962C549.828 983.659 549.921 984.389 550.25 985.023C550.902 986.354 552.336 988.075 551.476 988.44L543 987.058L544.043 981.919Z" fill="#D6F7BD"/>
<path d="M546.912 904.366C546.912 904.366 540.21 925.522 551.45 937.234L554.71 934.626C554.71 934.626 548.059 911.54 551.789 906.114C545.217 904.053 546.912 904.366 546.912 904.366Z" fill="#D6F7BD"/>
<path d="M551.554 906.218C551.554 906.218 552.91 905.07 551.554 903.036C550.198 901.001 547.695 902.592 547.695 902.592C547.695 902.592 546.782 905.54 547.695 906.218C548.607 906.896 551.554 906.218 551.554 906.218Z" fill="#CA7070"/>
<path d="M556.873 933.504H557.395C559.008 933.504 560.316 932.196 560.316 930.583V926.983C560.316 925.369 559.008 924.061 557.395 924.061H556.873C555.26 924.061 553.953 925.369 553.953 926.983V930.583C553.953 932.196 555.26 933.504 556.873 933.504Z" fill="#CA7070"/>
<path opacity="0.2" d="M554.24 936.007C554.24 936.007 547.668 913.209 551.241 907.6H551.763H551.919C548.19 913.026 554.84 936.112 554.84 936.112L551.58 938.72L551.293 938.407L554.24 936.007Z" fill="white"/>
<path d="M557.004 927.373C560.893 927.373 564.046 924.22 564.046 920.33C564.046 916.44 560.893 913.287 557.004 913.287C553.115 913.287 549.963 916.44 549.963 920.33C549.963 924.22 553.115 927.373 557.004 927.373Z" fill="#CA7070"/>
<path opacity="0.2" d="M559.508 930.321V927.243C559.532 927.018 559.532 926.79 559.508 926.565C560.886 925.86 561.993 924.721 562.659 923.324C563.325 921.927 563.512 920.349 563.191 918.834C562.871 917.32 562.06 915.954 560.886 914.946C559.711 913.939 558.237 913.347 556.691 913.261H557.082C558.662 913.259 560.196 913.789 561.439 914.764C562.681 915.74 563.559 917.105 563.932 918.64C564.306 920.175 564.152 921.792 563.496 923.229C562.84 924.666 561.72 925.841 560.316 926.565C560.341 926.79 560.341 927.018 560.316 927.243V930.321C560.316 931.165 559.981 931.975 559.384 932.571C558.788 933.168 557.979 933.504 557.135 933.504H556.744C557.513 933.402 558.219 933.022 558.728 932.436C559.237 931.85 559.515 931.098 559.508 930.321V930.321Z" fill="white"/>
<path d="M549.859 955.442C549.859 955.442 563.446 956.981 563.942 955.442C566.07 949.175 566.07 942.38 563.942 936.112C563.942 935.187 563.759 934.272 563.406 933.417C563.052 932.563 562.533 931.786 561.879 931.132C561.225 930.478 560.449 929.959 559.595 929.605C558.741 929.251 557.825 929.069 556.9 929.069V929.069C555.033 929.069 553.242 929.811 551.921 931.132C550.601 932.453 549.859 934.244 549.859 936.112V955.442Z" fill="#D6F7BD"/>
<path opacity="0.2" d="M563.029 955.442C565.158 949.174 565.158 942.38 563.029 936.112C563.026 934.323 562.343 932.602 561.117 931.299C559.892 929.996 558.216 929.208 556.431 929.095H556.875C558.742 929.095 560.533 929.837 561.854 931.158C563.174 932.479 563.916 934.27 563.916 936.138C566.044 942.406 566.044 949.201 563.916 955.468C563.734 956.016 561.882 956.172 559.561 956.146C561.569 956.094 563.029 955.911 563.029 955.442Z" fill="white"/>
<path d="M564.046 936.008C564.046 936.008 582.302 923.278 580.398 907.157H576.329C576.329 907.157 566.55 928.286 560.317 930.347C554.084 932.408 564.046 936.008 564.046 936.008Z" fill="#D6F7BD"/>
<g opacity="0.2">
<path opacity="0.2" d="M556.092 963.189L549.859 983.719H548.946L555.31 962.85L556.092 963.189Z" fill="white"/>
<path opacity="0.2" d="M563.029 955.546H563.942C567.743 959.004 570.569 963.4 572.134 968.295C573.7 973.189 573.95 978.41 572.861 983.432V983.745H571.948V983.432C573.037 978.41 572.787 973.189 571.221 968.295C569.656 963.4 566.831 959.004 563.029 955.546Z" fill="white"/>
</g>
<path opacity="0.2" d="M579.72 907.314H580.398C582.223 923.461 564.046 936.165 564.046 936.165L563.603 935.982C565.637 934.495 581.415 922.418 579.72 907.314Z" fill="white"/>
<path d="M562.611 917.174C562.222 918.084 561.951 919.039 561.803 920.018C561.622 921.018 561.242 921.972 560.687 922.823C560.131 923.674 559.411 924.406 558.569 924.974C557.598 925.501 556.518 925.796 555.413 925.835C554.58 925.938 553.734 925.867 552.93 925.624C552.126 925.381 551.382 924.973 550.745 924.426C550.006 923.624 549.509 922.629 549.311 921.557C548.96 919.962 549.015 918.305 549.471 916.737C549.926 915.17 550.768 913.741 551.919 912.583C553.088 911.453 554.552 910.674 556.144 910.337C557.735 910.001 559.389 910.119 560.916 910.679C561.466 910.948 562.043 911.158 562.637 911.305C563.107 911.397 563.592 911.368 564.048 911.223C564.504 911.077 564.916 910.818 565.245 910.47C565.319 910.706 565.337 910.957 565.295 911.201C565.254 911.445 565.156 911.675 565.008 911.874C564.861 912.072 564.668 912.233 564.446 912.343C564.224 912.453 563.98 912.508 563.733 912.505C564.254 912.756 564.819 912.901 565.396 912.933C565.974 912.964 566.552 912.881 567.097 912.688C566.789 913.338 566.247 913.847 565.579 914.113C564.912 914.379 564.168 914.383 563.498 914.122C564.777 914.693 566.165 914.978 567.566 914.957C567.279 914.957 566.706 915.505 566.341 915.609C565.889 915.649 565.436 915.649 564.984 915.609C564.48 915.613 563.987 915.762 563.566 916.04C563.145 916.318 562.813 916.712 562.611 917.174Z" fill="#263238"/>
<path d="M549.859 955.442L543.73 983.614H549.859L556.223 962.746C556.223 962.746 564.046 966.163 566.211 972.971C567.523 976.407 567.523 980.205 566.211 983.64H572.809V983.327C573.898 978.305 573.647 973.085 572.082 968.19C570.516 963.296 567.691 958.899 563.89 955.442" fill="#263238"/>
<path d="M395.68 964.655C395.68 964.655 411.528 949.757 407.51 934.362L403.474 935.036C403.474 935.036 398.128 957.969 392.343 960.828C396.981 965.733 395.68 964.655 395.68 964.655Z" fill="#FF5252"/>
<path d="M392.606 960.829C392.606 960.829 390.897 961.163 391.085 963.552C391.272 965.941 394.175 965.776 394.175 965.776C394.175 965.776 396.365 963.69 395.909 962.674C395.452 961.657 392.606 960.829 392.606 960.829Z" fill="#F6B9AD"/>
<path d="M408.378 936.682H408.89C410.471 936.682 411.752 935.4 411.752 933.818V930.29C411.752 928.708 410.471 927.426 408.89 927.426H408.378C406.797 927.426 405.516 928.708 405.516 930.29V933.818C405.516 935.4 406.797 936.682 408.378 936.682Z" fill="#F6B9AD"/>
<path d="M408.506 930.648C412.318 930.648 415.408 927.557 415.408 923.745C415.408 919.932 412.318 916.841 408.506 916.841C404.695 916.841 401.605 919.932 401.605 923.745C401.605 927.557 404.695 930.648 408.506 930.648Z" fill="#F6B9AD"/>
<path opacity="0.2" d="M410.96 933.537V930.546C410.984 930.325 410.984 930.102 410.96 929.881C412.311 929.19 413.396 928.074 414.049 926.704C414.702 925.335 414.885 923.788 414.571 922.304C414.257 920.82 413.462 919.48 412.311 918.493C411.159 917.505 409.714 916.925 408.2 916.841H408.583C410.131 916.84 411.635 917.359 412.853 918.315C414.07 919.271 414.931 920.609 415.297 922.114C415.663 923.618 415.512 925.202 414.869 926.611C414.226 928.02 413.129 929.171 411.753 929.881C411.777 930.102 411.777 930.325 411.753 930.546V933.562C411.753 934.39 411.424 935.183 410.839 935.768C410.255 936.353 409.461 936.682 408.634 936.682H408.251C409.01 936.582 409.705 936.206 410.205 935.626C410.704 935.046 410.973 934.302 410.96 933.537V933.537Z" fill="white"/>
<path d="M401.502 958.159C401.502 958.159 414.82 959.667 415.306 958.159C416.89 953.301 412.749 947.931 414.769 945.375C415.393 944.471 415.77 943.421 415.865 942.327C415.959 941.233 415.766 940.133 415.306 939.136C415.306 938.23 415.127 937.332 414.78 936.495C414.433 935.657 413.925 934.896 413.284 934.255C412.643 933.614 411.883 933.105 411.045 932.758C410.208 932.412 409.31 932.233 408.404 932.233V932.233C406.574 932.233 404.818 932.96 403.524 934.255C402.23 935.549 401.502 937.305 401.502 939.136V958.159Z" fill="#FF5252"/>
<path opacity="0.2" d="M414.794 945.477C415.418 944.574 415.796 943.523 415.89 942.429C415.984 941.335 415.792 940.236 415.331 939.239C415.331 937.408 414.604 935.652 413.31 934.357C412.015 933.063 410.26 932.335 408.43 932.335H407.995C409.745 932.446 411.387 933.218 412.588 934.496C413.789 935.773 414.459 937.46 414.462 939.213C414.923 940.21 415.115 941.31 415.021 942.404C414.927 943.498 414.549 944.548 413.925 945.452C411.778 948.008 416.047 953.275 414.462 958.235C414.309 958.696 412.928 958.875 411.114 958.9C413.363 958.9 415.178 958.772 415.357 958.235C416.916 953.301 412.647 948.034 414.794 945.477Z" fill="white"/>
<path d="M412.468 957.724C417.603 965.848 419.602 975.564 418.092 985.056V985.363H413.951C414.782 981.927 414.782 978.342 413.951 974.906C413.164 970.903 410.924 967.332 407.663 964.883L403.65 985.337H399.79L403.65 957.724H412.468Z" fill="#F6B9AD"/>
<path d="M401.502 957.418L393.118 975.111C398.019 975.353 402.896 975.943 407.713 976.875C416.992 978.639 421.414 974.318 421.414 974.318L415.459 957.418H401.502Z" fill="#263238"/>
<path d="M406.23 937.089C406.23 937.089 411.843 958.088 427.316 961.839L428.69 958.071C428.69 958.071 412.509 941.87 412.712 935.532C412.914 929.195 406.23 937.089 406.23 937.089Z" fill="#FF5252"/>
<path d="M403.727 985.26C403.727 985.26 408.149 986.155 407.255 987.817H399.305L399.74 985.26H403.727Z" fill="#FF5252"/>
<path d="M417.861 985.26C417.861 985.26 422.284 986.155 421.389 987.817H413.439L413.874 985.26H417.861Z" fill="#FF5252"/>
<path d="M414.768 918.069C414.768 918.069 404.161 933.103 409.017 939.29L390.025 938.856C390.025 938.856 395.317 904.799 414.768 918.069Z" fill="#FCCC63"/>
<path opacity="0.2" d="M414.769 918.069C412.59 916.456 410.041 915.419 407.356 915.052C409.181 915.637 410.905 916.499 412.468 917.609C412.468 917.609 401.86 932.642 406.717 938.83L390 938.446V938.83L408.992 939.264C404.161 933.102 414.769 918.069 414.769 918.069Z" fill="white"/>
<path opacity="0.2" d="M415.459 957.418H414.129L420.111 974.216C417.637 976.25 414.52 977.337 411.318 977.284C414.997 977.646 418.67 976.543 421.542 974.216L415.459 957.418Z" fill="white"/>
<path opacity="0.2" d="M403.727 985.26H402.833C402.833 985.26 407.255 986.155 406.36 987.817H407.255C408.149 986.129 403.727 985.26 403.727 985.26Z" fill="white"/>
<path opacity="0.2" d="M417.861 985.26H416.967C416.967 985.26 421.389 986.155 420.494 987.817H421.389C422.283 986.129 417.861 985.26 417.861 985.26Z" fill="white"/>
<path d="M430.757 962.482C430.757 962.482 432.367 961.817 431.677 959.491C430.987 957.164 428.201 957.957 428.201 957.957C428.201 957.957 426.489 960.514 427.153 961.357C427.818 962.201 430.757 962.482 430.757 962.482Z" fill="#F6B9AD"/>
<path opacity="0.2" d="M430.297 962.252C430.297 962.252 431.908 961.588 431.218 959.261C431.136 958.934 430.977 958.631 430.755 958.378C430.532 958.124 430.253 957.928 429.939 957.804C430.346 957.878 430.723 958.066 431.027 958.347C431.33 958.628 431.547 958.989 431.652 959.389C432.342 961.69 430.732 962.38 430.732 962.38C429.865 962.311 429.008 962.148 428.176 961.894C428.872 962.071 429.582 962.191 430.297 962.252V962.252Z" fill="white"/>
<path d="M489.338 824.667C483.959 824.666 478.675 826.171 474.019 829.029C469.29 824.49 463.421 821.505 457.125 820.438C450.829 819.37 444.377 820.266 438.551 823.016C432.725 825.766 427.777 830.252 424.306 835.929C420.836 841.607 418.992 848.232 419 855H520C519.449 846.765 515.98 839.058 510.291 833.43C504.602 827.801 497.115 824.67 489.338 824.667V824.667Z" fill="#0C6F16"/>
<rect width="175" height="2" rx="1" transform="matrix(1 0 0 -1 409 857)" fill="#024909"/>
<path d="M595.881 846.64C595.889 846.71 595.882 846.78 595.861 846.847C595.84 846.914 595.805 846.975 595.758 847.028C595.712 847.08 595.655 847.122 595.591 847.151C595.528 847.18 595.459 847.196 595.389 847.196L593.79 847.213C593.703 847.207 593.623 847.168 593.564 847.105C593.505 847.042 593.472 846.959 593.472 846.873V846.873C593.472 846.804 593.493 846.738 593.531 846.681C593.569 846.625 593.623 846.581 593.687 846.556L594.158 846.367L594.845 845.407H595.393C595.663 845.766 595.831 846.191 595.881 846.638L595.881 846.64H595.881Z" fill="#FFB8B8"/>
<path d="M599.709 846.64C599.702 846.71 599.708 846.78 599.73 846.847C599.751 846.914 599.786 846.975 599.832 847.028C599.879 847.08 599.935 847.122 599.999 847.151C600.063 847.18 600.132 847.196 600.202 847.196L601.801 847.213C601.887 847.207 601.968 847.168 602.027 847.105C602.085 847.042 602.118 846.959 602.118 846.873V846.873C602.118 846.804 602.098 846.738 602.06 846.681C602.021 846.625 601.967 846.581 601.904 846.556L601.432 846.367L600.746 845.407H600.197C599.927 845.766 599.759 846.191 599.71 846.638L599.709 846.64Z" fill="#FFB8B8"/>
<path d="M600.883 845.407H600.059L597.178 832.919L595.668 845.544H594.708L593.404 829.282L600.059 829.214L600.883 845.407Z" fill="#3F3D56"/>
<path d="M604.589 822.49H603.491V819.882L603.241 819.383C603.191 819.283 603.165 819.172 603.166 819.06C603.167 818.948 603.194 818.838 603.246 818.738C603.297 818.639 603.371 818.553 603.462 818.487C603.553 818.422 603.659 818.379 603.769 818.362V818.362C603.871 818.346 603.974 818.353 604.073 818.381C604.172 818.409 604.263 818.458 604.341 818.525C604.419 818.592 604.481 818.675 604.524 818.768C604.567 818.861 604.589 818.962 604.589 819.065V822.49V822.49Z" fill="#FFB8B8"/>
<path d="M598.07 816.04C596.668 816.04 595.531 814.904 595.531 813.502C595.531 812.1 596.668 810.963 598.07 810.963C599.472 810.963 600.608 812.1 600.608 813.502C600.608 814.904 599.472 816.04 598.07 816.04Z" fill="#FFB8B8"/>
<path d="M599.1 817.824H596.492V814.805H599.1V817.824Z" fill="#FFB8B8"/>
<path d="M600.334 829.625C598.027 831.05 595.587 830.91 593.061 829.763L593.61 817.001L596.492 816.863L599.511 817.275L601.021 818.51L600.334 829.625Z" fill="#FF5252"/>
<path d="M603.079 825.097L600.06 822.764L601.02 818.51L602.804 821.803L603.353 821.254L605 822.489L603.079 825.097Z" fill="#FF5252"/>
<path d="M589.678 817.22L590.638 817.752L591.902 815.471L592.362 815.155C592.455 815.092 592.531 815.008 592.585 814.909C592.638 814.811 592.668 814.701 592.671 814.589C592.674 814.477 592.651 814.366 592.603 814.265C592.555 814.163 592.484 814.075 592.395 814.006V814.006C592.314 813.943 592.221 813.899 592.121 813.876C592.021 813.853 591.917 813.851 591.817 813.872C591.716 813.893 591.621 813.935 591.539 813.996C591.456 814.056 591.388 814.134 591.338 814.224L590.942 814.939L589.678 817.22Z" fill="#FFB8B8"/>
<path d="M595.051 821.049L591.408 819.115L589.494 818.099L589.219 816.452L590.454 815.217L591.964 816.177L591.826 817.275L593.61 817.001L595.051 821.049Z" fill="#FF5252"/>
<path d="M597.521 815.559C595.854 815.559 594.502 814.208 594.502 812.54C594.502 810.873 595.854 809.521 597.521 809.521C599.188 809.521 600.54 810.873 600.54 812.54C600.54 814.208 599.188 815.559 597.521 815.559Z" fill="#2F2E41"/>
<path d="M595.874 810.482C595.116 810.482 594.502 809.868 594.502 809.11C594.502 808.352 595.116 807.738 595.874 807.738C596.632 807.738 597.247 808.352 597.247 809.11C597.247 809.868 596.632 810.482 595.874 810.482Z" fill="#2F2E41"/>
<path d="M595.941 810.257C595.669 810.399 595.357 810.446 595.056 810.39C594.754 810.334 594.48 810.178 594.277 809.948C594.074 809.718 593.954 809.426 593.937 809.12C593.919 808.813 594.005 808.51 594.18 808.258C594.021 808.377 593.89 808.53 593.796 808.704C593.702 808.879 593.647 809.073 593.635 809.271C593.623 809.469 593.655 809.667 593.727 809.852C593.799 810.037 593.91 810.204 594.053 810.342C594.197 810.48 594.368 810.585 594.555 810.65C594.743 810.715 594.943 810.738 595.14 810.719C595.338 810.699 595.529 810.637 595.7 810.536C595.871 810.435 596.018 810.299 596.131 810.135C596.071 810.181 596.008 810.222 595.941 810.257V810.257Z" fill="#2F2E41"/>
<path d="M579.163 845.174L580.173 845.293C580.971 845.774 581.908 845.955 582.945 845.918C583.09 845.914 583.231 845.872 583.355 845.796C583.478 845.72 583.58 845.614 583.65 845.487V845.487C583.71 845.375 583.744 845.251 583.748 845.125C583.753 844.998 583.729 844.872 583.677 844.756C583.624 844.64 583.546 844.538 583.449 844.458C583.351 844.377 583.236 844.32 583.112 844.292L582.344 844.113L580.492 842.301L579.374 840.278L577.751 840.465L577.413 843.034C577.37 843.548 577.528 844.058 577.855 844.458C578.181 844.857 578.65 845.114 579.163 845.174V845.174Z" fill="#FFB8B8"/>
<path d="M594.899 843.874L595.889 844.107C596.627 844.676 597.537 844.963 598.572 845.044C598.716 845.056 598.861 845.031 598.993 844.97C599.124 844.908 599.237 844.814 599.321 844.696V844.696C599.393 844.592 599.441 844.473 599.46 844.347C599.479 844.222 599.469 844.094 599.431 843.973C599.392 843.852 599.326 843.742 599.238 843.651C599.15 843.56 599.042 843.49 598.923 843.447L598.181 843.182L596.547 841.171L595.667 839.034H594.033L593.404 841.548C593.303 842.054 593.402 842.579 593.681 843.013C593.96 843.447 594.397 843.756 594.899 843.874Z" fill="#FFB8B8"/>
<path d="M595.71 839.177L593.862 839.461L590.948 824.749L585.902 816.149L579.79 841.167L577.515 841.593C577.771 827.505 576.526 809.768 579.363 807.621L591.73 809.042L597.131 823.541L595.71 839.177Z" fill="#2F2E41"/>
<path d="M586.756 785.73C584.401 785.73 582.491 783.821 582.491 781.466C582.491 779.111 584.401 777.202 586.756 777.202C589.111 777.202 591.02 779.111 591.02 781.466C591.02 783.821 589.111 785.73 586.756 785.73Z" fill="#FFB8B8"/>
<path d="M580.785 788.005L585.902 788.858L587.182 784.309L583.486 783.172L580.785 788.005Z" fill="#FFB8B8"/>
<path d="M578.653 808.189L592.299 809.468C591.205 805.664 590.203 801.874 591.02 798.097C592.057 794.725 591.056 792.72 588.319 791.132L586.471 787.009L581.496 786.441C580.178 788.559 579.639 791.07 579.972 793.542C580.681 798.919 580.489 803.908 578.653 808.189Z" fill="#FF5252"/>
<path d="M586.851 776.43C588.274 776.755 589.894 777.216 589.985 777.644C591.449 778.013 592.554 778.896 592.78 780.243C592.799 780.36 592.792 780.479 592.759 780.593C592.727 780.706 592.671 780.811 592.593 780.9C592.516 780.989 592.42 781.061 592.313 781.109C592.205 781.157 592.088 781.181 591.97 781.179C591.174 781.169 589.979 781.093 589.19 780.763C586.897 782.24 586.512 786.082 587.513 788.698L585.938 788.553L584.308 783.782L583.892 788.366L580.296 787.89L580.759 782.045C580.902 780.667 581.371 779.343 582.127 778.183C582.206 778.066 582.292 777.955 582.384 777.849C582.931 777.232 583.635 776.773 584.422 776.523C585.208 776.273 586.048 776.241 586.851 776.43V776.43Z" fill="#2F2E41"/>
<path d="M587.466 812.453L587.371 815.753C587.358 816.208 587.518 816.651 587.819 816.993C588.119 817.335 588.538 817.55 588.991 817.595C589.281 817.624 589.574 817.582 589.844 817.473C590.114 817.364 590.354 817.191 590.542 816.968C590.731 816.746 590.863 816.481 590.926 816.197C590.99 815.912 590.983 815.617 590.907 815.335L590.166 812.595L588.034 800.94L588.176 794.117L583.628 793.975L584.481 801.65L587.466 812.453Z" fill="#FFB8B8"/>
<path d="M583.344 794.686C584.992 794.058 586.813 794.058 588.461 794.686L588.177 789C588.177 788.397 587.938 787.818 587.511 787.392C587.084 786.965 586.506 786.726 585.903 786.726V786.726C585.3 786.726 584.721 786.965 584.295 787.392C583.868 787.818 583.629 788.397 583.629 789L583.344 794.686Z" fill="#FF5252"/>
<path d="M1275.55 204.274C1275.55 214.864 1264.45 219.932 1264.45 219.932C1264.45 219.932 1253.23 214.864 1253 204.274C1252.87 198.049 1258.05 193 1264.28 193C1265.76 193 1267.22 193.292 1268.59 193.858C1269.96 194.425 1271.2 195.255 1272.25 196.302C1273.3 197.349 1274.13 198.592 1274.69 199.96C1275.26 201.327 1275.55 202.793 1275.55 204.274V204.274Z" fill="#FF5252"/>
<path d="M1268.21 220.558H1260.69L1259.78 216.914H1269.12L1268.21 220.558Z" fill="#FFD465"/>
<path d="M1267.95 226.791H1260.95V230.44H1267.95V226.791Z" fill="#FF6584"/>
<path d="M1268.01 230.497H1260.89V226.733H1268.01V230.497ZM1261 230.383H1267.89V226.847H1261V230.383Z" fill="#FFD465"/>
<path d="M1265.88 220.988H1263.01L1262.68 220.47H1266.21L1265.88 220.988Z" fill="#FFD465"/>
<path d="M1260.86 220.559H1260.75V226.139H1260.86V220.559Z" fill="#FFD465"/>
<path d="M1268.15 220.559H1268.03V226.139H1268.15V220.559Z" fill="#FFD465"/>
<path d="M1265.59 216.853L1265.52 216.762C1268.81 214.226 1272.73 209.879 1272.73 203.581C1272.73 201.375 1272.08 199.217 1270.87 197.379C1269.65 195.54 1267.91 194.102 1265.88 193.245L1265.92 193.141C1267.98 194.006 1269.73 195.459 1270.96 197.316C1272.19 199.173 1272.85 201.353 1272.84 203.581C1272.84 209.926 1268.9 214.3 1265.59 216.853Z" fill="#FFD465"/>
<path d="M1261.94 216.853L1261.88 216.763C1265.16 214.226 1269.09 209.879 1269.09 203.581C1269.09 201.39 1268.45 199.247 1267.24 197.416C1266.04 195.585 1264.33 194.147 1262.31 193.279L1262.36 193.174C1264.39 194.051 1266.12 195.504 1267.34 197.353C1268.55 199.203 1269.2 201.368 1269.2 203.581C1269.2 209.926 1265.25 214.3 1261.94 216.853Z" fill="#FFD465"/>
<path d="M1266.61 216.853C1263.3 214.3 1259.35 209.926 1259.35 203.581C1259.35 201.368 1260 199.203 1261.21 197.353C1262.43 195.504 1264.16 194.051 1266.19 193.174L1266.24 193.279C1264.23 194.147 1262.51 195.585 1261.31 197.416C1260.11 199.247 1259.47 201.39 1259.47 203.581C1259.47 209.879 1263.39 214.226 1266.68 216.763L1266.61 216.853Z" fill="#FFD465"/>
<path d="M1262.96 216.853C1259.65 214.3 1255.71 209.925 1255.71 203.581C1255.7 201.344 1256.36 199.156 1257.6 197.294C1258.84 195.432 1260.61 193.98 1262.67 193.121L1262.72 193.226C1260.67 194.076 1258.93 195.514 1257.7 197.357C1256.47 199.2 1255.82 201.366 1255.82 203.581C1255.82 209.879 1259.74 214.225 1263.03 216.762L1262.96 216.853Z" fill="#FFD465"/>
<path d="M1264.33 193H1264.22V216.914H1264.33V193Z" fill="#FFD465"/>
<path d="M1262.99 225.963L1260.91 228.051L1260.99 228.132L1263.07 226.044L1262.99 225.963Z" fill="#FFD465"/>
<path d="M1264.01 225.928L1260.9 229.193L1260.99 229.271L1264.09 226.007L1264.01 225.928Z" fill="#FFD465"/>
<path d="M1268.6 225.968H1260.06V226.993H1268.6V225.968Z" fill="#FF6584"/>
<path d="M1268.66 227.049H1260.01V225.911H1268.66V227.049ZM1260.12 226.936H1268.55V226.025H1260.12V226.936Z" fill="#FFD465"/>
<path d="M1070.25 108.919H1069.9L1069.73 107.543H1070.25V108.919Z" fill="#9F616A"/>
<path d="M1070.34 109.265H1069.19V109.25C1069.19 109.132 1069.24 109.018 1069.32 108.934C1069.41 108.85 1069.52 108.803 1069.64 108.803H1070.34V109.265Z" fill="#2F2E41"/>
<path d="M1074.85 108.243L1074.55 108.427L1073.69 107.335L1074.14 107.064L1074.85 108.243Z" fill="#9F616A"/>
<path d="M1074.12 109.085L1074.11 109.073C1074.05 108.971 1074.03 108.849 1074.06 108.734C1074.09 108.619 1074.17 108.52 1074.27 108.458L1074.87 108.097L1075.11 108.493L1074.12 109.085Z" fill="#2F2E41"/>
<path d="M1070.34 108.635L1070.34 108.635C1070.17 108.635 1069.99 108.625 1069.82 108.605C1069.75 108.599 1069.68 108.592 1069.6 108.585L1069.59 108.584C1069.53 108.567 1069.53 108.017 1069.56 106.136C1069.57 105.173 1069.59 104.08 1069.57 103.385L1069.57 103.378L1069.57 103.374C1069.88 103.102 1070.25 102.907 1070.65 102.805C1071.05 102.704 1071.47 102.699 1071.87 102.79L1071.88 102.791L1071.88 102.796C1072.23 103.389 1072.76 104.244 1073.27 105.07C1074.45 106.966 1074.79 107.524 1074.75 107.566L1074.74 107.57C1074.66 107.61 1074.6 107.641 1074.55 107.667C1074.35 107.772 1074.14 107.866 1073.93 107.948L1073.92 107.952L1073.91 107.945C1072.72 106.638 1071.73 105.179 1071.11 103.83C1071.04 104.291 1070.96 104.892 1070.86 105.528C1070.6 107.355 1070.42 108.558 1070.35 108.631L1070.34 108.635Z" fill="#2F2E41"/>
<path d="M1070.67 103.526C1071.38 103.522 1072.08 103.641 1072.75 103.875C1072.78 102.749 1072.4 101.65 1071.69 100.776L1071.68 100.77L1071.69 100.762C1071.87 100.221 1072.07 99.662 1072.24 99.1055L1072.24 99.0962C1072.12 98.6649 1071.86 98.2291 1071.44 97.7639C1071.4 97.7174 1071.34 97.6896 1071.27 97.6864C1071.21 97.6831 1071.14 97.7045 1071.09 97.7463C1070.73 98.0782 1070.45 98.4884 1070.27 98.9457C1070.09 99.403 1070.01 99.8955 1070.05 100.386L1070.05 100.389L1070.05 100.391C1069.72 101.49 1069.61 102.055 1069.5 102.553C1069.43 102.916 1069.36 103.231 1069.23 103.68C1069.7 103.578 1070.18 103.526 1070.67 103.526V103.526Z" fill="#CBCBCB"/>
<path opacity="0.1" d="M1071.71 100.051L1070.66 102.349L1070.05 101.738L1071.71 100.051Z" fill="black"/>
<path d="M1071.26 97.5402C1071.68 97.5402 1072.01 97.2041 1072.01 96.7894C1072.01 96.3747 1071.68 96.0386 1071.26 96.0386C1070.85 96.0386 1070.51 96.3747 1070.51 96.7894C1070.51 97.2041 1070.85 97.5402 1071.26 97.5402Z" fill="#9F616A"/>
<path d="M1070.35 96.3651H1071.54V95.8454C1071.28 95.7415 1071.03 95.6531 1070.87 95.8454C1070.73 95.8454 1070.6 95.9002 1070.5 95.9976C1070.41 96.0951 1070.35 96.2273 1070.35 96.3651V96.3651Z" fill="#2F2E41"/>
<path d="M1071.61 95.7539C1072.32 95.7539 1072.52 96.6473 1072.52 97.1513C1072.52 97.4323 1072.39 97.5329 1072.19 97.5669L1072.12 97.1907L1071.96 97.5831C1071.9 97.5834 1071.84 97.5823 1071.78 97.5811L1071.73 97.4658L1071.6 97.5791C1071.1 97.5798 1070.7 97.6527 1070.7 97.1513C1070.7 96.6473 1070.87 95.7539 1071.61 95.7539Z" fill="#2F2E41"/>
<path d="M1093.14 61.0662C1093.14 80.8556 1072.39 90.3247 1072.39 90.3247C1072.39 90.3247 1051.43 80.8556 1051 61.0662C1050.75 49.4343 1060.44 40 1072.07 40C1083.71 40 1093.14 49.4317 1093.14 61.0662Z" fill="#FFD465"/>
<path d="M1072.83 108.764H1072.4L1072.19 107.077H1072.83V108.764Z" fill="#FFB7B7"/>
<path d="M1072.09 108.639H1072.93V109.17H1071.55C1071.55 109.1 1071.57 109.031 1071.6 108.966C1071.62 108.902 1071.66 108.844 1071.71 108.794C1071.76 108.745 1071.82 108.706 1071.88 108.679C1071.95 108.652 1072.02 108.639 1072.09 108.639Z" fill="#2F2E41"/>
<path d="M1074.48 108.764H1074.04L1073.83 107.077H1074.48L1074.48 108.764Z" fill="#FFB7B7"/>
<path d="M1073.73 108.639H1074.57V109.17H1073.2C1073.2 109.029 1073.25 108.894 1073.35 108.794C1073.45 108.695 1073.59 108.639 1073.73 108.639Z" fill="#2F2E41"/>
<path d="M1074.42 103.74C1074.37 103.71 1074.34 103.67 1074.31 103.622C1074.28 103.575 1074.26 103.521 1074.25 103.466C1074.24 103.41 1074.25 103.354 1074.26 103.3C1074.28 103.247 1074.31 103.198 1074.35 103.157L1074.06 99.0708L1074.89 99.1512L1074.91 103.153C1074.98 103.222 1075.01 103.312 1075.02 103.406C1075.02 103.5 1074.99 103.592 1074.93 103.664C1074.87 103.737 1074.78 103.785 1074.69 103.798C1074.6 103.812 1074.5 103.792 1074.42 103.74Z" fill="#FFB7B7"/>
<path d="M1072.81 107.914L1072.33 107.891C1072.29 107.889 1072.25 107.872 1072.22 107.842C1072.2 107.812 1072.18 107.773 1072.18 107.732L1072.15 102.861C1072.15 102.838 1072.15 102.815 1072.16 102.794C1072.17 102.773 1072.18 102.754 1072.2 102.739C1072.22 102.724 1072.24 102.712 1072.26 102.706C1072.28 102.699 1072.31 102.698 1072.33 102.701L1074.26 102.98C1074.29 102.986 1074.33 103.005 1074.35 103.034C1074.38 103.063 1074.39 103.1 1074.39 103.138L1074.64 107.652C1074.64 107.673 1074.64 107.694 1074.63 107.713C1074.62 107.733 1074.61 107.751 1074.59 107.766C1074.58 107.781 1074.56 107.793 1074.54 107.801C1074.52 107.809 1074.5 107.813 1074.48 107.813H1073.96C1073.92 107.814 1073.89 107.8 1073.86 107.775C1073.83 107.75 1073.81 107.716 1073.8 107.678C1073.8 107.678 1073.41 104.292 1073.36 104.294C1073.3 104.295 1072.98 107.773 1072.98 107.773C1072.98 107.812 1072.96 107.848 1072.93 107.874C1072.9 107.9 1072.86 107.914 1072.82 107.914C1072.82 107.914 1072.82 107.914 1072.81 107.914Z" fill="#2F2E41"/>
<path d="M1074.25 100.444C1074.23 100.43 1074.21 100.412 1074.2 100.391C1074.19 100.37 1074.18 100.346 1074.18 100.322L1074.12 99.221C1074.12 99.1119 1074.15 99.0044 1074.22 98.9193C1074.29 98.8342 1074.39 98.7774 1074.49 98.76C1074.6 98.7426 1074.71 98.7658 1074.8 98.825C1074.89 98.8843 1074.96 98.9755 1074.99 99.0809L1075.26 100.066C1075.27 100.107 1075.26 100.151 1075.24 100.187C1075.22 100.224 1075.19 100.251 1075.14 100.263L1074.38 100.468C1074.36 100.475 1074.34 100.476 1074.31 100.472C1074.29 100.467 1074.27 100.458 1074.25 100.444V100.444Z" fill="#3F3D56"/>
<path d="M1073.54 97.8259C1074.02 97.8259 1074.42 97.4337 1074.42 96.9498C1074.42 96.466 1074.02 96.0737 1073.54 96.0737C1073.06 96.0737 1072.66 96.466 1072.66 96.9498C1072.66 97.4337 1073.06 97.8259 1073.54 97.8259Z" fill="#FFB7B7"/>
<path d="M1074.16 97.6433C1074.12 97.6828 1074.08 97.7111 1074.02 97.7247C1073.97 97.7383 1073.92 97.7368 1073.87 97.7203C1073.81 97.7038 1073.77 97.673 1073.73 97.6315C1073.7 97.59 1073.68 97.5396 1073.67 97.4861C1073.67 97.4677 1073.67 97.4491 1073.67 97.4307C1073.68 97.3253 1073.74 97.2296 1073.73 97.1184C1073.73 97.0907 1073.72 97.0643 1073.7 97.0418C1073.57 96.8674 1073.26 97.1198 1073.14 96.9619C1073.06 96.8651 1073.15 96.7126 1073.1 96.6044C1073.02 96.4616 1072.79 96.5321 1072.65 96.4539C1072.49 96.3669 1072.5 96.1248 1072.61 95.9776C1072.67 95.8906 1072.76 95.8196 1072.86 95.7696C1072.96 95.7196 1073.06 95.6919 1073.17 95.6884C1073.4 95.6832 1073.61 95.726 1073.82 95.8137C1074.06 95.8914 1074.27 96.0376 1074.42 96.2341C1074.5 96.363 1074.56 96.5083 1074.57 96.6594C1074.59 96.8106 1074.58 96.9639 1074.53 97.1081C1074.47 97.285 1074.29 97.5012 1074.16 97.6433Z" fill="#2F2E41"/>
<path d="M1074.41 98.4114C1074.4 98.4004 1074.38 98.3897 1074.37 98.3792C1074.28 98.3232 1074.19 98.2785 1074.1 98.2463V98.0161H1073.42V98.2297C1073.19 98.2917 1072.99 98.4183 1072.84 98.5939C1072.69 98.7695 1072.59 98.9863 1072.56 99.2173L1072.1 102.643C1072.09 102.665 1072.09 102.687 1072.1 102.708C1072.11 102.728 1072.11 102.748 1072.13 102.765C1072.14 102.782 1072.16 102.796 1072.18 102.806C1072.2 102.816 1072.22 102.822 1072.24 102.824C1072.56 102.866 1072.87 102.973 1073.15 103.138C1073.36 103.251 1073.59 103.31 1073.82 103.309C1074.01 103.308 1074.19 103.275 1074.36 103.212C1074.39 103.201 1074.42 103.182 1074.44 103.156C1074.46 103.131 1074.47 103.1 1074.47 103.069C1074.48 102.7 1074.58 100.802 1074.86 99.6446C1074.92 99.4175 1074.91 99.1792 1074.83 98.9598C1074.75 98.7403 1074.6 98.5495 1074.41 98.4114Z" fill="#3F3D56"/>
<path d="M1079.41 91.4953H1065.37L1063.67 84.686H1081.11L1079.41 91.4953Z" fill="#3F3D56"/>
<path d="M1078.93 103.14H1065.85V109.96H1078.93V103.14Z" fill="#BB37E9"/>
<path d="M1079.04 110.066H1065.74V103.034H1079.04V110.066ZM1065.95 109.853H1078.83V103.246H1065.95V109.853Z" fill="#3F3D56"/>
<path d="M1075.07 92.2981H1069.71L1069.09 91.3306H1075.69L1075.07 92.2981Z" fill="#3F3D56"/>
<path d="M1065.69 91.4951H1065.47V101.922H1065.69V91.4951Z" fill="#3F3D56"/>
<path d="M1079.31 91.4951H1079.09V101.922H1079.31V91.4951Z" fill="#3F3D56"/>
<path d="M1074.52 84.5706L1074.39 84.4021C1080.54 79.6616 1087.87 71.5402 1087.87 59.7713C1087.87 55.6494 1086.66 51.6178 1084.38 48.1821C1082.11 44.7464 1078.87 42.0596 1075.07 40.4587L1075.15 40.2627C1078.99 41.8799 1082.26 44.594 1084.56 48.0645C1086.86 51.5351 1088.09 55.6076 1088.08 59.7713C1088.08 71.6267 1080.71 79.8009 1074.52 84.5706Z" fill="#3F3D56"/>
<path d="M1067.71 84.5707L1067.58 84.4022C1073.73 79.6617 1081.06 71.5403 1081.06 59.7714C1081.06 55.6772 1079.86 51.6722 1077.61 48.2511C1075.37 44.83 1072.16 42.1427 1068.4 40.521L1068.49 40.3257C1072.29 41.9638 1075.52 44.6784 1077.79 48.1342C1080.06 51.59 1081.27 55.6357 1081.27 59.7714C1081.27 71.6268 1073.9 79.8011 1067.71 84.5707Z" fill="#3F3D56"/>
<path d="M1076.43 84.5703C1070.24 79.8006 1062.87 71.6264 1062.87 59.771C1062.87 55.6352 1064.08 51.5895 1066.35 48.1337C1068.62 44.6779 1071.86 41.9632 1075.65 40.3252L1075.74 40.5205C1071.98 42.1421 1068.78 44.8295 1066.53 48.2506C1064.28 51.6717 1063.08 55.6767 1063.08 59.771C1063.08 71.5399 1070.41 79.6612 1076.56 84.4017L1076.43 84.5703Z" fill="#3F3D56"/>
<path d="M1069.62 84.5703C1063.43 79.8006 1056.06 71.6265 1056.06 59.771C1056.05 55.5909 1057.29 51.5026 1059.6 48.0235C1061.92 44.5444 1065.22 41.8308 1069.08 40.2261L1069.16 40.4224C1065.34 42.011 1062.08 44.6974 1059.78 48.1415C1057.49 51.5857 1056.27 55.6329 1056.27 59.771C1056.27 71.54 1063.6 79.6613 1069.75 84.4018L1069.62 84.5703Z" fill="#3F3D56"/>
<path d="M1072.18 40H1071.96V84.6858H1072.18V40Z" fill="#3F3D56"/>
<path d="M1069.67 101.594L1065.77 105.496L1065.92 105.646L1069.82 101.744L1069.67 101.594Z" fill="#3F3D56"/>
<path d="M1071.57 101.529L1065.77 107.629L1065.92 107.776L1071.72 101.676L1071.57 101.529Z" fill="#3F3D56"/>
<path d="M1080.16 101.603H1064.2V103.518H1080.16V101.603Z" fill="#BB37E9"/>
<path d="M1080.26 103.624H1064.09V101.496H1080.26V103.624ZM1064.3 103.411H1080.05V101.709H1064.3V103.411Z" fill="#3F3D56"/>
<path d="M1069.36 102.493C1069.4 102.49 1069.44 102.478 1069.48 102.457C1069.52 102.436 1069.55 102.408 1069.58 102.373C1069.6 102.339 1069.62 102.299 1069.63 102.257C1069.63 102.215 1069.63 102.172 1069.62 102.13L1070.49 101.56L1070 101.346L1069.25 101.92C1069.18 101.942 1069.12 101.989 1069.08 102.051C1069.05 102.113 1069.03 102.186 1069.05 102.257C1069.06 102.327 1069.1 102.39 1069.16 102.434C1069.22 102.478 1069.29 102.499 1069.36 102.493H1069.36Z" fill="#9F616A"/>
<path d="M1070.2 102.083L1070.18 102.075C1069.98 101.923 1069.75 101.765 1069.53 101.613L1069.51 101.604L1069.52 101.592C1070 101.037 1070.47 100.457 1070.93 99.8966L1070.93 99.8946L1070.93 99.8924L1070.94 99.8901L1070.94 99.8909L1070.94 99.8895L1070.93 99.8905L1070.79 98.7806C1070.72 98.6652 1070.68 98.5322 1070.68 98.3972C1070.69 98.2623 1070.73 98.1308 1070.8 98.0183C1070.89 97.8969 1071.02 97.8114 1071.16 97.7783C1071.31 97.7452 1071.46 97.7668 1071.59 97.8389C1071.65 97.882 1071.71 97.939 1071.74 98.0056C1071.78 98.0723 1071.81 98.1469 1071.81 98.2239C1071.82 98.2925 1071.82 98.3623 1071.8 98.4282C1071.77 98.4941 1071.74 98.5543 1071.69 98.6046C1071.74 99.1433 1071.76 99.684 1071.76 100.225L1071.76 100.23L1071.75 100.234C1071.26 100.856 1070.72 101.475 1070.2 102.073L1070.2 102.083Z" fill="#CBCBCB"/>
<path d="M1070.36 98.6712C1070.37 98.6904 1070.37 98.71 1070.37 98.7297L1071.91 99.6137L1072.28 99.3993L1072.68 99.9191L1071.88 100.487L1070.13 99.1078C1070.06 99.1342 1069.98 99.1383 1069.91 99.1195C1069.83 99.1006 1069.77 99.0598 1069.72 99.0025C1069.67 98.9451 1069.64 98.874 1069.63 98.7984C1069.62 98.7229 1069.63 98.6465 1069.67 98.5795C1069.71 98.5126 1069.76 98.4581 1069.83 98.4235C1069.9 98.3888 1069.97 98.3756 1070.05 98.3855C1070.12 98.3955 1070.2 98.4281 1070.25 98.4792C1070.31 98.5302 1070.35 98.5972 1070.36 98.6712H1070.36Z" fill="#FFB7B7"/>
<path d="M1071.96 99.5385C1071.96 99.5147 1071.96 99.4906 1071.97 99.4681C1071.98 99.4455 1071.99 99.425 1072.01 99.4081L1072.79 98.6281C1072.86 98.5508 1072.97 98.5049 1073.08 98.4991C1073.18 98.4934 1073.29 98.5283 1073.38 98.597C1073.46 98.6658 1073.52 98.7636 1073.54 98.8715C1073.55 98.9794 1073.53 99.0899 1073.47 99.1815L1072.91 100.037C1072.89 100.073 1072.85 100.098 1072.81 100.107C1072.77 100.116 1072.73 100.108 1072.69 100.085L1072.03 99.6563C1072.01 99.6433 1072 99.626 1071.98 99.6056C1071.97 99.5852 1071.96 99.5623 1071.96 99.5385V99.5385Z" fill="#3F3D56"/>
<path d="M562.08 555.346C577.201 555.346 589.459 543.063 589.459 527.911C589.459 512.759 577.201 500.477 562.08 500.477C546.958 500.477 534.7 512.759 534.7 527.911C534.7 543.063 546.958 555.346 562.08 555.346Z" fill="#0C6F16"/>
<path opacity="0.2" d="M541.864 509.587C539.31 515.573 538.963 522.274 540.886 528.492C542.809 534.711 546.876 540.041 552.36 543.532C557.844 547.022 564.389 548.445 570.823 547.546C577.258 546.646 583.164 543.484 587.486 538.623C585.926 542.28 583.591 545.554 580.643 548.217C577.695 550.88 574.204 552.869 570.412 554.047C566.621 555.224 562.619 555.561 558.685 555.035C554.751 554.509 550.977 553.132 547.627 550.999C544.276 548.867 541.428 546.03 539.281 542.685C537.133 539.34 535.736 535.568 535.188 531.628C534.64 527.689 534.953 523.678 536.106 519.872C537.258 516.066 539.223 512.556 541.864 509.587V509.587Z" fill="black"/>
<path d="M562.155 527.911H562.23L563.584 605.693H560.726L562.155 527.911Z" fill="#3F3D56"/>
<path d="M506.683 504.184C537.17 504.184 561.885 479.42 561.885 448.871C561.885 418.323 537.17 393.558 506.683 393.558C476.195 393.558 451.48 418.323 451.48 448.871C451.48 479.42 476.195 504.184 506.683 504.184Z" fill="#0C6F16"/>
<path opacity="0.2" d="M465.923 411.926C460.774 423.995 460.076 437.506 463.953 450.043C467.829 462.58 476.029 473.328 487.086 480.365C498.144 487.403 511.338 490.271 524.312 488.458C537.285 486.645 549.193 480.268 557.906 470.468C554.761 477.842 550.053 484.442 544.109 489.811C538.165 495.181 531.127 499.192 523.483 501.565C515.839 503.939 507.771 504.618 499.838 503.558C491.906 502.497 484.298 499.72 477.543 495.421C470.788 491.121 465.046 485.402 460.716 478.658C456.385 471.914 453.57 464.308 452.465 456.366C451.359 448.424 451.991 440.336 454.314 432.662C456.638 424.989 460.599 417.913 465.923 411.926V411.926Z" fill="black"/>
<path d="M506.834 448.871H506.986L509.716 605.693H503.953L506.834 448.871Z" fill="#3F3D56"/>
<path d="M519.99 594.967C527.899 597.242 527.992 586.042 529.251 581.003C524.78 584.053 517.243 588.401 520.019 594.83" fill="#0C6F16"/>
<path d="M520.426 603.656C519.387 597.768 519.321 590.311 525.087 586.831C525.362 586.657 525.616 587.095 525.342 587.268C519.775 590.642 519.941 597.846 520.913 603.521C520.928 603.585 520.918 603.652 520.885 603.708C520.852 603.765 520.798 603.806 520.734 603.824C520.671 603.841 520.604 603.833 520.546 603.802C520.489 603.77 520.446 603.718 520.426 603.655L520.426 603.656Z" fill="#3F3D56"/>
<path d="M522.985 599.49C526.604 604.358 531.644 597.84 534.624 595.451C530.649 595.239 524.299 594.418 523.064 599.424" fill="#0C6F16"/>
<path d="M519.421 605.148C521.467 601.224 524.734 596.786 529.714 597.346C530.038 597.374 529.957 597.874 529.634 597.846C524.903 597.355 521.825 601.618 519.883 605.354C519.724 605.635 519.261 605.432 519.421 605.148Z" fill="#3F3D56"/>
<path d="M921.818 594.967C913.91 597.242 913.816 586.042 912.558 581.003C917.028 584.053 924.565 588.401 921.789 594.83" fill="#0C6F16"/>
<path d="M921.382 603.656C922.42 597.768 922.486 590.311 916.72 586.831C916.445 586.657 916.191 587.095 916.466 587.268C922.032 590.642 921.867 597.846 920.894 603.521C920.879 603.585 920.889 603.652 920.922 603.708C920.956 603.765 921.01 603.806 921.073 603.824C921.136 603.841 921.204 603.833 921.261 603.802C921.319 603.77 921.362 603.718 921.381 603.655L921.382 603.656Z" fill="#3F3D56"/>
<path d="M918.823 599.49C915.204 604.358 910.164 597.84 907.184 595.451C911.159 595.239 917.509 594.418 918.744 599.424" fill="#0C6F16"/>
<path d="M922.387 605.148C920.341 601.224 917.074 596.786 912.094 597.346C911.77 597.374 911.851 597.874 912.174 597.846C916.905 597.355 919.983 601.618 921.925 605.354C922.084 605.635 922.547 605.432 922.387 605.148Z" fill="#3F3D56"/>
<path d="M955.073 587.147C941.287 591.113 941.123 571.59 938.93 562.805C946.722 568.122 959.861 575.702 955.022 586.909" fill="#0C6F16"/>
<path d="M954.312 602.293C956.123 592.03 956.237 579.031 946.187 572.965C945.707 572.661 945.265 573.424 945.743 573.727C955.446 579.608 955.158 592.166 953.462 602.058C953.436 602.17 953.454 602.287 953.512 602.386C953.57 602.484 953.664 602.556 953.774 602.587C953.884 602.617 954.002 602.603 954.102 602.548C954.203 602.494 954.278 602.402 954.312 602.293L954.312 602.293Z" fill="#3F3D56"/>
<path d="M949.851 595.032C943.542 603.518 934.757 592.156 929.562 587.991C936.491 587.622 947.561 586.191 949.714 594.916" fill="#0C6F16"/>
<path d="M956.065 604.894C952.499 598.054 946.804 590.318 938.122 591.294C937.558 591.343 937.699 592.214 938.262 592.166C946.508 591.31 951.874 598.742 955.26 605.254C955.537 605.744 956.344 605.39 956.065 604.894Z" fill="#3F3D56"/>
<path d="M458.958 603.421H461.286L462.394 594.421H458.958V603.421Z" fill="#FFB6B6"/>
<path d="M458.364 602.658L462.95 602.658H462.95C463.725 602.658 464.469 602.967 465.017 603.516C465.565 604.065 465.873 604.81 465.873 605.587V605.682L458.364 605.682L458.364 602.658Z" fill="#2F2E41"/>
<path d="M469.975 603.421H472.304L473.412 594.421H469.975L469.975 603.421Z" fill="#FFB6B6"/>
<path d="M469.381 602.658L473.967 602.658H473.967C474.742 602.658 475.485 602.967 476.033 603.516C476.581 604.065 476.889 604.81 476.889 605.587V605.682L469.381 605.682L469.381 602.658Z" fill="#2F2E41"/>
<path d="M474.321 562.276C474.518 562.052 474.663 561.786 474.747 561.5C474.83 561.213 474.85 560.911 474.804 560.615C474.759 560.32 474.649 560.038 474.483 559.79C474.317 559.541 474.099 559.333 473.844 559.178L470.054 540.947L465.926 542.577L470.949 559.985C470.718 560.432 470.659 560.948 470.782 561.435C470.906 561.923 471.204 562.349 471.619 562.631C472.035 562.913 472.539 563.033 473.037 562.968C473.535 562.903 473.992 562.656 474.321 562.276H474.321Z" fill="#FFB6B6"/>
<path d="M456.462 558.765L454.745 560.511C454.745 560.511 452.905 567.268 456.426 575.602L458.782 599.763L463.019 600.082L464.284 571.973L470.121 581.304L469.101 599.982L473.785 599.875L475.902 579.177L470.121 557.579L456.462 558.765Z" fill="#C99F0A"/>
<path d="M462.462 561.117C459.878 561.099 457.297 560.928 454.732 560.605L454.629 560.592L457.187 549.327L456.306 534.834L464.623 534.549C465.376 534.522 466.112 534.774 466.691 535.257C467.269 535.741 467.649 536.421 467.758 537.168L469.46 548.731L471.035 558.99L471.014 559.021C469.882 560.683 466.099 561.117 462.462 561.117Z" fill="#E82B9C"/>
<path d="M463.866 536.946L465.556 534.824C465.556 534.824 468.519 532.794 469.456 537.144C470.394 541.494 472.136 548.555 472.136 548.555L466.343 549.025L463.866 536.946Z" fill="#E82B9C"/>
<path d="M447.853 562.467C447.656 562.242 447.511 561.977 447.427 561.69C447.344 561.403 447.324 561.101 447.37 560.806C447.415 560.51 447.525 560.229 447.691 559.98C447.857 559.732 448.075 559.523 448.33 559.368L452.12 541.138L456.248 542.768L451.225 560.175C451.456 560.622 451.515 561.138 451.392 561.626C451.268 562.114 450.97 562.539 450.555 562.821C450.139 563.104 449.634 563.224 449.136 563.158C448.639 563.093 448.182 562.847 447.853 562.467V562.467Z" fill="#FFB6B6"/>
<path d="M458.307 537.137L456.618 535.014C456.618 535.014 453.655 532.984 452.718 537.334C451.78 541.684 450.038 548.746 450.038 548.746L455.831 549.216L458.307 537.137Z" fill="#E82B9C"/>
<path d="M465.429 532.43H454.412C454.186 532.429 453.968 532.339 453.808 532.178C453.648 532.018 453.558 531.8 453.558 531.573V526.815C453.558 525.124 454.228 523.503 455.421 522.307C456.615 521.111 458.233 520.439 459.921 520.439C461.608 520.439 463.227 521.111 464.42 522.307C465.613 523.503 466.283 525.124 466.283 526.815V531.573C466.283 531.8 466.193 532.018 466.033 532.178C465.873 532.339 465.655 532.429 465.429 532.43Z" fill="#2F2E41"/>
<path d="M461.137 532.143C463.713 532.143 465.802 530.05 465.802 527.468C465.802 524.887 463.713 522.794 461.137 522.794C458.56 522.794 456.472 524.887 456.472 527.468C456.472 530.05 458.56 532.143 461.137 532.143Z" fill="#FFB6B6"/>
<path d="M459.5 530H463.5L463 532.5L464 534.5L459 535L459.5 530Z" fill="#FFB6B6"/>
<path d="M460.998 533.318C460.947 533.318 460.897 533.313 460.847 533.304L455.914 532.432V524.264H461.344L461.209 524.421C459.339 526.606 460.748 530.151 461.755 532.069C461.829 532.209 461.862 532.368 461.85 532.526C461.838 532.685 461.782 532.837 461.688 532.964C461.609 533.074 461.505 533.163 461.385 533.224C461.265 533.286 461.133 533.318 460.998 533.318V533.318Z" fill="#2F2E41"/>
<path d="M467.789 527.291H461.053L460.983 526.322L460.638 527.291H459.601L459.464 525.37L458.779 527.291H456.772V527.196C456.774 525.859 457.305 524.577 458.248 523.631C459.192 522.686 460.471 522.154 461.806 522.152H462.755C464.09 522.154 465.369 522.686 466.313 523.631C467.257 524.577 467.787 525.859 467.789 527.196V527.291Z" fill="#2F2E41"/>
</g>
<defs>
<linearGradient id="paint0_linear" x1="1151" y1="373" x2="1151" y2="437" gradientUnits="userSpaceOnUse">
<stop stop-color="#A8EBAF"/>
<stop offset="0.34375" stop-color="#7AD083"/>
<stop offset="1" stop-color="#229D2E"/>
</linearGradient>
<clipPath id="clip0">
<rect width="1440" height="1024" fill="white"/>
</clipPath>
<clipPath id="clip1">
<rect width="252" height="115" fill="white" transform="translate(284 655)"/>
</clipPath>
</defs>
</svg>
