<svg width="169" height="242" viewBox="0 0 169 242" fill="none" xmlns="http://www.w3.org/2000/svg">
<path d="M158.026 27.9827H127.313V0L158.026 27.9827Z" fill="#163892"/>
<path d="M161.614 27.0669H7.1084V241H161.614V27.0669Z" fill="#53C6E2"/>
<path d="M40.7015 42.0664H22.5244V80.4534H40.7015V42.0664Z" fill="#00FF85"/>
<path d="M68.8177 42.0664H50.6406V80.4534H68.8177V42.0664Z" fill="#00FF85"/>
<path d="M38.3051 96.4751H20.1279V134.862H38.3051V96.4751Z" fill="#00FF85"/>
<path d="M68.8177 96.4751H50.6406V134.862H68.8177V96.4751Z" fill="#00FF85"/>
<path d="M38.3051 146.817H20.1279V185.204H38.3051V146.817Z" fill="#00FF85"/>
<path d="M68.1342 146.131H49.957V184.518H68.1342V146.131Z" fill="#00FF85"/>
<path d="M94.5531 202.699H76.376V241.086H94.5531V202.699Z" fill="#FF0000"/>
<path d="M122.016 146.131H103.839V184.518H122.016V146.131Z" fill="#00FF85"/>
<path d="M152.527 146.131H134.35V184.518H152.527V146.131Z" fill="#00FF85"/>
<path d="M122.7 96.0684H104.522V134.455H122.7V96.0684Z" fill="#00FF85"/>
<path d="M153.212 96.0684H135.035V134.455H153.212V96.0684Z" fill="#00FF85"/>
<path d="M122.7 42.0664H104.522V80.4534H122.7V42.0664Z" fill="#00FF85"/>
<path d="M153.212 42.0664H135.035V80.4534H153.212V42.0664Z" fill="#00FF85"/>
<path d="M161.614 76.5142H7.1084V82.3698H161.614V76.5142Z" fill="#163892"/>
<path d="M161.614 122.058H7.1084V125.311H161.614V122.058Z" fill="#163892"/>
<path d="M161.614 111.648H7.1084V114.902H161.614V111.648Z" fill="#163892"/>
<path d="M22.3652 187.771V161.746H19.1193V187.771H22.3652Z" fill="#163892"/>
<path d="M40.543 187.771V161.746H37.2971V187.771H40.543Z" fill="#163892"/>
<path d="M58.7197 187.771V161.746H55.4738V187.771H58.7197Z" fill="#163892"/>
<path d="M76.8975 187.771V161.746H73.6515V187.771H76.8975Z" fill="#163892"/>
<path d="M95.0732 187.771V161.746H91.8273V187.771H95.0732Z" fill="#163892"/>
<path d="M113.253 187.771V161.746H110.007V187.771H113.253Z" fill="#163892"/>
<path d="M131.429 187.771V161.746H128.183V187.771H131.429Z" fill="#163892"/>
<path d="M149.605 187.771V161.746H146.36V187.771H149.605Z" fill="#163892"/>
<path d="M22.6904 138.324V112.299H19.4445V138.324H22.6904Z" fill="#163892"/>
<path d="M40.8682 138.324V112.299H37.6222V138.324H40.8682Z" fill="#163892"/>
<path d="M59.0439 138.324V112.299H55.798V138.324H59.0439Z" fill="#163892"/>
<path d="M77.2227 138.324V112.299H73.9767V138.324H77.2227Z" fill="#163892"/>
<path d="M95.3984 138.324V112.299H92.1525V138.324H95.3984Z" fill="#163892"/>
<path d="M113.574 138.324V112.299H110.328V138.324H113.574Z" fill="#163892"/>
<path d="M131.754 138.324V112.299H128.508V138.324H131.754Z" fill="#163892"/>
<path d="M149.93 138.324V112.299H146.684V138.324H149.93Z" fill="#163892"/>
<path d="M22.6904 80.4181V54.3931H19.4445V80.4181H22.6904Z" fill="#163892"/>
<path d="M40.8682 80.4181V54.3931H37.6222V80.4181H40.8682Z" fill="#163892"/>
<path d="M59.0439 80.4181V54.3931H55.798V80.4181H59.0439Z" fill="#163892"/>
<path d="M77.2207 80.4181V54.3931H73.9748V80.4181H77.2207Z" fill="#163892"/>
<path d="M95.3984 80.4182V54.3931H92.1525V80.4182H95.3984Z" fill="#163892"/>
<path d="M113.574 80.4181V54.3931H110.328V80.4181H113.574Z" fill="#163892"/>
<path d="M131.754 80.4182V54.3931H128.508V80.4182H131.754Z" fill="#163892"/>
<path d="M149.93 80.4181V54.3931H146.684V80.4181H149.93Z" fill="#163892"/>
<path d="M161.614 63.502H7.1084V66.7551H161.614V63.502Z" fill="#163892"/>
<path d="M161.614 53.0918H7.1084V56.3449H161.614V53.0918Z" fill="#163892"/>
<path d="M161.614 133.119H7.1084V138.974H161.614V133.119Z" fill="#163892"/>
<path d="M168.725 24.6597H0V33.3855H168.725V24.6597Z" fill="#163892"/>
<path d="M40.7356 210.999V202.699H30.7969V210.999H39.9072H40.7356Z" fill="#00FF85"/>
<path d="M39.9072 217.64H30.7969V225.94H40.7356V217.64H39.9072Z" fill="#00FF85"/>
<path d="M57.3009 202.699H47.3623V210.999H57.3009V202.699Z" fill="#00FF85"/>
<path d="M57.3009 217.64H47.3623V225.94H57.3009V217.64Z" fill="#00FF85"/>
<path d="M121.797 210.999V202.699H111.858V210.999H120.969H121.797Z" fill="#00FF85"/>
<path d="M120.969 217.64H111.858V225.94H121.797V217.64H120.969Z" fill="#00FF85"/>
<path d="M138.361 202.699H128.423V210.999H138.361V202.699Z" fill="#00FF85"/>
<path d="M138.361 217.64H128.423V225.94H138.361V217.64Z" fill="#00FF85"/>
<path d="M161.614 182.567H7.1084V188.423H161.614V182.567Z" fill="#163892"/>
<path d="M161.614 172.156H7.1084V175.409H161.614V172.156Z" fill="#163892"/>
<path d="M161.614 161.746H7.1084V164.999H161.614V161.746Z" fill="#163892"/>
<rect x="8" y="83" width="153" height="32" fill="#D5F3FB" stroke="#6C63FF" stroke-width="2"/>
<g filter="url(#filter0_d)">
<path d="M41.852 103.07C40.8907 103.07 40.0227 102.855 39.248 102.426C38.4827 101.997 37.876 101.404 37.428 100.648C36.9893 99.892 36.77 99.0427 36.77 98.1C36.77 97.1573 36.9893 96.308 37.428 95.552C37.876 94.796 38.4827 94.2033 39.248 93.774C40.0227 93.3447 40.8907 93.13 41.852 93.13C42.5613 93.13 43.2147 93.2467 43.812 93.48C44.4093 93.704 44.918 94.04 45.338 94.488L44.89 94.95C44.106 94.1753 43.1027 93.788 41.88 93.788C41.0587 93.788 40.312 93.9747 39.64 94.348C38.968 94.7213 38.4407 95.2393 38.058 95.902C37.6753 96.5553 37.484 97.288 37.484 98.1C37.484 98.912 37.6753 99.6493 38.058 100.312C38.4407 100.965 38.968 101.479 39.64 101.852C40.312 102.225 41.0587 102.412 41.88 102.412C43.0933 102.412 44.0967 102.02 44.89 101.236L45.338 101.698C44.918 102.146 44.4047 102.487 43.798 102.72C43.2007 102.953 42.552 103.07 41.852 103.07ZM47.7295 93.2H48.4435V102.356H54.0855V103H47.7295V93.2ZM59.5635 103.07C58.3222 103.07 57.3562 102.711 56.6655 101.992C55.9842 101.273 55.6435 100.223 55.6435 98.842V93.2H56.3575V98.814C56.3575 100.018 56.6329 100.919 57.1835 101.516C57.7342 102.113 58.5322 102.412 59.5775 102.412C60.6135 102.412 61.4069 102.113 61.9575 101.516C62.5082 100.919 62.7835 100.018 62.7835 98.814V93.2H63.4975V98.842C63.4975 100.223 63.1522 101.273 62.4615 101.992C61.7709 102.711 60.8049 103.07 59.5635 103.07ZM72.6531 97.946C73.3531 98.0767 73.8851 98.352 74.2491 98.772C74.6224 99.192 74.8091 99.738 74.8091 100.41C74.8091 101.241 74.5058 101.88 73.8991 102.328C73.2924 102.776 72.3918 103 71.1971 103H66.8291V93.2H70.9171C71.9811 93.2 72.8071 93.4193 73.3951 93.858C73.9924 94.2873 74.2911 94.9033 74.2911 95.706C74.2911 96.266 74.1418 96.7373 73.8431 97.12C73.5538 97.5027 73.1571 97.778 72.6531 97.946ZM67.5431 93.816V97.722H70.8891C71.7478 97.722 72.4058 97.5587 72.8631 97.232C73.3298 96.896 73.5631 96.406 73.5631 95.762C73.5631 95.1273 73.3298 94.6467 72.8631 94.32C72.4058 93.984 71.7478 93.816 70.8891 93.816H67.5431ZM71.1971 102.384C72.1491 102.384 72.8678 102.221 73.3531 101.894C73.8478 101.558 74.0951 101.045 74.0951 100.354C74.0951 99.6633 73.8478 99.1547 73.3531 98.828C72.8678 98.5013 72.1491 98.338 71.1971 98.338H67.5431V102.384H71.1971ZM88.9321 93.2V103H88.2181V98.338H81.6661V103H80.9521V93.2H81.6661V97.708H88.2181V93.2H88.9321ZM96.5125 103.07C95.5512 103.07 94.6832 102.855 93.9085 102.426C93.1338 101.987 92.5225 101.39 92.0745 100.634C91.6358 99.878 91.4165 99.0333 91.4165 98.1C91.4165 97.1667 91.6358 96.322 92.0745 95.566C92.5225 94.81 93.1338 94.2173 93.9085 93.788C94.6832 93.3493 95.5512 93.13 96.5125 93.13C97.4738 93.13 98.3418 93.3447 99.1165 93.774C99.8912 94.2033 100.498 94.796 100.936 95.552C101.384 96.308 101.608 97.1573 101.608 98.1C101.608 99.0427 101.384 99.892 100.936 100.648C100.498 101.404 99.8912 101.997 99.1165 102.426C98.3418 102.855 97.4738 103.07 96.5125 103.07ZM96.5125 102.412C97.3338 102.412 98.0758 102.225 98.7385 101.852C99.4012 101.479 99.9238 100.965 100.306 100.312C100.689 99.6493 100.88 98.912 100.88 98.1C100.88 97.288 100.689 96.5553 100.306 95.902C99.9238 95.2393 99.4012 94.7213 98.7385 94.348C98.0758 93.9747 97.3338 93.788 96.5125 93.788C95.6912 93.788 94.9445 93.9747 94.2725 94.348C93.6098 94.7213 93.0872 95.2393 92.7045 95.902C92.3218 96.5553 92.1305 97.288 92.1305 98.1C92.1305 98.912 92.3218 99.6493 92.7045 100.312C93.0872 100.965 93.6098 101.479 94.2725 101.852C94.9445 102.225 95.6912 102.412 96.5125 102.412ZM107.921 103.07C106.68 103.07 105.714 102.711 105.023 101.992C104.342 101.273 104.001 100.223 104.001 98.842V93.2H104.715V98.814C104.715 100.018 104.99 100.919 105.541 101.516C106.092 102.113 106.89 102.412 107.935 102.412C108.971 102.412 109.764 102.113 110.315 101.516C110.866 100.919 111.141 100.018 111.141 98.814V93.2H111.855V98.842C111.855 100.223 111.51 101.273 110.819 101.992C110.128 102.711 109.162 103.07 107.921 103.07ZM117.763 103.07C117.044 103.07 116.358 102.949 115.705 102.706C115.061 102.454 114.557 102.132 114.193 101.74L114.515 101.208C114.86 101.572 115.322 101.871 115.901 102.104C116.489 102.328 117.105 102.44 117.749 102.44C118.682 102.44 119.387 102.263 119.863 101.908C120.339 101.553 120.577 101.091 120.577 100.522C120.577 100.083 120.451 99.7333 120.199 99.472C119.947 99.2107 119.634 99.01 119.261 98.87C118.887 98.73 118.383 98.5853 117.749 98.436C117.03 98.2587 116.451 98.086 116.013 97.918C115.583 97.75 115.215 97.4933 114.907 97.148C114.608 96.7933 114.459 96.322 114.459 95.734C114.459 95.258 114.585 94.824 114.837 94.432C115.089 94.0307 115.471 93.7133 115.985 93.48C116.507 93.2467 117.156 93.13 117.931 93.13C118.472 93.13 119.004 93.2093 119.527 93.368C120.049 93.5267 120.502 93.7413 120.885 94.012L120.619 94.586C120.227 94.3153 119.793 94.11 119.317 93.97C118.85 93.83 118.388 93.76 117.931 93.76C117.025 93.76 116.339 93.942 115.873 94.306C115.406 94.67 115.173 95.1413 115.173 95.72C115.173 96.1587 115.299 96.5087 115.551 96.77C115.803 97.0313 116.115 97.232 116.489 97.372C116.862 97.512 117.371 97.6613 118.015 97.82C118.733 97.9973 119.307 98.17 119.737 98.338C120.166 98.506 120.53 98.7627 120.829 99.108C121.137 99.444 121.291 99.9013 121.291 100.48C121.291 100.956 121.16 101.39 120.899 101.782C120.647 102.174 120.255 102.487 119.723 102.72C119.191 102.953 118.537 103.07 117.763 103.07ZM130.48 102.356V103H123.718V93.2H130.27V93.844H124.432V97.708H129.654V98.338H124.432V102.356H130.48Z" fill="black"/>
</g>
<defs>
<filter id="filter0_d" x="32.7695" y="93.1299" width="101.71" height="17.94" filterUnits="userSpaceOnUse" color-interpolation-filters="sRGB">
<feFlood flood-opacity="0" result="BackgroundImageFix"/>
<feColorMatrix in="SourceAlpha" type="matrix" values="0 0 0 0 0 0 0 0 0 0 0 0 0 0 0 0 0 0 127 0" result="hardAlpha"/>
<feOffset dy="4"/>
<feGaussianBlur stdDeviation="2"/>
<feColorMatrix type="matrix" values="0 0 0 0 0 0 0 0 0 0 0 0 0 0 0 0 0 0 0.55 0"/>
<feBlend mode="normal" in2="BackgroundImageFix" result="effect1_dropShadow"/>
<feBlend mode="normal" in="SourceGraphic" in2="effect1_dropShadow" result="shape"/>
</filter>
</defs>
</svg>
