<svg width="250" height="250" viewBox="0 0 250 250" fill="none" xmlns="http://www.w3.org/2000/svg">
<path d="M232.878 150.466H18V156.769H232.878V150.466Z" fill="#4F2121"/>
<path d="M90.199 97.7495H35.7632V152.185H90.199V97.7495Z" fill="#4F2121"/>
<path d="M79.3119 108.637H46.6504V141.298H79.3119V108.637Z" fill="#CCCCCC"/>
<path d="M171.567 97.7495H157.814V152.185H171.567V97.7495Z" fill="#4F2121"/>
<path d="M171.567 106.345H157.814V112.648H171.567V106.345Z" fill="#CCCCCC"/>
<path d="M171.567 133.849H157.814V140.152H171.567V133.849Z" fill="#CCCCCC"/>
<path d="M150.365 97.7495H136.613V152.185H150.365V97.7495Z" fill="#4F2121"/>
<path d="M150.365 106.345H136.613V112.648H150.365V106.345Z" fill="#CCCCCC"/>
<path d="M150.365 133.849H136.613V140.152H150.365V133.849Z" fill="#CCCCCC"/>
<path d="M183.416 97.5247L171.091 103.626L195.244 152.411L207.568 146.309L183.416 97.5247Z" fill="#4F2121"/>
<path d="M187.229 105.227L174.905 111.329L177.701 116.978L190.026 110.876L187.229 105.227Z" fill="#CCCCCC"/>
<path d="M199.433 129.876L187.108 135.978L189.905 141.627L202.229 135.525L199.433 129.876Z" fill="#CCCCCC"/>
<path d="M56.1049 119.6L63.0308 131.595L69.9561 143.59H56.1049H42.2544L49.1796 131.595L56.1049 119.6Z" fill="#4F2121"/>
<path d="M68.1381 121.892L75.0634 133.887L81.9893 145.882H68.1381H54.2876L61.2129 133.887L68.1381 121.892Z" fill="#4F2121"/>
<path d="M73.0091 118.378C75.2244 118.378 77.0202 116.582 77.0202 114.367C77.0202 112.151 75.2244 110.355 73.0091 110.355C70.7939 110.355 68.998 112.151 68.998 114.367C68.998 116.582 70.7939 118.378 73.0091 118.378Z" fill="#4F2121"/>
<path d="M18.0001 70.2451L232.878 70.2451V63.942L18.0001 63.942V70.2451Z" fill="#4F2121"/>
<path d="M160.679 65.6611H215.115V11.2253L160.679 11.2253V65.6611Z" fill="#4F2121"/>
<path d="M171.567 54.7739L204.228 54.7739V22.1124L171.567 22.1124V54.7739Z" fill="#CCCCCC"/>
<path d="M79.3123 65.6611H93.0645V11.2253H79.3123V65.6611Z" fill="#4F2121"/>
<path d="M79.3123 26.1235H93.0645V19.8204H79.3123V26.1235Z" fill="#CCCCCC"/>
<path d="M79.3123 53.6279H93.0645V47.3248H79.3123V53.6279Z" fill="#CCCCCC"/>
<path d="M100.513 65.6611H114.266V11.2253H100.513V65.6611Z" fill="#4F2121"/>
<path d="M100.513 26.1235H114.266V19.8204H100.513V26.1235Z" fill="#CCCCCC"/>
<path d="M100.513 53.6279H114.266V47.3248H100.513V53.6279Z" fill="#CCCCCC"/>
<path d="M43.3103 59.7845L55.6348 65.8862L79.7874 17.1019L67.463 11.0002L43.3103 59.7845Z" fill="#4F2121"/>
<path d="M60.8523 24.3514L73.1768 30.4531L75.9734 24.8044L63.6489 18.7027L60.8523 24.3514Z" fill="#CCCCCC"/>
<path d="M48.6492 49.0008L60.9736 55.1025L63.7703 49.4538L51.4458 43.3521L48.6492 49.0008Z" fill="#CCCCCC"/>
<path d="M194.773 33.0757L187.848 45.0708L180.923 57.0658H194.773H208.625L201.699 45.0708L194.773 33.0757Z" fill="#4F2121"/>
<path d="M182.74 35.3677L175.814 47.3627L168.889 59.3578H182.74H196.591L189.666 47.3627L182.74 35.3677Z" fill="#4F2121"/>
<path d="M177.87 31.8532C180.085 31.8532 181.881 30.0574 181.881 27.8421C181.881 25.6269 180.085 23.8311 177.87 23.8311C175.655 23.8311 173.859 25.6269 173.859 27.8421C173.859 30.0574 175.655 31.8532 177.87 31.8532Z" fill="#4F2121"/>
<path d="M18.0001 243.294L232.878 243.294V236.991L18.0001 236.991V243.294Z" fill="#4F2121"/>
<path d="M160.679 238.709H215.115V184.274H160.679V238.709Z" fill="#4F2121"/>
<path d="M171.567 227.823H204.228V195.161H171.567V227.823Z" fill="#CCCCCC"/>
<path d="M79.3123 238.709H93.0645V184.274H79.3123V238.709Z" fill="#4F2121"/>
<path d="M79.3123 199.172H93.0645V192.869H79.3123V199.172Z" fill="#CCCCCC"/>
<path d="M79.3123 226.676H93.0645V220.373H79.3123V226.676Z" fill="#CCCCCC"/>
<path d="M100.513 238.709H114.266V184.274H100.513V238.709Z" fill="#4F2121"/>
<path d="M100.513 199.172H114.266V192.869H100.513V199.172Z" fill="#CCCCCC"/>
<path d="M100.513 226.676H114.266V220.373H100.513V226.676Z" fill="#CCCCCC"/>
<path d="M43.3103 232.833L55.6348 238.935L79.7874 190.15L67.463 184.049L43.3103 232.833Z" fill="#4F2121"/>
<path d="M60.8523 197.4L73.1768 203.502L75.9734 197.853L63.6489 191.752L60.8523 197.4Z" fill="#CCCCCC"/>
<path d="M48.6492 222.049L60.9736 228.151L63.7703 222.502L51.4458 216.4L48.6492 222.049Z" fill="#CCCCCC"/>
<path d="M194.773 206.124L187.848 218.119L180.923 230.115H194.773H208.625L201.699 218.119L194.773 206.124Z" fill="#4F2121"/>
<path d="M182.74 208.416L175.814 220.411L168.889 232.407H182.74H196.591L189.666 220.411L182.74 208.416Z" fill="#4F2121"/>
<path d="M177.87 204.902C180.085 204.902 181.881 203.106 181.881 200.891C181.881 198.676 180.085 196.88 177.87 196.88C175.655 196.88 173.859 198.676 173.859 200.891C173.859 203.106 175.655 204.902 177.87 204.902Z" fill="#4F2121"/>
</svg>
