<?xml version="1.0" encoding="UTF-8" standalone="no"?>
<svg
   xmlns:dc="http://purl.org/dc/elements/1.1/"
   xmlns:cc="http://creativecommons.org/ns#"
   xmlns:rdf="http://www.w3.org/1999/02/22-rdf-syntax-ns#"
   xmlns:svg="http://www.w3.org/2000/svg"
   xmlns="http://www.w3.org/2000/svg"
   xmlns:sodipodi="http://sodipodi.sourceforge.net/DTD/sodipodi-0.dtd"
   xmlns:inkscape="http://www.inkscape.org/namespaces/inkscape"
   width="250"
   height="250"
   viewBox="0 0 250 250"
   fill="none"
   version="1.1"
   id="svg16"
   sodipodi:docname="cabinet2.svg"
   inkscape:version="0.92.5 (2060ec1f9f, 2020-04-08)">
  <metadata
     id="metadata22">
    <rdf:RDF>
      <cc:Work
         rdf:about="">
        <dc:format>image/svg+xml</dc:format>
        <dc:type
           rdf:resource="http://purl.org/dc/dcmitype/StillImage" />
        <dc:title></dc:title>
      </cc:Work>
    </rdf:RDF>
  </metadata>
  <defs
     id="defs20" />
  <sodipodi:namedview
     pagecolor="#ffffff"
     bordercolor="#666666"
     borderopacity="1"
     objecttolerance="10"
     gridtolerance="10"
     guidetolerance="10"
     inkscape:pageopacity="0"
     inkscape:pageshadow="2"
     inkscape:window-width="1920"
     inkscape:window-height="1043"
     id="namedview18"
     showgrid="false"
     inkscape:snap-object-midpoints="false"
     inkscape:snap-page="false"
     inkscape:snap-grids="true"
     inkscape:zoom="1.3350176"
     inkscape:cx="89.597129"
     inkscape:cy="105.9619"
     inkscape:window-x="0"
     inkscape:window-y="0"
     inkscape:window-maximized="1"
     inkscape:current-layer="svg16" />
  <path
     d="M111.57 112.694V94.5675C111.57 93.7663 111.252 92.9978 110.686 92.4313C110.119 91.8647 109.351 91.5464 108.55 91.5464H39.8438C39.0428 91.5464 38.2747 91.8647 37.7083 92.4313C37.142 92.9978 36.8238 93.7663 36.8237 94.5675V112.694H111.57Z"
     id="path2"
     fill="#380909" />
  <path
     d="M111.57 119.492H36.8237V142.905H111.57V119.492Z"
     fill="#380909"
     id="path4" />
  <path
     d="M36.8237 149.703V167.829C36.8238 168.631 37.142 169.399 37.7083 169.966C38.2747 170.532 39.0428 170.85 39.8438 170.85H108.55C109.351 170.85 110.119 170.532 110.686 169.966C111.252 169.399 111.57 168.631 111.57 167.829V149.703H36.8237Z"
     fill="#380909"
     id="path6" />
  <path
     d="M73.819 105.142C75.07 105.142 76.084 104.127 76.084 102.876C76.084 101.624 75.07 100.61 73.819 100.61C72.568 100.61 71.554 101.624 71.554 102.876C71.554 104.127 72.568 105.142 73.819 105.142Z"
     fill="white"
     id="path8" />
  <path
     d="M73.819 135.352C75.07 135.352 76.084 134.338 76.084 133.087C76.084 131.835 75.07 130.821 73.819 130.821C72.568 130.821 71.554 131.835 71.554 133.087C71.554 134.338 72.568 135.352 73.819 135.352Z"
     fill="white"
     id="path10" />
  <path
     d="M73.9403 164.924C75.1913 164.924 76.2054 163.909 76.2054 162.658C76.2054 161.407 75.1913 160.392 73.9403 160.392C72.6894 160.392 71.6753 161.407 71.6753 162.658C71.6753 163.909 72.6894 164.924 73.9403 164.924Z"
     fill="white"
     id="path12" />
  <path
     d="M225.104 86.3638H25.2004C24.3516 86.3638 23.5376 86.7014 22.9374 87.3023C22.3372 87.9033 22 88.7183 22 89.5682C22 90.4181 22.3372 91.2331 22.9374 91.834C23.5376 92.435 24.3516 92.7726 25.2004 92.7726H30.8627V169.432C30.8627 170.282 31.1999 171.097 31.8001 171.698C32.4003 172.299 33.2144 172.637 34.0632 172.637C34.912 172.637 35.726 172.299 36.3262 171.698C36.9264 171.097 37.2636 170.282 37.2636 169.432L37.3122 92.7726H197.755L212.548 169.432C212.548 170.282 212.886 171.097 213.486 171.698C214.086 172.299 214.9 172.637 215.749 172.637C216.598 172.637 217.412 172.299 218.012 171.698C218.612 171.097 218.949 170.282 218.949 169.432L219.88 92.7726H225.104C225.953 92.7726 226.767 92.435 227.367 91.834C227.967 91.2331 228.304 90.4181 228.304 89.5682C228.304 88.7183 227.967 87.9033 227.367 87.3023C226.767 86.7014 225.953 86.3638 225.104 86.3638V86.3638Z"
     fill="#394AE1"
     id="path14" />
</svg>
