<svg width="250" height="250" viewBox="0 0 250 250" fill="none" xmlns="http://www.w3.org/2000/svg">
<path d="M163.42 106.033C155.038 137.019 126.327 156.209 126.327 156.209C126.327 156.209 111.207 125.161 119.589 94.1757C127.971 63.1901 156.682 44 156.682 44C156.682 44 171.803 75.0474 163.42 106.033Z" fill="#0C6E16"/>
<path d="M87.1661 106.033C95.5482 137.019 124.259 156.209 124.259 156.209C124.259 156.209 139.38 125.161 130.998 94.1757C122.615 63.1901 93.9046 44 93.9046 44C93.9046 44 78.7839 75.0474 87.1661 106.033Z" fill="#0C6E16"/>
<path d="M99.4832 99.3737C122.484 121.764 125.293 156.183 125.293 156.183C125.293 156.183 90.811 154.301 67.8102 131.91C44.8094 109.52 42 75.1006 42 75.1006C42 75.1006 76.4823 76.9833 99.4832 99.3737Z" fill="#24B644"/>
<path d="M151.104 99.3737C128.103 121.764 125.293 156.183 125.293 156.183C125.293 156.183 159.776 154.301 182.777 131.91C205.777 109.52 208.587 75.1006 208.587 75.1006C208.587 75.1006 174.104 76.9833 151.104 99.3737Z" fill="#24B644"/>
<path d="M167.05 222.657H84.0504L69.6127 173.438C68.7329 170.438 68.5641 167.275 69.1197 164.199C69.6753 161.123 70.9401 158.219 72.8136 155.717C74.6872 153.215 77.118 151.184 79.9133 149.785C82.7085 148.386 85.7913 147.657 88.9171 147.657H161.526C164.631 147.657 167.694 148.376 170.474 149.757C173.255 151.138 175.679 153.144 177.555 155.618C179.431 158.092 180.709 160.966 181.289 164.016C181.87 167.066 181.736 170.21 180.899 173.199L167.05 222.657Z" fill="#C56D04"/>
</svg>
