<svg width="250" height="250" viewBox="0 0 250 250" fill="none" xmlns="http://www.w3.org/2000/svg">
<path d="M26.5513 155.557H220.138V135.793C220.138 82.4214 176.716 39 123.344 39C69.9727 39 26.5513 82.4214 26.5513 135.793V155.557Z" fill="#3F3D56"/>
<path opacity="0.2" d="M26.5513 155.557H220.138V135.793C220.138 82.4214 176.716 39 123.344 39C69.9727 39 26.5513 82.4214 26.5513 135.793V155.557Z" fill="black"/>
<path d="M51.6411 162.399H200.623C200.481 154.56 197.27 147.091 191.68 141.595C186.09 136.098 178.567 133.015 170.728 133.006H81.5361C73.6967 133.015 66.1736 136.098 60.5836 141.595C54.9935 147.091 51.7827 154.56 51.6411 162.399V162.399Z" fill="#6C63FF"/>
<path d="M33.8994 159.358C50.4125 159.358 63.7989 145.972 63.7989 129.459C63.7989 112.946 50.4125 99.5591 33.8994 99.5591C17.3864 99.5591 4 112.946 4 129.459C4 145.972 17.3864 159.358 33.8994 159.358Z" fill="#3F3D56"/>
<path d="M215.323 159.358C231.836 159.358 245.223 145.972 245.223 129.459C245.223 112.946 231.836 99.5591 215.323 99.5591C198.81 99.5591 185.424 112.946 185.424 129.459C185.424 145.972 198.81 159.358 215.323 159.358Z" fill="#3F3D56"/>
<path d="M192.772 144.662V155.811H54.6767V144.662H23.7637V199.002C23.7637 202.331 25.0863 205.524 27.4405 207.878C29.7948 210.233 32.9878 211.555 36.3172 211.555H211.131C212.78 211.555 214.412 211.231 215.935 210.6C217.458 209.969 218.842 209.044 220.008 207.878C221.173 206.713 222.098 205.329 222.729 203.806C223.36 202.283 223.685 200.65 223.685 199.002V144.662H192.772Z" fill="#3F3D56"/>
<path opacity="0.2" d="M33.8996 135.539C37.2582 135.539 39.9808 132.817 39.9808 129.458C39.9808 126.1 37.2582 123.377 33.8996 123.377C30.541 123.377 27.8184 126.1 27.8184 129.458C27.8184 132.817 30.541 135.539 33.8996 135.539Z" fill="black"/>
<path opacity="0.2" d="M215.323 135.539C218.682 135.539 221.405 132.817 221.405 129.458C221.405 126.1 218.682 123.377 215.323 123.377C211.965 123.377 209.242 126.1 209.242 129.458C209.242 132.817 211.965 135.539 215.323 135.539Z" fill="black"/>
</svg>
