<svg width="250" height="250" viewBox="0 0 250 250" fill="none" xmlns="http://www.w3.org/2000/svg">
<path d="M174.493 47H120.321C120.321 49.3224 61.1042 51.2072 61.1042 51.2072C59.798 52.1913 58.6074 53.3204 57.5555 54.573C54.3943 58.3452 52.6666 63.1133 52.677 68.036V71.4018C52.6791 76.9802 54.8948 82.3297 58.8373 86.2742C62.7798 90.2188 68.1264 92.4357 73.7019 92.4377H174.493C180.068 92.4329 185.413 90.2151 189.355 86.2711C193.296 82.3271 195.513 76.9794 195.518 71.4018V68.036C195.51 62.4593 193.293 57.1132 189.351 53.1699C185.41 49.2265 180.067 47.0077 174.493 47V47Z" fill="#880EE9"/>
<path d="M135.099 91.6021H113.233V217.88H135.099V91.6021Z" fill="#3F3D56"/>
<path d="M51 217.111C51 219.475 84.1343 218.026 125.008 218.026C165.881 218.026 199.015 219.475 199.015 217.111C199.015 214.747 165.881 196.002 125.008 196.002C84.1343 196.002 51 214.747 51 217.111Z" fill="#3F3D56"/>
</svg>
