<svg width="250" height="250" viewBox="0 0 250 250" fill="none" xmlns="http://www.w3.org/2000/svg">
<path d="M28.9462 171.904C30.5997 171.904 31.9402 170.566 31.9402 168.915C31.9402 167.264 30.5997 165.926 28.9462 165.926C27.2926 165.926 25.9521 167.264 25.9521 168.915C25.9521 170.566 27.2926 171.904 28.9462 171.904Z" fill="#24FE00"/>
<path d="M218.069 171.904C219.722 171.904 221.063 170.566 221.063 168.915C221.063 167.264 219.722 165.926 218.069 165.926C216.415 165.926 215.075 167.264 215.075 168.915C215.075 170.566 216.415 171.904 218.069 171.904Z" fill="#24FE00"/>
<path d="M83.8362 127.32H36.9299C34.7469 127.318 32.6541 126.451 31.1106 124.91C29.567 123.369 28.6988 121.28 28.6963 119.101V87.2194C28.6988 85.0403 29.567 82.951 31.1106 81.4101C32.6541 79.8692 34.7469 79.0025 36.9299 79H83.8362C86.0191 79.0025 88.1119 79.8692 89.6555 81.4101C91.199 82.951 92.0673 85.0403 92.0697 87.2194V119.101C92.0672 121.28 91.199 123.369 89.6554 124.91C88.1119 126.451 86.0191 127.318 83.8362 127.32V127.32Z" fill="#E1C639"/>
<path d="M146.96 127.569H100.053C97.8705 127.567 95.7777 126.7 94.2341 125.159C92.6905 123.618 91.8223 121.529 91.8198 119.35V87.4685C91.8223 85.2893 92.6905 83.2001 94.2341 81.6592C95.7777 80.1183 97.8705 79.2515 100.053 79.249H146.96C149.143 79.2515 151.235 80.1183 152.779 81.6592C154.323 83.2001 155.191 85.2893 155.193 87.4685V119.35C155.191 121.529 154.323 123.618 152.779 125.159C151.235 126.7 149.143 127.567 146.96 127.569V127.569Z" fill="#42A208"/>
<path d="M210.084 127.818H163.177C160.994 127.816 158.902 126.949 157.358 125.408C155.815 123.867 154.946 121.778 154.944 119.599V87.7175C154.946 85.5383 155.815 83.4491 157.358 81.9082C158.902 80.3673 160.994 79.5005 163.177 79.498H210.084C212.267 79.5005 214.359 80.3673 215.903 81.9082C217.447 83.4491 218.315 85.5383 218.317 87.7175V119.599C218.315 121.778 217.447 123.867 215.903 125.408C214.359 126.949 212.267 127.816 210.084 127.818V127.818Z" fill="#E1C639"/>
<path d="M228.048 125.577H21.4609V168.666H228.048V125.577Z" fill="#E1C639"/>
<path d="M28.9461 168.916H19.964C15.424 168.916 11.7305 164.729 11.7305 159.583V114.618H28.9461V168.916Z" fill="#79A108"/>
<path d="M227.05 168.915H218.068V107.643H235.284V158.384C235.284 164.191 231.59 168.915 227.05 168.915Z" fill="#79A108"/>
<path d="M92.3197 134.544H28.9463V121.094C50.0708 108.997 71.1953 108.997 92.3197 121.094V134.544Z" fill="#453434"/>
<path d="M155.443 134.793H92.0693V121.343C113.194 109.246 134.318 109.246 155.443 121.343V134.793Z" fill="#453434"/>
<path d="M218.567 135.042H155.194V121.592C176.318 109.495 197.443 109.495 218.567 121.592V135.042Z" fill="#453434"/>
<path d="M16.7206 126.075C24.8505 126.075 31.4412 119.495 31.4412 111.379C31.4412 103.263 24.8505 96.6841 16.7206 96.6841C8.59063 96.6841 2 103.263 2 111.379C2 119.495 8.59063 126.075 16.7206 126.075Z" fill="#453434"/>
<path d="M232.29 125.577C240.42 125.577 247.011 118.997 247.011 110.881C247.011 102.765 240.42 96.186 232.29 96.186C224.16 96.186 217.57 102.765 217.57 110.881C217.57 118.997 224.16 125.577 232.29 125.577Z" fill="#453434"/>
</svg>
