<svg width="216" height="468" viewBox="0 0 216 468" fill="none" xmlns="http://www.w3.org/2000/svg">
<path d="M101.719 0.00693972C101.719 0.00693972 69.7467 -1.28924 68.8826 31.5473C68.0184 64.3838 45.0073 240.702 45.0073 240.702H155.513L132.827 33.2755C132.827 33.2755 131.531 2.16723 101.719 0.00693972Z" fill="#2F2E41"/>
<path d="M89.2383 58.5267C89.2383 58.5267 91.1365 80.0393 84.8093 81.9375C78.482 83.8357 87.3402 111.043 87.3402 111.043L112.649 116.737L127.202 87.632L120.874 79.4066C120.874 79.4066 110.118 64.854 115.18 54.7304C120.242 44.6068 89.2383 58.5267 89.2383 58.5267Z" fill="#FFB9B9"/>
<path opacity="0.1" d="M89.2383 58.5267C89.2383 58.5267 91.1365 80.0393 84.8093 81.9375C78.482 83.8357 87.3402 111.043 87.3402 111.043L112.649 116.737L127.202 87.632L120.874 79.4066C120.874 79.4066 110.118 64.854 115.18 54.7304C120.242 44.6068 89.2383 58.5267 89.2383 58.5267Z" fill="black"/>
<path d="M98.0963 68.6504C109.702 67.5091 118.945 55.8557 122.772 43.9743C122.772 30.346 111.725 19.2981 98.0963 19.2981C84.468 19.2981 75.5459 30.346 75.5459 43.9743C81.2882 59.0704 89.6103 69.485 98.0963 68.6504Z" fill="#FFB9B9"/>
<rect x="81.9756" y="36.1656" width="11.2515" height="1.60736" fill="black"/>
<rect x="102.068" y="36.1656" width="11.2515" height="1.60736" fill="black"/>
<line x1="83.5835" y1="41.5951" x2="90.8166" y2="41.5951" stroke="black" stroke-width="2"/>
<line x1="104.479" y1="41.5951" x2="111.712" y2="41.5951" stroke="black" stroke-width="2"/>
<path d="M94.8348 56.2576L92.022 57.4631H91.6201L92.022 57.8649L98.0496 62.2852L104.881 58.2668L103.273 57.4631L100.862 56.2576L97.6477 57.4631L94.8348 56.2576Z" fill="#BF7373"/>
<circle cx="86.7978" cy="43.3987" r="1.60736" fill="black"/>
<circle cx="108.497" cy="43.3987" r="1.60736" fill="black"/>
<path d="M155.339 153.651C155.339 153.651 174.713 153.216 173.829 164.5C172.945 175.784 170.237 234.844 170.237 234.844C170.237 234.844 177.256 267.186 162.614 262.065C147.973 256.945 158.956 239.924 158.956 239.924C158.956 239.924 158.696 192.504 155.338 188.267C151.981 184.031 155.339 153.651 155.339 153.651Z" fill="#FFB9B9"/>
<path d="M56.3369 219.238C56.3369 219.238 48.1115 264.162 52.5406 289.47C55.148 305.225 54.7184 321.332 51.2751 336.925L75.9513 339.456C75.9513 339.456 91.7693 245.813 100.628 246.445C109.486 247.078 128.467 340.721 128.467 340.721L155.042 336.925C155.042 336.925 146.816 295.165 150.613 282.511C154.409 269.856 151.878 224.3 142.387 219.238C132.896 214.177 56.3369 219.238 56.3369 219.238Z" fill="#1D0D59"/>
<path d="M78.482 336.925C78.482 336.925 50.0095 327.434 47.4786 334.394C44.9477 341.354 45.5804 419.179 46.2132 424.24C46.8459 429.302 48.744 426.771 46.8458 429.302C44.9477 431.833 44.9477 426.139 45.5804 433.099C46.2132 440.059 46.8459 441.324 46.8459 441.324C46.8459 441.324 35.4569 467.898 55.704 467.266C75.9511 466.633 66.4603 447.651 66.4603 447.651C66.4603 447.651 69.6239 441.957 67.7257 438.793C65.8275 435.629 65.1948 430.568 67.7257 428.037C70.2566 425.506 65.1948 420.444 64.5621 418.546C63.9294 416.648 62.0312 417.28 67.093 410.953C72.1548 404.626 69.6239 401.462 68.9911 399.564C68.3584 397.666 73.4202 386.277 73.4202 386.277L78.482 336.925Z" fill="#036D2D"/>
<path d="M126.569 336.925C126.569 336.925 155.041 327.434 157.572 334.394C160.103 341.354 159.47 419.179 158.838 424.24C158.205 429.302 156.307 426.771 158.205 429.302C160.103 431.833 160.103 426.139 159.47 433.099C158.838 440.059 158.205 441.324 158.205 441.324C158.205 441.324 169.594 467.898 149.347 467.266C129.1 466.633 138.591 447.651 138.591 447.651C138.591 447.651 135.427 441.957 137.325 438.793C139.223 435.629 139.856 430.568 137.325 428.037C134.794 425.506 139.856 420.444 140.489 418.546C141.121 416.648 143.02 417.281 137.958 410.953C132.896 404.626 135.427 401.462 136.06 399.564C136.692 397.666 131.631 386.277 131.631 386.277L126.569 336.925Z" fill="#036D2D"/>
<path d="M99.3613 102.185C99.3613 102.185 94.9322 88.8976 92.4014 86.3668C89.8705 83.8359 88.2284 77.2866 88.2284 77.2866C88.2284 77.2866 74.0524 82.5704 70.2561 83.8359C66.4598 85.1013 53.8053 85.1013 53.8053 86.9995V127.494C53.8053 127.494 52.5399 135.719 55.0708 156.599C57.6016 177.479 65.1943 190.133 56.3362 198.991C47.4781 207.849 55.0708 229.362 59.4998 233.158C63.9289 236.955 149.979 256.569 150.612 210.38C150.612 210.38 129.732 173.682 138.59 161.661C147.448 149.639 155.041 129.392 155.041 129.392V88.8977C155.041 88.8977 141.121 84.4686 136.692 83.8359C132.263 83.2032 121.507 71.1814 120.241 71.8142C118.976 72.4469 116.53 71.79 116.53 71.79L116.445 80.6723L99.3613 102.185Z" fill="#036D2D"/>
<path d="M32.4722 145.853C32.4722 145.853 24.1195 174.396 31.7021 180.767C39.2847 187.137 63.5401 209.734 63.5401 209.734C63.5401 209.734 75.1598 230.214 84.529 224.781C93.8982 219.348 74.7295 202.134 74.7295 202.134L48.2127 174.312L48.4526 154.105L32.4722 145.853Z" fill="#FFB9B9"/>
<path d="M53.8238 85.2414L44.9429 88.3402C44.9429 88.3402 40.1457 99.5256 40.9402 100.511C41.7346 101.496 40.3849 109.9 39.5114 113.856C38.6379 117.812 32.1403 123.866 32.9348 124.851C33.7292 125.836 24.7713 159.074 28.7274 159.948C32.6836 160.821 46.2361 164.522 49.6835 161.741C53.1309 158.961 54.3529 143.343 55.4332 141.659C56.5134 139.974 64.2331 118.303 70.3496 115.808C76.4662 113.313 53.8238 85.2414 53.8238 85.2414Z" fill="#036D2D"/>
<path d="M153.112 87.9487L163.979 93.6783C163.979 93.6783 170.597 121.371 170.68 122.262C170.763 123.153 183.483 163.309 179.194 165.505C174.905 167.701 155.283 159.64 152.6 154.947C149.917 150.253 143.464 124.343 135.923 120.551C128.381 116.758 153.112 87.9487 153.112 87.9487Z" fill="#036D2D"/>
<path d="M124.354 36.0652C127.358 23.4489 126.129 20.0977 126.129 20.0977L87.676 10.5924L74.2822 23.5542V36.948L75.6341 41.127C75.6341 41.127 81.1951 36.948 79.0348 30.8992C79.0348 30.8992 122.193 45.1385 124.354 36.0652Z" fill="#2F2E41"/>
<path d="M124.023 52.1774L120.553 64.8449C126.026 65.0709 118.543 215.737 117.739 239.949H122.561L123.365 182.034V239.949H125.776L126.781 122.159V239.949H133.009L130.197 40.184L124.023 52.1774Z" fill="#2F2E41"/>
<path d="M74.3688 44.2906C75.4172 44.2906 76.267 42.4493 76.267 40.1779C76.267 37.9065 75.4172 36.0652 74.3688 36.0652C73.3205 36.0652 72.4707 37.9065 72.4707 40.1779C72.4707 42.4493 73.3205 44.2906 74.3688 44.2906Z" fill="#FFB9B9"/>
<path d="M123.089 44.2906C124.137 44.2906 124.987 42.4493 124.987 40.1779C124.987 37.9065 124.137 36.0652 123.089 36.0652C122.04 36.0652 121.19 37.9065 121.19 40.1779C121.19 42.4493 122.04 44.2906 123.089 44.2906Z" fill="#FFB9B9"/>
</svg>
