<svg width="155" height="481" viewBox="0 0 155 481" fill="none" xmlns="http://www.w3.org/2000/svg">
<rect width="27.433" height="32.0051" transform="matrix(-1 0 0 1 83.4419 73.1547)" fill="#E1893A"/>
<path d="M69.1539 77.7268C85.8829 77.7268 99.4445 63.9094 99.4445 46.8647C99.4445 29.82 85.8829 16.0026 69.1539 16.0026C52.4248 16.0026 38.8633 29.82 38.8633 46.8647C38.8633 63.9094 52.4248 77.7268 69.1539 77.7268Z" fill="#333333"/>
<path d="M88.9535 94.8674C88.9535 94.8674 59.1908 88.0091 42.8213 100.583C26.4518 113.156 63.6552 141.732 63.6552 141.732L88.9535 94.8674Z" fill="#2F2E41"/>
<path d="M119.732 258.874C119.136 257.303 118.891 255.621 119.015 253.945C119.14 252.269 119.63 250.641 120.452 249.175C121.273 247.71 122.407 246.442 123.771 245.461C125.136 244.481 126.699 243.811 128.35 243.5L134.365 203.099L150.171 217.266L142.036 253.46C142.375 256.269 141.671 259.104 140.059 261.429C138.447 263.754 136.038 265.407 133.289 266.074C130.54 266.741 127.641 266.377 125.142 265.05C122.644 263.723 120.719 261.526 119.732 258.874H119.732Z" fill="#F8A55A"/>
<path d="M57.4309 468.61L71.4137 467.681L74.4885 413.307L53.8521 414.676L57.4309 468.61Z" fill="#F8A55A"/>
<path d="M98.7271 480.353H54.6848V463.337H81.7107C86.2237 463.337 90.5519 465.13 93.7431 468.321C96.9343 471.512 98.7271 475.84 98.7271 480.353V480.353V480.353Z" fill="#F63E3E"/>
<path d="M81.5957 449.253L94.7418 454.105L119.716 405.707L100.313 398.546L81.5957 449.253Z" fill="#F8A55A"/>
<path d="M115.59 475.672L74.2726 460.42L80.1652 444.457L105.519 453.816C109.753 455.378 113.192 458.559 115.081 462.658C116.97 466.757 117.153 471.438 115.59 475.672Z" fill="#F73E3E"/>
<path d="M119.821 240.362C119.821 240.362 133.982 247.987 129.624 278.487L125.267 393.951L101.196 446.587L80.4992 441.141L93.6781 398.308L76.2496 323.147L73.9635 459.659L54.3564 462.926L26.1426 236.005L62.0889 219.665L119.821 240.362Z" fill="#2F2E41"/>
<path d="M69.2066 81.9091C84.7116 81.9091 97.2809 69.3399 97.2809 53.8349C97.2809 38.3299 84.7116 25.7606 69.2066 25.7606C53.7016 25.7606 41.1323 38.3299 41.1323 53.8349C41.1323 69.3399 53.7016 81.9091 69.2066 81.9091Z" fill="#F8A55A"/>
<path d="M45.5458 32.4303C45.5458 32.4303 62.0945 56.2845 94.872 35.6969L84.6117 23.8812L69.2671 20.8575L45.5458 32.4303Z" fill="#333333"/>
<path d="M46.3379 22.1324C47.1769 19.3121 48.627 16.7515 50.5663 14.6657C56.3746 8.42958 65.9003 7.11604 70.7865 0C71.0519 0.503623 71.2172 1.06208 71.2716 1.63934C71.326 2.2166 71.2684 2.79984 71.1024 3.35141C70.9364 3.90299 70.6657 4.41065 70.3078 4.84162C69.9499 5.27259 69.5128 5.6173 69.0246 5.85351C73.7229 5.82163 79.1317 5.37529 81.7745 1.19238C82.4286 2.84532 82.6372 4.66582 82.3763 6.44241C82.1154 8.21899 81.3955 9.87872 80.3004 11.2288C84.4466 11.4328 88.8747 14.4871 89.1449 18.9889C89.3211 21.9858 87.5945 24.8233 85.3217 26.5449C83.0489 28.2665 80.3063 29.0508 77.6048 29.7012C69.7235 31.6013 41.1933 39.5144 46.3379 22.1324Z" fill="#333333"/>
<path d="M85.5084 89.4962L71.3477 112.371L50.6513 91.6748L11.9597 118.759C10.6022 119.707 9.60619 121.087 9.13424 122.673C8.66229 124.26 8.74232 125.96 9.36125 127.496C15.3129 142.213 30.5539 185.714 26.1424 236.005C26.1424 236.005 55.5531 228.38 86.053 237.094C116.553 245.808 124.178 242.541 124.178 242.541C124.178 242.541 116.553 186.987 120.91 175.005C124.524 165.066 131.886 131.893 134.291 120.869C134.518 119.828 134.404 118.741 133.967 117.77C133.529 116.798 132.79 115.993 131.86 115.473L85.5084 89.4962Z" fill="#EAAD11"/>
<path d="M130.738 115.606C131.936 115.435 133.155 115.706 134.167 116.368C135.18 117.03 135.916 118.039 136.239 119.205L154.678 185.79L150.321 226.094L129.625 222.826L131.803 194.504L116.553 158.558L126.62 119.297C126.865 118.344 127.386 117.484 128.119 116.827C128.852 116.17 129.764 115.745 130.738 115.606V115.606Z" fill="#EAAD11"/>
<path d="M31.8844 274.877C32.4807 273.306 32.7252 271.623 32.6009 269.947C32.4765 268.272 31.9862 266.644 31.1645 265.178C30.3428 263.712 29.2098 262.444 27.8451 261.464C26.4805 260.483 24.9174 259.814 23.2661 259.503L17.2513 219.102L1.44531 233.269L9.58032 269.463C9.24161 272.271 9.94497 275.107 11.5571 277.432C13.1693 279.756 15.5782 281.409 18.3275 282.076C21.0768 282.744 23.9753 282.38 26.474 281.053C28.9726 279.726 30.8977 277.528 31.8844 274.877V274.877Z" fill="#F8A55A"/>
<path d="M12.3572 118.374C10.7076 118.649 9.2016 119.479 8.08911 120.728C6.97662 121.977 6.32451 123.568 6.24099 125.238L0 250.058H22.8749L30.4999 183.612L20.7961 124.419C20.6401 123.467 20.2979 122.556 19.7891 121.736C19.2803 120.917 18.6148 120.207 17.8309 119.645C17.047 119.084 16.16 118.682 15.2207 118.464C14.2814 118.246 13.3083 118.215 12.3572 118.374V118.374Z" fill="#EAAD11"/>
<path d="M41.7209 65.1532C43.9304 65.1532 45.7215 61.5709 45.7215 57.1519C45.7215 52.7329 43.9304 49.1506 41.7209 49.1506C39.5114 49.1506 37.7202 52.7329 37.7202 57.1519C37.7202 61.5709 39.5114 65.1532 41.7209 65.1532Z" fill="#F8A55A"/>
<path d="M97.7301 64.0103C99.9396 64.0103 101.731 60.4279 101.731 56.0089C101.731 51.59 99.9396 48.0077 97.7301 48.0077C95.5206 48.0077 93.7295 51.59 93.7295 56.0089C93.7295 60.4279 95.5206 64.0103 97.7301 64.0103Z" fill="#F8A55A"/>
<path d="M82.2987 66.2964H56.0088C57.2607 69.8746 60.5892 76.5838 69.3624 76.5838C78.1257 76.5838 81.0468 69.4273 82.2987 66.2964Z" fill="#555555"/>
<path d="M82.2987 66.2964H56.0088C57.2607 68.2843 60.5892 72.0116 69.3624 72.0116C78.1257 72.0116 81.0468 68.0358 82.2987 66.2964Z" fill="white"/>
<circle cx="82.2988" cy="51.4368" r="2.28608" fill="black"/>
<line x1="78.8696" y1="49.2938" x2="85.7279" y2="49.2938" stroke="black" stroke-width="2"/>
<circle r="2.28608" transform="matrix(-1 0 0 1 55.1182 51.4368)" fill="black"/>
<line y1="-1" x2="6.85825" y2="-1" transform="matrix(-1 0 0 1 58.5474 50.2938)" stroke="black" stroke-width="2"/>
</svg>
