<svg width="170" height="495" viewBox="0 0 170 495" fill="none" xmlns="http://www.w3.org/2000/svg">
<path d="M119.996 479.869H136.183L143.883 417.435H119.993L119.996 479.869Z" fill="#FBD7D7"/>
<path d="M152.513 475.243H116.528V494.898H167.4V490.13C167.4 486.182 165.831 482.395 163.04 479.603C160.248 476.812 156.461 475.243 152.513 475.243Z" fill="#0085FF"/>
<path d="M55.302 479.869H71.488L79.188 417.435H55.298L55.302 479.869Z" fill="#FBD7D7"/>
<rect width="24" height="28" transform="matrix(-1 0 0 1 99.2202 64)" fill="#EFBCBC"/>
<path d="M87.8181 475.243H51.8331V494.898H102.705V490.13C102.705 486.182 101.137 482.395 98.3448 479.603C95.5529 476.812 91.7663 475.243 87.8181 475.243Z" fill="#0085FF"/>
<path d="M148.197 299.886C146.877 298.648 145.844 297.135 145.172 295.455C144.499 293.775 144.204 291.967 144.305 290.16C144.407 288.353 144.904 286.59 145.761 284.996C146.617 283.401 147.813 282.014 149.264 280.932L142.329 253.504L157.969 245.225L167.218 284.096C168.876 286.654 169.538 289.731 169.078 292.744C168.618 295.757 167.068 298.497 164.723 300.443C162.378 302.39 159.4 303.409 156.354 303.306C153.307 303.203 150.405 301.986 148.196 299.886H148.197Z" fill="#FBD7D7"/>
<path d="M49.5451 251.979L50.8651 344.4L52.1831 465.867L81.2291 463.226L95.7551 295.549L114.239 463.226H144.227L147.247 294.226L136.683 257.26L49.5451 251.979Z" fill="#2F2E41"/>
<path d="M139.583 257.824L140.008 257.632L123.454 144.405L131.87 110.182C132.308 108.401 132.077 106.522 131.221 104.9C130.366 103.278 128.945 102.026 127.228 101.382L112.086 95.704L106.737 80.993L64.5311 85.541L63.4931 97.041C58.9191 98.508 21.2561 111.051 23.8551 125.341C26.4201 139.448 41.5641 183.83 42.3331 186.079L44.9832 249.729L45.3091 249.892C45.7021 250.092 74.7932 264.392 106.398 264.392C117.525 264.389 128.973 262.614 139.583 257.824Z" fill="#0085FF"/>
<path d="M167.766 269.709L154.46 184.547C154.381 184.047 146.508 134.192 143.897 118.527C141.197 102.354 128.681 102.167 128.555 102.167H121.665L113.606 138.432L129.483 211.196L144.13 271.496L167.766 269.709Z" fill="#0085FF"/>
<path d="M81.4541 261.304C81.3685 259.496 80.8874 257.729 80.045 256.127C79.2025 254.525 78.019 253.128 76.578 252.032C75.1369 250.937 73.4733 250.172 71.7043 249.789C69.9353 249.406 68.1039 249.416 66.3391 249.818L49.9671 226.745L33.5191 233.274L57.0971 265.532C57.9678 268.453 59.88 270.953 62.4711 272.558C65.0622 274.163 68.1522 274.761 71.1551 274.24C74.1581 273.718 76.8653 272.113 78.7636 269.728C80.6618 267.344 81.6192 264.345 81.4541 261.302V261.304Z" fill="#FBD7D7"/>
<path d="M63.4941 241.462L34.3831 192.505L46.2432 160.88L30.0911 117.806L29.4911 118.062C29.1002 118.229 19.9231 122.325 18.5621 136.992L0.00012207 195.329L49.5391 259.596L63.4941 241.462Z" fill="#0085FF"/>
<path d="M87.2858 74C69 68.5 56.8968 60.1117 56.8968 43.3283C56.8968 26.5449 70.5024 12.9393 87.2858 12.9393C104.069 12.9393 117.675 26.5449 117.675 43.3283C117.675 60.1117 101.5 68.5 87.2858 74Z" fill="#FBD7D7"/>
<path d="M67.4764 28.523C70.6224 32.246 75.9454 33.2961 80.8564 33.7231C90.8304 34.5981 105.332 33.179 115.079 30.929C115.779 37.671 113.879 44.941 117.849 50.488C119.711 43.7732 120.793 36.8664 121.075 29.9041C121.195 26.9181 121.148 23.829 119.935 21.088C118.722 18.347 116.075 16.02 113.028 15.996C115.292 14.2789 117.945 13.1456 120.75 12.696L111.101 7.84705L113.579 5.30304L96.1104 4.23404L101.17 1.02005C93.5522 -0.0260682 85.8452 -0.268422 78.1763 0.297029C74.6163 0.559029 70.8943 1.06005 68.0103 3.12305C65.1263 5.18605 63.4593 9.28505 65.2503 12.3131C63.0086 12.6812 60.898 13.6156 59.1184 15.0276C57.3389 16.4397 55.9493 18.2827 55.0813 20.3821C53.7953 23.6421 53.9133 27.263 54.3093 30.737C54.9672 36.293 56.2583 41.7554 58.1573 47.018" fill="#A4560E"/>
<path d="M75.3171 57.6488C79.3866 63.1261 90.3009 70.9071 101.402 58.2127" stroke="#EB7676" stroke-width="2"/>
<circle cx="98.3879" cy="42.5164" r="1.89253" fill="#45889D"/>
<rect width="9.87873" height="1.28566" transform="matrix(0.907361 0.420353 -0.550483 0.834846 96.2568 34)" fill="#663202"/>
<line x1="95.5491" y1="40.5702" x2="101.227" y2="40.5702" stroke="#BF5C00" stroke-width="2"/>
<circle r="1.89253" transform="matrix(-1 0 0 1 76.8326 42.5164)" fill="#45889D"/>
<rect width="9.87873" height="1.28566" transform="matrix(-0.907361 0.420353 0.550483 0.834846 78.9636 34)" fill="#663202"/>
<line y1="-1" x2="5.67758" y2="-1" transform="matrix(-1 0 0 1 79.6714 41.5702)" stroke="#BF5C00" stroke-width="2"/>
<path d="M78.3265 36.6348H69.9868C68.4227 36.6348 67.1548 38.3299 67.1548 40.4209V42.2138C67.1548 44.3049 68.4227 46 69.9868 46H78.3265C79.8906 46 81.1585 44.3049 81.1585 42.2138V40.4209C81.1585 38.3299 79.8906 36.6348 78.3265 36.6348Z" stroke="#BF8754" stroke-miterlimit="10"/>
<path d="M95.8849 45.9913H104.225C105.789 45.9913 107.057 44.2963 107.057 42.2052V40.4123C107.057 38.3213 105.789 36.6262 104.225 36.6262H95.8849C94.3208 36.6262 93.0529 38.3213 93.0529 40.4123V42.2052C93.0529 44.2963 94.3208 45.9913 95.8849 45.9913Z" stroke="#BF8754" stroke-miterlimit="10"/>
<path d="M81 40C81 40 85.1969 37.75 93 40" stroke="#BF8754" stroke-miterlimit="10"/>
<path d="M107 41L116 31" stroke="#BF8754" stroke-linecap="round" stroke-linejoin="round"/>
<path d="M67.1549 41.3176L62.5 36.5" stroke="#BF8754" stroke-linecap="round" stroke-linejoin="round"/>
<path d="M57.5 51C59.433 51 61 47.866 61 44C61 40.134 59.433 37 57.5 37C55.567 37 54 40.134 54 44C54 47.866 55.567 51 57.5 51Z" fill="#FBD7D7"/>
<path d="M117.5 51C119.433 51 121 47.866 121 44C121 40.134 119.433 37 117.5 37C115.567 37 114 40.134 114 44C114 47.866 115.567 51 117.5 51Z" fill="#FBD7D7"/>
</svg>
