<svg width="141" height="500" viewBox="0 0 141 500" fill="none" xmlns="http://www.w3.org/2000/svg">
<path d="M123.282 450.5L126.282 472.5L105.282 474.5L108.282 447.5L123.282 450.5Z" fill="#A0616A"/>
<path d="M24.282 148.5C24.282 148.5 26.282 175.5 26.282 176.5C26.282 177.5 12.282 246.5 12.282 246.5C12.282 246.5 -7.71804 284.5 12.282 283.5C32.282 282.5 26.282 247.5 26.282 247.5L47.282 189.5L38.282 148.5H24.282Z" fill="#A0616A"/>
<path d="M57.282 450.5L54.282 472.5L75.282 474.5L72.282 447.5L57.282 450.5Z" fill="#A0616A"/>
<path d="M38.2822 62.5C38.2822 62.5 42.2822 82.5 42.2822 85.5C42.2822 88.5 59.2822 97.5 59.2822 97.5L78.2822 73.5C78.2822 73.5 66.2822 56.5 66.2822 52.5L38.2822 62.5Z" fill="#8D535B"/>
<path d="M34.2821 244.5L29.2821 251.5C29.2821 251.5 26.2821 281.5 29.2821 291.5C32.2821 301.5 38.2821 347.5 38.2821 350.5C38.2821 353.5 39.2821 355.5 38.2821 356.5C37.2821 357.5 34.2821 357.5 36.2821 359.5C38.2821 361.5 38.2821 367.5 38.2821 367.5V372.5L51.2821 446.5C51.2821 446.5 43.2821 455.5 49.2821 455.5C55.2821 455.5 77.2821 455.5 76.2821 445.5L74.2821 444.5C74.2821 444.5 71.2821 378.5 72.2821 375.5C73.2821 372.5 72.2821 366.5 72.2821 366.5C72.2821 366.5 70.2821 363.5 72.2821 362.5C74.2821 361.5 74.2821 353.5 74.2821 353.5L83.2821 292.5C83.2821 292.5 91.2821 333.5 96.2821 337.5C101.282 341.5 100.282 351.5 100.282 351.5L104.282 439.5C104.282 439.5 100.282 449.5 104.282 451.5C108.282 453.5 125.282 460.5 126.282 450.5C127.282 440.5 132.282 353.5 132.282 349.5C132.282 345.5 131.282 343.5 132.282 340.5C133.282 337.5 131.282 337.5 132.282 337.5C133.282 337.5 130.282 334.5 130.282 332.5V283.5C130.282 283.5 131.282 273.5 132.282 271.5C133.282 269.5 131.282 267.5 132.282 264.5C133.282 261.5 130.282 251.5 130.282 251.5L85.2821 239.5L34.2821 244.5Z" fill="#2F2E41"/>
<path d="M69.2821 468.5C69.2821 468.5 74.2821 463.5 67.2821 463.5C62.7881 463.592 58.3618 464.613 54.2821 466.5L49.2821 484.5C49.2821 484.5 28.7821 501 51.7821 499C74.7821 497 71.2821 498.5 71.2821 498.5C71.2821 498.5 78.2821 496.5 79.2821 494.5C80.2821 492.5 77.2821 463.5 77.2821 463.5C77.2821 463.5 74.2821 471.5 69.2821 468.5Z" fill="#DDD404"/>
<path d="M112.282 468.5C112.282 468.5 107.282 463.5 114.282 463.5C118.776 463.592 123.202 464.613 127.282 466.5L132.282 484.5C132.282 484.5 152.782 501 129.782 499C106.782 497 107.282 498.5 107.282 498.5C107.282 498.5 100.282 496.5 99.2821 494.5C98.2821 492.5 104.282 463.5 104.282 463.5C104.282 463.5 107.282 471.5 112.282 468.5Z" fill="#DDD404"/>
<path d="M47.282 69.5C59.9998 67 69.9998 52.8594 69.9998 38.5C69.9998 24.1406 61.6414 17.5 47.282 17.5C32.9226 17.5 23.9998 22.6406 23.9998 37C23.9998 51.3594 32.9226 69.5 47.282 69.5Z" fill="#A0616A"/>
<path d="M53.282 88.5C53.282 88.5 44.5662 86.1802 41.9241 82.3401C41.9241 82.3401 14.282 109.5 14.282 114.5L36.282 153.5C36.282 153.5 36.282 167.5 38.282 168.5C40.282 169.5 38.282 168.5 38.282 172.5C38.282 176.5 32.282 202.5 34.282 206.5C36.282 210.5 38.282 207.5 36.282 213.5C34.282 219.5 29.282 251.5 29.282 251.5C29.282 251.5 47.282 245.5 73.282 255.5C99.282 265.5 130.282 251.5 130.282 251.5C130.282 251.5 122.282 233.5 124.282 227.5C126.282 221.5 119.282 210.5 119.282 210.5L114.282 118.5C114.282 118.5 121.282 77.5 116.282 75.5L106.282 71.5L74.2579 67.5641C74.2579 67.5641 66.282 87.5 53.282 88.5Z" fill="#FF5252"/>
<path d="M24.282 107.5L14.282 114.5C14.282 114.5 9.28204 129.5 14.282 136.5C19.282 143.5 21.282 153.5 21.282 153.5L41.282 151.5L24.282 107.5Z" fill="#FF5252"/>
<path d="M98.2821 116.5C98.2821 116.5 92.4912 131.391 93.7009 146.124C93.9221 148.762 94.8103 151.3 96.2821 153.5L25.3376 187.181C25.3376 187.181 -6.71795 190.5 1.28205 204.5C9.28205 218.5 38.282 197.5 38.282 197.5C38.282 197.5 114.282 186.5 120.282 175.5C126.282 164.5 130.282 118.5 130.282 118.5L98.2821 116.5Z" fill="#A0616A"/>
<path d="M30.24 15.4775L25.9885 13.7334C25.9885 13.7334 34.8779 3.70456 47.246 4.57666L43.7674 0.652295C43.7674 0.652295 52.2703 -2.83596 60.0003 6.32072C64.0638 11.1343 68.7653 16.7922 71.6962 23.1659H76.2493L74.349 27.4536L80.9999 31.7412L74.1734 30.9711C74.82 34.6727 74.5987 38.4789 73.5277 42.0757L69.426 46C69.426 46 65.7977 32.9189 65.7977 31.1747V35.5351C65.7977 35.5351 61.5463 31.6108 61.5463 28.9946L59.2273 32.0469L58.0678 27.2504L43.7674 32.0469L46.0864 28.1226L37.197 29.4307L40.6755 24.6343C40.6755 24.6343 30.6266 30.3027 30.24 35.0991C29.8534 39.8956 24.8292 46 24.8292 46L22.5102 41.6396C22.5102 41.6396 19.0316 22.0181 30.24 15.4775Z" fill="#2F2E41"/>
<path d="M101.282 75.5H116.282C116.282 75.5 127.282 77.5 130.282 97.5C133.282 117.5 136.282 122.5 133.282 122.5C130.282 122.5 94.282 121.5 94.282 120.5C94.282 119.5 101.282 75.5 101.282 75.5Z" fill="#FF5252"/>
<path d="M26.5 50C28.433 50 30 47.5376 30 44.5C30 41.4624 28.433 39 26.5 39C24.567 39 23 41.4624 23 44.5C23 47.5376 24.567 50 26.5 50Z" fill="#A0616A"/>
<path d="M68.5 50C70.433 50 72 47.5376 72 44.5C72 41.4624 70.433 39 68.5 39C66.567 39 65 41.4624 65 44.5C65 47.5376 66.567 50 68.5 50Z" fill="#A0616A"/>
<path d="M38.0608 54.0601C41.1686 58.243 49.5035 64.1851 57.9813 54.4907" stroke="#950404" stroke-width="2"/>
<circle cx="55.6792" cy="42.5038" r="1.44528" fill="#1B0E02"/>
<rect width="7.54417" height="0.981827" transform="matrix(0.907361 0.420353 -0.550483 0.834846 54.052 36)" fill="#663202"/>
<line x1="53.5112" y1="40.7811" x2="57.8471" y2="40.7811" stroke="#1B0E02" stroke-width="2"/>
<circle r="1.44528" transform="matrix(-1 0 0 1 39.218 42.5038)" fill="#1B0E02"/>
<rect width="7.54417" height="0.981827" transform="matrix(-0.907361 0.420353 0.550483 0.834846 40.8452 36)" fill="#663202"/>
<line y1="-1" x2="4.33585" y2="-1" transform="matrix(-1 0 0 1 41.386 41.7811)" stroke="#1B0E02" stroke-width="2"/>
<path d="M27.78 19.4333C28.2934 20.2659 28.8552 21.0678 29.4625 21.8347C30.6221 23.3002 31.9234 24.6477 33.3476 25.8576C34.1861 26.588 35.0616 27.2746 35.9708 27.9148C37.656 29.1011 39.4276 30.1594 41.2708 31.0811C46.6397 33.7884 52.4521 35.4863 58.2339 37.1612C62.0119 38.2625 65.7925 39.3612 69.5757 40.4574C73.5297 43.4477 86.7759 53.26 89.0015 52.0363C91.6246 50.5909 77.2499 40.4146 77.2499 40.4146L76.5889 40.9163C78.6921 39.5932 79.7933 36.5264 80.2675 33.8725C81.1088 29.1232 81.5065 24.1903 80.3823 19.4945C79.258 14.8063 76.4359 10.34 72.1378 8.14501C70.2335 7.16601 67.9238 6.50069 66.5471 4.99407C66.3385 4.77103 66.1563 4.52466 66.0041 4.25984C65.9209 4.13671 65.8492 4.00617 65.79 3.86986C65.6381 3.4562 65.4351 3.06312 65.1858 2.69975C64.3981 1.78965 62.9679 2.06494 61.7748 2.21025C61.6448 2.22552 61.5225 2.24084 61.3924 2.24849C61.179 2.27014 60.9646 2.28034 60.7501 2.27907C56.4902 2.37084 52.3603 1.60377e-05 48.0469 1.60377e-05C43.3205 -0.00764396 39.2977 2.73033 35.1372 4.59642C34.2959 4.97881 33.5005 5.32299 32.751 5.67476C29.7455 7.07434 27.4817 8.56569 26.2427 12.5426C25.5238 14.8675 26.5105 17.3683 27.78 19.4333Z" fill="#F80000"/>
</svg>
