<svg width="250" height="250" viewBox="0 0 250 250" fill="none" xmlns="http://www.w3.org/2000/svg">
<path d="M187.043 94.1014V64.0145C187.043 62.6846 186.515 61.4091 185.575 60.4687C184.635 59.5283 183.36 59 182.031 59H68.0118C66.6826 59 65.4079 59.5283 64.468 60.4687C63.5281 61.4091 63 62.6846 63 64.0145V94.1014H187.043Z" fill="#FE0000"/>
<path d="M187.043 105.384H63V144.246H187.043V105.384Z" fill="#FE0000"/>
<path d="M63 155.529V185.616C63 186.946 63.5281 188.221 64.468 189.162C65.4079 190.102 66.6826 190.63 68.0118 190.63H182.031C183.36 190.63 184.635 190.102 185.575 189.162C186.515 188.221 187.043 186.946 187.043 185.616V155.529H63Z" fill="#FE0000"/>
<path d="M124.395 81.5652C126.471 81.5652 128.153 79.8814 128.153 77.8043C128.153 75.7273 126.471 74.0435 124.395 74.0435C122.319 74.0435 120.636 75.7273 120.636 77.8043C120.636 79.8814 122.319 81.5652 124.395 81.5652Z" fill="white"/>
<path d="M124.395 131.71C126.471 131.71 128.153 130.026 128.153 127.949C128.153 125.872 126.471 124.188 124.395 124.188C122.319 124.188 120.636 125.872 120.636 127.949C120.636 130.026 122.319 131.71 124.395 131.71Z" fill="white"/>
<path d="M124.596 180.793C126.672 180.793 128.355 179.109 128.355 177.032C128.355 174.955 126.672 173.271 124.596 173.271C122.52 173.271 120.837 174.955 120.837 177.032C120.837 179.109 122.52 180.793 124.596 180.793Z" fill="white"/>
</svg>
