<svg width="176" height="484" viewBox="0 0 176 484" fill="none" xmlns="http://www.w3.org/2000/svg">
<path d="M113.066 106.217L71.5317 95.8335C80.5328 82.3266 86.2765 69.711 85.3766 58.9138H111.913C110.255 76.4236 110.255 92.5189 113.066 106.217Z" fill="#F3BDAB"/>
<path d="M166.436 275.363C163.875 275.485 161.367 274.611 159.437 272.924C157.507 271.238 156.305 268.869 156.083 266.315L154.602 249.281L167.293 244.666L174.97 261.3C175.65 262.775 175.959 264.394 175.867 266.016C175.775 267.638 175.286 269.213 174.444 270.601C173.601 271.99 172.43 273.151 171.034 273.981C169.637 274.811 168.058 275.286 166.436 275.363Z" fill="#F7D3C8"/>
<path d="M106.144 76.2198C119.525 76.2198 130.373 65.3723 130.373 51.9912C130.373 38.6102 119.525 27.7627 106.144 27.7627C92.763 27.7627 81.9155 38.6102 81.9155 51.9912C81.9155 65.3723 92.763 76.2198 106.144 76.2198Z" fill="#F7D3C8"/>
<path d="M126.911 252.742H63.4555C50.1935 186 53.57 128.995 76.1467 84.2961C76.8177 82.6871 77.1768 80.9651 77.2046 79.222C77.2575 78.604 77.4622 78.0087 77.8004 77.4888C78.1387 76.9689 78.6001 76.5406 79.1436 76.2418C79.6872 75.9431 80.2961 75.7832 80.9163 75.7764C81.5365 75.7695 82.1488 75.9159 82.6989 76.2025C92.1152 81.0886 102.137 84.7062 112.503 86.961C113.084 87.0876 113.627 87.3501 114.088 87.7269C114.548 88.1036 114.912 88.5841 115.151 89.1288C115.39 89.6735 115.496 90.267 115.462 90.8608C115.427 91.4546 115.253 92.0318 114.952 92.5451C114.607 93.0118 114.364 93.5454 114.238 94.1118C114.112 94.6782 114.106 95.2647 114.22 95.8335C129.308 146.686 133.63 200.126 126.911 252.742Z" fill="#FFB6F8"/>
<path d="M119.989 446.571L101.529 448.878L89.9919 285.047L50.7649 444.264L31.1509 445.417L50.7649 241.205H130.373L119.989 446.571Z" fill="#6C63FF"/>
<path d="M52.7625 482.326L39.1571 483.563C29.9606 480.813 31.8019 470.526 30.3184 458.725L32.3882 442.167L35.2844 441.566C39.5399 432.921 44.3977 432.071 49.964 440.392L51.5758 440.097L53.6456 453.551L59.3112 472.672C59.6282 473.742 59.7038 474.869 59.5327 475.972C59.3615 477.074 58.9478 478.125 58.3214 479.049C57.6949 479.972 56.8714 480.745 55.9101 481.312C54.9488 481.879 53.8738 482.225 52.7625 482.326Z" fill="#2F2E41"/>
<path d="M121.987 482.326L108.382 483.563C99.1852 480.813 101.026 470.526 99.543 458.725L101.613 442.167L104.509 441.566C108.764 432.921 113.622 432.071 119.189 440.392L120.8 440.097L122.87 453.551L128.536 472.672C128.853 473.742 128.928 474.869 128.757 475.972C128.586 477.074 128.172 478.125 127.546 479.049C126.92 479.972 126.096 480.745 125.135 481.312C124.173 481.879 123.098 482.225 121.987 482.326Z" fill="#2F2E41"/>
<path d="M95.7602 302.353L20.7671 288.508C41.7755 223.975 50.6346 160.99 38.196 100.721C37.5991 97.8619 38.1435 94.8828 39.713 92.4196C41.2824 89.9565 43.7526 88.2044 46.5962 87.5376L70.378 81.9885L83.0691 72.7585L95.7602 90.0647V302.353Z" fill="#151081"/>
<path d="M138.449 297.738L115.374 303.507C121.089 240.721 116.236 170.963 104.99 96.9873L110.759 84.2961L115.951 88.3343L134.587 108.642C136.128 109.67 137.39 111.064 138.259 112.7C139.128 114.336 139.576 116.162 139.565 118.014L138.449 297.738Z" fill="#151081"/>
<path d="M169.6 245.82L151.14 255.05L117.682 174.288L134.988 126.985L169.6 245.82Z" fill="#151081"/>
<path d="M62.1489 230.678C59.8888 231.888 57.2482 232.175 54.7808 231.481C52.3134 230.786 50.2108 229.163 48.9138 226.952L40.2622 212.204L49.7425 202.587L63.8177 214.313C65.0658 215.353 66.0394 216.683 66.6529 218.187C67.2665 219.692 67.5011 221.323 67.3363 222.94C67.1715 224.556 66.6123 226.107 65.7078 227.456C64.8033 228.805 63.5812 229.912 62.1489 230.678Z" fill="#F7D3C8"/>
<path d="M50.7646 199.67L42.6884 223.899C20.7426 210.406 5.3484 192.043 0 166.212L20.4141 107.632C22.2522 102.358 25.5278 97.7018 29.8713 94.19C34.2149 90.6782 39.4534 88.4501 44.9959 87.7573L47.3034 143.137L31.151 170.827L50.7646 199.67Z" fill="#151081"/>
<path d="M100.729 47.9127C101.713 45.5615 101.319 43.157 99.8495 42.5421C98.38 41.9272 96.3911 43.3348 95.4073 45.6861C94.4235 48.0373 94.8173 50.4418 96.2868 51.0567C97.7563 51.6716 99.7452 50.264 100.729 47.9127Z" fill="#F7D3C8"/>
<path d="M87.5107 16.9287C89.0015 14.3717 91.1627 12.2808 93.7556 10.8868C96.3485 9.49286 99.2722 8.85007 102.204 9.02945C105.27 9.41803 108.263 10.2645 111.084 11.541L125.699 17.3019C129.481 18.7926 133.623 20.6186 135.265 24.3704C136.788 27.8526 135.651 31.8741 134.501 35.4995L129.033 52.7325C128.427 48.8322 127.387 45.0134 125.934 41.3488C124.345 37.7457 121.833 34.4233 118.36 32.6229C114.564 30.655 110.089 30.6957 105.827 30.903C99.791 31.1965 93.2281 31.9725 88.9395 36.2743C86.6629 38.7174 85.1195 41.7632 84.4887 45.0577C83.8678 48.3346 83.5553 51.6636 83.5553 55C81.0801 50.7009 78.9951 46.1842 77.3258 41.5052C75.9526 38.0212 75.1701 34.3284 75.0112 30.5817C74.8677 26.803 76.1085 23.1035 78.4961 20.1915C80.9653 17.403 84.9887 15.8976 88.527 17.0015" fill="#2F2E41"/>
<path d="M136.574 30.897C135.165 23.7751 131.314 17.3249 125.664 12.6233C120.014 7.92159 112.907 5.25282 105.528 5.06241L112.424 13.0765C102.249 11.463 91.7432 8.70342 83.1859 14.2609C85.4962 14.6411 87.5802 20.0405 89.8905 20.4206C85.5777 19.6764 81.1114 21.8857 78.4854 25.3003C75.9796 28.8454 74.7323 33.1075 74.9343 37.4343C74.9874 41.728 79.5975 52.651 80.5982 56.838C82.2372 46.715 107.073 26.5999 116.461 31.0064C111.095 31.8646 106.12 34.2654 102.163 37.906C109.517 35.8771 117.346 36.1216 124.588 38.6064C126.214 39.3159 127.949 39.7498 129.719 39.8898C130.821 39.8884 131.901 39.6097 132.858 39.0804C133.815 38.5511 134.615 37.7887 135.184 36.8663C135.752 35.9438 136.068 34.892 136.103 33.8114C136.138 32.7307 135.89 31.6572 135.383 30.6934L136.574 30.897Z" fill="#333333"/>
<path d="M81.5 59C83.433 59 85 55.866 85 52C85 48.134 83.433 45 81.5 45C79.567 45 78 48.134 78 52C78 55.866 79.567 59 81.5 59Z" fill="#F7D3C8"/>
<path d="M129.5 59C131.433 59 133 55.866 133 52C133 48.134 131.433 45 129.5 45C127.567 45 126 48.134 126 52C126 55.866 127.567 59 129.5 59Z" fill="#F7D3C8"/>
<circle cx="119" cy="50" r="2" fill="black"/>
<rect width="10.4397" height="1.35866" transform="matrix(0.907361 0.420353 -0.550483 0.834846 116.749 41)" fill="black"/>
<line x1="116" y1="48" x2="122" y2="48" stroke="black" stroke-width="2"/>
<circle r="2" transform="matrix(-1 0 0 1 95.2207 50)" fill="black"/>
<rect width="10.4397" height="1.35866" transform="matrix(-0.907361 0.420353 0.550483 0.834846 97.4727 41)" fill="black"/>
<line y1="-1" x2="6" y2="-1" transform="matrix(-1 0 0 1 98.2207 49)" stroke="black" stroke-width="2"/>
<path d="M101.5 70.5C104.5 71.5 105.5 68.8333 104.5 68H111.5C110.667 68.5 111.5 71 113.5 71C116 71 123 64.5 127 55.5C128.2 56.7 129 62.5 129 63.5C127 73.5 126.614 75.1302 120.5 81C108 93 92.5002 84 88.5003 80C85.3381 76.8377 82.0002 70.5 82.5002 67.5C82.9002 65.1 83.6671 58.6667 84.5005 55.5H87.0003C88.5273 58.5541 92.3065 63.6067 96 67L101 61H114L119 67L113.5 63.5H101.5L96 67C97.6427 68.3723 99.8574 69.9523 101.5 70.5Z" fill="#2F2E41"/>
<path d="M100.5 65L104 67H111L114 65" stroke="#F27E7E"/>
</svg>
